%
M48
M72
T01C0.0118
T02C0.0236
T03C0.0394
T04C0.0551
T05C0.1260
%
T01
X10769Y15257
X11557Y15257
X12265Y15257
X12974Y15257
X13683Y15257
X14470Y13761
X14628Y12738
X14234Y12738
X691Y12974
X2108Y11714
X2817Y12344
X3210Y11006
X3053Y10533
X3919Y9824
X3604Y9509
X3053Y9273
X2344Y7777
X2344Y6754
X3761Y6675
X5100Y8643
X4864Y9116
X5809Y8565
X6675Y8565
X8013Y9194
X9194Y8328
X9667Y7069
X10454Y7462
X12108Y7069
X14628Y5651
X15415Y4706
X15809Y6124
X16281Y6990
X16439Y7935
X17935Y8643
X18328Y8250
X18722Y8801
X19667Y8643
X19352Y6990
X18171Y6281
X16990Y5415
X20612Y3525
X23131Y6439
X24549Y10139
X21399Y12187
X21793Y13525
X20139Y14391
X20061Y16202
X21320Y17462
X19509Y18722
X18643Y19588
X16911Y17856
X15966Y17856
X14470Y18643
X13525Y18486
X12817Y19194
X12108Y19273
X11872Y18801
X10927Y18880
X9982Y18880
X9667Y18801
X8801Y18801
X8250Y18801
X8958Y18013
X9194Y17147
X8250Y16202
X6754Y17541
X6045Y18565
X6911Y19588
X6990Y20691
X6832Y21872
X8092Y22895
X7541Y23604
X8722Y21478
X8722Y20691
X9037Y19746
X9824Y20376
X10612Y21163
X9746Y22108
X9431Y21950
X10139Y22187
X10691Y22502
X10533Y23446
X10139Y23683
X10376Y24628
X13210Y23998
X14313Y23289
X15415Y24549
X13840Y21478
X13919Y20927
X14549Y20927
X13210Y20612
X12423Y19982
X12029Y20691
X11557Y20218
X11320Y19903
X11635Y21399
X11635Y21714
X16754Y19431
X17305Y16202
X18092Y14391
X18250Y13131
X19746Y10927
X17856Y10376
X12423Y12738
X11006Y12738
X10533Y12738
X6990Y12895
X4470Y12344
X1320Y8801
X1006Y9982
X5966Y6832
X6911Y5887
X8328Y7069
X6675Y2265
X12108Y612
X17147Y1399
X24785Y13919
X23998Y17226
X22187Y20297
X19431Y22895
X14943Y15179
X4943Y21950
X2817Y19588
X1242Y16517
T02
X8958Y12817
X8958Y12344
X8958Y11872
T03
X10769Y11118
X14706Y14358
X18840Y12738
X19824Y12738
X19824Y13722
X20809Y12738
X19824Y11754
X13722Y5651
X12738Y5651
X12738Y4667
X11754Y5651
X12738Y6635
T04
X14706Y11118
X10769Y14358
T05
X5257Y5257
X5257Y20218
X20218Y5257
X20218Y20218
M30
