G75*
%MOIN*%
%OFA0B0*%
%FSLAX25Y25*%
%IPPOS*%
%LPD*%
%AMOC8*
5,1,8,0,0,1.08239X$1,22.5*
%
%ADD10C,0.00394*%
%ADD11C,0.05906*%
%ADD12C,0.23000*%
%ADD13R,0.08661X0.02362*%
%ADD14R,0.04331X0.03937*%
%ADD15R,0.03937X0.04331*%
%ADD16R,0.05000X0.10000*%
%ADD17C,0.00984*%
%ADD18R,0.11811X0.03150*%
%ADD19R,0.04724X0.05512*%
%ADD20R,0.04724X0.04724*%
%ADD21R,0.03937X0.05512*%
%ADD22R,0.08504X0.07008*%
%ADD23R,0.04724X0.06299*%
%ADD24R,0.05118X0.05906*%
%ADD25C,0.01339*%
%ADD26C,0.00591*%
%ADD27R,0.06299X0.07087*%
%ADD28R,0.07087X0.06299*%
%ADD29C,0.00000*%
%ADD30R,0.06299X0.07098*%
%ADD31R,0.05512X0.03937*%
%ADD32R,0.04449X0.09606*%
%ADD33C,0.00787*%
%ADD34C,0.02381*%
%ADD35C,0.03562*%
%ADD36C,0.03150*%
%ADD37C,0.01575*%
D10*
X0001394Y0127378D02*
X0001432Y0130470D01*
X0001546Y0133560D01*
X0001735Y0136646D01*
X0002001Y0139727D01*
X0002341Y0142800D01*
X0002758Y0145864D01*
X0003249Y0148916D01*
X0003815Y0151956D01*
X0004455Y0154981D01*
X0005170Y0157990D01*
X0005958Y0160980D01*
X0006819Y0163949D01*
X0007753Y0166897D01*
X0008759Y0169821D01*
X0009836Y0172719D01*
X0010984Y0175590D01*
X0012202Y0178432D01*
X0013490Y0181243D01*
X0014846Y0184022D01*
X0016270Y0186766D01*
X0017761Y0189475D01*
X0019318Y0192147D01*
X0020940Y0194779D01*
X0022626Y0197371D01*
X0024375Y0199921D01*
X0026187Y0202427D01*
X0028059Y0204887D01*
X0029991Y0207301D01*
X0031982Y0209667D01*
X0034030Y0211984D01*
X0036134Y0214249D01*
X0038294Y0216462D01*
X0040507Y0218622D01*
X0042772Y0220726D01*
X0045089Y0222774D01*
X0047455Y0224765D01*
X0049869Y0226697D01*
X0052329Y0228569D01*
X0054835Y0230381D01*
X0057385Y0232130D01*
X0059977Y0233816D01*
X0062609Y0235438D01*
X0065281Y0236995D01*
X0067990Y0238486D01*
X0070734Y0239910D01*
X0073513Y0241266D01*
X0076324Y0242554D01*
X0079166Y0243772D01*
X0082037Y0244920D01*
X0084935Y0245997D01*
X0087859Y0247003D01*
X0090807Y0247937D01*
X0093776Y0248798D01*
X0096766Y0249586D01*
X0099775Y0250301D01*
X0102800Y0250941D01*
X0105840Y0251507D01*
X0108892Y0251998D01*
X0111956Y0252415D01*
X0115029Y0252755D01*
X0118110Y0253021D01*
X0121196Y0253210D01*
X0124286Y0253324D01*
X0127378Y0253362D01*
X0130470Y0253324D01*
X0133560Y0253210D01*
X0136646Y0253021D01*
X0139727Y0252755D01*
X0142800Y0252415D01*
X0145864Y0251998D01*
X0148916Y0251507D01*
X0151956Y0250941D01*
X0154981Y0250301D01*
X0157990Y0249586D01*
X0160980Y0248798D01*
X0163949Y0247937D01*
X0166897Y0247003D01*
X0169821Y0245997D01*
X0172719Y0244920D01*
X0175590Y0243772D01*
X0178432Y0242554D01*
X0181243Y0241266D01*
X0184022Y0239910D01*
X0186766Y0238486D01*
X0189475Y0236995D01*
X0192147Y0235438D01*
X0194779Y0233816D01*
X0197371Y0232130D01*
X0199921Y0230381D01*
X0202427Y0228569D01*
X0204887Y0226697D01*
X0207301Y0224765D01*
X0209667Y0222774D01*
X0211984Y0220726D01*
X0214249Y0218622D01*
X0216462Y0216462D01*
X0218622Y0214249D01*
X0220726Y0211984D01*
X0222774Y0209667D01*
X0224765Y0207301D01*
X0226697Y0204887D01*
X0228569Y0202427D01*
X0230381Y0199921D01*
X0232130Y0197371D01*
X0233816Y0194779D01*
X0235438Y0192147D01*
X0236995Y0189475D01*
X0238486Y0186766D01*
X0239910Y0184022D01*
X0241266Y0181243D01*
X0242554Y0178432D01*
X0243772Y0175590D01*
X0244920Y0172719D01*
X0245997Y0169821D01*
X0247003Y0166897D01*
X0247937Y0163949D01*
X0248798Y0160980D01*
X0249586Y0157990D01*
X0250301Y0154981D01*
X0250941Y0151956D01*
X0251507Y0148916D01*
X0251998Y0145864D01*
X0252415Y0142800D01*
X0252755Y0139727D01*
X0253021Y0136646D01*
X0253210Y0133560D01*
X0253324Y0130470D01*
X0253362Y0127378D01*
X0253324Y0124286D01*
X0253210Y0121196D01*
X0253021Y0118110D01*
X0252755Y0115029D01*
X0252415Y0111956D01*
X0251998Y0108892D01*
X0251507Y0105840D01*
X0250941Y0102800D01*
X0250301Y0099775D01*
X0249586Y0096766D01*
X0248798Y0093776D01*
X0247937Y0090807D01*
X0247003Y0087859D01*
X0245997Y0084935D01*
X0244920Y0082037D01*
X0243772Y0079166D01*
X0242554Y0076324D01*
X0241266Y0073513D01*
X0239910Y0070734D01*
X0238486Y0067990D01*
X0236995Y0065281D01*
X0235438Y0062609D01*
X0233816Y0059977D01*
X0232130Y0057385D01*
X0230381Y0054835D01*
X0228569Y0052329D01*
X0226697Y0049869D01*
X0224765Y0047455D01*
X0222774Y0045089D01*
X0220726Y0042772D01*
X0218622Y0040507D01*
X0216462Y0038294D01*
X0214249Y0036134D01*
X0211984Y0034030D01*
X0209667Y0031982D01*
X0207301Y0029991D01*
X0204887Y0028059D01*
X0202427Y0026187D01*
X0199921Y0024375D01*
X0197371Y0022626D01*
X0194779Y0020940D01*
X0192147Y0019318D01*
X0189475Y0017761D01*
X0186766Y0016270D01*
X0184022Y0014846D01*
X0181243Y0013490D01*
X0178432Y0012202D01*
X0175590Y0010984D01*
X0172719Y0009836D01*
X0169821Y0008759D01*
X0166897Y0007753D01*
X0163949Y0006819D01*
X0160980Y0005958D01*
X0157990Y0005170D01*
X0154981Y0004455D01*
X0151956Y0003815D01*
X0148916Y0003249D01*
X0145864Y0002758D01*
X0142800Y0002341D01*
X0139727Y0002001D01*
X0136646Y0001735D01*
X0133560Y0001546D01*
X0130470Y0001432D01*
X0127378Y0001394D01*
X0124286Y0001432D01*
X0121196Y0001546D01*
X0118110Y0001735D01*
X0115029Y0002001D01*
X0111956Y0002341D01*
X0108892Y0002758D01*
X0105840Y0003249D01*
X0102800Y0003815D01*
X0099775Y0004455D01*
X0096766Y0005170D01*
X0093776Y0005958D01*
X0090807Y0006819D01*
X0087859Y0007753D01*
X0084935Y0008759D01*
X0082037Y0009836D01*
X0079166Y0010984D01*
X0076324Y0012202D01*
X0073513Y0013490D01*
X0070734Y0014846D01*
X0067990Y0016270D01*
X0065281Y0017761D01*
X0062609Y0019318D01*
X0059977Y0020940D01*
X0057385Y0022626D01*
X0054835Y0024375D01*
X0052329Y0026187D01*
X0049869Y0028059D01*
X0047455Y0029991D01*
X0045089Y0031982D01*
X0042772Y0034030D01*
X0040507Y0036134D01*
X0038294Y0038294D01*
X0036134Y0040507D01*
X0034030Y0042772D01*
X0031982Y0045089D01*
X0029991Y0047455D01*
X0028059Y0049869D01*
X0026187Y0052329D01*
X0024375Y0054835D01*
X0022626Y0057385D01*
X0020940Y0059977D01*
X0019318Y0062609D01*
X0017761Y0065281D01*
X0016270Y0067990D01*
X0014846Y0070734D01*
X0013490Y0073513D01*
X0012202Y0076324D01*
X0010984Y0079166D01*
X0009836Y0082037D01*
X0008759Y0084935D01*
X0007753Y0087859D01*
X0006819Y0090807D01*
X0005958Y0093776D01*
X0005170Y0096766D01*
X0004455Y0099775D01*
X0003815Y0102800D01*
X0003249Y0105840D01*
X0002758Y0108892D01*
X0002341Y0111956D01*
X0002001Y0115029D01*
X0001735Y0118110D01*
X0001546Y0121196D01*
X0001432Y0124286D01*
X0001394Y0127378D01*
D11*
X0117535Y0056512D03*
X0127378Y0056512D03*
X0137220Y0056512D03*
X0127378Y0046669D03*
X0127378Y0066354D03*
X0188402Y0127378D03*
X0198244Y0127378D03*
X0198244Y0137220D03*
X0208087Y0127378D03*
X0198244Y0117535D03*
D12*
X0202181Y0052575D03*
X0202181Y0202181D03*
X0052575Y0202181D03*
X0052575Y0052575D03*
D13*
X0176197Y0167122D03*
X0176197Y0172122D03*
X0176197Y0177122D03*
X0176197Y0182122D03*
X0196669Y0182122D03*
X0196669Y0177122D03*
X0196669Y0172122D03*
X0196669Y0167122D03*
D14*
X0165370Y0172260D03*
X0158677Y0172260D03*
X0136827Y0162220D03*
X0136827Y0155528D03*
X0129740Y0155528D03*
X0129740Y0162220D03*
X0122654Y0162220D03*
X0122654Y0155528D03*
X0115567Y0155528D03*
X0115567Y0162220D03*
X0107693Y0162220D03*
X0107693Y0155528D03*
X0124228Y0171276D03*
X0124228Y0177969D03*
X0101394Y0175213D03*
X0101394Y0181906D03*
X0081709Y0181512D03*
X0081709Y0188205D03*
X0081906Y0194307D03*
X0081906Y0200606D03*
X0075213Y0200606D03*
X0075213Y0194307D03*
X0075213Y0222654D03*
X0081906Y0222654D03*
X0095094Y0227181D03*
X0101394Y0227181D03*
X0101394Y0233874D03*
X0095094Y0233874D03*
X0119307Y0206118D03*
X0126000Y0206118D03*
X0149425Y0220094D03*
X0149425Y0226787D03*
X0151197Y0134465D03*
X0144504Y0134465D03*
X0135449Y0127378D03*
X0128756Y0127378D03*
X0054150Y0131906D03*
X0054150Y0138598D03*
X0043913Y0138598D03*
X0043913Y0131906D03*
X0034465Y0131906D03*
X0034465Y0138598D03*
X0024228Y0138598D03*
X0024228Y0131906D03*
X0026000Y0097457D03*
X0019307Y0097457D03*
X0019307Y0084858D03*
X0026000Y0084858D03*
D15*
X0026000Y0091157D03*
X0019307Y0091157D03*
X0019307Y0103756D03*
X0019307Y0110055D03*
X0026000Y0110055D03*
X0026000Y0103756D03*
X0033677Y0116945D03*
X0039976Y0116945D03*
X0039976Y0123638D03*
X0033677Y0123638D03*
X0047850Y0104740D03*
X0047850Y0098047D03*
X0075409Y0181512D03*
X0075409Y0188205D03*
X0088795Y0227181D03*
X0088795Y0233874D03*
X0143717Y0177772D03*
X0150409Y0177772D03*
X0148835Y0154937D03*
X0142142Y0154937D03*
X0173638Y0188795D03*
X0180331Y0188795D03*
X0174819Y0085646D03*
X0168126Y0085646D03*
D16*
X0174622Y0076197D03*
X0174622Y0044701D03*
D17*
X0108087Y0198342D02*
X0108087Y0200508D01*
X0106118Y0200508D02*
X0106118Y0198342D01*
X0104150Y0198342D02*
X0104150Y0200508D01*
X0102181Y0200508D02*
X0102181Y0198342D01*
X0100213Y0198342D02*
X0100213Y0200508D01*
X0098244Y0200508D02*
X0098244Y0198342D01*
X0096276Y0198342D02*
X0096276Y0200508D01*
X0094996Y0201787D02*
X0092830Y0201787D01*
X0092830Y0203756D02*
X0094996Y0203756D01*
X0094996Y0205724D02*
X0092830Y0205724D01*
X0092830Y0207693D02*
X0094996Y0207693D01*
X0094996Y0209661D02*
X0092830Y0209661D01*
X0092830Y0211630D02*
X0094996Y0211630D01*
X0094996Y0213598D02*
X0092830Y0213598D01*
X0096276Y0214878D02*
X0096276Y0217044D01*
X0098244Y0217044D02*
X0098244Y0214878D01*
X0100213Y0214878D02*
X0100213Y0217044D01*
X0102181Y0217044D02*
X0102181Y0214878D01*
X0104150Y0214878D02*
X0104150Y0217044D01*
X0106118Y0217044D02*
X0106118Y0214878D01*
X0108087Y0214878D02*
X0108087Y0217044D01*
X0109366Y0213598D02*
X0111532Y0213598D01*
X0111532Y0211630D02*
X0109366Y0211630D01*
X0109366Y0209661D02*
X0111532Y0209661D01*
X0111532Y0207693D02*
X0109366Y0207693D01*
X0109366Y0205724D02*
X0111532Y0205724D01*
X0111532Y0203756D02*
X0109366Y0203756D01*
X0109366Y0201787D02*
X0111532Y0201787D01*
D18*
X0118717Y0225252D03*
X0118717Y0230252D03*
X0118717Y0235252D03*
X0118717Y0240252D03*
X0118717Y0245252D03*
X0134465Y0245252D03*
X0134465Y0235252D03*
X0134465Y0230252D03*
X0134465Y0225252D03*
D19*
X0081906Y0215961D03*
X0075213Y0215961D03*
X0075213Y0207299D03*
X0081906Y0207299D03*
D20*
X0149425Y0232693D03*
X0149425Y0240961D03*
D21*
X0116157Y0181315D03*
X0108677Y0181315D03*
X0112417Y0172654D03*
X0129937Y0178165D03*
X0137417Y0178165D03*
X0143323Y0170291D03*
X0150803Y0170291D03*
X0147063Y0161630D03*
X0133677Y0169504D03*
X0121669Y0138795D03*
X0114189Y0138795D03*
X0117929Y0130134D03*
X0179543Y0096276D03*
X0187024Y0096276D03*
X0183283Y0087614D03*
D22*
X0126591Y0102850D03*
X0110055Y0102850D03*
X0110055Y0118874D03*
X0126591Y0118874D03*
X0093520Y0118874D03*
X0093520Y0102850D03*
D23*
X0060055Y0113205D03*
X0048244Y0113205D03*
X0139583Y0096669D03*
X0151394Y0096669D03*
X0151394Y0079346D03*
X0139583Y0079346D03*
D24*
X0144898Y0088008D03*
X0152378Y0088008D03*
D25*
X0040291Y0093992D02*
X0034937Y0093992D01*
X0034937Y0099346D01*
X0040291Y0099346D01*
X0040291Y0093992D01*
X0040291Y0095330D02*
X0034937Y0095330D01*
X0034937Y0096668D02*
X0040291Y0096668D01*
X0040291Y0098006D02*
X0034937Y0098006D01*
X0034937Y0099344D02*
X0040291Y0099344D01*
D26*
X0039878Y0102870D02*
X0039288Y0102870D01*
X0039288Y0107004D01*
X0039878Y0107004D01*
X0039878Y0102870D01*
X0039878Y0103460D02*
X0039288Y0103460D01*
X0039288Y0104050D02*
X0039878Y0104050D01*
X0039878Y0104640D02*
X0039288Y0104640D01*
X0039288Y0105230D02*
X0039878Y0105230D01*
X0039878Y0105820D02*
X0039288Y0105820D01*
X0039288Y0106410D02*
X0039878Y0106410D01*
X0039878Y0107000D02*
X0039288Y0107000D01*
X0037909Y0102870D02*
X0037319Y0102870D01*
X0037319Y0107004D01*
X0037909Y0107004D01*
X0037909Y0102870D01*
X0037909Y0103460D02*
X0037319Y0103460D01*
X0037319Y0104050D02*
X0037909Y0104050D01*
X0037909Y0104640D02*
X0037319Y0104640D01*
X0037319Y0105230D02*
X0037909Y0105230D01*
X0037909Y0105820D02*
X0037319Y0105820D01*
X0037319Y0106410D02*
X0037909Y0106410D01*
X0037909Y0107000D02*
X0037319Y0107000D01*
X0035941Y0102870D02*
X0035351Y0102870D01*
X0035351Y0107004D01*
X0035941Y0107004D01*
X0035941Y0102870D01*
X0035941Y0103460D02*
X0035351Y0103460D01*
X0035351Y0104050D02*
X0035941Y0104050D01*
X0035941Y0104640D02*
X0035351Y0104640D01*
X0035351Y0105230D02*
X0035941Y0105230D01*
X0035941Y0105820D02*
X0035351Y0105820D01*
X0035351Y0106410D02*
X0035941Y0106410D01*
X0035941Y0107000D02*
X0035351Y0107000D01*
X0033972Y0102870D02*
X0033382Y0102870D01*
X0033382Y0107004D01*
X0033972Y0107004D01*
X0033972Y0102870D01*
X0033972Y0103460D02*
X0033382Y0103460D01*
X0033382Y0104050D02*
X0033972Y0104050D01*
X0033972Y0104640D02*
X0033382Y0104640D01*
X0033382Y0105230D02*
X0033972Y0105230D01*
X0033972Y0105820D02*
X0033382Y0105820D01*
X0033382Y0106410D02*
X0033972Y0106410D01*
X0033972Y0107000D02*
X0033382Y0107000D01*
X0041256Y0102870D02*
X0041846Y0102870D01*
X0041256Y0102870D02*
X0041256Y0107004D01*
X0041846Y0107004D01*
X0041846Y0102870D01*
X0041846Y0103460D02*
X0041256Y0103460D01*
X0041256Y0104050D02*
X0041846Y0104050D01*
X0041846Y0104640D02*
X0041256Y0104640D01*
X0041256Y0105230D02*
X0041846Y0105230D01*
X0041846Y0105820D02*
X0041256Y0105820D01*
X0041256Y0106410D02*
X0041846Y0106410D01*
X0041846Y0107000D02*
X0041256Y0107000D01*
X0041256Y0086335D02*
X0041846Y0086335D01*
X0041256Y0086335D02*
X0041256Y0090469D01*
X0041846Y0090469D01*
X0041846Y0086335D01*
X0041846Y0086925D02*
X0041256Y0086925D01*
X0041256Y0087515D02*
X0041846Y0087515D01*
X0041846Y0088105D02*
X0041256Y0088105D01*
X0041256Y0088695D02*
X0041846Y0088695D01*
X0041846Y0089285D02*
X0041256Y0089285D01*
X0041256Y0089875D02*
X0041846Y0089875D01*
X0041846Y0090465D02*
X0041256Y0090465D01*
X0039878Y0086335D02*
X0039288Y0086335D01*
X0039288Y0090469D01*
X0039878Y0090469D01*
X0039878Y0086335D01*
X0039878Y0086925D02*
X0039288Y0086925D01*
X0039288Y0087515D02*
X0039878Y0087515D01*
X0039878Y0088105D02*
X0039288Y0088105D01*
X0039288Y0088695D02*
X0039878Y0088695D01*
X0039878Y0089285D02*
X0039288Y0089285D01*
X0039288Y0089875D02*
X0039878Y0089875D01*
X0039878Y0090465D02*
X0039288Y0090465D01*
X0037909Y0086335D02*
X0037319Y0086335D01*
X0037319Y0090469D01*
X0037909Y0090469D01*
X0037909Y0086335D01*
X0037909Y0086925D02*
X0037319Y0086925D01*
X0037319Y0087515D02*
X0037909Y0087515D01*
X0037909Y0088105D02*
X0037319Y0088105D01*
X0037319Y0088695D02*
X0037909Y0088695D01*
X0037909Y0089285D02*
X0037319Y0089285D01*
X0037319Y0089875D02*
X0037909Y0089875D01*
X0037909Y0090465D02*
X0037319Y0090465D01*
X0035941Y0086335D02*
X0035351Y0086335D01*
X0035351Y0090469D01*
X0035941Y0090469D01*
X0035941Y0086335D01*
X0035941Y0086925D02*
X0035351Y0086925D01*
X0035351Y0087515D02*
X0035941Y0087515D01*
X0035941Y0088105D02*
X0035351Y0088105D01*
X0035351Y0088695D02*
X0035941Y0088695D01*
X0035941Y0089285D02*
X0035351Y0089285D01*
X0035351Y0089875D02*
X0035941Y0089875D01*
X0035941Y0090465D02*
X0035351Y0090465D01*
X0033972Y0086335D02*
X0033382Y0086335D01*
X0033382Y0090469D01*
X0033972Y0090469D01*
X0033972Y0086335D01*
X0033972Y0086925D02*
X0033382Y0086925D01*
X0033382Y0087515D02*
X0033972Y0087515D01*
X0033972Y0088105D02*
X0033382Y0088105D01*
X0033382Y0088695D02*
X0033972Y0088695D01*
X0033972Y0089285D02*
X0033382Y0089285D01*
X0033382Y0089875D02*
X0033972Y0089875D01*
X0033972Y0090465D02*
X0033382Y0090465D01*
D27*
X0030528Y0076984D03*
X0041551Y0076984D03*
X0158874Y0097457D03*
X0169898Y0097457D03*
D28*
X0067535Y0092732D03*
X0058087Y0092732D03*
X0058087Y0103756D03*
X0067535Y0103756D03*
D29*
X0105724Y0111177D02*
X0105726Y0111265D01*
X0105732Y0111353D01*
X0105742Y0111441D01*
X0105756Y0111529D01*
X0105773Y0111615D01*
X0105795Y0111701D01*
X0105820Y0111785D01*
X0105850Y0111869D01*
X0105882Y0111951D01*
X0105919Y0112031D01*
X0105959Y0112110D01*
X0106003Y0112187D01*
X0106050Y0112262D01*
X0106100Y0112334D01*
X0106154Y0112405D01*
X0106210Y0112472D01*
X0106270Y0112538D01*
X0106332Y0112600D01*
X0106398Y0112660D01*
X0106465Y0112716D01*
X0106536Y0112770D01*
X0106608Y0112820D01*
X0106683Y0112867D01*
X0106760Y0112911D01*
X0106839Y0112951D01*
X0106919Y0112988D01*
X0107001Y0113020D01*
X0107085Y0113050D01*
X0107169Y0113075D01*
X0107255Y0113097D01*
X0107341Y0113114D01*
X0107429Y0113128D01*
X0107517Y0113138D01*
X0107605Y0113144D01*
X0107693Y0113146D01*
X0107781Y0113144D01*
X0107869Y0113138D01*
X0107957Y0113128D01*
X0108045Y0113114D01*
X0108131Y0113097D01*
X0108217Y0113075D01*
X0108301Y0113050D01*
X0108385Y0113020D01*
X0108467Y0112988D01*
X0108547Y0112951D01*
X0108626Y0112911D01*
X0108703Y0112867D01*
X0108778Y0112820D01*
X0108850Y0112770D01*
X0108921Y0112716D01*
X0108988Y0112660D01*
X0109054Y0112600D01*
X0109116Y0112538D01*
X0109176Y0112472D01*
X0109232Y0112405D01*
X0109286Y0112334D01*
X0109336Y0112262D01*
X0109383Y0112187D01*
X0109427Y0112110D01*
X0109467Y0112031D01*
X0109504Y0111951D01*
X0109536Y0111869D01*
X0109566Y0111785D01*
X0109591Y0111701D01*
X0109613Y0111615D01*
X0109630Y0111529D01*
X0109644Y0111441D01*
X0109654Y0111353D01*
X0109660Y0111265D01*
X0109662Y0111177D01*
X0109660Y0111089D01*
X0109654Y0111001D01*
X0109644Y0110913D01*
X0109630Y0110825D01*
X0109613Y0110739D01*
X0109591Y0110653D01*
X0109566Y0110569D01*
X0109536Y0110485D01*
X0109504Y0110403D01*
X0109467Y0110323D01*
X0109427Y0110244D01*
X0109383Y0110167D01*
X0109336Y0110092D01*
X0109286Y0110020D01*
X0109232Y0109949D01*
X0109176Y0109882D01*
X0109116Y0109816D01*
X0109054Y0109754D01*
X0108988Y0109694D01*
X0108921Y0109638D01*
X0108850Y0109584D01*
X0108778Y0109534D01*
X0108703Y0109487D01*
X0108626Y0109443D01*
X0108547Y0109403D01*
X0108467Y0109366D01*
X0108385Y0109334D01*
X0108301Y0109304D01*
X0108217Y0109279D01*
X0108131Y0109257D01*
X0108045Y0109240D01*
X0107957Y0109226D01*
X0107869Y0109216D01*
X0107781Y0109210D01*
X0107693Y0109208D01*
X0107605Y0109210D01*
X0107517Y0109216D01*
X0107429Y0109226D01*
X0107341Y0109240D01*
X0107255Y0109257D01*
X0107169Y0109279D01*
X0107085Y0109304D01*
X0107001Y0109334D01*
X0106919Y0109366D01*
X0106839Y0109403D01*
X0106760Y0109443D01*
X0106683Y0109487D01*
X0106608Y0109534D01*
X0106536Y0109584D01*
X0106465Y0109638D01*
X0106398Y0109694D01*
X0106332Y0109754D01*
X0106270Y0109816D01*
X0106210Y0109882D01*
X0106154Y0109949D01*
X0106100Y0110020D01*
X0106050Y0110092D01*
X0106003Y0110167D01*
X0105959Y0110244D01*
X0105919Y0110323D01*
X0105882Y0110403D01*
X0105850Y0110485D01*
X0105820Y0110569D01*
X0105795Y0110653D01*
X0105773Y0110739D01*
X0105756Y0110825D01*
X0105742Y0110913D01*
X0105732Y0111001D01*
X0105726Y0111089D01*
X0105724Y0111177D01*
X0104937Y0143579D02*
X0104939Y0143684D01*
X0104945Y0143789D01*
X0104955Y0143893D01*
X0104969Y0143997D01*
X0104987Y0144101D01*
X0105009Y0144203D01*
X0105034Y0144305D01*
X0105064Y0144406D01*
X0105097Y0144505D01*
X0105134Y0144603D01*
X0105175Y0144700D01*
X0105220Y0144795D01*
X0105268Y0144888D01*
X0105319Y0144980D01*
X0105375Y0145069D01*
X0105433Y0145156D01*
X0105495Y0145241D01*
X0105559Y0145324D01*
X0105627Y0145404D01*
X0105698Y0145481D01*
X0105772Y0145555D01*
X0105849Y0145627D01*
X0105928Y0145696D01*
X0106010Y0145761D01*
X0106094Y0145824D01*
X0106181Y0145883D01*
X0106270Y0145939D01*
X0106361Y0145992D01*
X0106454Y0146041D01*
X0106548Y0146086D01*
X0106644Y0146128D01*
X0106742Y0146166D01*
X0106841Y0146200D01*
X0106942Y0146231D01*
X0107043Y0146257D01*
X0107146Y0146280D01*
X0107249Y0146299D01*
X0107353Y0146314D01*
X0107457Y0146325D01*
X0107562Y0146332D01*
X0107667Y0146335D01*
X0107772Y0146334D01*
X0107877Y0146329D01*
X0107981Y0146320D01*
X0108085Y0146307D01*
X0108189Y0146290D01*
X0108292Y0146269D01*
X0108394Y0146244D01*
X0108495Y0146216D01*
X0108594Y0146183D01*
X0108693Y0146147D01*
X0108790Y0146107D01*
X0108885Y0146064D01*
X0108979Y0146016D01*
X0109071Y0145966D01*
X0109161Y0145912D01*
X0109249Y0145854D01*
X0109334Y0145793D01*
X0109417Y0145729D01*
X0109498Y0145662D01*
X0109576Y0145592D01*
X0109651Y0145518D01*
X0109723Y0145443D01*
X0109793Y0145364D01*
X0109859Y0145283D01*
X0109923Y0145199D01*
X0109983Y0145113D01*
X0110039Y0145025D01*
X0110093Y0144934D01*
X0110143Y0144842D01*
X0110189Y0144748D01*
X0110232Y0144652D01*
X0110271Y0144554D01*
X0110306Y0144456D01*
X0110337Y0144355D01*
X0110365Y0144254D01*
X0110389Y0144152D01*
X0110409Y0144049D01*
X0110425Y0143945D01*
X0110437Y0143841D01*
X0110445Y0143736D01*
X0110449Y0143631D01*
X0110449Y0143527D01*
X0110445Y0143422D01*
X0110437Y0143317D01*
X0110425Y0143213D01*
X0110409Y0143109D01*
X0110389Y0143006D01*
X0110365Y0142904D01*
X0110337Y0142803D01*
X0110306Y0142702D01*
X0110271Y0142604D01*
X0110232Y0142506D01*
X0110189Y0142410D01*
X0110143Y0142316D01*
X0110093Y0142224D01*
X0110039Y0142133D01*
X0109983Y0142045D01*
X0109923Y0141959D01*
X0109859Y0141875D01*
X0109793Y0141794D01*
X0109723Y0141715D01*
X0109651Y0141640D01*
X0109576Y0141566D01*
X0109498Y0141496D01*
X0109417Y0141429D01*
X0109334Y0141365D01*
X0109249Y0141304D01*
X0109161Y0141246D01*
X0109071Y0141192D01*
X0108979Y0141142D01*
X0108885Y0141094D01*
X0108790Y0141051D01*
X0108693Y0141011D01*
X0108594Y0140975D01*
X0108495Y0140942D01*
X0108394Y0140914D01*
X0108292Y0140889D01*
X0108189Y0140868D01*
X0108085Y0140851D01*
X0107981Y0140838D01*
X0107877Y0140829D01*
X0107772Y0140824D01*
X0107667Y0140823D01*
X0107562Y0140826D01*
X0107457Y0140833D01*
X0107353Y0140844D01*
X0107249Y0140859D01*
X0107146Y0140878D01*
X0107043Y0140901D01*
X0106942Y0140927D01*
X0106841Y0140958D01*
X0106742Y0140992D01*
X0106644Y0141030D01*
X0106548Y0141072D01*
X0106454Y0141117D01*
X0106361Y0141166D01*
X0106270Y0141219D01*
X0106181Y0141275D01*
X0106094Y0141334D01*
X0106010Y0141397D01*
X0105928Y0141462D01*
X0105849Y0141531D01*
X0105772Y0141603D01*
X0105698Y0141677D01*
X0105627Y0141754D01*
X0105559Y0141834D01*
X0105495Y0141917D01*
X0105433Y0142002D01*
X0105375Y0142089D01*
X0105319Y0142178D01*
X0105268Y0142270D01*
X0105220Y0142363D01*
X0105175Y0142458D01*
X0105134Y0142555D01*
X0105097Y0142653D01*
X0105064Y0142752D01*
X0105034Y0142853D01*
X0105009Y0142955D01*
X0104987Y0143057D01*
X0104969Y0143161D01*
X0104955Y0143265D01*
X0104945Y0143369D01*
X0104939Y0143474D01*
X0104937Y0143579D01*
X0145094Y0143579D02*
X0145096Y0143667D01*
X0145102Y0143755D01*
X0145112Y0143843D01*
X0145126Y0143931D01*
X0145143Y0144017D01*
X0145165Y0144103D01*
X0145190Y0144187D01*
X0145220Y0144271D01*
X0145252Y0144353D01*
X0145289Y0144433D01*
X0145329Y0144512D01*
X0145373Y0144589D01*
X0145420Y0144664D01*
X0145470Y0144736D01*
X0145524Y0144807D01*
X0145580Y0144874D01*
X0145640Y0144940D01*
X0145702Y0145002D01*
X0145768Y0145062D01*
X0145835Y0145118D01*
X0145906Y0145172D01*
X0145978Y0145222D01*
X0146053Y0145269D01*
X0146130Y0145313D01*
X0146209Y0145353D01*
X0146289Y0145390D01*
X0146371Y0145422D01*
X0146455Y0145452D01*
X0146539Y0145477D01*
X0146625Y0145499D01*
X0146711Y0145516D01*
X0146799Y0145530D01*
X0146887Y0145540D01*
X0146975Y0145546D01*
X0147063Y0145548D01*
X0147151Y0145546D01*
X0147239Y0145540D01*
X0147327Y0145530D01*
X0147415Y0145516D01*
X0147501Y0145499D01*
X0147587Y0145477D01*
X0147671Y0145452D01*
X0147755Y0145422D01*
X0147837Y0145390D01*
X0147917Y0145353D01*
X0147996Y0145313D01*
X0148073Y0145269D01*
X0148148Y0145222D01*
X0148220Y0145172D01*
X0148291Y0145118D01*
X0148358Y0145062D01*
X0148424Y0145002D01*
X0148486Y0144940D01*
X0148546Y0144874D01*
X0148602Y0144807D01*
X0148656Y0144736D01*
X0148706Y0144664D01*
X0148753Y0144589D01*
X0148797Y0144512D01*
X0148837Y0144433D01*
X0148874Y0144353D01*
X0148906Y0144271D01*
X0148936Y0144187D01*
X0148961Y0144103D01*
X0148983Y0144017D01*
X0149000Y0143931D01*
X0149014Y0143843D01*
X0149024Y0143755D01*
X0149030Y0143667D01*
X0149032Y0143579D01*
X0149030Y0143491D01*
X0149024Y0143403D01*
X0149014Y0143315D01*
X0149000Y0143227D01*
X0148983Y0143141D01*
X0148961Y0143055D01*
X0148936Y0142971D01*
X0148906Y0142887D01*
X0148874Y0142805D01*
X0148837Y0142725D01*
X0148797Y0142646D01*
X0148753Y0142569D01*
X0148706Y0142494D01*
X0148656Y0142422D01*
X0148602Y0142351D01*
X0148546Y0142284D01*
X0148486Y0142218D01*
X0148424Y0142156D01*
X0148358Y0142096D01*
X0148291Y0142040D01*
X0148220Y0141986D01*
X0148148Y0141936D01*
X0148073Y0141889D01*
X0147996Y0141845D01*
X0147917Y0141805D01*
X0147837Y0141768D01*
X0147755Y0141736D01*
X0147671Y0141706D01*
X0147587Y0141681D01*
X0147501Y0141659D01*
X0147415Y0141642D01*
X0147327Y0141628D01*
X0147239Y0141618D01*
X0147151Y0141612D01*
X0147063Y0141610D01*
X0146975Y0141612D01*
X0146887Y0141618D01*
X0146799Y0141628D01*
X0146711Y0141642D01*
X0146625Y0141659D01*
X0146539Y0141681D01*
X0146455Y0141706D01*
X0146371Y0141736D01*
X0146289Y0141768D01*
X0146209Y0141805D01*
X0146130Y0141845D01*
X0146053Y0141889D01*
X0145978Y0141936D01*
X0145906Y0141986D01*
X0145835Y0142040D01*
X0145768Y0142096D01*
X0145702Y0142156D01*
X0145640Y0142218D01*
X0145580Y0142284D01*
X0145524Y0142351D01*
X0145470Y0142422D01*
X0145420Y0142494D01*
X0145373Y0142569D01*
X0145329Y0142646D01*
X0145289Y0142725D01*
X0145252Y0142805D01*
X0145220Y0142887D01*
X0145190Y0142971D01*
X0145165Y0143055D01*
X0145143Y0143141D01*
X0145126Y0143227D01*
X0145112Y0143315D01*
X0145102Y0143403D01*
X0145096Y0143491D01*
X0145094Y0143579D01*
X0144307Y0111177D02*
X0144309Y0111282D01*
X0144315Y0111387D01*
X0144325Y0111491D01*
X0144339Y0111595D01*
X0144357Y0111699D01*
X0144379Y0111801D01*
X0144404Y0111903D01*
X0144434Y0112004D01*
X0144467Y0112103D01*
X0144504Y0112201D01*
X0144545Y0112298D01*
X0144590Y0112393D01*
X0144638Y0112486D01*
X0144689Y0112578D01*
X0144745Y0112667D01*
X0144803Y0112754D01*
X0144865Y0112839D01*
X0144929Y0112922D01*
X0144997Y0113002D01*
X0145068Y0113079D01*
X0145142Y0113153D01*
X0145219Y0113225D01*
X0145298Y0113294D01*
X0145380Y0113359D01*
X0145464Y0113422D01*
X0145551Y0113481D01*
X0145640Y0113537D01*
X0145731Y0113590D01*
X0145824Y0113639D01*
X0145918Y0113684D01*
X0146014Y0113726D01*
X0146112Y0113764D01*
X0146211Y0113798D01*
X0146312Y0113829D01*
X0146413Y0113855D01*
X0146516Y0113878D01*
X0146619Y0113897D01*
X0146723Y0113912D01*
X0146827Y0113923D01*
X0146932Y0113930D01*
X0147037Y0113933D01*
X0147142Y0113932D01*
X0147247Y0113927D01*
X0147351Y0113918D01*
X0147455Y0113905D01*
X0147559Y0113888D01*
X0147662Y0113867D01*
X0147764Y0113842D01*
X0147865Y0113814D01*
X0147964Y0113781D01*
X0148063Y0113745D01*
X0148160Y0113705D01*
X0148255Y0113662D01*
X0148349Y0113614D01*
X0148441Y0113564D01*
X0148531Y0113510D01*
X0148619Y0113452D01*
X0148704Y0113391D01*
X0148787Y0113327D01*
X0148868Y0113260D01*
X0148946Y0113190D01*
X0149021Y0113116D01*
X0149093Y0113041D01*
X0149163Y0112962D01*
X0149229Y0112881D01*
X0149293Y0112797D01*
X0149353Y0112711D01*
X0149409Y0112623D01*
X0149463Y0112532D01*
X0149513Y0112440D01*
X0149559Y0112346D01*
X0149602Y0112250D01*
X0149641Y0112152D01*
X0149676Y0112054D01*
X0149707Y0111953D01*
X0149735Y0111852D01*
X0149759Y0111750D01*
X0149779Y0111647D01*
X0149795Y0111543D01*
X0149807Y0111439D01*
X0149815Y0111334D01*
X0149819Y0111229D01*
X0149819Y0111125D01*
X0149815Y0111020D01*
X0149807Y0110915D01*
X0149795Y0110811D01*
X0149779Y0110707D01*
X0149759Y0110604D01*
X0149735Y0110502D01*
X0149707Y0110401D01*
X0149676Y0110300D01*
X0149641Y0110202D01*
X0149602Y0110104D01*
X0149559Y0110008D01*
X0149513Y0109914D01*
X0149463Y0109822D01*
X0149409Y0109731D01*
X0149353Y0109643D01*
X0149293Y0109557D01*
X0149229Y0109473D01*
X0149163Y0109392D01*
X0149093Y0109313D01*
X0149021Y0109238D01*
X0148946Y0109164D01*
X0148868Y0109094D01*
X0148787Y0109027D01*
X0148704Y0108963D01*
X0148619Y0108902D01*
X0148531Y0108844D01*
X0148441Y0108790D01*
X0148349Y0108740D01*
X0148255Y0108692D01*
X0148160Y0108649D01*
X0148063Y0108609D01*
X0147964Y0108573D01*
X0147865Y0108540D01*
X0147764Y0108512D01*
X0147662Y0108487D01*
X0147559Y0108466D01*
X0147455Y0108449D01*
X0147351Y0108436D01*
X0147247Y0108427D01*
X0147142Y0108422D01*
X0147037Y0108421D01*
X0146932Y0108424D01*
X0146827Y0108431D01*
X0146723Y0108442D01*
X0146619Y0108457D01*
X0146516Y0108476D01*
X0146413Y0108499D01*
X0146312Y0108525D01*
X0146211Y0108556D01*
X0146112Y0108590D01*
X0146014Y0108628D01*
X0145918Y0108670D01*
X0145824Y0108715D01*
X0145731Y0108764D01*
X0145640Y0108817D01*
X0145551Y0108873D01*
X0145464Y0108932D01*
X0145380Y0108995D01*
X0145298Y0109060D01*
X0145219Y0109129D01*
X0145142Y0109201D01*
X0145068Y0109275D01*
X0144997Y0109352D01*
X0144929Y0109432D01*
X0144865Y0109515D01*
X0144803Y0109600D01*
X0144745Y0109687D01*
X0144689Y0109776D01*
X0144638Y0109868D01*
X0144590Y0109961D01*
X0144545Y0110056D01*
X0144504Y0110153D01*
X0144467Y0110251D01*
X0144434Y0110350D01*
X0144404Y0110451D01*
X0144379Y0110553D01*
X0144357Y0110655D01*
X0144339Y0110759D01*
X0144325Y0110863D01*
X0144315Y0110967D01*
X0144309Y0111072D01*
X0144307Y0111177D01*
D30*
X0088882Y0139189D03*
X0088882Y0148638D03*
X0077685Y0148638D03*
X0077685Y0139189D03*
D31*
X0129346Y0138598D03*
X0129346Y0146079D03*
X0138008Y0142339D03*
D32*
X0054189Y0147457D03*
X0044189Y0147457D03*
X0034189Y0147457D03*
X0024189Y0147457D03*
X0024189Y0181315D03*
X0034189Y0181315D03*
X0044189Y0181315D03*
X0054189Y0181315D03*
D33*
X0047717Y0039118D02*
X0040759Y0039118D01*
X0039994Y0039903D02*
X0046010Y0039903D01*
X0047072Y0039290D02*
X0050698Y0038319D01*
X0054452Y0038319D01*
X0058077Y0039290D01*
X0061328Y0041167D01*
X0063982Y0043821D01*
X0065859Y0047072D01*
X0066831Y0050698D01*
X0066831Y0054452D01*
X0065859Y0058077D01*
X0063982Y0061328D01*
X0061328Y0063982D01*
X0058077Y0065859D01*
X0054452Y0066831D01*
X0050698Y0066831D01*
X0047072Y0065859D01*
X0043821Y0063982D01*
X0041167Y0061328D01*
X0039290Y0058077D01*
X0038319Y0054452D01*
X0038319Y0050698D01*
X0039290Y0047072D01*
X0041167Y0043821D01*
X0043821Y0041167D01*
X0047072Y0039290D01*
X0044649Y0040689D02*
X0039230Y0040689D01*
X0038465Y0041475D02*
X0043513Y0041475D01*
X0042728Y0042261D02*
X0037701Y0042261D01*
X0036936Y0043047D02*
X0041942Y0043047D01*
X0041161Y0043833D02*
X0036171Y0043833D01*
X0035407Y0044619D02*
X0040707Y0044619D01*
X0040253Y0045405D02*
X0034642Y0045405D01*
X0034005Y0046060D02*
X0025626Y0056825D01*
X0018482Y0068447D01*
X0012660Y0080784D01*
X0008231Y0093686D01*
X0005248Y0106998D01*
X0003747Y0120557D01*
X0003747Y0134199D01*
X0005248Y0147758D01*
X0008231Y0161070D01*
X0012660Y0173972D01*
X0018482Y0186309D01*
X0025626Y0197931D01*
X0034005Y0208696D01*
X0043518Y0218474D01*
X0054048Y0227147D01*
X0065468Y0234608D01*
X0077640Y0240768D01*
X0090416Y0245551D01*
X0103641Y0248900D01*
X0110958Y0249915D01*
X0102398Y0241354D01*
X0096886Y0241354D01*
X0096079Y0240547D01*
X0094524Y0238992D01*
X0094524Y0238992D01*
X0093717Y0238185D01*
X0093717Y0236827D01*
X0092521Y0236827D01*
X0092107Y0236412D01*
X0092062Y0236577D01*
X0091879Y0236895D01*
X0091620Y0237155D01*
X0091302Y0237338D01*
X0090947Y0237433D01*
X0089189Y0237433D01*
X0089189Y0234268D01*
X0088402Y0234268D01*
X0088402Y0237433D01*
X0086643Y0237433D01*
X0086289Y0237338D01*
X0085971Y0237155D01*
X0085712Y0236895D01*
X0085528Y0236577D01*
X0085433Y0236223D01*
X0085433Y0234268D01*
X0088402Y0234268D01*
X0088402Y0233480D01*
X0085433Y0233480D01*
X0085433Y0231525D01*
X0085528Y0231171D01*
X0085712Y0230853D01*
X0085971Y0230593D01*
X0086289Y0230410D01*
X0086585Y0230331D01*
X0086419Y0230331D01*
X0085843Y0229754D01*
X0085843Y0224608D01*
X0086419Y0224031D01*
X0087417Y0224031D01*
X0087417Y0217712D01*
X0086659Y0216954D01*
X0086320Y0216954D01*
X0085252Y0215887D01*
X0085252Y0219124D01*
X0084850Y0219526D01*
X0084927Y0219570D01*
X0085186Y0219829D01*
X0085370Y0220147D01*
X0085465Y0220502D01*
X0085465Y0222260D01*
X0082299Y0222260D01*
X0082299Y0223047D01*
X0081512Y0223047D01*
X0081512Y0226016D01*
X0079557Y0226016D01*
X0079202Y0225921D01*
X0078884Y0225737D01*
X0078625Y0225478D01*
X0078441Y0225160D01*
X0078362Y0224864D01*
X0078362Y0225030D01*
X0077786Y0225606D01*
X0072640Y0225606D01*
X0072063Y0225030D01*
X0072063Y0220277D01*
X0072640Y0219701D01*
X0073835Y0219701D01*
X0073835Y0219701D01*
X0072443Y0219701D01*
X0071866Y0219124D01*
X0071866Y0212797D01*
X0072443Y0212220D01*
X0076020Y0212220D01*
X0077201Y0211039D01*
X0072443Y0211039D01*
X0071866Y0210463D01*
X0071866Y0204136D01*
X0072268Y0203734D01*
X0072191Y0203690D01*
X0071932Y0203431D01*
X0071749Y0203113D01*
X0071654Y0202758D01*
X0071654Y0201000D01*
X0074819Y0201000D01*
X0074819Y0200213D01*
X0071654Y0200213D01*
X0071654Y0198454D01*
X0071749Y0198100D01*
X0071932Y0197782D01*
X0072191Y0197523D01*
X0072306Y0197457D01*
X0072191Y0197391D01*
X0071932Y0197131D01*
X0071749Y0196814D01*
X0071654Y0196459D01*
X0071654Y0194701D01*
X0074819Y0194701D01*
X0074819Y0200213D01*
X0075606Y0200213D01*
X0075606Y0197669D01*
X0075606Y0194701D01*
X0074819Y0194701D01*
X0074819Y0193913D01*
X0075606Y0193913D01*
X0075606Y0190945D01*
X0075803Y0190945D01*
X0075803Y0188598D01*
X0075016Y0188598D01*
X0075016Y0187811D01*
X0072047Y0187811D01*
X0072047Y0185856D01*
X0072142Y0185501D01*
X0072326Y0185184D01*
X0072585Y0184924D01*
X0072903Y0184741D01*
X0073199Y0184661D01*
X0073033Y0184661D01*
X0072457Y0184085D01*
X0072457Y0182693D01*
X0057398Y0182693D01*
X0057398Y0186526D01*
X0056821Y0187102D01*
X0051557Y0187102D01*
X0050980Y0186526D01*
X0050980Y0182693D01*
X0047398Y0182693D01*
X0047398Y0186526D01*
X0046821Y0187102D01*
X0041557Y0187102D01*
X0040980Y0186526D01*
X0040980Y0182693D01*
X0037398Y0182693D01*
X0037398Y0186526D01*
X0036821Y0187102D01*
X0031557Y0187102D01*
X0030980Y0186526D01*
X0030980Y0182693D01*
X0027398Y0182693D01*
X0027398Y0186526D01*
X0026821Y0187102D01*
X0021557Y0187102D01*
X0020980Y0186526D01*
X0020980Y0176104D01*
X0021557Y0175528D01*
X0026821Y0175528D01*
X0027398Y0176104D01*
X0027398Y0179937D01*
X0030980Y0179937D01*
X0030980Y0176104D01*
X0031557Y0175528D01*
X0036821Y0175528D01*
X0037398Y0176104D01*
X0037398Y0179937D01*
X0040980Y0179937D01*
X0040980Y0176104D01*
X0041557Y0175528D01*
X0046821Y0175528D01*
X0047398Y0176104D01*
X0047398Y0179937D01*
X0050980Y0179937D01*
X0050980Y0176104D01*
X0051557Y0175528D01*
X0056821Y0175528D01*
X0057398Y0176104D01*
X0057398Y0179937D01*
X0072457Y0179937D01*
X0072457Y0178939D01*
X0073033Y0178362D01*
X0077786Y0178362D01*
X0078362Y0178939D01*
X0078362Y0180134D01*
X0078559Y0180134D01*
X0078559Y0179136D01*
X0079136Y0178559D01*
X0083874Y0178559D01*
X0083874Y0178505D01*
X0071526Y0166157D01*
X0070488Y0165120D01*
X0070488Y0140710D01*
X0056565Y0126787D01*
X0055528Y0125750D01*
X0055528Y0118520D01*
X0054366Y0118520D01*
X0053756Y0117909D01*
X0051571Y0120094D01*
X0045272Y0120094D01*
X0043697Y0121669D01*
X0043339Y0121669D01*
X0043339Y0123244D01*
X0040370Y0123244D01*
X0040370Y0124031D01*
X0043339Y0124031D01*
X0043339Y0125987D01*
X0043244Y0126341D01*
X0043060Y0126659D01*
X0042801Y0126918D01*
X0042483Y0127102D01*
X0042128Y0127197D01*
X0040370Y0127197D01*
X0040370Y0124032D01*
X0039583Y0124032D01*
X0039583Y0127197D01*
X0037824Y0127197D01*
X0037470Y0127102D01*
X0037152Y0126918D01*
X0036893Y0126659D01*
X0036827Y0126545D01*
X0036761Y0126659D01*
X0036501Y0126918D01*
X0036184Y0127102D01*
X0035829Y0127197D01*
X0034071Y0127197D01*
X0034071Y0124032D01*
X0033283Y0124032D01*
X0033283Y0127197D01*
X0031525Y0127197D01*
X0031171Y0127102D01*
X0030853Y0126918D01*
X0030593Y0126659D01*
X0030410Y0126341D01*
X0030315Y0125987D01*
X0030315Y0124031D01*
X0033283Y0124031D01*
X0033283Y0123244D01*
X0030315Y0123244D01*
X0030315Y0121669D01*
X0018933Y0121669D01*
X0018126Y0120862D01*
X0014189Y0116925D01*
X0014189Y0107122D01*
X0014996Y0106315D01*
X0016354Y0104957D01*
X0016354Y0101183D01*
X0016931Y0100606D01*
X0017929Y0100606D01*
X0017929Y0100409D01*
X0016734Y0100409D01*
X0016157Y0099833D01*
X0016157Y0095080D01*
X0016684Y0094554D01*
X0016483Y0094438D01*
X0016223Y0094179D01*
X0016040Y0093861D01*
X0015945Y0093506D01*
X0015945Y0091551D01*
X0018913Y0091551D01*
X0018913Y0090764D01*
X0015945Y0090764D01*
X0015945Y0088809D01*
X0016040Y0088454D01*
X0016223Y0088136D01*
X0016370Y0087990D01*
X0016286Y0087942D01*
X0016026Y0087683D01*
X0015843Y0087365D01*
X0015748Y0087010D01*
X0015748Y0085252D01*
X0018913Y0085252D01*
X0018913Y0084465D01*
X0015748Y0084465D01*
X0015748Y0082706D01*
X0015843Y0082352D01*
X0016026Y0082034D01*
X0016286Y0081775D01*
X0016604Y0081591D01*
X0016958Y0081496D01*
X0018913Y0081496D01*
X0018913Y0084465D01*
X0019701Y0084465D01*
X0019701Y0081496D01*
X0021656Y0081496D01*
X0022010Y0081591D01*
X0022328Y0081775D01*
X0022588Y0082034D01*
X0022771Y0082352D01*
X0022850Y0082648D01*
X0022850Y0082482D01*
X0023427Y0081906D01*
X0027136Y0081906D01*
X0026840Y0081826D01*
X0026522Y0081643D01*
X0026263Y0081383D01*
X0026079Y0081066D01*
X0025984Y0080711D01*
X0025984Y0077378D01*
X0030134Y0077378D01*
X0030134Y0076591D01*
X0025984Y0076591D01*
X0025984Y0073257D01*
X0026079Y0072903D01*
X0026263Y0072585D01*
X0026522Y0072326D01*
X0026840Y0072142D01*
X0027194Y0072047D01*
X0030134Y0072047D01*
X0030134Y0076591D01*
X0030921Y0076591D01*
X0030921Y0072047D01*
X0033677Y0072047D01*
X0033677Y0071633D01*
X0034157Y0070476D01*
X0035043Y0069590D01*
X0035830Y0068802D01*
X0036988Y0068323D01*
X0046115Y0068323D01*
X0047272Y0068802D01*
X0048158Y0069688D01*
X0048158Y0069688D01*
X0048946Y0070476D01*
X0049425Y0071633D01*
X0049425Y0073441D01*
X0098318Y0073441D01*
X0099910Y0074100D01*
X0112508Y0086699D01*
X0113727Y0087917D01*
X0114386Y0089509D01*
X0114386Y0096591D01*
X0114855Y0096591D01*
X0115868Y0097010D01*
X0116643Y0097785D01*
X0116948Y0098520D01*
X0119698Y0098520D01*
X0120002Y0097785D01*
X0120777Y0097010D01*
X0121790Y0096591D01*
X0131391Y0096591D01*
X0132404Y0097010D01*
X0133179Y0097785D01*
X0133280Y0098029D01*
X0134465Y0096844D01*
X0134465Y0092971D01*
X0134884Y0091959D01*
X0135659Y0091183D01*
X0136672Y0090764D01*
X0139583Y0090764D01*
X0139583Y0084507D01*
X0139976Y0083557D01*
X0139976Y0079740D01*
X0139189Y0079740D01*
X0139189Y0078953D01*
X0135827Y0078953D01*
X0135827Y0076013D01*
X0135922Y0075659D01*
X0136105Y0075341D01*
X0136365Y0075082D01*
X0136683Y0074898D01*
X0137037Y0074803D01*
X0139189Y0074803D01*
X0139189Y0078953D01*
X0139976Y0078953D01*
X0139976Y0074803D01*
X0141120Y0074803D01*
X0137001Y0070685D01*
X0131120Y0070685D01*
X0130612Y0071194D01*
X0128513Y0072063D01*
X0126242Y0072063D01*
X0124144Y0071194D01*
X0122538Y0069588D01*
X0121669Y0067490D01*
X0121669Y0065219D01*
X0122538Y0063121D01*
X0124144Y0061515D01*
X0125370Y0061007D01*
X0124590Y0060684D01*
X0123206Y0059299D01*
X0122883Y0058519D01*
X0122375Y0059745D01*
X0120769Y0061351D01*
X0118671Y0062220D01*
X0116400Y0062220D01*
X0114302Y0061351D01*
X0112696Y0059745D01*
X0111827Y0057647D01*
X0111827Y0055376D01*
X0112696Y0053278D01*
X0114302Y0051672D01*
X0116400Y0050803D01*
X0118671Y0050803D01*
X0120769Y0051672D01*
X0122375Y0053278D01*
X0122883Y0054504D01*
X0123206Y0053724D01*
X0124590Y0052340D01*
X0126399Y0051591D01*
X0127614Y0051591D01*
X0127614Y0051591D01*
X0126399Y0051591D01*
X0124590Y0050841D01*
X0123206Y0049457D01*
X0122457Y0047648D01*
X0122457Y0045690D01*
X0123206Y0043882D01*
X0124590Y0042497D01*
X0126399Y0041748D01*
X0128357Y0041748D01*
X0130166Y0042497D01*
X0130739Y0043070D01*
X0131554Y0042732D01*
X0146824Y0042732D01*
X0147837Y0043152D01*
X0154504Y0049819D01*
X0164032Y0049819D01*
X0170154Y0043697D01*
X0170154Y0038885D01*
X0171307Y0037732D01*
X0177937Y0037732D01*
X0179091Y0038885D01*
X0179091Y0050516D01*
X0177937Y0051669D01*
X0177378Y0051669D01*
X0177378Y0061669D01*
X0182482Y0066774D01*
X0183258Y0067549D01*
X0183677Y0068562D01*
X0183677Y0071118D01*
X0192719Y0080160D01*
X0193494Y0080935D01*
X0193913Y0081948D01*
X0193913Y0092690D01*
X0193494Y0093703D01*
X0192004Y0095193D01*
X0193086Y0096276D01*
X0199580Y0096276D01*
X0200593Y0096695D01*
X0210829Y0106931D01*
X0211604Y0107707D01*
X0212024Y0108720D01*
X0212024Y0124355D01*
X0212259Y0124590D01*
X0213008Y0126399D01*
X0213008Y0128357D01*
X0212259Y0130166D01*
X0212024Y0130401D01*
X0212024Y0173595D01*
X0211604Y0174608D01*
X0210829Y0175384D01*
X0206754Y0179458D01*
X0205741Y0179878D01*
X0202209Y0179878D01*
X0201815Y0180272D01*
X0201723Y0180272D01*
X0201984Y0180533D01*
X0201984Y0183711D01*
X0201408Y0184287D01*
X0191931Y0184287D01*
X0191354Y0183711D01*
X0191354Y0183500D01*
X0190527Y0183500D01*
X0183854Y0190173D01*
X0183283Y0190173D01*
X0183283Y0191368D01*
X0182707Y0191945D01*
X0177955Y0191945D01*
X0177378Y0191368D01*
X0177378Y0186236D01*
X0176944Y0186236D01*
X0177000Y0186446D01*
X0177000Y0188402D01*
X0174032Y0188402D01*
X0174032Y0189189D01*
X0177000Y0189189D01*
X0177000Y0191144D01*
X0176905Y0191499D01*
X0176722Y0191816D01*
X0176462Y0192076D01*
X0176144Y0192259D01*
X0175790Y0192354D01*
X0174031Y0192354D01*
X0174031Y0189189D01*
X0173244Y0189189D01*
X0173244Y0188402D01*
X0170276Y0188402D01*
X0170276Y0186446D01*
X0170332Y0186236D01*
X0169681Y0186236D01*
X0147607Y0208311D01*
X0147663Y0208367D01*
X0147663Y0210169D01*
X0146389Y0211443D01*
X0144587Y0211443D01*
X0143350Y0210205D01*
X0140547Y0213008D01*
X0134642Y0213008D01*
X0138185Y0216551D01*
X0147831Y0216551D01*
X0148421Y0217142D01*
X0151998Y0217142D01*
X0152575Y0217718D01*
X0152575Y0222471D01*
X0151998Y0223047D01*
X0146852Y0223047D01*
X0146276Y0222471D01*
X0146276Y0219307D01*
X0137043Y0219307D01*
X0136236Y0218500D01*
X0132319Y0214583D01*
X0118529Y0214583D01*
X0118529Y0214893D01*
X0117855Y0215567D01*
X0118529Y0216241D01*
X0118529Y0218043D01*
X0117732Y0218839D01*
X0117732Y0219721D01*
X0118500Y0220488D01*
X0125587Y0220488D01*
X0126394Y0221295D01*
X0127161Y0222063D01*
X0127161Y0222063D01*
X0127968Y0222870D01*
X0127968Y0222876D01*
X0128151Y0222693D01*
X0140778Y0222693D01*
X0141354Y0223269D01*
X0141354Y0227234D01*
X0141100Y0227489D01*
X0141226Y0227562D01*
X0141485Y0227821D01*
X0141669Y0228139D01*
X0141764Y0228494D01*
X0141764Y0229858D01*
X0134858Y0229858D01*
X0134858Y0230646D01*
X0134071Y0230646D01*
X0134071Y0234858D01*
X0134858Y0234858D01*
X0134858Y0232283D01*
X0134858Y0230646D01*
X0141764Y0230646D01*
X0141764Y0232010D01*
X0141669Y0232365D01*
X0141485Y0232683D01*
X0141416Y0232752D01*
X0141485Y0232821D01*
X0141669Y0233139D01*
X0141764Y0233494D01*
X0141764Y0234858D01*
X0134858Y0234858D01*
X0134858Y0235646D01*
X0134071Y0235646D01*
X0134071Y0238220D01*
X0128376Y0238220D01*
X0128021Y0238125D01*
X0127968Y0238095D01*
X0127968Y0242409D01*
X0128021Y0242378D01*
X0128376Y0242283D01*
X0134071Y0242283D01*
X0134071Y0244858D01*
X0134858Y0244858D01*
X0134858Y0242283D01*
X0140554Y0242283D01*
X0140908Y0242378D01*
X0141226Y0242562D01*
X0141485Y0242821D01*
X0141669Y0243139D01*
X0141764Y0243494D01*
X0141764Y0244858D01*
X0134858Y0244858D01*
X0134858Y0245646D01*
X0134071Y0245646D01*
X0134071Y0248220D01*
X0128376Y0248220D01*
X0128021Y0248125D01*
X0127703Y0247942D01*
X0127682Y0247920D01*
X0126394Y0249209D01*
X0125587Y0250016D01*
X0111685Y0250016D01*
X0117153Y0250774D01*
X0130790Y0251150D01*
X0144385Y0250023D01*
X0157774Y0247408D01*
X0170794Y0243336D01*
X0183286Y0237856D01*
X0195100Y0231035D01*
X0206093Y0222956D01*
X0216129Y0213716D01*
X0225088Y0203429D01*
X0232862Y0192219D01*
X0239354Y0180221D01*
X0244488Y0167582D01*
X0248200Y0154455D01*
X0250445Y0140999D01*
X0251197Y0127378D01*
X0250445Y0113757D01*
X0248200Y0100301D01*
X0244488Y0087174D01*
X0239354Y0074535D01*
X0232862Y0062537D01*
X0225088Y0051327D01*
X0216129Y0041039D01*
X0206093Y0031800D01*
X0195100Y0023721D01*
X0183286Y0016900D01*
X0170794Y0011420D01*
X0157774Y0007348D01*
X0144385Y0004733D01*
X0130790Y0003606D01*
X0117153Y0003982D01*
X0103641Y0005856D01*
X0090416Y0009205D01*
X0077640Y0013988D01*
X0065468Y0020148D01*
X0054048Y0027609D01*
X0043518Y0036281D01*
X0034005Y0046060D01*
X0033903Y0046191D02*
X0039799Y0046191D01*
X0039346Y0046977D02*
X0033292Y0046977D01*
X0032680Y0047763D02*
X0039105Y0047763D01*
X0038895Y0048548D02*
X0032068Y0048548D01*
X0031456Y0049334D02*
X0038684Y0049334D01*
X0038474Y0050120D02*
X0030845Y0050120D01*
X0030233Y0050906D02*
X0038319Y0050906D01*
X0038319Y0051692D02*
X0029621Y0051692D01*
X0029010Y0052478D02*
X0038319Y0052478D01*
X0038319Y0053264D02*
X0028398Y0053264D01*
X0027786Y0054050D02*
X0038319Y0054050D01*
X0038422Y0054836D02*
X0027175Y0054836D01*
X0026563Y0055622D02*
X0038632Y0055622D01*
X0038843Y0056408D02*
X0025951Y0056408D01*
X0025400Y0057194D02*
X0039054Y0057194D01*
X0039264Y0057979D02*
X0024917Y0057979D01*
X0024434Y0058765D02*
X0039688Y0058765D01*
X0040141Y0059551D02*
X0023950Y0059551D01*
X0023467Y0060337D02*
X0040595Y0060337D01*
X0041049Y0061123D02*
X0022984Y0061123D01*
X0022501Y0061909D02*
X0041748Y0061909D01*
X0042534Y0062695D02*
X0022018Y0062695D01*
X0021535Y0063481D02*
X0043320Y0063481D01*
X0044314Y0064267D02*
X0021052Y0064267D01*
X0020569Y0065053D02*
X0045675Y0065053D01*
X0047037Y0065839D02*
X0020086Y0065839D01*
X0019603Y0066624D02*
X0049928Y0066624D01*
X0047452Y0068982D02*
X0122287Y0068982D01*
X0121962Y0068196D02*
X0018636Y0068196D01*
X0018230Y0068982D02*
X0035650Y0068982D01*
X0034864Y0069768D02*
X0017859Y0069768D01*
X0017488Y0070554D02*
X0034124Y0070554D01*
X0033799Y0071340D02*
X0017117Y0071340D01*
X0016746Y0072126D02*
X0026901Y0072126D01*
X0026077Y0072912D02*
X0016375Y0072912D01*
X0016004Y0073698D02*
X0025984Y0073698D01*
X0025984Y0074484D02*
X0015634Y0074484D01*
X0015263Y0075270D02*
X0025984Y0075270D01*
X0025984Y0076055D02*
X0014892Y0076055D01*
X0014521Y0076841D02*
X0030134Y0076841D01*
X0030134Y0076055D02*
X0030921Y0076055D01*
X0030921Y0075270D02*
X0030134Y0075270D01*
X0030134Y0074484D02*
X0030921Y0074484D01*
X0030921Y0073698D02*
X0030134Y0073698D01*
X0030134Y0072912D02*
X0030921Y0072912D01*
X0030921Y0072126D02*
X0030134Y0072126D01*
X0036827Y0072260D02*
X0037614Y0071472D01*
X0045488Y0071472D01*
X0046276Y0072260D01*
X0046276Y0087220D01*
X0043126Y0090370D01*
X0040961Y0090370D01*
X0040961Y0085728D01*
X0040496Y0084606D01*
X0039976Y0084087D01*
X0039976Y0084071D01*
X0036827Y0080921D01*
X0036827Y0072260D01*
X0036961Y0072126D02*
X0046142Y0072126D01*
X0046276Y0072912D02*
X0036827Y0072912D01*
X0036827Y0073698D02*
X0046276Y0073698D01*
X0046276Y0074484D02*
X0036827Y0074484D01*
X0036827Y0075270D02*
X0046276Y0075270D01*
X0046276Y0076055D02*
X0036827Y0076055D01*
X0036827Y0076841D02*
X0046276Y0076841D01*
X0046276Y0077627D02*
X0036827Y0077627D01*
X0036827Y0078413D02*
X0046276Y0078413D01*
X0046276Y0079199D02*
X0036827Y0079199D01*
X0036827Y0079985D02*
X0046276Y0079985D01*
X0046276Y0080771D02*
X0036827Y0080771D01*
X0037462Y0081557D02*
X0046276Y0081557D01*
X0046276Y0082343D02*
X0038248Y0082343D01*
X0039034Y0083129D02*
X0046276Y0083129D01*
X0046276Y0083915D02*
X0039820Y0083915D01*
X0040535Y0084700D02*
X0046276Y0084700D01*
X0046276Y0085486D02*
X0040861Y0085486D01*
X0040961Y0086272D02*
X0046276Y0086272D01*
X0046276Y0087058D02*
X0040961Y0087058D01*
X0040961Y0087844D02*
X0045652Y0087844D01*
X0044866Y0088630D02*
X0040961Y0088630D01*
X0041551Y0088402D02*
X0039583Y0088402D01*
X0040961Y0089416D02*
X0044080Y0089416D01*
X0043294Y0090202D02*
X0040961Y0090202D01*
X0045391Y0092560D02*
X0057693Y0092560D01*
X0057693Y0092339D02*
X0053150Y0092339D01*
X0053150Y0089399D01*
X0053245Y0089045D01*
X0053428Y0088727D01*
X0053688Y0088467D01*
X0054005Y0088284D01*
X0054360Y0088189D01*
X0057693Y0088189D01*
X0057693Y0092339D01*
X0057693Y0093126D01*
X0057693Y0097276D01*
X0054360Y0097276D01*
X0054005Y0097181D01*
X0053688Y0096997D01*
X0053428Y0096738D01*
X0053245Y0096420D01*
X0053150Y0096065D01*
X0053150Y0093126D01*
X0057693Y0093126D01*
X0058480Y0093126D01*
X0058480Y0097276D01*
X0061813Y0097276D01*
X0062168Y0097181D01*
X0062486Y0096997D01*
X0062745Y0096738D01*
X0062811Y0096624D01*
X0062877Y0096738D01*
X0063136Y0096997D01*
X0063454Y0097181D01*
X0063809Y0097276D01*
X0067142Y0097276D01*
X0067142Y0093126D01*
X0067929Y0093126D01*
X0067929Y0097276D01*
X0071262Y0097276D01*
X0071617Y0097181D01*
X0071934Y0096997D01*
X0072194Y0096738D01*
X0072377Y0096420D01*
X0072472Y0096065D01*
X0072472Y0093126D01*
X0067929Y0093126D01*
X0067929Y0092339D01*
X0072472Y0092339D01*
X0072472Y0089399D01*
X0072377Y0089045D01*
X0072194Y0088727D01*
X0071934Y0088467D01*
X0071617Y0088284D01*
X0071262Y0088189D01*
X0067929Y0088189D01*
X0067929Y0092339D01*
X0067142Y0092339D01*
X0058480Y0092339D01*
X0058480Y0093126D01*
X0063024Y0093126D01*
X0067142Y0093126D01*
X0067142Y0092339D01*
X0067142Y0088189D01*
X0063809Y0088189D01*
X0063454Y0088284D01*
X0063136Y0088467D01*
X0062877Y0088727D01*
X0062811Y0088841D01*
X0062745Y0088727D01*
X0062486Y0088467D01*
X0062168Y0088284D01*
X0061813Y0088189D01*
X0058480Y0088189D01*
X0058480Y0092339D01*
X0057693Y0092339D01*
X0057693Y0091774D02*
X0058480Y0091774D01*
X0058480Y0092560D02*
X0067142Y0092560D01*
X0067142Y0093346D02*
X0067929Y0093346D01*
X0067929Y0094131D02*
X0067142Y0094131D01*
X0067142Y0094917D02*
X0067929Y0094917D01*
X0067929Y0095703D02*
X0067142Y0095703D01*
X0067142Y0096489D02*
X0067929Y0096489D01*
X0067929Y0097275D02*
X0067142Y0097275D01*
X0063807Y0097275D02*
X0061815Y0097275D01*
X0058480Y0097275D02*
X0057693Y0097275D01*
X0057693Y0096489D02*
X0058480Y0096489D01*
X0058480Y0095703D02*
X0057693Y0095703D01*
X0057693Y0094917D02*
X0058480Y0094917D01*
X0058480Y0094131D02*
X0057693Y0094131D01*
X0057693Y0093346D02*
X0058480Y0093346D01*
X0058480Y0090988D02*
X0057693Y0090988D01*
X0057693Y0090202D02*
X0058480Y0090202D01*
X0058480Y0089416D02*
X0057693Y0089416D01*
X0057693Y0088630D02*
X0058480Y0088630D01*
X0053525Y0088630D02*
X0049101Y0088630D01*
X0048946Y0089005D02*
X0044910Y0093040D01*
X0043752Y0093520D01*
X0042300Y0093520D01*
X0042354Y0093721D01*
X0042354Y0096276D01*
X0038008Y0096276D01*
X0038008Y0097063D01*
X0042354Y0097063D01*
X0042354Y0099618D01*
X0042214Y0100143D01*
X0041942Y0100613D01*
X0041558Y0100997D01*
X0041088Y0101269D01*
X0040563Y0101409D01*
X0038008Y0101409D01*
X0038008Y0097063D01*
X0037220Y0097063D01*
X0037220Y0096276D01*
X0032874Y0096276D01*
X0032874Y0093721D01*
X0033015Y0093196D01*
X0033286Y0092725D01*
X0033670Y0092341D01*
X0034141Y0092070D01*
X0034665Y0091929D01*
X0036590Y0091929D01*
X0036502Y0091717D01*
X0036471Y0091748D01*
X0034820Y0091748D01*
X0034661Y0091589D01*
X0034502Y0091748D01*
X0032852Y0091748D01*
X0032102Y0090998D01*
X0032102Y0089780D01*
X0031492Y0089780D01*
X0030331Y0090941D01*
X0029524Y0091748D01*
X0028953Y0091748D01*
X0028953Y0093731D01*
X0028376Y0094307D01*
X0027378Y0094307D01*
X0027378Y0094504D01*
X0028573Y0094504D01*
X0029150Y0095080D01*
X0029150Y0099833D01*
X0028573Y0100409D01*
X0027378Y0100409D01*
X0027378Y0100606D01*
X0028376Y0100606D01*
X0028953Y0101183D01*
X0028953Y0106329D01*
X0028376Y0106905D01*
X0023624Y0106905D01*
X0023047Y0106329D01*
X0023047Y0101183D01*
X0023624Y0100606D01*
X0024622Y0100606D01*
X0024622Y0100409D01*
X0023427Y0100409D01*
X0022850Y0099833D01*
X0022850Y0095080D01*
X0023427Y0094504D01*
X0024622Y0094504D01*
X0024622Y0094307D01*
X0023624Y0094307D01*
X0023047Y0093731D01*
X0023047Y0088584D01*
X0023624Y0088008D01*
X0028376Y0088008D01*
X0028871Y0088503D01*
X0030350Y0087024D01*
X0032102Y0087024D01*
X0032102Y0085805D01*
X0032852Y0085055D01*
X0034268Y0085055D01*
X0034268Y0085035D01*
X0033894Y0084661D01*
X0029150Y0084661D01*
X0029150Y0087234D01*
X0028573Y0087811D01*
X0023427Y0087811D01*
X0022850Y0087234D01*
X0022850Y0087069D01*
X0022771Y0087365D01*
X0022588Y0087683D01*
X0022328Y0087942D01*
X0022245Y0087990D01*
X0022391Y0088136D01*
X0022574Y0088454D01*
X0022669Y0088809D01*
X0022669Y0090764D01*
X0019701Y0090764D01*
X0019701Y0091551D01*
X0022669Y0091551D01*
X0022669Y0093506D01*
X0022574Y0093861D01*
X0022391Y0094179D01*
X0022131Y0094438D01*
X0021930Y0094554D01*
X0022457Y0095080D01*
X0022457Y0099833D01*
X0021880Y0100409D01*
X0020685Y0100409D01*
X0020685Y0100606D01*
X0021683Y0100606D01*
X0022260Y0101183D01*
X0022260Y0106329D01*
X0021930Y0106658D01*
X0022131Y0106775D01*
X0022391Y0107034D01*
X0022574Y0107352D01*
X0022669Y0107706D01*
X0022669Y0109661D01*
X0019701Y0109661D01*
X0019701Y0110449D01*
X0022669Y0110449D01*
X0022669Y0112404D01*
X0022574Y0112758D01*
X0022391Y0113076D01*
X0022131Y0113336D01*
X0021814Y0113519D01*
X0021459Y0113614D01*
X0019701Y0113614D01*
X0019701Y0110449D01*
X0018913Y0110449D01*
X0018913Y0113614D01*
X0017155Y0113614D01*
X0016945Y0113558D01*
X0016945Y0115784D01*
X0020075Y0118913D01*
X0030724Y0118913D01*
X0030724Y0114583D01*
X0028579Y0114583D01*
X0027201Y0113205D01*
X0023624Y0113205D01*
X0023047Y0112628D01*
X0023047Y0107482D01*
X0023624Y0106906D01*
X0028376Y0106906D01*
X0028953Y0107482D01*
X0028953Y0111059D01*
X0029720Y0111827D01*
X0033894Y0111827D01*
X0034268Y0111453D01*
X0034268Y0108673D01*
X0034195Y0108693D01*
X0033677Y0108693D01*
X0033160Y0108693D01*
X0032730Y0108578D01*
X0032345Y0108355D01*
X0032030Y0108041D01*
X0031808Y0107656D01*
X0031693Y0107226D01*
X0031693Y0104937D01*
X0031693Y0102648D01*
X0031808Y0102218D01*
X0032030Y0101833D01*
X0032345Y0101519D01*
X0032730Y0101296D01*
X0033160Y0101181D01*
X0033677Y0101181D01*
X0033677Y0104937D01*
X0031693Y0104937D01*
X0033677Y0104937D01*
X0033677Y0104937D01*
X0033677Y0104937D01*
X0033677Y0108693D01*
X0033677Y0104937D01*
X0033677Y0104937D01*
X0033677Y0101181D01*
X0033989Y0101181D01*
X0033670Y0100997D01*
X0033286Y0100613D01*
X0033015Y0100143D01*
X0032874Y0099618D01*
X0032874Y0097063D01*
X0037220Y0097063D01*
X0037220Y0101409D01*
X0034820Y0101409D01*
X0035009Y0101519D01*
X0035081Y0101591D01*
X0036471Y0101591D01*
X0036630Y0101750D01*
X0036789Y0101591D01*
X0038439Y0101591D01*
X0038598Y0101750D01*
X0038757Y0101591D01*
X0040408Y0101591D01*
X0040567Y0101750D01*
X0040726Y0101591D01*
X0042376Y0101591D01*
X0042535Y0101750D01*
X0042535Y0101413D01*
X0044898Y0099051D01*
X0044898Y0095474D01*
X0045474Y0094898D01*
X0050227Y0094898D01*
X0050803Y0095474D01*
X0050803Y0100620D01*
X0050620Y0100803D01*
X0050783Y0100803D01*
X0051197Y0101217D01*
X0051197Y0100036D01*
X0052004Y0099228D01*
X0053579Y0097654D01*
X0072043Y0097654D01*
X0072850Y0098461D01*
X0074425Y0100036D01*
X0074425Y0115350D01*
X0073618Y0116157D01*
X0071256Y0118520D01*
X0061827Y0118520D01*
X0061827Y0123101D01*
X0073755Y0135029D01*
X0074128Y0134656D01*
X0081242Y0134656D01*
X0081819Y0135232D01*
X0081819Y0143146D01*
X0081242Y0143722D01*
X0079457Y0143722D01*
X0079457Y0144104D01*
X0081242Y0144104D01*
X0081819Y0144681D01*
X0081819Y0152595D01*
X0081242Y0153171D01*
X0074128Y0153171D01*
X0074031Y0153075D01*
X0074031Y0163652D01*
X0087417Y0177038D01*
X0087417Y0180975D01*
X0089780Y0183337D01*
X0089780Y0186704D01*
X0090183Y0187107D01*
X0090183Y0188909D01*
X0090011Y0189080D01*
X0090317Y0189386D01*
X0094972Y0189386D01*
X0094494Y0188909D01*
X0094494Y0187107D01*
X0095291Y0186310D01*
X0095291Y0186216D01*
X0094504Y0185429D01*
X0094504Y0177988D01*
X0096866Y0175626D01*
X0097673Y0174819D01*
X0098244Y0174819D01*
X0098244Y0172836D01*
X0098821Y0172260D01*
X0103967Y0172260D01*
X0104543Y0172836D01*
X0104543Y0173461D01*
X0104760Y0173244D01*
X0109465Y0173244D01*
X0109465Y0170468D01*
X0107122Y0168126D01*
X0106315Y0167319D01*
X0106315Y0165173D01*
X0105120Y0165173D01*
X0104543Y0164597D01*
X0104543Y0159844D01*
X0105120Y0159268D01*
X0108697Y0159268D01*
X0109484Y0158480D01*
X0105120Y0158480D01*
X0104543Y0157904D01*
X0104543Y0153151D01*
X0105120Y0152575D01*
X0105518Y0152575D01*
X0105518Y0151674D01*
X0106792Y0150400D01*
X0108594Y0150400D01*
X0109868Y0151674D01*
X0109868Y0152575D01*
X0110252Y0152575D01*
X0110252Y0152004D01*
X0111059Y0151197D01*
X0113421Y0148835D01*
X0125436Y0148835D01*
X0125292Y0148585D01*
X0125197Y0148231D01*
X0125197Y0146472D01*
X0128953Y0146472D01*
X0128953Y0145685D01*
X0129740Y0145685D01*
X0129740Y0142717D01*
X0132286Y0142717D01*
X0132640Y0142812D01*
X0132958Y0142995D01*
X0133218Y0143254D01*
X0133401Y0143572D01*
X0133496Y0143927D01*
X0133496Y0145685D01*
X0129740Y0145685D01*
X0129740Y0146472D01*
X0133496Y0146472D01*
X0133496Y0148231D01*
X0133401Y0148585D01*
X0133257Y0148835D01*
X0141335Y0148835D01*
X0142909Y0150409D01*
X0143717Y0151217D01*
X0143717Y0151787D01*
X0144518Y0151787D01*
X0145094Y0152364D01*
X0145094Y0157510D01*
X0144715Y0157890D01*
X0146262Y0157890D01*
X0145882Y0157510D01*
X0145882Y0152364D01*
X0146458Y0151787D01*
X0147250Y0151787D01*
X0147250Y0150887D01*
X0148524Y0149613D01*
X0150326Y0149613D01*
X0151600Y0150887D01*
X0151600Y0152177D01*
X0151787Y0152364D01*
X0151787Y0157510D01*
X0151211Y0158087D01*
X0149636Y0158087D01*
X0150016Y0158466D01*
X0150016Y0164794D01*
X0149439Y0165370D01*
X0148441Y0165370D01*
X0148441Y0166198D01*
X0148651Y0166142D01*
X0150409Y0166142D01*
X0150409Y0169898D01*
X0151197Y0169898D01*
X0151197Y0170685D01*
X0154165Y0170685D01*
X0154165Y0173231D01*
X0154070Y0173585D01*
X0153887Y0173903D01*
X0153627Y0174162D01*
X0153310Y0174346D01*
X0152955Y0174441D01*
X0151197Y0174441D01*
X0151197Y0170685D01*
X0150409Y0170685D01*
X0150409Y0174441D01*
X0149027Y0174441D01*
X0149209Y0174622D01*
X0152786Y0174622D01*
X0153362Y0175199D01*
X0153362Y0180345D01*
X0152786Y0180921D01*
X0148033Y0180921D01*
X0147457Y0180345D01*
X0147457Y0176768D01*
X0146669Y0175980D01*
X0146669Y0180345D01*
X0146093Y0180921D01*
X0143717Y0180921D01*
X0143717Y0181512D01*
X0160502Y0181512D01*
X0163598Y0178416D01*
X0163598Y0175213D01*
X0162797Y0175213D01*
X0162220Y0174636D01*
X0162220Y0174471D01*
X0162141Y0174766D01*
X0161958Y0175084D01*
X0161698Y0175344D01*
X0161380Y0175527D01*
X0161026Y0175622D01*
X0159071Y0175622D01*
X0159071Y0172654D01*
X0158283Y0172654D01*
X0158283Y0175622D01*
X0156328Y0175622D01*
X0155974Y0175527D01*
X0155656Y0175344D01*
X0155397Y0175084D01*
X0155213Y0174766D01*
X0155118Y0174412D01*
X0155118Y0172654D01*
X0158283Y0172654D01*
X0158283Y0171866D01*
X0155118Y0171866D01*
X0155118Y0170108D01*
X0155213Y0169753D01*
X0155397Y0169436D01*
X0155656Y0169176D01*
X0155974Y0168993D01*
X0156328Y0168898D01*
X0158283Y0168898D01*
X0158283Y0171866D01*
X0159071Y0171866D01*
X0159071Y0168898D01*
X0161026Y0168898D01*
X0161380Y0168993D01*
X0161698Y0169176D01*
X0161958Y0169436D01*
X0162141Y0169753D01*
X0162220Y0170049D01*
X0162220Y0169884D01*
X0162797Y0169307D01*
X0167943Y0169307D01*
X0168520Y0169884D01*
X0168520Y0170350D01*
X0171065Y0170350D01*
X0171458Y0169957D01*
X0180935Y0169957D01*
X0181512Y0170533D01*
X0181512Y0173711D01*
X0180935Y0174287D01*
X0171458Y0174287D01*
X0171065Y0173894D01*
X0168520Y0173894D01*
X0168520Y0174636D01*
X0167943Y0175213D01*
X0167142Y0175213D01*
X0167142Y0179883D01*
X0163008Y0184017D01*
X0161970Y0185055D01*
X0143072Y0185055D01*
X0131512Y0196616D01*
X0130474Y0197654D01*
X0120291Y0197654D01*
X0120291Y0203165D01*
X0121880Y0203165D01*
X0122457Y0203742D01*
X0122457Y0203907D01*
X0122536Y0203612D01*
X0122719Y0203294D01*
X0122979Y0203034D01*
X0123297Y0202851D01*
X0123651Y0202756D01*
X0125606Y0202756D01*
X0125606Y0205724D01*
X0126394Y0205724D01*
X0126394Y0206512D01*
X0129559Y0206512D01*
X0129559Y0208270D01*
X0129464Y0208625D01*
X0129434Y0208677D01*
X0137014Y0208677D01*
X0137014Y0208367D01*
X0138288Y0207093D01*
X0140090Y0207093D01*
X0141327Y0208330D01*
X0168913Y0180744D01*
X0170882Y0180744D01*
X0170882Y0180533D01*
X0171458Y0179957D01*
X0180935Y0179957D01*
X0181512Y0180533D01*
X0181512Y0183106D01*
X0181906Y0182713D01*
X0181906Y0178545D01*
X0181826Y0178841D01*
X0181643Y0179159D01*
X0181383Y0179418D01*
X0181066Y0179602D01*
X0180711Y0179697D01*
X0176394Y0179697D01*
X0176394Y0177319D01*
X0176000Y0177319D01*
X0176000Y0179697D01*
X0171683Y0179697D01*
X0171328Y0179602D01*
X0171010Y0179418D01*
X0170751Y0179159D01*
X0170567Y0178841D01*
X0170472Y0178487D01*
X0170472Y0177319D01*
X0176000Y0177319D01*
X0176000Y0176925D01*
X0176394Y0176925D01*
X0176394Y0174547D01*
X0180711Y0174547D01*
X0181066Y0174642D01*
X0181383Y0174826D01*
X0181643Y0175085D01*
X0181826Y0175403D01*
X0181906Y0175699D01*
X0181906Y0168894D01*
X0181512Y0168500D01*
X0181512Y0168500D01*
X0181512Y0168711D01*
X0180935Y0169287D01*
X0171458Y0169287D01*
X0170882Y0168711D01*
X0170882Y0165533D01*
X0171458Y0164957D01*
X0180935Y0164957D01*
X0181512Y0165533D01*
X0181512Y0165744D01*
X0182653Y0165744D01*
X0183854Y0166945D01*
X0184661Y0167752D01*
X0184661Y0183854D01*
X0183087Y0185429D01*
X0182788Y0185727D01*
X0183283Y0186222D01*
X0183283Y0186847D01*
X0188579Y0181551D01*
X0189386Y0180744D01*
X0191354Y0180744D01*
X0191354Y0180533D01*
X0191616Y0180272D01*
X0191523Y0180272D01*
X0190370Y0179119D01*
X0190370Y0175126D01*
X0190874Y0174622D01*
X0190370Y0174119D01*
X0190370Y0170126D01*
X0191523Y0168972D01*
X0191616Y0168972D01*
X0191354Y0168711D01*
X0191354Y0165533D01*
X0191931Y0164957D01*
X0201408Y0164957D01*
X0201984Y0165533D01*
X0201984Y0168711D01*
X0201723Y0168972D01*
X0201815Y0168972D01*
X0202209Y0169366D01*
X0202752Y0169366D01*
X0203362Y0168756D01*
X0203362Y0139782D01*
X0203084Y0140454D01*
X0201478Y0142060D01*
X0199380Y0142929D01*
X0197109Y0142929D01*
X0195010Y0142060D01*
X0193405Y0140454D01*
X0192535Y0138356D01*
X0192535Y0136085D01*
X0193405Y0133987D01*
X0195010Y0132381D01*
X0196236Y0131873D01*
X0195456Y0131550D01*
X0194072Y0130166D01*
X0193749Y0129386D01*
X0193241Y0130612D01*
X0191635Y0132218D01*
X0189537Y0133087D01*
X0187266Y0133087D01*
X0185168Y0132218D01*
X0183562Y0130612D01*
X0182693Y0128513D01*
X0182693Y0127794D01*
X0181883Y0126984D01*
X0175335Y0126984D01*
X0173744Y0126325D01*
X0156293Y0108874D01*
X0151223Y0108874D01*
X0151787Y0110237D01*
X0151787Y0112117D01*
X0151068Y0113853D01*
X0149739Y0115182D01*
X0148003Y0115902D01*
X0146123Y0115902D01*
X0144387Y0115182D01*
X0143058Y0113853D01*
X0142339Y0112117D01*
X0142339Y0110237D01*
X0143058Y0108501D01*
X0144387Y0107172D01*
X0144921Y0106951D01*
X0142838Y0104868D01*
X0141620Y0103650D01*
X0141175Y0102575D01*
X0140983Y0102575D01*
X0136918Y0106640D01*
X0135326Y0107299D01*
X0133434Y0107299D01*
X0133179Y0107915D01*
X0132404Y0108691D01*
X0131391Y0109110D01*
X0121790Y0109110D01*
X0120777Y0108691D01*
X0120002Y0107915D01*
X0119698Y0107181D01*
X0116948Y0107181D01*
X0116643Y0107915D01*
X0115868Y0108691D01*
X0114855Y0109110D01*
X0111098Y0109110D01*
X0111630Y0110394D01*
X0111630Y0111960D01*
X0111441Y0112417D01*
X0116981Y0112417D01*
X0118138Y0112897D01*
X0119713Y0114472D01*
X0120599Y0115358D01*
X0120945Y0116192D01*
X0120945Y0115187D01*
X0121040Y0114832D01*
X0121223Y0114514D01*
X0121483Y0114255D01*
X0121801Y0114071D01*
X0122155Y0113976D01*
X0126197Y0113976D01*
X0126197Y0118480D01*
X0126984Y0118480D01*
X0126984Y0113976D01*
X0131026Y0113976D01*
X0131380Y0114071D01*
X0131698Y0114255D01*
X0131958Y0114514D01*
X0132141Y0114832D01*
X0132236Y0115187D01*
X0132236Y0118480D01*
X0126984Y0118480D01*
X0126984Y0119268D01*
X0126197Y0119268D01*
X0126197Y0123772D01*
X0122155Y0123772D01*
X0121801Y0123677D01*
X0121483Y0123493D01*
X0121223Y0123234D01*
X0121040Y0122916D01*
X0120945Y0122561D01*
X0120945Y0120454D01*
X0120599Y0121288D01*
X0118237Y0123650D01*
X0117351Y0124536D01*
X0116193Y0125016D01*
X0115140Y0125016D01*
X0114855Y0125134D01*
X0105255Y0125134D01*
X0104970Y0125016D01*
X0102698Y0125016D01*
X0094615Y0133099D01*
X0093729Y0133985D01*
X0092571Y0134465D01*
X0088169Y0134465D01*
X0087011Y0133985D01*
X0086125Y0133099D01*
X0085436Y0132410D01*
X0084550Y0131524D01*
X0084071Y0130367D01*
X0084071Y0116515D01*
X0084550Y0115358D01*
X0086125Y0113783D01*
X0086125Y0113783D01*
X0087011Y0112897D01*
X0088169Y0112417D01*
X0103945Y0112417D01*
X0103756Y0111960D01*
X0103756Y0110394D01*
X0104355Y0108947D01*
X0104503Y0108799D01*
X0104242Y0108691D01*
X0103467Y0107915D01*
X0103047Y0106903D01*
X0103047Y0098798D01*
X0103467Y0097785D01*
X0104242Y0097010D01*
X0105255Y0096591D01*
X0105724Y0096591D01*
X0105724Y0092164D01*
X0095663Y0082102D01*
X0049425Y0082102D01*
X0049425Y0087847D01*
X0048946Y0089005D01*
X0048534Y0089416D02*
X0053150Y0089416D01*
X0053150Y0090202D02*
X0047748Y0090202D01*
X0046962Y0090988D02*
X0053150Y0090988D01*
X0053150Y0091774D02*
X0046177Y0091774D01*
X0044173Y0093346D02*
X0053150Y0093346D01*
X0053150Y0094131D02*
X0042354Y0094131D01*
X0042354Y0094917D02*
X0045454Y0094917D01*
X0044898Y0095703D02*
X0042354Y0095703D01*
X0042354Y0097275D02*
X0044898Y0097275D01*
X0044898Y0096489D02*
X0038008Y0096489D01*
X0038008Y0096276D02*
X0038008Y0093241D01*
X0037559Y0093055D01*
X0037220Y0092717D01*
X0037220Y0096276D01*
X0038008Y0096276D01*
X0038008Y0095703D02*
X0037220Y0095703D01*
X0037220Y0094917D02*
X0038008Y0094917D01*
X0038008Y0094131D02*
X0037220Y0094131D01*
X0037220Y0093346D02*
X0038008Y0093346D01*
X0036525Y0091774D02*
X0028953Y0091774D01*
X0028953Y0092560D02*
X0033452Y0092560D01*
X0032974Y0093346D02*
X0028953Y0093346D01*
X0028552Y0094131D02*
X0032874Y0094131D01*
X0032874Y0094917D02*
X0028986Y0094917D01*
X0029150Y0095703D02*
X0032874Y0095703D01*
X0032874Y0097275D02*
X0029150Y0097275D01*
X0029150Y0096489D02*
X0037220Y0096489D01*
X0037220Y0097275D02*
X0038008Y0097275D01*
X0038008Y0098061D02*
X0037220Y0098061D01*
X0037220Y0098847D02*
X0038008Y0098847D01*
X0038008Y0099633D02*
X0037220Y0099633D01*
X0037220Y0100419D02*
X0038008Y0100419D01*
X0038008Y0101205D02*
X0037220Y0101205D01*
X0033677Y0101205D02*
X0033677Y0101205D01*
X0033072Y0101205D02*
X0028953Y0101205D01*
X0028953Y0101991D02*
X0031939Y0101991D01*
X0031693Y0102776D02*
X0028953Y0102776D01*
X0028953Y0103562D02*
X0031693Y0103562D01*
X0031693Y0104348D02*
X0028953Y0104348D01*
X0028953Y0105134D02*
X0031693Y0105134D01*
X0031693Y0105920D02*
X0028953Y0105920D01*
X0028576Y0106706D02*
X0031693Y0106706D01*
X0031764Y0107492D02*
X0028953Y0107492D01*
X0028953Y0108278D02*
X0032267Y0108278D01*
X0033677Y0108278D02*
X0033677Y0108278D01*
X0033677Y0107492D02*
X0033677Y0107492D01*
X0033677Y0106706D02*
X0033677Y0106706D01*
X0033677Y0105920D02*
X0033677Y0105920D01*
X0033677Y0105134D02*
X0033677Y0105134D01*
X0033677Y0104348D02*
X0033677Y0104348D01*
X0033677Y0103562D02*
X0033677Y0103562D01*
X0033677Y0102776D02*
X0033677Y0102776D01*
X0033677Y0101991D02*
X0033677Y0101991D01*
X0033174Y0100419D02*
X0027378Y0100419D01*
X0029150Y0099633D02*
X0032878Y0099633D01*
X0032874Y0098847D02*
X0029150Y0098847D01*
X0029150Y0098061D02*
X0032874Y0098061D01*
X0026000Y0097457D02*
X0026000Y0103756D01*
X0023047Y0103562D02*
X0022260Y0103562D01*
X0022260Y0102776D02*
X0023047Y0102776D01*
X0023047Y0101991D02*
X0022260Y0101991D01*
X0022260Y0101205D02*
X0023047Y0101205D01*
X0022850Y0099633D02*
X0022457Y0099633D01*
X0022457Y0098847D02*
X0022850Y0098847D01*
X0022850Y0098061D02*
X0022457Y0098061D01*
X0022457Y0097275D02*
X0022850Y0097275D01*
X0022850Y0096489D02*
X0022457Y0096489D01*
X0022457Y0095703D02*
X0022850Y0095703D01*
X0023014Y0094917D02*
X0022294Y0094917D01*
X0022418Y0094131D02*
X0023448Y0094131D01*
X0023047Y0093346D02*
X0022669Y0093346D01*
X0022669Y0092560D02*
X0023047Y0092560D01*
X0023047Y0091774D02*
X0022669Y0091774D01*
X0023047Y0090988D02*
X0019701Y0090988D01*
X0019701Y0090764D02*
X0019701Y0088220D01*
X0019701Y0085252D01*
X0018913Y0085252D01*
X0018913Y0090764D01*
X0019701Y0090764D01*
X0019701Y0090202D02*
X0018913Y0090202D01*
X0018913Y0090988D02*
X0009157Y0090988D01*
X0008888Y0091774D02*
X0015945Y0091774D01*
X0015945Y0092560D02*
X0008618Y0092560D01*
X0008348Y0093346D02*
X0015945Y0093346D01*
X0016196Y0094131D02*
X0008131Y0094131D01*
X0007955Y0094917D02*
X0016321Y0094917D01*
X0016157Y0095703D02*
X0007779Y0095703D01*
X0007603Y0096489D02*
X0016157Y0096489D01*
X0016157Y0097275D02*
X0007427Y0097275D01*
X0007251Y0098061D02*
X0016157Y0098061D01*
X0016157Y0098847D02*
X0007074Y0098847D01*
X0006898Y0099633D02*
X0016157Y0099633D01*
X0016354Y0101205D02*
X0006546Y0101205D01*
X0006370Y0101991D02*
X0016354Y0101991D01*
X0016354Y0102776D02*
X0006194Y0102776D01*
X0006018Y0103562D02*
X0016354Y0103562D01*
X0016354Y0104348D02*
X0005842Y0104348D01*
X0005665Y0105134D02*
X0016177Y0105134D01*
X0015391Y0105920D02*
X0005489Y0105920D01*
X0005313Y0106706D02*
X0014605Y0106706D01*
X0014189Y0107492D02*
X0005193Y0107492D01*
X0005106Y0108278D02*
X0014189Y0108278D01*
X0014189Y0109064D02*
X0005019Y0109064D01*
X0004932Y0109850D02*
X0014189Y0109850D01*
X0014189Y0110636D02*
X0004845Y0110636D01*
X0004758Y0111422D02*
X0014189Y0111422D01*
X0014189Y0112207D02*
X0004671Y0112207D01*
X0004584Y0112993D02*
X0014189Y0112993D01*
X0014189Y0113779D02*
X0004497Y0113779D01*
X0004410Y0114565D02*
X0014189Y0114565D01*
X0014189Y0115351D02*
X0004323Y0115351D01*
X0004236Y0116137D02*
X0014189Y0116137D01*
X0014189Y0116923D02*
X0004149Y0116923D01*
X0004062Y0117709D02*
X0014973Y0117709D01*
X0015759Y0118495D02*
X0003975Y0118495D01*
X0003888Y0119281D02*
X0016545Y0119281D01*
X0017330Y0120067D02*
X0003801Y0120067D01*
X0003747Y0120852D02*
X0018116Y0120852D01*
X0018902Y0121638D02*
X0003747Y0121638D01*
X0003747Y0122424D02*
X0030315Y0122424D01*
X0030315Y0123210D02*
X0003747Y0123210D01*
X0003747Y0123996D02*
X0033283Y0123996D01*
X0033283Y0124782D02*
X0034071Y0124782D01*
X0034071Y0124031D02*
X0037039Y0124031D01*
X0039583Y0124031D01*
X0039583Y0123244D01*
X0034071Y0123244D01*
X0034071Y0124031D01*
X0034071Y0123996D02*
X0039583Y0123996D01*
X0039583Y0124782D02*
X0040370Y0124782D01*
X0040370Y0123996D02*
X0055528Y0123996D01*
X0055528Y0123210D02*
X0043339Y0123210D01*
X0043339Y0122424D02*
X0055528Y0122424D01*
X0055528Y0121638D02*
X0043728Y0121638D01*
X0044514Y0120852D02*
X0055528Y0120852D01*
X0055528Y0120067D02*
X0051599Y0120067D01*
X0052385Y0119281D02*
X0055528Y0119281D01*
X0054341Y0118495D02*
X0053171Y0118495D01*
X0051000Y0118717D02*
X0054150Y0115567D01*
X0053932Y0116137D02*
X0071690Y0116137D01*
X0072476Y0115351D02*
X0053146Y0115351D01*
X0052575Y0114780D02*
X0054937Y0117142D01*
X0070685Y0117142D01*
X0073047Y0114780D01*
X0073047Y0100606D01*
X0071472Y0099031D01*
X0054150Y0099031D01*
X0052575Y0100606D01*
X0052575Y0114780D01*
X0052575Y0114565D02*
X0073047Y0114565D01*
X0073047Y0113779D02*
X0052575Y0113779D01*
X0052575Y0112993D02*
X0073047Y0112993D01*
X0073047Y0112207D02*
X0052575Y0112207D01*
X0052575Y0111422D02*
X0073047Y0111422D01*
X0073047Y0110636D02*
X0052575Y0110636D01*
X0052575Y0109850D02*
X0073047Y0109850D01*
X0073047Y0109064D02*
X0052575Y0109064D01*
X0052575Y0108278D02*
X0073047Y0108278D01*
X0073047Y0107492D02*
X0052575Y0107492D01*
X0052575Y0106706D02*
X0073047Y0106706D01*
X0073047Y0105920D02*
X0052575Y0105920D01*
X0052575Y0105134D02*
X0073047Y0105134D01*
X0073047Y0104348D02*
X0052575Y0104348D01*
X0052575Y0103562D02*
X0073047Y0103562D01*
X0073047Y0102776D02*
X0052575Y0102776D01*
X0052575Y0101991D02*
X0073047Y0101991D01*
X0073047Y0101205D02*
X0052575Y0101205D01*
X0052762Y0100419D02*
X0072860Y0100419D01*
X0072074Y0099633D02*
X0053548Y0099633D01*
X0052385Y0098847D02*
X0050803Y0098847D01*
X0050803Y0099633D02*
X0051600Y0099633D01*
X0051197Y0100419D02*
X0050803Y0100419D01*
X0051185Y0101205D02*
X0051197Y0101205D01*
X0050213Y0102181D02*
X0051000Y0102969D01*
X0051000Y0116354D01*
X0050213Y0117142D01*
X0044701Y0117142D01*
X0043126Y0115567D01*
X0043126Y0113992D01*
X0039189Y0110055D01*
X0039189Y0108480D01*
X0043126Y0108480D01*
X0045488Y0106118D01*
X0045488Y0102969D01*
X0046276Y0102181D01*
X0050213Y0102181D01*
X0050808Y0102776D02*
X0045680Y0102776D01*
X0045488Y0103562D02*
X0051000Y0103562D01*
X0051000Y0104348D02*
X0045488Y0104348D01*
X0045488Y0105134D02*
X0051000Y0105134D01*
X0051000Y0105920D02*
X0045488Y0105920D01*
X0044900Y0106706D02*
X0051000Y0106706D01*
X0051000Y0107492D02*
X0044114Y0107492D01*
X0043328Y0108278D02*
X0051000Y0108278D01*
X0051000Y0109064D02*
X0039189Y0109064D01*
X0039583Y0108874D02*
X0039976Y0109268D01*
X0039583Y0108874D02*
X0039583Y0104937D01*
X0041551Y0104937D02*
X0042732Y0104937D01*
X0043913Y0103756D01*
X0043913Y0101984D01*
X0047850Y0098047D01*
X0044898Y0098061D02*
X0042354Y0098061D01*
X0042354Y0098847D02*
X0044898Y0098847D01*
X0044316Y0099633D02*
X0042350Y0099633D01*
X0042054Y0100419D02*
X0043530Y0100419D01*
X0042744Y0101205D02*
X0041199Y0101205D01*
X0037614Y0104937D02*
X0037614Y0110843D01*
X0039976Y0113205D01*
X0039976Y0116945D01*
X0033677Y0116945D01*
X0030724Y0116923D02*
X0018084Y0116923D01*
X0017298Y0116137D02*
X0030724Y0116137D01*
X0030724Y0115351D02*
X0016945Y0115351D01*
X0016945Y0114565D02*
X0028561Y0114565D01*
X0027775Y0113779D02*
X0016945Y0113779D01*
X0018913Y0112993D02*
X0019701Y0112993D01*
X0019701Y0112207D02*
X0018913Y0112207D01*
X0018913Y0111422D02*
X0019701Y0111422D01*
X0019701Y0110636D02*
X0018913Y0110636D01*
X0019701Y0109850D02*
X0023047Y0109850D01*
X0023047Y0110636D02*
X0022669Y0110636D01*
X0022669Y0111422D02*
X0023047Y0111422D01*
X0023047Y0112207D02*
X0022669Y0112207D01*
X0022439Y0112993D02*
X0023412Y0112993D01*
X0026000Y0110055D02*
X0029150Y0113205D01*
X0034465Y0113205D01*
X0035646Y0112024D01*
X0035646Y0104937D01*
X0034268Y0109064D02*
X0028953Y0109064D01*
X0028953Y0109850D02*
X0034268Y0109850D01*
X0034268Y0110636D02*
X0028953Y0110636D01*
X0029315Y0111422D02*
X0034268Y0111422D01*
X0039189Y0109850D02*
X0051000Y0109850D01*
X0051000Y0110636D02*
X0039769Y0110636D01*
X0040555Y0111422D02*
X0051000Y0111422D01*
X0051000Y0112207D02*
X0041341Y0112207D01*
X0042127Y0112993D02*
X0051000Y0112993D01*
X0051000Y0113779D02*
X0042913Y0113779D01*
X0043126Y0114565D02*
X0051000Y0114565D01*
X0051000Y0115351D02*
X0043126Y0115351D01*
X0043696Y0116137D02*
X0051000Y0116137D01*
X0050431Y0116923D02*
X0044482Y0116923D01*
X0044701Y0118717D02*
X0043126Y0120291D01*
X0019504Y0120291D01*
X0015567Y0116354D01*
X0015567Y0107693D01*
X0019307Y0103953D01*
X0019307Y0103756D01*
X0019307Y0097457D01*
X0017929Y0100419D02*
X0006722Y0100419D01*
X0009427Y0090202D02*
X0015945Y0090202D01*
X0015945Y0089416D02*
X0009697Y0089416D01*
X0009967Y0088630D02*
X0015993Y0088630D01*
X0016188Y0087844D02*
X0010237Y0087844D01*
X0010506Y0087058D02*
X0015761Y0087058D01*
X0015748Y0086272D02*
X0010776Y0086272D01*
X0011046Y0085486D02*
X0015748Y0085486D01*
X0015748Y0083915D02*
X0011586Y0083915D01*
X0011316Y0084700D02*
X0018913Y0084700D01*
X0018913Y0083915D02*
X0019701Y0083915D01*
X0019701Y0083129D02*
X0018913Y0083129D01*
X0018913Y0082343D02*
X0019701Y0082343D01*
X0019701Y0081557D02*
X0018913Y0081557D01*
X0016732Y0081557D02*
X0012395Y0081557D01*
X0012125Y0082343D02*
X0015848Y0082343D01*
X0015748Y0083129D02*
X0011855Y0083129D01*
X0012667Y0080771D02*
X0026000Y0080771D01*
X0025984Y0079985D02*
X0013037Y0079985D01*
X0013408Y0079199D02*
X0025984Y0079199D01*
X0025984Y0078413D02*
X0013779Y0078413D01*
X0014150Y0077627D02*
X0025984Y0077627D01*
X0026436Y0081557D02*
X0021883Y0081557D01*
X0022766Y0082343D02*
X0022990Y0082343D01*
X0026000Y0084858D02*
X0027575Y0083283D01*
X0034465Y0083283D01*
X0035646Y0084465D01*
X0035646Y0088402D01*
X0033677Y0088402D02*
X0030921Y0088402D01*
X0028953Y0090370D01*
X0026787Y0090370D01*
X0026000Y0091157D01*
X0026000Y0097457D01*
X0024622Y0100419D02*
X0020685Y0100419D01*
X0022260Y0104348D02*
X0023047Y0104348D01*
X0023047Y0105134D02*
X0022260Y0105134D01*
X0022260Y0105920D02*
X0023047Y0105920D01*
X0023424Y0106706D02*
X0022013Y0106706D01*
X0022612Y0107492D02*
X0023047Y0107492D01*
X0023047Y0108278D02*
X0022669Y0108278D01*
X0022669Y0109064D02*
X0023047Y0109064D01*
X0018870Y0117709D02*
X0030724Y0117709D01*
X0030724Y0118495D02*
X0019656Y0118495D01*
X0021880Y0128543D02*
X0023835Y0128543D01*
X0023835Y0131512D01*
X0024622Y0131512D01*
X0024622Y0132299D01*
X0027787Y0132299D01*
X0027787Y0134057D01*
X0027692Y0134412D01*
X0027509Y0134730D01*
X0027249Y0134989D01*
X0026932Y0135173D01*
X0026577Y0135268D01*
X0024622Y0135268D01*
X0024622Y0132299D01*
X0023835Y0132299D01*
X0023835Y0135268D01*
X0021880Y0135268D01*
X0021525Y0135173D01*
X0021207Y0134989D01*
X0020948Y0134730D01*
X0020764Y0134412D01*
X0020669Y0134057D01*
X0020669Y0132299D01*
X0023835Y0132299D01*
X0023835Y0131512D01*
X0020669Y0131512D01*
X0020669Y0129754D01*
X0020764Y0129399D01*
X0020948Y0129081D01*
X0021207Y0128822D01*
X0021525Y0128638D01*
X0021880Y0128543D01*
X0021398Y0128712D02*
X0003747Y0128712D01*
X0003747Y0129498D02*
X0020738Y0129498D01*
X0020669Y0130283D02*
X0003747Y0130283D01*
X0003747Y0131069D02*
X0020669Y0131069D01*
X0020669Y0132641D02*
X0003747Y0132641D01*
X0003747Y0131855D02*
X0023835Y0131855D01*
X0023835Y0131069D02*
X0024622Y0131069D01*
X0024622Y0131512D02*
X0024622Y0128543D01*
X0026577Y0128543D01*
X0026932Y0128638D01*
X0027249Y0128822D01*
X0027509Y0129081D01*
X0027692Y0129399D01*
X0027787Y0129754D01*
X0027787Y0131512D01*
X0024622Y0131512D01*
X0024622Y0131855D02*
X0034071Y0131855D01*
X0034071Y0131512D02*
X0034071Y0132299D01*
X0030906Y0132299D01*
X0030906Y0134057D01*
X0031000Y0134412D01*
X0031184Y0134730D01*
X0031443Y0134989D01*
X0031761Y0135173D01*
X0032116Y0135268D01*
X0034071Y0135268D01*
X0034071Y0132299D01*
X0034858Y0132299D01*
X0034858Y0135268D01*
X0036813Y0135268D01*
X0037168Y0135173D01*
X0037486Y0134989D01*
X0037745Y0134730D01*
X0037929Y0134412D01*
X0038024Y0134057D01*
X0038024Y0132299D01*
X0034858Y0132299D01*
X0034858Y0131512D01*
X0034858Y0128543D01*
X0036813Y0128543D01*
X0037168Y0128638D01*
X0037486Y0128822D01*
X0037745Y0129081D01*
X0037929Y0129399D01*
X0038024Y0129754D01*
X0038024Y0131512D01*
X0034858Y0131512D01*
X0034071Y0131512D01*
X0030906Y0131512D01*
X0030906Y0129754D01*
X0031000Y0129399D01*
X0031184Y0129081D01*
X0031443Y0128822D01*
X0031761Y0128638D01*
X0032116Y0128543D01*
X0034071Y0128543D01*
X0034071Y0131512D01*
X0034071Y0131069D02*
X0034858Y0131069D01*
X0034858Y0130283D02*
X0034071Y0130283D01*
X0034071Y0129498D02*
X0034858Y0129498D01*
X0034858Y0128712D02*
X0034071Y0128712D01*
X0034071Y0127140D02*
X0033283Y0127140D01*
X0033283Y0126354D02*
X0034071Y0126354D01*
X0034071Y0125568D02*
X0033283Y0125568D01*
X0031312Y0127140D02*
X0003747Y0127140D01*
X0003747Y0127926D02*
X0057704Y0127926D01*
X0057171Y0128822D02*
X0057430Y0129081D01*
X0057614Y0129399D01*
X0057709Y0129754D01*
X0057709Y0131512D01*
X0054543Y0131512D01*
X0054543Y0128543D01*
X0056498Y0128543D01*
X0056853Y0128638D01*
X0057171Y0128822D01*
X0056980Y0128712D02*
X0058490Y0128712D01*
X0059275Y0129498D02*
X0057640Y0129498D01*
X0057709Y0130283D02*
X0060061Y0130283D01*
X0060847Y0131069D02*
X0057709Y0131069D01*
X0057709Y0132299D02*
X0054543Y0132299D01*
X0053756Y0132299D01*
X0053756Y0131512D01*
X0050591Y0131512D01*
X0050591Y0129754D01*
X0050686Y0129399D01*
X0050869Y0129081D01*
X0051128Y0128822D01*
X0051446Y0128638D01*
X0051801Y0128543D01*
X0053756Y0128543D01*
X0053756Y0131512D01*
X0054543Y0131512D01*
X0054543Y0132299D01*
X0054543Y0135268D01*
X0056498Y0135268D01*
X0056853Y0135173D01*
X0057171Y0134989D01*
X0057430Y0134730D01*
X0057614Y0134412D01*
X0057709Y0134057D01*
X0057709Y0132299D01*
X0057709Y0132641D02*
X0062419Y0132641D01*
X0061633Y0131855D02*
X0054543Y0131855D01*
X0054543Y0131069D02*
X0053756Y0131069D01*
X0053756Y0130283D02*
X0054543Y0130283D01*
X0054543Y0129498D02*
X0053756Y0129498D01*
X0053756Y0128712D02*
X0054543Y0128712D01*
X0056132Y0126354D02*
X0043236Y0126354D01*
X0043339Y0125568D02*
X0055528Y0125568D01*
X0055528Y0124782D02*
X0043339Y0124782D01*
X0042341Y0127140D02*
X0056918Y0127140D01*
X0053756Y0131855D02*
X0044307Y0131855D01*
X0044307Y0131512D02*
X0044307Y0132299D01*
X0047472Y0132299D01*
X0047472Y0134057D01*
X0047377Y0134412D01*
X0047194Y0134730D01*
X0046934Y0134989D01*
X0046617Y0135173D01*
X0046262Y0135268D01*
X0044307Y0135268D01*
X0044307Y0132299D01*
X0043520Y0132299D01*
X0043520Y0135268D01*
X0041565Y0135268D01*
X0041210Y0135173D01*
X0040892Y0134989D01*
X0040633Y0134730D01*
X0040449Y0134412D01*
X0040354Y0134057D01*
X0040354Y0132299D01*
X0043520Y0132299D01*
X0043520Y0131512D01*
X0044307Y0131512D01*
X0047472Y0131512D01*
X0047472Y0129754D01*
X0047377Y0129399D01*
X0047194Y0129081D01*
X0046934Y0128822D01*
X0046617Y0128638D01*
X0046262Y0128543D01*
X0044307Y0128543D01*
X0044307Y0131512D01*
X0044307Y0131069D02*
X0043520Y0131069D01*
X0043520Y0131512D02*
X0043520Y0128543D01*
X0041565Y0128543D01*
X0041210Y0128638D01*
X0040892Y0128822D01*
X0040633Y0129081D01*
X0040449Y0129399D01*
X0040354Y0129754D01*
X0040354Y0131512D01*
X0043520Y0131512D01*
X0043520Y0131855D02*
X0034858Y0131855D01*
X0034858Y0132641D02*
X0034071Y0132641D01*
X0034071Y0133427D02*
X0034858Y0133427D01*
X0034858Y0134213D02*
X0034071Y0134213D01*
X0034071Y0134999D02*
X0034858Y0134999D01*
X0037038Y0135646D02*
X0031892Y0135646D01*
X0031315Y0136222D01*
X0031315Y0140975D01*
X0031892Y0141551D01*
X0032811Y0141551D01*
X0032811Y0141669D01*
X0031557Y0141669D01*
X0030980Y0142246D01*
X0030980Y0152668D01*
X0031557Y0153244D01*
X0036821Y0153244D01*
X0037398Y0152668D01*
X0037398Y0142246D01*
X0036821Y0141669D01*
X0035567Y0141669D01*
X0035567Y0141551D01*
X0037038Y0141551D01*
X0037614Y0140975D01*
X0037614Y0136222D01*
X0037038Y0135646D01*
X0037177Y0135785D02*
X0041201Y0135785D01*
X0041340Y0135646D02*
X0046486Y0135646D01*
X0047063Y0136222D01*
X0047063Y0140975D01*
X0046486Y0141551D01*
X0045567Y0141551D01*
X0045567Y0141669D01*
X0046821Y0141669D01*
X0047398Y0142246D01*
X0047398Y0152668D01*
X0046821Y0153244D01*
X0041557Y0153244D01*
X0040980Y0152668D01*
X0040980Y0142246D01*
X0041557Y0141669D01*
X0042811Y0141669D01*
X0042811Y0141551D01*
X0041340Y0141551D01*
X0040764Y0140975D01*
X0040764Y0136222D01*
X0041340Y0135646D01*
X0040909Y0134999D02*
X0037469Y0134999D01*
X0037982Y0134213D02*
X0040396Y0134213D01*
X0040354Y0133427D02*
X0038024Y0133427D01*
X0038024Y0132641D02*
X0040354Y0132641D01*
X0040354Y0131069D02*
X0038024Y0131069D01*
X0038024Y0130283D02*
X0040354Y0130283D01*
X0040423Y0129498D02*
X0037955Y0129498D01*
X0037295Y0128712D02*
X0041083Y0128712D01*
X0040370Y0127140D02*
X0039583Y0127140D01*
X0039583Y0126354D02*
X0040370Y0126354D01*
X0040370Y0125568D02*
X0039583Y0125568D01*
X0037611Y0127140D02*
X0036042Y0127140D01*
X0031634Y0128712D02*
X0027059Y0128712D01*
X0027719Y0129498D02*
X0030974Y0129498D01*
X0030906Y0130283D02*
X0027787Y0130283D01*
X0027787Y0131069D02*
X0030906Y0131069D01*
X0030906Y0132641D02*
X0027787Y0132641D01*
X0027787Y0133427D02*
X0030906Y0133427D01*
X0030947Y0134213D02*
X0027746Y0134213D01*
X0027233Y0134999D02*
X0031460Y0134999D01*
X0031752Y0135785D02*
X0026941Y0135785D01*
X0026801Y0135646D02*
X0027378Y0136222D01*
X0027378Y0140975D01*
X0026801Y0141551D01*
X0025567Y0141551D01*
X0025567Y0141669D01*
X0026821Y0141669D01*
X0027398Y0142246D01*
X0027398Y0152668D01*
X0026821Y0153244D01*
X0021557Y0153244D01*
X0020980Y0152668D01*
X0020980Y0142246D01*
X0021557Y0141669D01*
X0022811Y0141669D01*
X0022811Y0141551D01*
X0021655Y0141551D01*
X0021079Y0140975D01*
X0021079Y0136222D01*
X0021655Y0135646D01*
X0026801Y0135646D01*
X0027378Y0136571D02*
X0031315Y0136571D01*
X0031315Y0137357D02*
X0027378Y0137357D01*
X0027378Y0138143D02*
X0031315Y0138143D01*
X0031315Y0138928D02*
X0027378Y0138928D01*
X0027378Y0139714D02*
X0031315Y0139714D01*
X0031315Y0140500D02*
X0027378Y0140500D01*
X0027066Y0141286D02*
X0031627Y0141286D01*
X0031154Y0142072D02*
X0027224Y0142072D01*
X0027398Y0142858D02*
X0030980Y0142858D01*
X0030980Y0143644D02*
X0027398Y0143644D01*
X0027398Y0144430D02*
X0030980Y0144430D01*
X0030980Y0145216D02*
X0027398Y0145216D01*
X0027398Y0146002D02*
X0030980Y0146002D01*
X0030980Y0146788D02*
X0027398Y0146788D01*
X0027398Y0147573D02*
X0030980Y0147573D01*
X0030980Y0148359D02*
X0027398Y0148359D01*
X0027398Y0149145D02*
X0030980Y0149145D01*
X0030980Y0149931D02*
X0027398Y0149931D01*
X0027398Y0150717D02*
X0030980Y0150717D01*
X0030980Y0151503D02*
X0027398Y0151503D01*
X0027398Y0152289D02*
X0030980Y0152289D01*
X0031388Y0153075D02*
X0026990Y0153075D01*
X0021388Y0153075D02*
X0006439Y0153075D01*
X0006615Y0153861D02*
X0070488Y0153861D01*
X0070488Y0154647D02*
X0006792Y0154647D01*
X0006968Y0155433D02*
X0070488Y0155433D01*
X0070488Y0156219D02*
X0007144Y0156219D01*
X0007320Y0157004D02*
X0070488Y0157004D01*
X0070488Y0157790D02*
X0007496Y0157790D01*
X0007672Y0158576D02*
X0070488Y0158576D01*
X0070488Y0159362D02*
X0007848Y0159362D01*
X0008024Y0160148D02*
X0070488Y0160148D01*
X0070488Y0160934D02*
X0008201Y0160934D01*
X0008454Y0161720D02*
X0070488Y0161720D01*
X0070488Y0162506D02*
X0008724Y0162506D01*
X0008994Y0163292D02*
X0070488Y0163292D01*
X0070488Y0164078D02*
X0009264Y0164078D01*
X0009533Y0164864D02*
X0070488Y0164864D01*
X0071018Y0165649D02*
X0009803Y0165649D01*
X0010073Y0166435D02*
X0071804Y0166435D01*
X0072590Y0167221D02*
X0010343Y0167221D01*
X0010613Y0168007D02*
X0073376Y0168007D01*
X0074162Y0168793D02*
X0010883Y0168793D01*
X0011152Y0169579D02*
X0074948Y0169579D01*
X0075734Y0170365D02*
X0011422Y0170365D01*
X0011692Y0171151D02*
X0076519Y0171151D01*
X0077305Y0171937D02*
X0011962Y0171937D01*
X0012232Y0172723D02*
X0078091Y0172723D01*
X0078877Y0173509D02*
X0012501Y0173509D01*
X0012813Y0174295D02*
X0079663Y0174295D01*
X0080449Y0175080D02*
X0013183Y0175080D01*
X0013554Y0175866D02*
X0021218Y0175866D01*
X0020980Y0176652D02*
X0013925Y0176652D01*
X0014296Y0177438D02*
X0020980Y0177438D01*
X0020980Y0178224D02*
X0014667Y0178224D01*
X0015038Y0179010D02*
X0020980Y0179010D01*
X0020980Y0179796D02*
X0015409Y0179796D01*
X0015780Y0180582D02*
X0020980Y0180582D01*
X0020980Y0181368D02*
X0016151Y0181368D01*
X0016521Y0182154D02*
X0020980Y0182154D01*
X0020980Y0182940D02*
X0016892Y0182940D01*
X0017263Y0183725D02*
X0020980Y0183725D01*
X0020980Y0184511D02*
X0017634Y0184511D01*
X0018005Y0185297D02*
X0020980Y0185297D01*
X0020980Y0186083D02*
X0018376Y0186083D01*
X0018827Y0186869D02*
X0021324Y0186869D01*
X0019310Y0187655D02*
X0072047Y0187655D01*
X0072047Y0186869D02*
X0057054Y0186869D01*
X0057398Y0186083D02*
X0072047Y0186083D01*
X0072260Y0185297D02*
X0057398Y0185297D01*
X0057398Y0184511D02*
X0072883Y0184511D01*
X0072457Y0183725D02*
X0057398Y0183725D01*
X0057398Y0182940D02*
X0072457Y0182940D01*
X0072457Y0179796D02*
X0057398Y0179796D01*
X0057398Y0179010D02*
X0072457Y0179010D01*
X0075213Y0181315D02*
X0075409Y0181512D01*
X0081709Y0181512D01*
X0082299Y0181512D01*
X0085646Y0184858D01*
X0085646Y0191945D01*
X0087220Y0193520D01*
X0096669Y0193520D01*
X0098244Y0195094D01*
X0098244Y0199425D01*
X0097260Y0201612D02*
X0096887Y0201984D01*
X0096472Y0201984D01*
X0096472Y0202399D01*
X0096100Y0202772D01*
X0096472Y0203144D01*
X0096472Y0204367D01*
X0096100Y0204740D01*
X0096472Y0205113D01*
X0096472Y0206336D01*
X0096100Y0206709D01*
X0096472Y0207081D01*
X0096472Y0208304D01*
X0096100Y0208677D01*
X0096472Y0209050D01*
X0096472Y0210273D01*
X0096100Y0210646D01*
X0096472Y0211018D01*
X0096472Y0212241D01*
X0096100Y0212614D01*
X0096472Y0212987D01*
X0096472Y0213402D01*
X0096887Y0213402D01*
X0097260Y0213774D01*
X0097633Y0213402D01*
X0098856Y0213402D01*
X0099228Y0213774D01*
X0099601Y0213402D01*
X0100824Y0213402D01*
X0101197Y0213774D01*
X0101570Y0213402D01*
X0102793Y0213402D01*
X0103165Y0213774D01*
X0103538Y0213402D01*
X0104761Y0213402D01*
X0105134Y0213774D01*
X0105507Y0213402D01*
X0106730Y0213402D01*
X0107102Y0213774D01*
X0107475Y0213402D01*
X0107890Y0213402D01*
X0107890Y0212987D01*
X0108262Y0212614D01*
X0107890Y0212241D01*
X0107890Y0211018D01*
X0108262Y0210646D01*
X0107890Y0210273D01*
X0107890Y0209050D01*
X0108262Y0208677D01*
X0107890Y0208304D01*
X0107890Y0207081D01*
X0108262Y0206709D01*
X0107890Y0206336D01*
X0107890Y0205113D01*
X0107973Y0205030D01*
X0107857Y0204914D01*
X0107609Y0204484D01*
X0107480Y0204004D01*
X0107480Y0203756D01*
X0110449Y0203756D01*
X0113417Y0203756D01*
X0113417Y0204004D01*
X0113326Y0204346D01*
X0116157Y0204346D01*
X0116157Y0203742D01*
X0116734Y0203165D01*
X0117535Y0203165D01*
X0117535Y0197654D01*
X0114902Y0197654D01*
X0115380Y0198131D01*
X0115380Y0199932D01*
X0114106Y0201206D01*
X0113008Y0201206D01*
X0113008Y0202399D01*
X0112925Y0202482D01*
X0113041Y0202598D01*
X0113289Y0203028D01*
X0113417Y0203508D01*
X0113417Y0203756D01*
X0110449Y0203756D01*
X0110449Y0203756D01*
X0110449Y0203756D01*
X0107480Y0203756D01*
X0107480Y0203508D01*
X0107609Y0203028D01*
X0107857Y0202598D01*
X0107973Y0202482D01*
X0107890Y0202399D01*
X0107890Y0201984D01*
X0107475Y0201984D01*
X0107102Y0201612D01*
X0106730Y0201984D01*
X0105507Y0201984D01*
X0105134Y0201612D01*
X0104761Y0201984D01*
X0103538Y0201984D01*
X0103165Y0201612D01*
X0102793Y0201984D01*
X0101570Y0201984D01*
X0101197Y0201612D01*
X0100824Y0201984D01*
X0099601Y0201984D01*
X0099228Y0201612D01*
X0098856Y0201984D01*
X0097633Y0201984D01*
X0097260Y0201612D01*
X0097070Y0201801D02*
X0097450Y0201801D01*
X0096284Y0202587D02*
X0107868Y0202587D01*
X0107516Y0203373D02*
X0096472Y0203373D01*
X0096472Y0204159D02*
X0107522Y0204159D01*
X0107888Y0204945D02*
X0096305Y0204945D01*
X0096472Y0205731D02*
X0107890Y0205731D01*
X0108071Y0206517D02*
X0096291Y0206517D01*
X0096472Y0207303D02*
X0107890Y0207303D01*
X0107890Y0208089D02*
X0096472Y0208089D01*
X0096297Y0208875D02*
X0108065Y0208875D01*
X0107890Y0209661D02*
X0096472Y0209661D01*
X0096299Y0210447D02*
X0108063Y0210447D01*
X0107890Y0211232D02*
X0096472Y0211232D01*
X0096472Y0212018D02*
X0107890Y0212018D01*
X0108072Y0212804D02*
X0096290Y0212804D01*
X0097076Y0213590D02*
X0097444Y0213590D01*
X0099044Y0213590D02*
X0099412Y0213590D01*
X0101013Y0213590D02*
X0101381Y0213590D01*
X0102981Y0213590D02*
X0103349Y0213590D01*
X0104950Y0213590D02*
X0105318Y0213590D01*
X0106918Y0213590D02*
X0107286Y0213590D01*
X0108087Y0215961D02*
X0108087Y0220685D01*
X0110843Y0223441D01*
X0110843Y0228953D01*
X0112142Y0230252D01*
X0118717Y0230252D01*
X0118717Y0225252D02*
X0115567Y0225252D01*
X0113992Y0223677D01*
X0113992Y0214780D01*
X0112811Y0213598D01*
X0110449Y0213598D01*
X0110449Y0211630D02*
X0139976Y0211630D01*
X0169484Y0182122D01*
X0176197Y0182122D01*
X0176000Y0179010D02*
X0176394Y0179010D01*
X0176394Y0178224D02*
X0176000Y0178224D01*
X0176000Y0177438D02*
X0176394Y0177438D01*
X0176000Y0176925D02*
X0170472Y0176925D01*
X0170472Y0175757D01*
X0170567Y0175403D01*
X0170751Y0175085D01*
X0171010Y0174826D01*
X0171328Y0174642D01*
X0171683Y0174547D01*
X0176000Y0174547D01*
X0176000Y0176925D01*
X0176000Y0176652D02*
X0176394Y0176652D01*
X0176394Y0175866D02*
X0176000Y0175866D01*
X0176000Y0175080D02*
X0176394Y0175080D01*
X0181638Y0175080D02*
X0181906Y0175080D01*
X0181906Y0174295D02*
X0168520Y0174295D01*
X0168075Y0175080D02*
X0170756Y0175080D01*
X0170472Y0175866D02*
X0167142Y0175866D01*
X0167142Y0176652D02*
X0170472Y0176652D01*
X0170472Y0177438D02*
X0167142Y0177438D01*
X0167142Y0178224D02*
X0170472Y0178224D01*
X0170665Y0179010D02*
X0167142Y0179010D01*
X0167142Y0179796D02*
X0181906Y0179796D01*
X0181906Y0180582D02*
X0181512Y0180582D01*
X0181512Y0181368D02*
X0181906Y0181368D01*
X0181906Y0182154D02*
X0181512Y0182154D01*
X0181512Y0182940D02*
X0181679Y0182940D01*
X0183283Y0183283D02*
X0181709Y0184858D01*
X0169110Y0184858D01*
X0145488Y0208480D01*
X0145488Y0209268D01*
X0147663Y0209661D02*
X0190038Y0209661D01*
X0190492Y0210447D02*
X0147385Y0210447D01*
X0146599Y0211232D02*
X0191072Y0211232D01*
X0190774Y0210934D02*
X0188897Y0207684D01*
X0187925Y0204058D01*
X0187925Y0200304D01*
X0188897Y0196679D01*
X0190774Y0193428D01*
X0193428Y0190774D01*
X0196679Y0188897D01*
X0200304Y0187925D01*
X0204058Y0187925D01*
X0207684Y0188897D01*
X0210934Y0190774D01*
X0213589Y0193428D01*
X0215465Y0196679D01*
X0216437Y0200304D01*
X0216437Y0204058D01*
X0215465Y0207684D01*
X0213589Y0210934D01*
X0210934Y0213589D01*
X0207684Y0215465D01*
X0204058Y0216437D01*
X0200304Y0216437D01*
X0196679Y0215465D01*
X0193428Y0213589D01*
X0190774Y0210934D01*
X0191857Y0212018D02*
X0141537Y0212018D01*
X0142323Y0211232D02*
X0144377Y0211232D01*
X0143591Y0210447D02*
X0143108Y0210447D01*
X0141569Y0208089D02*
X0141086Y0208089D01*
X0140300Y0207303D02*
X0142355Y0207303D01*
X0143141Y0206517D02*
X0129559Y0206517D01*
X0129559Y0207303D02*
X0138078Y0207303D01*
X0137292Y0208089D02*
X0129559Y0208089D01*
X0129559Y0205724D02*
X0126394Y0205724D01*
X0126394Y0202756D01*
X0128349Y0202756D01*
X0128703Y0202851D01*
X0129021Y0203034D01*
X0129281Y0203294D01*
X0129464Y0203612D01*
X0129559Y0203966D01*
X0129559Y0205724D01*
X0129559Y0204945D02*
X0144712Y0204945D01*
X0143927Y0205731D02*
X0126394Y0205731D01*
X0126394Y0204945D02*
X0125606Y0204945D01*
X0125606Y0204159D02*
X0126394Y0204159D01*
X0126394Y0203373D02*
X0125606Y0203373D01*
X0122674Y0203373D02*
X0122088Y0203373D01*
X0120291Y0202587D02*
X0147070Y0202587D01*
X0147856Y0201801D02*
X0120291Y0201801D01*
X0120291Y0201016D02*
X0148642Y0201016D01*
X0149428Y0200230D02*
X0120291Y0200230D01*
X0120291Y0199444D02*
X0150214Y0199444D01*
X0151000Y0198658D02*
X0120291Y0198658D01*
X0120291Y0197872D02*
X0151786Y0197872D01*
X0152572Y0197086D02*
X0131042Y0197086D01*
X0131827Y0196300D02*
X0153357Y0196300D01*
X0154143Y0195514D02*
X0132613Y0195514D01*
X0133399Y0194728D02*
X0154929Y0194728D01*
X0155715Y0193942D02*
X0134185Y0193942D01*
X0134971Y0193156D02*
X0156501Y0193156D01*
X0157287Y0192371D02*
X0135757Y0192371D01*
X0136543Y0191585D02*
X0158073Y0191585D01*
X0158859Y0190799D02*
X0137329Y0190799D01*
X0138115Y0190013D02*
X0159645Y0190013D01*
X0160431Y0189227D02*
X0138901Y0189227D01*
X0139687Y0188441D02*
X0161217Y0188441D01*
X0162003Y0187655D02*
X0140472Y0187655D01*
X0141258Y0186869D02*
X0162788Y0186869D01*
X0163574Y0186083D02*
X0142044Y0186083D01*
X0142830Y0185297D02*
X0164360Y0185297D01*
X0165146Y0184511D02*
X0162514Y0184511D01*
X0163300Y0183725D02*
X0165932Y0183725D01*
X0166718Y0182940D02*
X0164086Y0182940D01*
X0164871Y0182154D02*
X0167504Y0182154D01*
X0168290Y0181368D02*
X0165657Y0181368D01*
X0166443Y0180582D02*
X0170882Y0180582D01*
X0170276Y0186869D02*
X0169048Y0186869D01*
X0168262Y0187655D02*
X0170276Y0187655D01*
X0170276Y0189189D02*
X0173244Y0189189D01*
X0173244Y0192354D01*
X0171486Y0192354D01*
X0171131Y0192259D01*
X0170814Y0192076D01*
X0170554Y0191816D01*
X0170371Y0191499D01*
X0170276Y0191144D01*
X0170276Y0189189D01*
X0170276Y0189227D02*
X0166690Y0189227D01*
X0165904Y0190013D02*
X0170276Y0190013D01*
X0170276Y0190799D02*
X0165119Y0190799D01*
X0164333Y0191585D02*
X0170420Y0191585D01*
X0173244Y0188441D02*
X0167476Y0188441D01*
X0163547Y0192371D02*
X0191831Y0192371D01*
X0191045Y0193156D02*
X0162761Y0193156D01*
X0161975Y0193942D02*
X0190476Y0193942D01*
X0190023Y0194728D02*
X0161189Y0194728D01*
X0160403Y0195514D02*
X0189569Y0195514D01*
X0189115Y0196300D02*
X0159617Y0196300D01*
X0158831Y0197086D02*
X0188788Y0197086D01*
X0188577Y0197872D02*
X0158045Y0197872D01*
X0157259Y0198658D02*
X0188366Y0198658D01*
X0188156Y0199444D02*
X0156473Y0199444D01*
X0155688Y0200230D02*
X0187945Y0200230D01*
X0187925Y0201016D02*
X0154902Y0201016D01*
X0154116Y0201801D02*
X0187925Y0201801D01*
X0187925Y0202587D02*
X0153330Y0202587D01*
X0152544Y0203373D02*
X0187925Y0203373D01*
X0187952Y0204159D02*
X0151758Y0204159D01*
X0150972Y0204945D02*
X0188163Y0204945D01*
X0188374Y0205731D02*
X0150186Y0205731D01*
X0149400Y0206517D02*
X0188584Y0206517D01*
X0188795Y0207303D02*
X0148614Y0207303D01*
X0147828Y0208089D02*
X0189131Y0208089D01*
X0189584Y0208875D02*
X0147663Y0208875D01*
X0145498Y0204159D02*
X0129559Y0204159D01*
X0129326Y0203373D02*
X0146284Y0203373D01*
X0139189Y0209268D02*
X0138402Y0210055D01*
X0113992Y0210055D01*
X0113598Y0209661D01*
X0110449Y0209661D01*
X0110449Y0207693D02*
X0117732Y0207693D01*
X0119307Y0206118D01*
X0119504Y0205921D01*
X0119307Y0206118D02*
X0120094Y0206906D01*
X0120291Y0206906D01*
X0119307Y0206118D02*
X0118913Y0205724D01*
X0118913Y0196472D01*
X0119504Y0195882D01*
X0119381Y0194110D02*
X0118904Y0193633D01*
X0118904Y0191831D01*
X0120178Y0190557D01*
X0121276Y0190557D01*
X0121276Y0183067D01*
X0119130Y0180921D01*
X0116551Y0180921D01*
X0116551Y0181709D01*
X0115764Y0181709D01*
X0115764Y0185465D01*
X0114005Y0185465D01*
X0113651Y0185370D01*
X0113333Y0185186D01*
X0113074Y0184927D01*
X0112890Y0184609D01*
X0112795Y0184254D01*
X0112795Y0181709D01*
X0115764Y0181709D01*
X0115764Y0180921D01*
X0112795Y0180921D01*
X0112795Y0178376D01*
X0112799Y0178362D01*
X0111630Y0178362D01*
X0111630Y0184479D01*
X0111053Y0185055D01*
X0106301Y0185055D01*
X0105724Y0184479D01*
X0105724Y0183283D01*
X0104543Y0183283D01*
X0104543Y0184282D01*
X0103967Y0184858D01*
X0102772Y0184858D01*
X0102772Y0186650D01*
X0103559Y0187437D01*
X0103559Y0190153D01*
X0101259Y0192454D01*
X0102915Y0194110D01*
X0119381Y0194110D01*
X0119213Y0193942D02*
X0102747Y0193942D01*
X0101961Y0193156D02*
X0118904Y0193156D01*
X0118904Y0192371D02*
X0101342Y0192371D01*
X0102128Y0191585D02*
X0119151Y0191585D01*
X0119937Y0190799D02*
X0102914Y0190799D01*
X0103559Y0190013D02*
X0121276Y0190013D01*
X0121276Y0189227D02*
X0103559Y0189227D01*
X0103559Y0188441D02*
X0121276Y0188441D01*
X0121276Y0187655D02*
X0103559Y0187655D01*
X0102991Y0186869D02*
X0121276Y0186869D01*
X0121276Y0186083D02*
X0102772Y0186083D01*
X0102772Y0185297D02*
X0113526Y0185297D01*
X0112864Y0184511D02*
X0111597Y0184511D01*
X0111630Y0183725D02*
X0112795Y0183725D01*
X0112795Y0182940D02*
X0111630Y0182940D01*
X0111630Y0182154D02*
X0112795Y0182154D01*
X0111630Y0181368D02*
X0115764Y0181368D01*
X0115764Y0182154D02*
X0116551Y0182154D01*
X0116551Y0181709D02*
X0116551Y0185465D01*
X0118309Y0185465D01*
X0118664Y0185370D01*
X0118982Y0185186D01*
X0119241Y0184927D01*
X0119425Y0184609D01*
X0119520Y0184254D01*
X0119520Y0181709D01*
X0116551Y0181709D01*
X0116551Y0181368D02*
X0119577Y0181368D01*
X0119520Y0182154D02*
X0120362Y0182154D01*
X0121148Y0182940D02*
X0119520Y0182940D01*
X0119520Y0183725D02*
X0121276Y0183725D01*
X0121276Y0184511D02*
X0119451Y0184511D01*
X0118789Y0185297D02*
X0121276Y0185297D01*
X0122654Y0182496D02*
X0122654Y0191157D01*
X0121079Y0192732D01*
X0124228Y0195882D02*
X0124228Y0177969D01*
X0129740Y0177969D01*
X0129937Y0178165D01*
X0132890Y0178224D02*
X0137024Y0178224D01*
X0137024Y0178559D02*
X0137024Y0177772D01*
X0137811Y0177772D01*
X0137811Y0174016D01*
X0139569Y0174016D01*
X0139924Y0174111D01*
X0140242Y0174294D01*
X0140501Y0174554D01*
X0140685Y0174871D01*
X0140770Y0175192D01*
X0141340Y0174622D01*
X0142339Y0174622D01*
X0142339Y0174031D01*
X0140947Y0174031D01*
X0140370Y0173455D01*
X0140370Y0167128D01*
X0140947Y0166551D01*
X0145685Y0166551D01*
X0145685Y0165370D01*
X0144687Y0165370D01*
X0144110Y0164794D01*
X0144110Y0162614D01*
X0143343Y0162614D01*
X0142535Y0161807D01*
X0140980Y0160252D01*
X0139976Y0160252D01*
X0139976Y0164597D01*
X0139400Y0165173D01*
X0138205Y0165173D01*
X0138205Y0166925D01*
X0136630Y0168500D01*
X0136630Y0172668D01*
X0136053Y0173244D01*
X0131301Y0173244D01*
X0130724Y0172668D01*
X0130724Y0172654D01*
X0127378Y0172654D01*
X0127378Y0173652D01*
X0126801Y0174228D01*
X0123421Y0174228D01*
X0122634Y0175016D01*
X0126801Y0175016D01*
X0126984Y0175199D01*
X0126984Y0175002D01*
X0127561Y0174425D01*
X0132313Y0174425D01*
X0132890Y0175002D01*
X0132890Y0181329D01*
X0132313Y0181905D01*
X0127561Y0181905D01*
X0126984Y0181329D01*
X0126984Y0180738D01*
X0126801Y0180921D01*
X0125606Y0180921D01*
X0125606Y0194110D01*
X0129006Y0194110D01*
X0140961Y0182156D01*
X0140961Y0180542D01*
X0140780Y0180360D01*
X0140780Y0181105D01*
X0140685Y0181459D01*
X0140501Y0181777D01*
X0140242Y0182036D01*
X0139924Y0182220D01*
X0139569Y0182315D01*
X0137811Y0182315D01*
X0137811Y0178559D01*
X0137024Y0178559D01*
X0137024Y0182315D01*
X0135265Y0182315D01*
X0134911Y0182220D01*
X0134593Y0182036D01*
X0134334Y0181777D01*
X0134150Y0181459D01*
X0134055Y0181105D01*
X0134055Y0178559D01*
X0137024Y0178559D01*
X0137024Y0179010D02*
X0137811Y0179010D01*
X0137811Y0179796D02*
X0137024Y0179796D01*
X0137024Y0180582D02*
X0137811Y0180582D01*
X0137811Y0181368D02*
X0137024Y0181368D01*
X0137024Y0182154D02*
X0137811Y0182154D01*
X0140039Y0182154D02*
X0140961Y0182154D01*
X0140961Y0181368D02*
X0140709Y0181368D01*
X0140780Y0180582D02*
X0140961Y0180582D01*
X0142339Y0179150D02*
X0143717Y0177772D01*
X0143717Y0170685D01*
X0143323Y0170291D01*
X0140370Y0170365D02*
X0136630Y0170365D01*
X0136630Y0171151D02*
X0140370Y0171151D01*
X0140370Y0171937D02*
X0136630Y0171937D01*
X0136575Y0172723D02*
X0140370Y0172723D01*
X0140424Y0173509D02*
X0127378Y0173509D01*
X0127378Y0172723D02*
X0130780Y0172723D01*
X0131906Y0171276D02*
X0133677Y0169504D01*
X0136827Y0166354D01*
X0136827Y0162220D01*
X0139976Y0162506D02*
X0143234Y0162506D01*
X0142448Y0161720D02*
X0139976Y0161720D01*
X0139976Y0160934D02*
X0141662Y0160934D01*
X0141551Y0158874D02*
X0143913Y0161236D01*
X0146669Y0161236D01*
X0147063Y0161630D01*
X0147063Y0174425D01*
X0150409Y0177772D01*
X0153362Y0177438D02*
X0163598Y0177438D01*
X0163598Y0176652D02*
X0153362Y0176652D01*
X0153362Y0175866D02*
X0163598Y0175866D01*
X0162665Y0175080D02*
X0161960Y0175080D01*
X0159071Y0175080D02*
X0158283Y0175080D01*
X0158283Y0174295D02*
X0159071Y0174295D01*
X0159071Y0173509D02*
X0158283Y0173509D01*
X0158283Y0172723D02*
X0159071Y0172723D01*
X0158283Y0171937D02*
X0154165Y0171937D01*
X0154165Y0172723D02*
X0155118Y0172723D01*
X0155118Y0173509D02*
X0154091Y0173509D01*
X0153399Y0174295D02*
X0155118Y0174295D01*
X0155394Y0175080D02*
X0153244Y0175080D01*
X0151197Y0174295D02*
X0150409Y0174295D01*
X0150409Y0173509D02*
X0151197Y0173509D01*
X0151197Y0172723D02*
X0150409Y0172723D01*
X0150409Y0171937D02*
X0151197Y0171937D01*
X0151197Y0171151D02*
X0150409Y0171151D01*
X0151197Y0170365D02*
X0155118Y0170365D01*
X0155118Y0171151D02*
X0154165Y0171151D01*
X0154165Y0169898D02*
X0151197Y0169898D01*
X0151197Y0166142D01*
X0152955Y0166142D01*
X0153310Y0166237D01*
X0153627Y0166420D01*
X0153887Y0166680D01*
X0154070Y0166997D01*
X0154165Y0167352D01*
X0154165Y0169898D01*
X0154165Y0169579D02*
X0155314Y0169579D01*
X0154165Y0168793D02*
X0170964Y0168793D01*
X0170882Y0168007D02*
X0154165Y0168007D01*
X0154130Y0167221D02*
X0170882Y0167221D01*
X0170882Y0166435D02*
X0153643Y0166435D01*
X0151197Y0166435D02*
X0150409Y0166435D01*
X0150409Y0167221D02*
X0151197Y0167221D01*
X0151197Y0168007D02*
X0150409Y0168007D01*
X0150409Y0168793D02*
X0151197Y0168793D01*
X0151197Y0169579D02*
X0150409Y0169579D01*
X0148441Y0165649D02*
X0170882Y0165649D01*
X0168215Y0169579D02*
X0181906Y0169579D01*
X0181906Y0170365D02*
X0181344Y0170365D01*
X0181512Y0171151D02*
X0181906Y0171151D01*
X0181906Y0171937D02*
X0181512Y0171937D01*
X0181512Y0172723D02*
X0181906Y0172723D01*
X0181906Y0173509D02*
X0181512Y0173509D01*
X0184661Y0173509D02*
X0190370Y0173509D01*
X0190370Y0172723D02*
X0184661Y0172723D01*
X0184661Y0171937D02*
X0190370Y0171937D01*
X0190370Y0171151D02*
X0184661Y0171151D01*
X0184661Y0170365D02*
X0190370Y0170365D01*
X0190917Y0169579D02*
X0184661Y0169579D01*
X0184661Y0168793D02*
X0191437Y0168793D01*
X0191354Y0168007D02*
X0184661Y0168007D01*
X0184131Y0167221D02*
X0191354Y0167221D01*
X0191354Y0166435D02*
X0183345Y0166435D01*
X0182083Y0167122D02*
X0183283Y0168323D01*
X0183283Y0183283D01*
X0184661Y0182940D02*
X0187190Y0182940D01*
X0186405Y0183725D02*
X0184661Y0183725D01*
X0184004Y0184511D02*
X0185619Y0184511D01*
X0184833Y0185297D02*
X0183218Y0185297D01*
X0183144Y0186083D02*
X0184047Y0186083D01*
X0186372Y0187655D02*
X0235331Y0187655D01*
X0234906Y0188441D02*
X0205983Y0188441D01*
X0208256Y0189227D02*
X0234481Y0189227D01*
X0234055Y0190013D02*
X0209617Y0190013D01*
X0210960Y0190799D02*
X0233630Y0190799D01*
X0233205Y0191585D02*
X0211746Y0191585D01*
X0212531Y0192371D02*
X0232756Y0192371D01*
X0232211Y0193156D02*
X0213317Y0193156D01*
X0213886Y0193942D02*
X0231666Y0193942D01*
X0231121Y0194728D02*
X0214339Y0194728D01*
X0214793Y0195514D02*
X0230577Y0195514D01*
X0230032Y0196300D02*
X0215247Y0196300D01*
X0215575Y0197086D02*
X0229487Y0197086D01*
X0228942Y0197872D02*
X0215785Y0197872D01*
X0215996Y0198658D02*
X0228397Y0198658D01*
X0227852Y0199444D02*
X0216206Y0199444D01*
X0216417Y0200230D02*
X0227307Y0200230D01*
X0226762Y0201016D02*
X0216437Y0201016D01*
X0216437Y0201801D02*
X0226217Y0201801D01*
X0225672Y0202587D02*
X0216437Y0202587D01*
X0216437Y0203373D02*
X0225127Y0203373D01*
X0224453Y0204159D02*
X0216410Y0204159D01*
X0216199Y0204945D02*
X0223768Y0204945D01*
X0223084Y0205731D02*
X0215989Y0205731D01*
X0215778Y0206517D02*
X0222399Y0206517D01*
X0221715Y0207303D02*
X0215568Y0207303D01*
X0215232Y0208089D02*
X0221030Y0208089D01*
X0220346Y0208875D02*
X0214778Y0208875D01*
X0214324Y0209661D02*
X0219661Y0209661D01*
X0218977Y0210447D02*
X0213870Y0210447D01*
X0213291Y0211232D02*
X0218293Y0211232D01*
X0217608Y0212018D02*
X0212505Y0212018D01*
X0211719Y0212804D02*
X0216924Y0212804D01*
X0216239Y0213590D02*
X0210932Y0213590D01*
X0209571Y0214376D02*
X0215413Y0214376D01*
X0214559Y0215162D02*
X0208209Y0215162D01*
X0205883Y0215948D02*
X0213705Y0215948D01*
X0212851Y0216734D02*
X0148013Y0216734D01*
X0147260Y0217929D02*
X0149425Y0220094D01*
X0147260Y0217929D02*
X0137614Y0217929D01*
X0132890Y0213205D01*
X0117142Y0213205D01*
X0116354Y0213992D01*
X0118260Y0215162D02*
X0132898Y0215162D01*
X0133684Y0215948D02*
X0118236Y0215948D01*
X0118529Y0216734D02*
X0134470Y0216734D01*
X0135256Y0217520D02*
X0118529Y0217520D01*
X0118266Y0218306D02*
X0136042Y0218306D01*
X0136828Y0219092D02*
X0117732Y0219092D01*
X0117889Y0219877D02*
X0146276Y0219877D01*
X0146276Y0220663D02*
X0125762Y0220663D01*
X0126548Y0221449D02*
X0146276Y0221449D01*
X0146276Y0222235D02*
X0127334Y0222235D01*
X0126591Y0223441D02*
X0125016Y0221866D01*
X0117929Y0221866D01*
X0116354Y0220291D01*
X0116354Y0217142D01*
X0115567Y0225252D02*
X0115016Y0225252D01*
X0110035Y0230094D02*
X0106846Y0230094D01*
X0106709Y0229957D02*
X0109071Y0232319D01*
X0109071Y0233461D01*
X0109071Y0241768D01*
X0111177Y0243874D01*
X0111827Y0243874D01*
X0111827Y0243269D01*
X0112344Y0242752D01*
X0111827Y0242234D01*
X0111827Y0238269D01*
X0112344Y0237752D01*
X0111827Y0237234D01*
X0111827Y0233269D01*
X0112344Y0232752D01*
X0111827Y0232234D01*
X0111827Y0231630D01*
X0111571Y0231630D01*
X0109465Y0229524D01*
X0109465Y0224012D01*
X0107516Y0222063D01*
X0107516Y0222063D01*
X0106709Y0221256D01*
X0106709Y0218520D01*
X0105507Y0218520D01*
X0105134Y0218147D01*
X0104761Y0218520D01*
X0103538Y0218520D01*
X0103165Y0218147D01*
X0102793Y0218520D01*
X0101591Y0218520D01*
X0101591Y0219691D01*
X0102295Y0219691D01*
X0103568Y0220965D01*
X0103568Y0222767D01*
X0102295Y0224041D01*
X0100493Y0224041D01*
X0099219Y0222767D01*
X0099219Y0222392D01*
X0098886Y0222725D01*
X0099031Y0222870D01*
X0100390Y0224228D01*
X0103967Y0224228D01*
X0104543Y0224805D01*
X0104543Y0229150D01*
X0105901Y0229150D01*
X0106709Y0229957D01*
X0106060Y0229308D02*
X0109465Y0229308D01*
X0109465Y0228523D02*
X0104543Y0228523D01*
X0104543Y0227737D02*
X0109465Y0227737D01*
X0109465Y0226951D02*
X0104543Y0226951D01*
X0104543Y0226165D02*
X0109465Y0226165D01*
X0109465Y0225379D02*
X0104543Y0225379D01*
X0104331Y0224593D02*
X0109465Y0224593D01*
X0109260Y0223807D02*
X0102528Y0223807D01*
X0103314Y0223021D02*
X0108474Y0223021D01*
X0107688Y0222235D02*
X0103568Y0222235D01*
X0103568Y0221449D02*
X0106902Y0221449D01*
X0106709Y0220663D02*
X0103267Y0220663D01*
X0102481Y0219877D02*
X0106709Y0219877D01*
X0106709Y0219092D02*
X0101591Y0219092D01*
X0103007Y0218306D02*
X0103324Y0218306D01*
X0104975Y0218306D02*
X0105293Y0218306D01*
X0101394Y0221866D02*
X0100213Y0220685D01*
X0100213Y0215961D01*
X0098244Y0215961D02*
X0098244Y0220291D01*
X0097457Y0221079D01*
X0097654Y0223441D02*
X0101394Y0227181D01*
X0098441Y0230528D02*
X0095094Y0227181D01*
X0088795Y0227181D01*
X0088795Y0217142D01*
X0087220Y0215567D01*
X0087220Y0214780D01*
X0085313Y0215948D02*
X0085252Y0215948D01*
X0085252Y0216734D02*
X0086099Y0216734D01*
X0085252Y0217520D02*
X0087225Y0217520D01*
X0087417Y0218306D02*
X0085252Y0218306D01*
X0085252Y0219092D02*
X0087417Y0219092D01*
X0087417Y0219877D02*
X0085214Y0219877D01*
X0085465Y0220663D02*
X0087417Y0220663D01*
X0087417Y0221449D02*
X0085465Y0221449D01*
X0085465Y0222235D02*
X0087417Y0222235D01*
X0087417Y0223021D02*
X0082299Y0223021D01*
X0082299Y0223047D02*
X0085465Y0223047D01*
X0085465Y0224806D01*
X0085370Y0225160D01*
X0085186Y0225478D01*
X0084927Y0225737D01*
X0084609Y0225921D01*
X0084254Y0226016D01*
X0082299Y0226016D01*
X0082299Y0223047D01*
X0082299Y0223807D02*
X0081512Y0223807D01*
X0081512Y0224593D02*
X0082299Y0224593D01*
X0082299Y0225379D02*
X0081512Y0225379D01*
X0078568Y0225379D02*
X0078013Y0225379D01*
X0075213Y0222654D02*
X0075213Y0215961D01*
X0076197Y0214976D01*
X0076197Y0213992D01*
X0078559Y0211630D01*
X0093913Y0211630D01*
X0093913Y0213598D02*
X0091551Y0213598D01*
X0091157Y0213992D01*
X0091157Y0221079D01*
X0093520Y0223441D01*
X0097654Y0223441D01*
X0099031Y0222870D02*
X0099031Y0222870D01*
X0099182Y0223021D02*
X0099473Y0223021D01*
X0099968Y0223807D02*
X0100259Y0223807D01*
X0094307Y0219504D02*
X0096276Y0217535D01*
X0096276Y0215961D01*
X0093913Y0209661D02*
X0084268Y0209661D01*
X0081906Y0207299D01*
X0081906Y0200606D01*
X0085646Y0200606D02*
X0085646Y0198047D01*
X0081906Y0194307D01*
X0081906Y0188402D01*
X0082102Y0188402D01*
X0082496Y0188008D01*
X0081906Y0188402D02*
X0081709Y0188205D01*
X0085055Y0193303D02*
X0085055Y0195508D01*
X0087024Y0197476D01*
X0087024Y0200036D01*
X0091335Y0204346D01*
X0091354Y0204346D01*
X0091354Y0203144D01*
X0091727Y0202772D01*
X0091354Y0202399D01*
X0091354Y0201176D01*
X0092219Y0200311D01*
X0094799Y0200311D01*
X0094799Y0197731D01*
X0095664Y0196866D01*
X0096866Y0196866D01*
X0096866Y0195665D01*
X0096099Y0194898D01*
X0086650Y0194898D01*
X0085843Y0194090D01*
X0085055Y0193303D01*
X0085055Y0193942D02*
X0085694Y0193942D01*
X0085055Y0194728D02*
X0086480Y0194728D01*
X0085061Y0195514D02*
X0096715Y0195514D01*
X0096866Y0196300D02*
X0085847Y0196300D01*
X0086633Y0197086D02*
X0095444Y0197086D01*
X0094799Y0197872D02*
X0087024Y0197872D01*
X0087024Y0198658D02*
X0094799Y0198658D01*
X0094799Y0199444D02*
X0087024Y0199444D01*
X0087218Y0200230D02*
X0094799Y0200230D01*
X0099038Y0201801D02*
X0099418Y0201801D01*
X0101007Y0201801D02*
X0101387Y0201801D01*
X0102975Y0201801D02*
X0103355Y0201801D01*
X0104944Y0201801D02*
X0105324Y0201801D01*
X0106912Y0201801D02*
X0107292Y0201801D01*
X0108087Y0199425D02*
X0112811Y0199425D01*
X0113205Y0199031D01*
X0115380Y0198658D02*
X0117535Y0198658D01*
X0117535Y0199444D02*
X0115380Y0199444D01*
X0115082Y0200230D02*
X0117535Y0200230D01*
X0117535Y0201016D02*
X0114296Y0201016D01*
X0113008Y0201801D02*
X0117535Y0201801D01*
X0117535Y0202587D02*
X0113030Y0202587D01*
X0113381Y0203373D02*
X0116526Y0203373D01*
X0116157Y0204159D02*
X0113376Y0204159D01*
X0110449Y0205724D02*
X0118913Y0205724D01*
X0117535Y0197872D02*
X0115121Y0197872D01*
X0125606Y0193942D02*
X0129174Y0193942D01*
X0129960Y0193156D02*
X0125606Y0193156D01*
X0125606Y0192371D02*
X0130746Y0192371D01*
X0131532Y0191585D02*
X0125606Y0191585D01*
X0125606Y0190799D02*
X0132318Y0190799D01*
X0133104Y0190013D02*
X0125606Y0190013D01*
X0125606Y0189227D02*
X0133890Y0189227D01*
X0134676Y0188441D02*
X0125606Y0188441D01*
X0125606Y0187655D02*
X0135461Y0187655D01*
X0136247Y0186869D02*
X0125606Y0186869D01*
X0125606Y0186083D02*
X0137033Y0186083D01*
X0137819Y0185297D02*
X0125606Y0185297D01*
X0125606Y0184511D02*
X0138605Y0184511D01*
X0139391Y0183725D02*
X0125606Y0183725D01*
X0125606Y0182940D02*
X0140177Y0182940D01*
X0142339Y0183283D02*
X0142339Y0179150D01*
X0143717Y0181368D02*
X0160646Y0181368D01*
X0161432Y0180582D02*
X0153125Y0180582D01*
X0153362Y0179796D02*
X0162218Y0179796D01*
X0163004Y0179010D02*
X0153362Y0179010D01*
X0153362Y0178224D02*
X0163598Y0178224D01*
X0159071Y0171151D02*
X0158283Y0171151D01*
X0158283Y0170365D02*
X0159071Y0170365D01*
X0159071Y0169579D02*
X0158283Y0169579D01*
X0162041Y0169579D02*
X0162525Y0169579D01*
X0151507Y0157790D02*
X0203362Y0157790D01*
X0203362Y0157004D02*
X0151787Y0157004D01*
X0151787Y0156219D02*
X0203362Y0156219D01*
X0203362Y0155433D02*
X0151787Y0155433D01*
X0151787Y0154647D02*
X0203362Y0154647D01*
X0203362Y0153861D02*
X0151787Y0153861D01*
X0151787Y0153075D02*
X0203362Y0153075D01*
X0203362Y0152289D02*
X0151712Y0152289D01*
X0151600Y0151503D02*
X0203362Y0151503D01*
X0203362Y0150717D02*
X0151431Y0150717D01*
X0150645Y0149931D02*
X0203362Y0149931D01*
X0203362Y0149145D02*
X0141645Y0149145D01*
X0142431Y0149931D02*
X0148206Y0149931D01*
X0147420Y0150717D02*
X0143217Y0150717D01*
X0143717Y0151503D02*
X0147250Y0151503D01*
X0145957Y0152289D02*
X0145020Y0152289D01*
X0145094Y0153075D02*
X0145882Y0153075D01*
X0145882Y0153861D02*
X0145094Y0153861D01*
X0145094Y0154647D02*
X0145882Y0154647D01*
X0145882Y0155433D02*
X0145094Y0155433D01*
X0145094Y0156219D02*
X0145882Y0156219D01*
X0145882Y0157004D02*
X0145094Y0157004D01*
X0144814Y0157790D02*
X0146162Y0157790D01*
X0148835Y0154937D02*
X0149425Y0154346D01*
X0149425Y0151787D01*
X0147846Y0147516D02*
X0146280Y0147516D01*
X0144833Y0146916D01*
X0143725Y0145809D01*
X0143126Y0144362D01*
X0143126Y0142796D01*
X0143725Y0141349D01*
X0144833Y0140241D01*
X0146280Y0139642D01*
X0147846Y0139642D01*
X0149293Y0140241D01*
X0150401Y0141349D01*
X0151000Y0142796D01*
X0151000Y0144362D01*
X0150401Y0145809D01*
X0149293Y0146916D01*
X0147846Y0147516D01*
X0149422Y0146788D02*
X0203362Y0146788D01*
X0203362Y0147573D02*
X0133496Y0147573D01*
X0133496Y0146788D02*
X0144704Y0146788D01*
X0143918Y0146002D02*
X0129740Y0146002D01*
X0129740Y0145216D02*
X0128953Y0145216D01*
X0128953Y0145685D02*
X0128953Y0142717D01*
X0126407Y0142717D01*
X0126053Y0142812D01*
X0125735Y0142995D01*
X0125475Y0143254D01*
X0125292Y0143572D01*
X0125197Y0143927D01*
X0125197Y0145685D01*
X0128953Y0145685D01*
X0128953Y0146002D02*
X0111803Y0146002D01*
X0111698Y0146255D02*
X0110369Y0147584D01*
X0108633Y0148303D01*
X0106753Y0148303D01*
X0105017Y0147584D01*
X0103688Y0146255D01*
X0102969Y0144518D01*
X0102969Y0142639D01*
X0103688Y0140903D01*
X0105017Y0139574D01*
X0106753Y0138854D01*
X0108633Y0138854D01*
X0110369Y0139574D01*
X0111236Y0140441D01*
X0111236Y0135843D01*
X0105114Y0135843D01*
X0098835Y0142122D01*
X0098835Y0146846D01*
X0096472Y0149209D01*
X0095665Y0150016D01*
X0093016Y0150016D01*
X0093016Y0152595D01*
X0092439Y0153171D01*
X0085325Y0153171D01*
X0084748Y0152595D01*
X0084748Y0144681D01*
X0085325Y0144104D01*
X0092439Y0144104D01*
X0093016Y0144681D01*
X0093016Y0147260D01*
X0094524Y0147260D01*
X0096079Y0145705D01*
X0096079Y0141354D01*
X0093016Y0141354D01*
X0093016Y0143146D01*
X0092439Y0143722D01*
X0085325Y0143722D01*
X0084748Y0143146D01*
X0084748Y0135232D01*
X0085325Y0134656D01*
X0092439Y0134656D01*
X0093016Y0135232D01*
X0093016Y0138598D01*
X0096099Y0138598D01*
X0103185Y0131512D01*
X0114602Y0131512D01*
X0114976Y0131138D01*
X0114976Y0126970D01*
X0115553Y0126394D01*
X0120305Y0126394D01*
X0120882Y0126970D01*
X0120882Y0129150D01*
X0121295Y0129150D01*
X0122110Y0128335D01*
X0122054Y0128279D01*
X0122054Y0126477D01*
X0123328Y0125203D01*
X0125129Y0125203D01*
X0125606Y0125680D01*
X0125606Y0125002D01*
X0126183Y0124425D01*
X0131329Y0124425D01*
X0131905Y0125002D01*
X0131905Y0125167D01*
X0131985Y0124871D01*
X0132168Y0124554D01*
X0132428Y0124294D01*
X0132746Y0124111D01*
X0133100Y0124016D01*
X0135055Y0124016D01*
X0135055Y0126984D01*
X0135842Y0126984D01*
X0135842Y0124016D01*
X0137798Y0124016D01*
X0138152Y0124111D01*
X0138470Y0124294D01*
X0138729Y0124554D01*
X0138913Y0124871D01*
X0139008Y0125226D01*
X0139008Y0126984D01*
X0135843Y0126984D01*
X0135843Y0127772D01*
X0139008Y0127772D01*
X0139008Y0129530D01*
X0138913Y0129884D01*
X0138729Y0130202D01*
X0138470Y0130462D01*
X0138152Y0130645D01*
X0137798Y0130740D01*
X0135842Y0130740D01*
X0135842Y0127772D01*
X0135055Y0127772D01*
X0135055Y0130740D01*
X0133100Y0130740D01*
X0132746Y0130645D01*
X0132428Y0130462D01*
X0132168Y0130202D01*
X0131985Y0129884D01*
X0131905Y0129589D01*
X0131905Y0129754D01*
X0131329Y0130331D01*
X0126183Y0130331D01*
X0125606Y0129754D01*
X0125606Y0129076D01*
X0125129Y0129553D01*
X0124790Y0129553D01*
X0123244Y0131098D01*
X0123244Y0131098D01*
X0122437Y0131905D01*
X0120882Y0131905D01*
X0120882Y0133087D01*
X0141354Y0133087D01*
X0141354Y0132088D01*
X0141931Y0131512D01*
X0147077Y0131512D01*
X0147654Y0132088D01*
X0147654Y0132254D01*
X0147733Y0131958D01*
X0147916Y0131640D01*
X0148176Y0131381D01*
X0148494Y0131197D01*
X0148848Y0131102D01*
X0150803Y0131102D01*
X0150803Y0134071D01*
X0151591Y0134071D01*
X0151591Y0134858D01*
X0154756Y0134858D01*
X0154756Y0136617D01*
X0154661Y0136971D01*
X0154477Y0137289D01*
X0154218Y0137548D01*
X0153900Y0137732D01*
X0153546Y0137827D01*
X0151591Y0137827D01*
X0151591Y0134858D01*
X0150803Y0134858D01*
X0150803Y0137827D01*
X0148848Y0137827D01*
X0148494Y0137732D01*
X0148176Y0137548D01*
X0147916Y0137289D01*
X0147733Y0136971D01*
X0147654Y0136675D01*
X0147654Y0136841D01*
X0147077Y0137417D01*
X0146876Y0137417D01*
X0146876Y0138515D01*
X0145602Y0139789D01*
X0144475Y0139789D01*
X0141748Y0142516D01*
X0141748Y0144715D01*
X0141171Y0145291D01*
X0134844Y0145291D01*
X0134268Y0144715D01*
X0134268Y0139962D01*
X0134844Y0139386D01*
X0140980Y0139386D01*
X0142526Y0137840D01*
X0142526Y0137417D01*
X0141931Y0137417D01*
X0141354Y0136841D01*
X0141354Y0135843D01*
X0132707Y0135843D01*
X0133087Y0136222D01*
X0133087Y0140975D01*
X0132510Y0141551D01*
X0126183Y0141551D01*
X0125606Y0140975D01*
X0125606Y0136222D01*
X0125986Y0135843D01*
X0125028Y0135843D01*
X0125031Y0135856D01*
X0125031Y0138402D01*
X0122063Y0138402D01*
X0122063Y0139189D01*
X0121276Y0139189D01*
X0121276Y0142945D01*
X0119517Y0142945D01*
X0119163Y0142850D01*
X0118845Y0142666D01*
X0118586Y0142407D01*
X0118402Y0142089D01*
X0118307Y0141735D01*
X0118307Y0139189D01*
X0121276Y0139189D01*
X0121276Y0138402D01*
X0118307Y0138402D01*
X0118307Y0135856D01*
X0118311Y0135843D01*
X0117142Y0135843D01*
X0117142Y0141959D01*
X0116565Y0142535D01*
X0112374Y0142535D01*
X0112417Y0142639D01*
X0112417Y0144518D01*
X0111698Y0146255D01*
X0111165Y0146788D02*
X0125197Y0146788D01*
X0125197Y0147573D02*
X0110379Y0147573D01*
X0112128Y0145216D02*
X0125197Y0145216D01*
X0125197Y0144430D02*
X0112417Y0144430D01*
X0112417Y0143644D02*
X0125273Y0143644D01*
X0125972Y0142858D02*
X0124145Y0142858D01*
X0124176Y0142850D02*
X0123821Y0142945D01*
X0122063Y0142945D01*
X0122063Y0139189D01*
X0125031Y0139189D01*
X0125031Y0141735D01*
X0124937Y0142089D01*
X0124753Y0142407D01*
X0124494Y0142666D01*
X0124176Y0142850D01*
X0124941Y0142072D02*
X0134268Y0142072D01*
X0134268Y0141286D02*
X0132775Y0141286D01*
X0133087Y0140500D02*
X0134268Y0140500D01*
X0134516Y0139714D02*
X0133087Y0139714D01*
X0133087Y0138928D02*
X0141438Y0138928D01*
X0142224Y0138143D02*
X0133087Y0138143D01*
X0133087Y0137357D02*
X0141870Y0137357D01*
X0141354Y0136571D02*
X0133087Y0136571D01*
X0132249Y0130283D02*
X0131376Y0130283D01*
X0128756Y0127378D02*
X0128953Y0127181D01*
X0124228Y0127378D01*
X0124228Y0128165D01*
X0121866Y0130528D01*
X0118323Y0130528D01*
X0117929Y0130134D01*
X0115173Y0132890D01*
X0103756Y0132890D01*
X0096669Y0139976D01*
X0089669Y0139976D01*
X0088882Y0139189D01*
X0084748Y0138928D02*
X0081819Y0138928D01*
X0081819Y0138143D02*
X0084748Y0138143D01*
X0084748Y0137357D02*
X0081819Y0137357D01*
X0081819Y0136571D02*
X0084748Y0136571D01*
X0084748Y0135785D02*
X0081819Y0135785D01*
X0081586Y0134999D02*
X0084981Y0134999D01*
X0086453Y0133427D02*
X0072153Y0133427D01*
X0071367Y0132641D02*
X0085667Y0132641D01*
X0085436Y0132410D02*
X0085436Y0132410D01*
X0084881Y0131855D02*
X0070581Y0131855D01*
X0069795Y0131069D02*
X0084362Y0131069D01*
X0084071Y0130283D02*
X0069009Y0130283D01*
X0068223Y0129498D02*
X0084071Y0129498D01*
X0084071Y0128712D02*
X0067438Y0128712D01*
X0066652Y0127926D02*
X0084071Y0127926D01*
X0084071Y0127140D02*
X0065866Y0127140D01*
X0065080Y0126354D02*
X0084071Y0126354D01*
X0084071Y0125568D02*
X0064294Y0125568D01*
X0063508Y0124782D02*
X0084071Y0124782D01*
X0084071Y0123996D02*
X0062722Y0123996D01*
X0061936Y0123210D02*
X0084071Y0123210D01*
X0084071Y0122424D02*
X0061827Y0122424D01*
X0061827Y0121638D02*
X0084071Y0121638D01*
X0084071Y0120852D02*
X0061827Y0120852D01*
X0061827Y0120067D02*
X0084071Y0120067D01*
X0084071Y0119281D02*
X0061827Y0119281D01*
X0054718Y0116923D02*
X0070904Y0116923D01*
X0072067Y0117709D02*
X0084071Y0117709D01*
X0084071Y0118495D02*
X0071281Y0118495D01*
X0072853Y0116923D02*
X0084071Y0116923D01*
X0084228Y0116137D02*
X0073638Y0116137D01*
X0074424Y0115351D02*
X0084557Y0115351D01*
X0085343Y0114565D02*
X0074425Y0114565D01*
X0074425Y0113779D02*
X0086129Y0113779D01*
X0086915Y0112993D02*
X0074425Y0112993D01*
X0074425Y0112207D02*
X0103858Y0112207D01*
X0103756Y0111422D02*
X0074425Y0111422D01*
X0074425Y0110636D02*
X0103756Y0110636D01*
X0103981Y0109850D02*
X0074425Y0109850D01*
X0074425Y0109064D02*
X0104307Y0109064D01*
X0103829Y0108278D02*
X0074425Y0108278D01*
X0074425Y0107492D02*
X0088451Y0107492D01*
X0088412Y0107470D02*
X0088152Y0107210D01*
X0087969Y0106892D01*
X0087874Y0106538D01*
X0087874Y0103244D01*
X0093126Y0103244D01*
X0093126Y0102457D01*
X0087874Y0102457D01*
X0087874Y0099163D01*
X0087969Y0098809D01*
X0088152Y0098491D01*
X0088412Y0098231D01*
X0088730Y0098048D01*
X0089084Y0097953D01*
X0093126Y0097953D01*
X0093126Y0102457D01*
X0093913Y0102457D01*
X0093913Y0097953D01*
X0097955Y0097953D01*
X0098310Y0098048D01*
X0098627Y0098231D01*
X0098887Y0098491D01*
X0099070Y0098809D01*
X0099165Y0099163D01*
X0099165Y0102457D01*
X0093913Y0102457D01*
X0093913Y0103244D01*
X0093126Y0103244D01*
X0093126Y0107748D01*
X0089084Y0107748D01*
X0088730Y0107653D01*
X0088412Y0107470D01*
X0087919Y0106706D02*
X0074425Y0106706D01*
X0074425Y0105920D02*
X0087874Y0105920D01*
X0087874Y0105134D02*
X0074425Y0105134D01*
X0074425Y0104348D02*
X0087874Y0104348D01*
X0087874Y0103562D02*
X0074425Y0103562D01*
X0074425Y0102776D02*
X0093126Y0102776D01*
X0093126Y0101991D02*
X0093913Y0101991D01*
X0093913Y0102776D02*
X0103047Y0102776D01*
X0103047Y0101991D02*
X0099165Y0101991D01*
X0099165Y0101205D02*
X0103047Y0101205D01*
X0103047Y0100419D02*
X0099165Y0100419D01*
X0099165Y0099633D02*
X0103047Y0099633D01*
X0103047Y0098847D02*
X0099081Y0098847D01*
X0098333Y0098061D02*
X0103353Y0098061D01*
X0103977Y0097275D02*
X0071264Y0097275D01*
X0072337Y0096489D02*
X0105724Y0096489D01*
X0105724Y0095703D02*
X0072472Y0095703D01*
X0072472Y0094917D02*
X0105724Y0094917D01*
X0105724Y0094131D02*
X0072472Y0094131D01*
X0072472Y0093346D02*
X0105724Y0093346D01*
X0105724Y0092560D02*
X0067929Y0092560D01*
X0067929Y0091774D02*
X0067142Y0091774D01*
X0067142Y0090988D02*
X0067929Y0090988D01*
X0067929Y0090202D02*
X0067142Y0090202D01*
X0067142Y0089416D02*
X0067929Y0089416D01*
X0067929Y0088630D02*
X0067142Y0088630D01*
X0062974Y0088630D02*
X0062648Y0088630D01*
X0054358Y0097275D02*
X0050803Y0097275D01*
X0050803Y0096489D02*
X0053285Y0096489D01*
X0053150Y0095703D02*
X0050803Y0095703D01*
X0050246Y0094917D02*
X0053150Y0094917D01*
X0053171Y0098061D02*
X0050803Y0098061D01*
X0049425Y0087844D02*
X0101405Y0087844D01*
X0102191Y0088630D02*
X0072097Y0088630D01*
X0072472Y0089416D02*
X0102976Y0089416D01*
X0103762Y0090202D02*
X0072472Y0090202D01*
X0072472Y0090988D02*
X0104548Y0090988D01*
X0105334Y0091774D02*
X0072472Y0091774D01*
X0072451Y0098061D02*
X0088707Y0098061D01*
X0087959Y0098847D02*
X0073237Y0098847D01*
X0074022Y0099633D02*
X0087874Y0099633D01*
X0087874Y0100419D02*
X0074425Y0100419D01*
X0074425Y0101205D02*
X0087874Y0101205D01*
X0087874Y0101991D02*
X0074425Y0101991D01*
X0088795Y0115567D02*
X0087220Y0117142D01*
X0087220Y0129740D01*
X0088795Y0131315D01*
X0091945Y0131315D01*
X0101394Y0121866D01*
X0115567Y0121866D01*
X0117929Y0119504D01*
X0117929Y0117142D01*
X0116354Y0115567D01*
X0088795Y0115567D01*
X0088225Y0116137D02*
X0116924Y0116137D01*
X0117710Y0116923D02*
X0087439Y0116923D01*
X0087220Y0117709D02*
X0117929Y0117709D01*
X0117929Y0118495D02*
X0087220Y0118495D01*
X0087220Y0119281D02*
X0117929Y0119281D01*
X0117367Y0120067D02*
X0087220Y0120067D01*
X0087220Y0120852D02*
X0116581Y0120852D01*
X0115795Y0121638D02*
X0087220Y0121638D01*
X0087220Y0122424D02*
X0100836Y0122424D01*
X0100050Y0123210D02*
X0087220Y0123210D01*
X0087220Y0123996D02*
X0099264Y0123996D01*
X0098478Y0124782D02*
X0087220Y0124782D01*
X0087220Y0125568D02*
X0097692Y0125568D01*
X0096906Y0126354D02*
X0087220Y0126354D01*
X0087220Y0127140D02*
X0096120Y0127140D01*
X0095334Y0127926D02*
X0087220Y0127926D01*
X0087220Y0128712D02*
X0094548Y0128712D01*
X0093762Y0129498D02*
X0087220Y0129498D01*
X0087764Y0130283D02*
X0092976Y0130283D01*
X0092191Y0131069D02*
X0088550Y0131069D01*
X0086125Y0133099D02*
X0086125Y0133099D01*
X0087561Y0134213D02*
X0072939Y0134213D01*
X0073725Y0134999D02*
X0073784Y0134999D01*
X0069492Y0139714D02*
X0057299Y0139714D01*
X0057299Y0138928D02*
X0068706Y0138928D01*
X0067921Y0138143D02*
X0057299Y0138143D01*
X0057299Y0137357D02*
X0067135Y0137357D01*
X0066349Y0136571D02*
X0057299Y0136571D01*
X0057299Y0136222D02*
X0057299Y0140975D01*
X0056723Y0141551D01*
X0055567Y0141551D01*
X0055567Y0141669D01*
X0056821Y0141669D01*
X0057398Y0142246D01*
X0057398Y0152668D01*
X0056821Y0153244D01*
X0051557Y0153244D01*
X0050980Y0152668D01*
X0050980Y0142246D01*
X0051557Y0141669D01*
X0052811Y0141669D01*
X0052811Y0141551D01*
X0051577Y0141551D01*
X0051000Y0140975D01*
X0051000Y0136222D01*
X0051577Y0135646D01*
X0056723Y0135646D01*
X0057299Y0136222D01*
X0056862Y0135785D02*
X0065563Y0135785D01*
X0064777Y0134999D02*
X0057154Y0134999D01*
X0057667Y0134213D02*
X0063991Y0134213D01*
X0063205Y0133427D02*
X0057709Y0133427D01*
X0054543Y0133427D02*
X0053756Y0133427D01*
X0053756Y0132641D02*
X0054543Y0132641D01*
X0053756Y0132299D02*
X0053756Y0135268D01*
X0051801Y0135268D01*
X0051446Y0135173D01*
X0051128Y0134989D01*
X0050869Y0134730D01*
X0050686Y0134412D01*
X0050591Y0134057D01*
X0050591Y0132299D01*
X0053756Y0132299D01*
X0053756Y0134213D02*
X0054543Y0134213D01*
X0054543Y0134999D02*
X0053756Y0134999D01*
X0051437Y0135785D02*
X0046626Y0135785D01*
X0046918Y0134999D02*
X0051145Y0134999D01*
X0050632Y0134213D02*
X0047431Y0134213D01*
X0047472Y0133427D02*
X0050591Y0133427D01*
X0050591Y0132641D02*
X0047472Y0132641D01*
X0047472Y0131069D02*
X0050591Y0131069D01*
X0050591Y0130283D02*
X0047472Y0130283D01*
X0047404Y0129498D02*
X0050659Y0129498D01*
X0051319Y0128712D02*
X0046744Y0128712D01*
X0044307Y0128712D02*
X0043520Y0128712D01*
X0043520Y0129498D02*
X0044307Y0129498D01*
X0044307Y0130283D02*
X0043520Y0130283D01*
X0043520Y0132641D02*
X0044307Y0132641D01*
X0044307Y0133427D02*
X0043520Y0133427D01*
X0043520Y0134213D02*
X0044307Y0134213D01*
X0044307Y0134999D02*
X0043520Y0134999D01*
X0040764Y0136571D02*
X0037614Y0136571D01*
X0037614Y0137357D02*
X0040764Y0137357D01*
X0040764Y0138143D02*
X0037614Y0138143D01*
X0037614Y0138928D02*
X0040764Y0138928D01*
X0040764Y0139714D02*
X0037614Y0139714D01*
X0037614Y0140500D02*
X0040764Y0140500D01*
X0041075Y0141286D02*
X0037303Y0141286D01*
X0037224Y0142072D02*
X0041154Y0142072D01*
X0040980Y0142858D02*
X0037398Y0142858D01*
X0037398Y0143644D02*
X0040980Y0143644D01*
X0040980Y0144430D02*
X0037398Y0144430D01*
X0037398Y0145216D02*
X0040980Y0145216D01*
X0040980Y0146002D02*
X0037398Y0146002D01*
X0037398Y0146788D02*
X0040980Y0146788D01*
X0040980Y0147573D02*
X0037398Y0147573D01*
X0037398Y0148359D02*
X0040980Y0148359D01*
X0040980Y0149145D02*
X0037398Y0149145D01*
X0037398Y0149931D02*
X0040980Y0149931D01*
X0040980Y0150717D02*
X0037398Y0150717D01*
X0037398Y0151503D02*
X0040980Y0151503D01*
X0040980Y0152289D02*
X0037398Y0152289D01*
X0036990Y0153075D02*
X0041388Y0153075D01*
X0046990Y0153075D02*
X0051388Y0153075D01*
X0050980Y0152289D02*
X0047398Y0152289D01*
X0047398Y0151503D02*
X0050980Y0151503D01*
X0050980Y0150717D02*
X0047398Y0150717D01*
X0047398Y0149931D02*
X0050980Y0149931D01*
X0050980Y0149145D02*
X0047398Y0149145D01*
X0047398Y0148359D02*
X0050980Y0148359D01*
X0050980Y0147573D02*
X0047398Y0147573D01*
X0047398Y0146788D02*
X0050980Y0146788D01*
X0050980Y0146002D02*
X0047398Y0146002D01*
X0047398Y0145216D02*
X0050980Y0145216D01*
X0050980Y0144430D02*
X0047398Y0144430D01*
X0047398Y0143644D02*
X0050980Y0143644D01*
X0050980Y0142858D02*
X0047398Y0142858D01*
X0047224Y0142072D02*
X0051154Y0142072D01*
X0051312Y0141286D02*
X0046751Y0141286D01*
X0047063Y0140500D02*
X0051000Y0140500D01*
X0051000Y0139714D02*
X0047063Y0139714D01*
X0047063Y0138928D02*
X0051000Y0138928D01*
X0051000Y0138143D02*
X0047063Y0138143D01*
X0047063Y0137357D02*
X0051000Y0137357D01*
X0051000Y0136571D02*
X0047063Y0136571D01*
X0044189Y0138874D02*
X0043913Y0138598D01*
X0044189Y0138874D02*
X0044189Y0147457D01*
X0054189Y0147457D02*
X0054189Y0138638D01*
X0054150Y0138598D01*
X0057299Y0140500D02*
X0070278Y0140500D01*
X0070488Y0141286D02*
X0056988Y0141286D01*
X0057224Y0142072D02*
X0070488Y0142072D01*
X0070488Y0142858D02*
X0057398Y0142858D01*
X0057398Y0143644D02*
X0070488Y0143644D01*
X0070488Y0144430D02*
X0057398Y0144430D01*
X0057398Y0145216D02*
X0070488Y0145216D01*
X0070488Y0146002D02*
X0057398Y0146002D01*
X0057398Y0146788D02*
X0070488Y0146788D01*
X0070488Y0147573D02*
X0057398Y0147573D01*
X0057398Y0148359D02*
X0070488Y0148359D01*
X0070488Y0149145D02*
X0057398Y0149145D01*
X0057398Y0149931D02*
X0070488Y0149931D01*
X0070488Y0150717D02*
X0057398Y0150717D01*
X0057398Y0151503D02*
X0070488Y0151503D01*
X0070488Y0152289D02*
X0057398Y0152289D01*
X0056990Y0153075D02*
X0070488Y0153075D01*
X0074031Y0153861D02*
X0104543Y0153861D01*
X0104543Y0154647D02*
X0074031Y0154647D01*
X0074031Y0155433D02*
X0104543Y0155433D01*
X0104543Y0156219D02*
X0074031Y0156219D01*
X0074031Y0157004D02*
X0104543Y0157004D01*
X0104543Y0157790D02*
X0074031Y0157790D01*
X0074031Y0158576D02*
X0109388Y0158576D01*
X0111630Y0158283D02*
X0107693Y0162220D01*
X0107693Y0166748D01*
X0112417Y0171472D01*
X0112417Y0172654D01*
X0110449Y0174622D01*
X0105331Y0174622D01*
X0104740Y0175213D01*
X0101394Y0175213D01*
X0100409Y0176197D01*
X0098244Y0176197D01*
X0095882Y0178559D01*
X0095882Y0184858D01*
X0096669Y0185646D01*
X0096669Y0188008D01*
X0094494Y0187655D02*
X0090183Y0187655D01*
X0090183Y0188441D02*
X0094494Y0188441D01*
X0094813Y0189227D02*
X0090158Y0189227D01*
X0089945Y0186869D02*
X0094732Y0186869D01*
X0095158Y0186083D02*
X0089780Y0186083D01*
X0089780Y0185297D02*
X0094504Y0185297D01*
X0094504Y0184511D02*
X0089780Y0184511D01*
X0089780Y0183725D02*
X0094504Y0183725D01*
X0094504Y0182940D02*
X0089382Y0182940D01*
X0088596Y0182154D02*
X0094504Y0182154D01*
X0094504Y0181368D02*
X0087810Y0181368D01*
X0087417Y0180582D02*
X0094504Y0180582D01*
X0094504Y0179796D02*
X0087417Y0179796D01*
X0087417Y0179010D02*
X0094504Y0179010D01*
X0094504Y0178224D02*
X0087417Y0178224D01*
X0087417Y0177438D02*
X0095054Y0177438D01*
X0095840Y0176652D02*
X0087032Y0176652D01*
X0086246Y0175866D02*
X0096626Y0175866D01*
X0097412Y0175080D02*
X0085460Y0175080D01*
X0084674Y0174295D02*
X0098244Y0174295D01*
X0098244Y0173509D02*
X0083888Y0173509D01*
X0083102Y0172723D02*
X0098358Y0172723D01*
X0104430Y0172723D02*
X0109465Y0172723D01*
X0109465Y0171937D02*
X0082316Y0171937D01*
X0081530Y0171151D02*
X0109465Y0171151D01*
X0109361Y0170365D02*
X0080744Y0170365D01*
X0079959Y0169579D02*
X0108575Y0169579D01*
X0107789Y0168793D02*
X0079173Y0168793D01*
X0078387Y0168007D02*
X0107003Y0168007D01*
X0106315Y0167221D02*
X0077601Y0167221D01*
X0076815Y0166435D02*
X0106315Y0166435D01*
X0106315Y0165649D02*
X0076029Y0165649D01*
X0075243Y0164864D02*
X0104810Y0164864D01*
X0104543Y0164078D02*
X0074457Y0164078D01*
X0074031Y0163292D02*
X0104543Y0163292D01*
X0104543Y0162506D02*
X0074031Y0162506D01*
X0074031Y0161720D02*
X0104543Y0161720D01*
X0104543Y0160934D02*
X0074031Y0160934D01*
X0074031Y0160148D02*
X0104543Y0160148D01*
X0105025Y0159362D02*
X0074031Y0159362D01*
X0081339Y0153075D02*
X0085228Y0153075D01*
X0084748Y0152289D02*
X0081819Y0152289D01*
X0081819Y0151503D02*
X0084748Y0151503D01*
X0084748Y0150717D02*
X0081819Y0150717D01*
X0081819Y0149931D02*
X0084748Y0149931D01*
X0084748Y0149145D02*
X0081819Y0149145D01*
X0081819Y0148359D02*
X0084748Y0148359D01*
X0084748Y0147573D02*
X0081819Y0147573D01*
X0081819Y0146788D02*
X0084748Y0146788D01*
X0084748Y0146002D02*
X0081819Y0146002D01*
X0081819Y0145216D02*
X0084748Y0145216D01*
X0084999Y0144430D02*
X0081568Y0144430D01*
X0081321Y0143644D02*
X0085246Y0143644D01*
X0084748Y0142858D02*
X0081819Y0142858D01*
X0081819Y0142072D02*
X0084748Y0142072D01*
X0084748Y0141286D02*
X0081819Y0141286D01*
X0081819Y0140500D02*
X0084748Y0140500D01*
X0084748Y0139714D02*
X0081819Y0139714D01*
X0088882Y0148638D02*
X0095094Y0148638D01*
X0097457Y0146276D01*
X0097457Y0141551D01*
X0104543Y0134465D01*
X0144504Y0134465D01*
X0144701Y0134661D01*
X0144701Y0137614D01*
X0139976Y0142339D01*
X0138008Y0142339D01*
X0141748Y0142858D02*
X0143126Y0142858D01*
X0143126Y0143644D02*
X0141748Y0143644D01*
X0141748Y0144430D02*
X0143154Y0144430D01*
X0143480Y0145216D02*
X0141247Y0145216D01*
X0142192Y0142072D02*
X0143426Y0142072D01*
X0143788Y0141286D02*
X0142977Y0141286D01*
X0143763Y0140500D02*
X0144574Y0140500D01*
X0145676Y0139714D02*
X0146104Y0139714D01*
X0146462Y0138928D02*
X0192773Y0138928D01*
X0192535Y0138143D02*
X0146876Y0138143D01*
X0147138Y0137357D02*
X0147984Y0137357D01*
X0148021Y0139714D02*
X0193098Y0139714D01*
X0193451Y0140500D02*
X0149552Y0140500D01*
X0150338Y0141286D02*
X0194237Y0141286D01*
X0195040Y0142072D02*
X0150700Y0142072D01*
X0151000Y0142858D02*
X0196937Y0142858D01*
X0199551Y0142858D02*
X0203362Y0142858D01*
X0203362Y0142072D02*
X0201449Y0142072D01*
X0202252Y0141286D02*
X0203362Y0141286D01*
X0203362Y0140500D02*
X0203038Y0140500D01*
X0203362Y0143644D02*
X0151000Y0143644D01*
X0150972Y0144430D02*
X0203362Y0144430D01*
X0203362Y0145216D02*
X0150646Y0145216D01*
X0150208Y0146002D02*
X0203362Y0146002D01*
X0203362Y0148359D02*
X0133462Y0148359D01*
X0133496Y0145216D02*
X0134769Y0145216D01*
X0134268Y0144430D02*
X0133496Y0144430D01*
X0133420Y0143644D02*
X0134268Y0143644D01*
X0134268Y0142858D02*
X0132721Y0142858D01*
X0129740Y0142858D02*
X0128953Y0142858D01*
X0128953Y0143644D02*
X0129740Y0143644D01*
X0129740Y0144430D02*
X0128953Y0144430D01*
X0125918Y0141286D02*
X0125031Y0141286D01*
X0125031Y0140500D02*
X0125606Y0140500D01*
X0125606Y0139714D02*
X0125031Y0139714D01*
X0125606Y0138928D02*
X0122063Y0138928D01*
X0122063Y0139714D02*
X0121276Y0139714D01*
X0121276Y0138928D02*
X0117142Y0138928D01*
X0117142Y0138143D02*
X0118307Y0138143D01*
X0118307Y0137357D02*
X0117142Y0137357D01*
X0117142Y0136571D02*
X0118307Y0136571D01*
X0120882Y0132641D02*
X0141354Y0132641D01*
X0141587Y0131855D02*
X0122487Y0131855D01*
X0123273Y0131069D02*
X0184020Y0131069D01*
X0183426Y0130283D02*
X0138648Y0130283D01*
X0139008Y0129498D02*
X0183101Y0129498D01*
X0182775Y0128712D02*
X0139008Y0128712D01*
X0139008Y0127926D02*
X0182693Y0127926D01*
X0182039Y0127140D02*
X0135843Y0127140D01*
X0135842Y0127926D02*
X0135055Y0127926D01*
X0135055Y0128712D02*
X0135842Y0128712D01*
X0135842Y0129498D02*
X0135055Y0129498D01*
X0135055Y0130283D02*
X0135842Y0130283D01*
X0135842Y0126354D02*
X0135055Y0126354D01*
X0135055Y0125568D02*
X0135842Y0125568D01*
X0135842Y0124782D02*
X0135055Y0124782D01*
X0138861Y0124782D02*
X0172201Y0124782D01*
X0172987Y0125568D02*
X0139008Y0125568D01*
X0139008Y0126354D02*
X0173814Y0126354D01*
X0171415Y0123996D02*
X0117891Y0123996D01*
X0118677Y0123210D02*
X0121210Y0123210D01*
X0120945Y0122424D02*
X0119463Y0122424D01*
X0120249Y0121638D02*
X0120945Y0121638D01*
X0120945Y0120852D02*
X0120780Y0120852D01*
X0120922Y0116137D02*
X0120945Y0116137D01*
X0120945Y0115351D02*
X0120593Y0115351D01*
X0121194Y0114565D02*
X0119807Y0114565D01*
X0119021Y0113779D02*
X0143027Y0113779D01*
X0142702Y0112993D02*
X0118235Y0112993D01*
X0114967Y0109064D02*
X0121678Y0109064D01*
X0120365Y0108278D02*
X0116281Y0108278D01*
X0116819Y0107492D02*
X0119827Y0107492D01*
X0119888Y0098061D02*
X0116758Y0098061D01*
X0116133Y0097275D02*
X0120513Y0097275D01*
X0114386Y0096489D02*
X0134465Y0096489D01*
X0134465Y0095703D02*
X0114386Y0095703D01*
X0114386Y0094917D02*
X0134465Y0094917D01*
X0134465Y0094131D02*
X0114386Y0094131D01*
X0114386Y0093346D02*
X0134465Y0093346D01*
X0134635Y0092560D02*
X0114386Y0092560D01*
X0114386Y0091774D02*
X0135069Y0091774D01*
X0136132Y0090988D02*
X0114386Y0090988D01*
X0114386Y0090202D02*
X0139583Y0090202D01*
X0139583Y0089416D02*
X0114347Y0089416D01*
X0114022Y0088630D02*
X0139583Y0088630D01*
X0139583Y0087844D02*
X0113654Y0087844D01*
X0112868Y0087058D02*
X0139583Y0087058D01*
X0139583Y0086272D02*
X0112082Y0086272D01*
X0111296Y0085486D02*
X0139583Y0085486D01*
X0139583Y0084700D02*
X0110510Y0084700D01*
X0109724Y0083915D02*
X0139828Y0083915D01*
X0139189Y0083890D02*
X0137037Y0083890D01*
X0136683Y0083795D01*
X0136365Y0083611D01*
X0136105Y0083352D01*
X0135922Y0083034D01*
X0135827Y0082680D01*
X0135827Y0079740D01*
X0139189Y0079740D01*
X0139189Y0083890D01*
X0139189Y0083129D02*
X0139976Y0083129D01*
X0139976Y0082343D02*
X0139189Y0082343D01*
X0139189Y0081557D02*
X0139976Y0081557D01*
X0139976Y0080771D02*
X0139189Y0080771D01*
X0139189Y0079985D02*
X0139976Y0079985D01*
X0139189Y0079199D02*
X0105009Y0079199D01*
X0105795Y0079985D02*
X0135827Y0079985D01*
X0135827Y0080771D02*
X0106580Y0080771D01*
X0107366Y0081557D02*
X0135827Y0081557D01*
X0135827Y0082343D02*
X0108152Y0082343D01*
X0108938Y0083129D02*
X0135976Y0083129D01*
X0135827Y0078413D02*
X0104223Y0078413D01*
X0103437Y0077627D02*
X0135827Y0077627D01*
X0135827Y0076841D02*
X0102651Y0076841D01*
X0101865Y0076055D02*
X0135827Y0076055D01*
X0136177Y0075270D02*
X0101079Y0075270D01*
X0100293Y0074484D02*
X0140800Y0074484D01*
X0140014Y0073698D02*
X0098938Y0073698D01*
X0095903Y0082343D02*
X0049425Y0082343D01*
X0049425Y0083129D02*
X0096689Y0083129D01*
X0097475Y0083915D02*
X0049425Y0083915D01*
X0049425Y0084700D02*
X0098261Y0084700D01*
X0099047Y0085486D02*
X0049425Y0085486D01*
X0049425Y0086272D02*
X0099833Y0086272D01*
X0100619Y0087058D02*
X0049425Y0087058D01*
X0049425Y0072912D02*
X0139228Y0072912D01*
X0138442Y0072126D02*
X0049425Y0072126D01*
X0049304Y0071340D02*
X0124497Y0071340D01*
X0123504Y0070554D02*
X0048978Y0070554D01*
X0048238Y0069768D02*
X0122718Y0069768D01*
X0121669Y0067410D02*
X0019119Y0067410D01*
X0029150Y0084700D02*
X0033933Y0084700D01*
X0032421Y0085486D02*
X0029150Y0085486D01*
X0029150Y0086272D02*
X0032102Y0086272D01*
X0030316Y0087058D02*
X0029150Y0087058D01*
X0029530Y0087844D02*
X0022426Y0087844D01*
X0022621Y0088630D02*
X0023047Y0088630D01*
X0023047Y0089416D02*
X0022669Y0089416D01*
X0022669Y0090202D02*
X0023047Y0090202D01*
X0019701Y0089416D02*
X0018913Y0089416D01*
X0018913Y0088630D02*
X0019701Y0088630D01*
X0019701Y0087844D02*
X0018913Y0087844D01*
X0018913Y0087058D02*
X0019701Y0087058D01*
X0019701Y0086272D02*
X0018913Y0086272D01*
X0018913Y0085486D02*
X0019701Y0085486D01*
X0030284Y0090988D02*
X0032102Y0090988D01*
X0032102Y0090202D02*
X0031070Y0090202D01*
X0055221Y0066624D02*
X0121669Y0066624D01*
X0121669Y0065839D02*
X0058113Y0065839D01*
X0059474Y0065053D02*
X0121738Y0065053D01*
X0122064Y0064267D02*
X0060836Y0064267D01*
X0061830Y0063481D02*
X0122389Y0063481D01*
X0122964Y0062695D02*
X0062616Y0062695D01*
X0063401Y0061909D02*
X0115648Y0061909D01*
X0114073Y0061123D02*
X0064101Y0061123D01*
X0064554Y0060337D02*
X0113288Y0060337D01*
X0112615Y0059551D02*
X0065008Y0059551D01*
X0065462Y0058765D02*
X0112290Y0058765D01*
X0111964Y0057979D02*
X0065885Y0057979D01*
X0066096Y0057194D02*
X0111827Y0057194D01*
X0111827Y0056408D02*
X0066307Y0056408D01*
X0066517Y0055622D02*
X0111827Y0055622D01*
X0112051Y0054836D02*
X0066728Y0054836D01*
X0066831Y0054050D02*
X0112376Y0054050D01*
X0112710Y0053264D02*
X0066831Y0053264D01*
X0066831Y0052478D02*
X0113496Y0052478D01*
X0114282Y0051692D02*
X0066831Y0051692D01*
X0066831Y0050906D02*
X0116151Y0050906D01*
X0118920Y0050906D02*
X0124747Y0050906D01*
X0123869Y0050120D02*
X0066676Y0050120D01*
X0066465Y0049334D02*
X0123155Y0049334D01*
X0122830Y0048548D02*
X0066255Y0048548D01*
X0066044Y0047763D02*
X0122504Y0047763D01*
X0122457Y0046977D02*
X0065804Y0046977D01*
X0065350Y0046191D02*
X0122457Y0046191D01*
X0122575Y0045405D02*
X0064897Y0045405D01*
X0064443Y0044619D02*
X0122901Y0044619D01*
X0123255Y0043833D02*
X0063989Y0043833D01*
X0063208Y0043047D02*
X0124040Y0043047D01*
X0125160Y0042261D02*
X0062422Y0042261D01*
X0061636Y0041475D02*
X0170154Y0041475D01*
X0170154Y0040689D02*
X0060500Y0040689D01*
X0059139Y0039903D02*
X0170154Y0039903D01*
X0170154Y0039118D02*
X0057432Y0039118D01*
X0054499Y0038332D02*
X0170707Y0038332D01*
X0170154Y0042261D02*
X0129596Y0042261D01*
X0130715Y0043047D02*
X0130794Y0043047D01*
X0139782Y0051394D02*
X0140454Y0051672D01*
X0142060Y0053278D01*
X0142929Y0055376D01*
X0142929Y0055702D01*
X0153453Y0066226D01*
X0154671Y0067444D01*
X0155331Y0069036D01*
X0155331Y0073874D01*
X0156092Y0074636D01*
X0156512Y0075649D01*
X0156512Y0075803D01*
X0157373Y0075803D01*
X0158965Y0076462D01*
X0160183Y0077681D01*
X0162545Y0080043D01*
X0163205Y0081635D01*
X0163205Y0083852D01*
X0164189Y0084836D01*
X0164189Y0082665D01*
X0165342Y0081512D01*
X0165567Y0081512D01*
X0165567Y0060016D01*
X0164032Y0058480D01*
X0151239Y0058480D01*
X0150226Y0058061D01*
X0149451Y0057285D01*
X0143559Y0051394D01*
X0139782Y0051394D01*
X0140474Y0051692D02*
X0143858Y0051692D01*
X0144644Y0052478D02*
X0141260Y0052478D01*
X0142046Y0053264D02*
X0145430Y0053264D01*
X0146215Y0054050D02*
X0142380Y0054050D01*
X0142705Y0054836D02*
X0147001Y0054836D01*
X0147787Y0055622D02*
X0142929Y0055622D01*
X0143634Y0056408D02*
X0148573Y0056408D01*
X0149359Y0057194D02*
X0144420Y0057194D01*
X0145206Y0057979D02*
X0150145Y0057979D01*
X0147564Y0060337D02*
X0165567Y0060337D01*
X0165567Y0061123D02*
X0148350Y0061123D01*
X0149136Y0061909D02*
X0165567Y0061909D01*
X0165567Y0062695D02*
X0149922Y0062695D01*
X0150708Y0063481D02*
X0165567Y0063481D01*
X0165567Y0064267D02*
X0151494Y0064267D01*
X0152280Y0065053D02*
X0165567Y0065053D01*
X0165567Y0065839D02*
X0153065Y0065839D01*
X0153851Y0066624D02*
X0165567Y0066624D01*
X0165567Y0067410D02*
X0154637Y0067410D01*
X0154983Y0068196D02*
X0165567Y0068196D01*
X0165567Y0068982D02*
X0155308Y0068982D01*
X0155331Y0069768D02*
X0165567Y0069768D01*
X0165567Y0070554D02*
X0155331Y0070554D01*
X0155331Y0071340D02*
X0165567Y0071340D01*
X0165567Y0072126D02*
X0155331Y0072126D01*
X0155331Y0072912D02*
X0165567Y0072912D01*
X0165567Y0073698D02*
X0155331Y0073698D01*
X0155940Y0074484D02*
X0165567Y0074484D01*
X0165567Y0075270D02*
X0156355Y0075270D01*
X0157982Y0076055D02*
X0165567Y0076055D01*
X0165567Y0076841D02*
X0159344Y0076841D01*
X0160130Y0077627D02*
X0165567Y0077627D01*
X0165567Y0078413D02*
X0160916Y0078413D01*
X0161702Y0079199D02*
X0165567Y0079199D01*
X0165567Y0079985D02*
X0162487Y0079985D01*
X0162847Y0080771D02*
X0165567Y0080771D01*
X0165297Y0081557D02*
X0163172Y0081557D01*
X0163205Y0082343D02*
X0164511Y0082343D01*
X0164189Y0083129D02*
X0163205Y0083129D01*
X0163267Y0083915D02*
X0164189Y0083915D01*
X0164189Y0084700D02*
X0164053Y0084700D01*
X0171079Y0081681D02*
X0172063Y0082665D01*
X0172063Y0082876D01*
X0172443Y0082496D01*
X0172850Y0082496D01*
X0172850Y0082181D01*
X0171714Y0082181D01*
X0171138Y0081605D01*
X0171138Y0070789D01*
X0171714Y0070213D01*
X0177530Y0070213D01*
X0178106Y0070789D01*
X0178106Y0081605D01*
X0177530Y0082181D01*
X0176394Y0082181D01*
X0176394Y0082496D01*
X0177195Y0082496D01*
X0177772Y0083073D01*
X0177772Y0088047D01*
X0179921Y0090197D01*
X0179921Y0088008D01*
X0182890Y0088008D01*
X0182890Y0091764D01*
X0182540Y0091764D01*
X0183283Y0092507D01*
X0184027Y0091764D01*
X0183677Y0091764D01*
X0183677Y0088008D01*
X0182890Y0088008D01*
X0182890Y0087220D01*
X0183677Y0087220D01*
X0183677Y0083465D01*
X0185435Y0083465D01*
X0185790Y0083560D01*
X0186108Y0083743D01*
X0186367Y0084003D01*
X0186551Y0084320D01*
X0186646Y0084675D01*
X0186646Y0087220D01*
X0183677Y0087220D01*
X0183677Y0088008D01*
X0186646Y0088008D01*
X0186646Y0090554D01*
X0186551Y0090908D01*
X0186367Y0091226D01*
X0186108Y0091485D01*
X0185994Y0091551D01*
X0187851Y0091551D01*
X0188402Y0091000D01*
X0188402Y0083638D01*
X0178585Y0073821D01*
X0178165Y0072808D01*
X0178165Y0070252D01*
X0172286Y0064372D01*
X0171866Y0063359D01*
X0171866Y0051669D01*
X0171307Y0051669D01*
X0170641Y0051004D01*
X0167496Y0054150D01*
X0169884Y0056538D01*
X0170659Y0057313D01*
X0171079Y0058326D01*
X0171079Y0081681D01*
X0171079Y0081557D02*
X0171138Y0081557D01*
X0171138Y0080771D02*
X0171079Y0080771D01*
X0171079Y0079985D02*
X0171138Y0079985D01*
X0171138Y0079199D02*
X0171079Y0079199D01*
X0171079Y0078413D02*
X0171138Y0078413D01*
X0171138Y0077627D02*
X0171079Y0077627D01*
X0171079Y0076841D02*
X0171138Y0076841D01*
X0171138Y0076055D02*
X0171079Y0076055D01*
X0171079Y0075270D02*
X0171138Y0075270D01*
X0171138Y0074484D02*
X0171079Y0074484D01*
X0171079Y0073698D02*
X0171138Y0073698D01*
X0171138Y0072912D02*
X0171079Y0072912D01*
X0171079Y0072126D02*
X0171138Y0072126D01*
X0171138Y0071340D02*
X0171079Y0071340D01*
X0171079Y0070554D02*
X0171373Y0070554D01*
X0171079Y0069768D02*
X0177682Y0069768D01*
X0177871Y0070554D02*
X0178165Y0070554D01*
X0178165Y0071340D02*
X0178106Y0071340D01*
X0178106Y0072126D02*
X0178165Y0072126D01*
X0178208Y0072912D02*
X0178106Y0072912D01*
X0178106Y0073698D02*
X0178534Y0073698D01*
X0178106Y0074484D02*
X0179248Y0074484D01*
X0180034Y0075270D02*
X0178106Y0075270D01*
X0178106Y0076055D02*
X0180819Y0076055D01*
X0181605Y0076841D02*
X0178106Y0076841D01*
X0178106Y0077627D02*
X0182391Y0077627D01*
X0183177Y0078413D02*
X0178106Y0078413D01*
X0178106Y0079199D02*
X0183963Y0079199D01*
X0184749Y0079985D02*
X0178106Y0079985D01*
X0178106Y0080771D02*
X0185535Y0080771D01*
X0186321Y0081557D02*
X0178106Y0081557D01*
X0177772Y0083129D02*
X0187893Y0083129D01*
X0188402Y0083915D02*
X0186279Y0083915D01*
X0186646Y0084700D02*
X0188402Y0084700D01*
X0188402Y0085486D02*
X0186646Y0085486D01*
X0186646Y0086272D02*
X0188402Y0086272D01*
X0188402Y0087058D02*
X0186646Y0087058D01*
X0186646Y0088630D02*
X0188402Y0088630D01*
X0188402Y0087844D02*
X0183677Y0087844D01*
X0183677Y0087058D02*
X0182890Y0087058D01*
X0182890Y0087220D02*
X0182890Y0083465D01*
X0181131Y0083465D01*
X0180777Y0083560D01*
X0180459Y0083743D01*
X0180200Y0084003D01*
X0180016Y0084320D01*
X0179921Y0084675D01*
X0179921Y0087220D01*
X0182890Y0087220D01*
X0182890Y0087844D02*
X0177772Y0087844D01*
X0177772Y0087058D02*
X0179921Y0087058D01*
X0179921Y0086272D02*
X0177772Y0086272D01*
X0177772Y0085486D02*
X0179921Y0085486D01*
X0179921Y0084700D02*
X0177772Y0084700D01*
X0177772Y0083915D02*
X0180288Y0083915D01*
X0182890Y0083915D02*
X0183677Y0083915D01*
X0183677Y0084700D02*
X0182890Y0084700D01*
X0182890Y0085486D02*
X0183677Y0085486D01*
X0183677Y0086272D02*
X0182890Y0086272D01*
X0182890Y0088630D02*
X0183677Y0088630D01*
X0183677Y0089416D02*
X0182890Y0089416D01*
X0182890Y0090202D02*
X0183677Y0090202D01*
X0183677Y0090988D02*
X0182890Y0090988D01*
X0182550Y0091774D02*
X0184017Y0091774D01*
X0186505Y0090988D02*
X0188402Y0090988D01*
X0188402Y0090202D02*
X0186646Y0090202D01*
X0186646Y0089416D02*
X0188402Y0089416D01*
X0193065Y0094131D02*
X0246455Y0094131D01*
X0246233Y0093346D02*
X0193642Y0093346D01*
X0193913Y0092560D02*
X0246011Y0092560D01*
X0245789Y0091774D02*
X0193913Y0091774D01*
X0193913Y0090988D02*
X0245566Y0090988D01*
X0245344Y0090202D02*
X0193913Y0090202D01*
X0193913Y0089416D02*
X0245122Y0089416D01*
X0244900Y0088630D02*
X0193913Y0088630D01*
X0193913Y0087844D02*
X0244677Y0087844D01*
X0244441Y0087058D02*
X0193913Y0087058D01*
X0193913Y0086272D02*
X0244122Y0086272D01*
X0243803Y0085486D02*
X0193913Y0085486D01*
X0193913Y0084700D02*
X0243483Y0084700D01*
X0243164Y0083915D02*
X0193913Y0083915D01*
X0193913Y0083129D02*
X0242845Y0083129D01*
X0242526Y0082343D02*
X0193913Y0082343D01*
X0193751Y0081557D02*
X0242206Y0081557D01*
X0241887Y0080771D02*
X0193330Y0080771D01*
X0192544Y0079985D02*
X0241568Y0079985D01*
X0241249Y0079199D02*
X0191758Y0079199D01*
X0190972Y0078413D02*
X0240930Y0078413D01*
X0240610Y0077627D02*
X0190186Y0077627D01*
X0189400Y0076841D02*
X0240291Y0076841D01*
X0239972Y0076055D02*
X0188614Y0076055D01*
X0187828Y0075270D02*
X0239653Y0075270D01*
X0239327Y0074484D02*
X0187042Y0074484D01*
X0186257Y0073698D02*
X0238901Y0073698D01*
X0238476Y0072912D02*
X0185471Y0072912D01*
X0184685Y0072126D02*
X0238051Y0072126D01*
X0237625Y0071340D02*
X0183899Y0071340D01*
X0183677Y0070554D02*
X0237200Y0070554D01*
X0236775Y0069768D02*
X0183677Y0069768D01*
X0183677Y0068982D02*
X0236349Y0068982D01*
X0235924Y0068196D02*
X0183526Y0068196D01*
X0183119Y0067410D02*
X0235499Y0067410D01*
X0235074Y0066624D02*
X0204828Y0066624D01*
X0204058Y0066831D02*
X0200304Y0066831D01*
X0196679Y0065859D01*
X0193428Y0063982D01*
X0190774Y0061328D01*
X0188897Y0058077D01*
X0187925Y0054452D01*
X0187925Y0050698D01*
X0188897Y0047072D01*
X0190774Y0043821D01*
X0193428Y0041167D01*
X0196679Y0039290D01*
X0200304Y0038319D01*
X0204058Y0038319D01*
X0207684Y0039290D01*
X0210934Y0041167D01*
X0213589Y0043821D01*
X0215465Y0047072D01*
X0216437Y0050698D01*
X0216437Y0054452D01*
X0215465Y0058077D01*
X0213589Y0061328D01*
X0210934Y0063982D01*
X0207684Y0065859D01*
X0204058Y0066831D01*
X0207719Y0065839D02*
X0234648Y0065839D01*
X0234223Y0065053D02*
X0209081Y0065053D01*
X0210442Y0064267D02*
X0233798Y0064267D01*
X0233372Y0063481D02*
X0211436Y0063481D01*
X0212222Y0062695D02*
X0232947Y0062695D01*
X0232426Y0061909D02*
X0213008Y0061909D01*
X0213707Y0061123D02*
X0231881Y0061123D01*
X0231336Y0060337D02*
X0214161Y0060337D01*
X0214615Y0059551D02*
X0230791Y0059551D01*
X0230246Y0058765D02*
X0215068Y0058765D01*
X0215492Y0057979D02*
X0229701Y0057979D01*
X0229156Y0057194D02*
X0215702Y0057194D01*
X0215913Y0056408D02*
X0228611Y0056408D01*
X0228066Y0055622D02*
X0216123Y0055622D01*
X0216334Y0054836D02*
X0227522Y0054836D01*
X0226977Y0054050D02*
X0216437Y0054050D01*
X0216437Y0053264D02*
X0226432Y0053264D01*
X0225887Y0052478D02*
X0216437Y0052478D01*
X0216437Y0051692D02*
X0225342Y0051692D01*
X0224722Y0050906D02*
X0216437Y0050906D01*
X0216282Y0050120D02*
X0224038Y0050120D01*
X0223353Y0049334D02*
X0216072Y0049334D01*
X0215861Y0048548D02*
X0222669Y0048548D01*
X0221984Y0047763D02*
X0215650Y0047763D01*
X0215410Y0046977D02*
X0221300Y0046977D01*
X0220615Y0046191D02*
X0214957Y0046191D01*
X0214503Y0045405D02*
X0219931Y0045405D01*
X0219247Y0044619D02*
X0214049Y0044619D01*
X0213595Y0043833D02*
X0218562Y0043833D01*
X0217878Y0043047D02*
X0212814Y0043047D01*
X0212028Y0042261D02*
X0217193Y0042261D01*
X0216509Y0041475D02*
X0211242Y0041475D01*
X0210107Y0040689D02*
X0215749Y0040689D01*
X0214895Y0039903D02*
X0208745Y0039903D01*
X0207038Y0039118D02*
X0214041Y0039118D01*
X0213188Y0038332D02*
X0204105Y0038332D01*
X0208065Y0033616D02*
X0046754Y0033616D01*
X0047708Y0032830D02*
X0207212Y0032830D01*
X0206358Y0032044D02*
X0048663Y0032044D01*
X0049617Y0031258D02*
X0205356Y0031258D01*
X0204286Y0030472D02*
X0050571Y0030472D01*
X0051525Y0029687D02*
X0203217Y0029687D01*
X0202148Y0028901D02*
X0052480Y0028901D01*
X0053434Y0028115D02*
X0201078Y0028115D01*
X0200009Y0027329D02*
X0054477Y0027329D01*
X0055680Y0026543D02*
X0198940Y0026543D01*
X0197871Y0025757D02*
X0056883Y0025757D01*
X0058086Y0024971D02*
X0196801Y0024971D01*
X0195732Y0024185D02*
X0059289Y0024185D01*
X0060491Y0023399D02*
X0194543Y0023399D01*
X0193182Y0022613D02*
X0061694Y0022613D01*
X0062897Y0021827D02*
X0191821Y0021827D01*
X0190460Y0021042D02*
X0064100Y0021042D01*
X0065303Y0020256D02*
X0189098Y0020256D01*
X0187737Y0019470D02*
X0066808Y0019470D01*
X0068361Y0018684D02*
X0186376Y0018684D01*
X0185015Y0017898D02*
X0069914Y0017898D01*
X0071467Y0017112D02*
X0183653Y0017112D01*
X0181978Y0016326D02*
X0073020Y0016326D01*
X0074573Y0015540D02*
X0180186Y0015540D01*
X0178394Y0014754D02*
X0076126Y0014754D01*
X0077693Y0013968D02*
X0176603Y0013968D01*
X0174811Y0013182D02*
X0079792Y0013182D01*
X0081891Y0012396D02*
X0173019Y0012396D01*
X0171228Y0011611D02*
X0083990Y0011611D01*
X0086089Y0010825D02*
X0168890Y0010825D01*
X0166377Y0010039D02*
X0088188Y0010039D01*
X0090287Y0009253D02*
X0163864Y0009253D01*
X0161351Y0008467D02*
X0093329Y0008467D01*
X0096433Y0007681D02*
X0158839Y0007681D01*
X0155456Y0006895D02*
X0099536Y0006895D01*
X0102640Y0006109D02*
X0151432Y0006109D01*
X0147409Y0005323D02*
X0107480Y0005323D01*
X0113148Y0004537D02*
X0142029Y0004537D01*
X0132544Y0003751D02*
X0125515Y0003751D01*
X0147584Y0043047D02*
X0170154Y0043047D01*
X0170018Y0043833D02*
X0148518Y0043833D01*
X0149304Y0044619D02*
X0169232Y0044619D01*
X0168446Y0045405D02*
X0150090Y0045405D01*
X0150876Y0046191D02*
X0167660Y0046191D01*
X0166874Y0046977D02*
X0151661Y0046977D01*
X0152447Y0047763D02*
X0166088Y0047763D01*
X0165302Y0048548D02*
X0153233Y0048548D01*
X0154019Y0049334D02*
X0164516Y0049334D01*
X0167596Y0054050D02*
X0171866Y0054050D01*
X0171866Y0054836D02*
X0168182Y0054836D01*
X0168968Y0055622D02*
X0171866Y0055622D01*
X0171866Y0056408D02*
X0169754Y0056408D01*
X0170540Y0057194D02*
X0171866Y0057194D01*
X0171866Y0057979D02*
X0170935Y0057979D01*
X0171079Y0058765D02*
X0171866Y0058765D01*
X0171866Y0059551D02*
X0171079Y0059551D01*
X0171079Y0060337D02*
X0171866Y0060337D01*
X0171866Y0061123D02*
X0171079Y0061123D01*
X0171079Y0061909D02*
X0171866Y0061909D01*
X0171866Y0062695D02*
X0171079Y0062695D01*
X0171079Y0063481D02*
X0171917Y0063481D01*
X0172242Y0064267D02*
X0171079Y0064267D01*
X0171079Y0065053D02*
X0172966Y0065053D01*
X0173752Y0065839D02*
X0171079Y0065839D01*
X0171079Y0066624D02*
X0174538Y0066624D01*
X0175324Y0067410D02*
X0171079Y0067410D01*
X0171079Y0068196D02*
X0176110Y0068196D01*
X0176896Y0068982D02*
X0171079Y0068982D01*
X0177617Y0061909D02*
X0191354Y0061909D01*
X0190655Y0061123D02*
X0177378Y0061123D01*
X0177378Y0060337D02*
X0190201Y0060337D01*
X0189748Y0059551D02*
X0177378Y0059551D01*
X0177378Y0058765D02*
X0189294Y0058765D01*
X0188870Y0057979D02*
X0177378Y0057979D01*
X0177378Y0057194D02*
X0188660Y0057194D01*
X0188449Y0056408D02*
X0177378Y0056408D01*
X0177378Y0055622D02*
X0188239Y0055622D01*
X0188028Y0054836D02*
X0177378Y0054836D01*
X0177378Y0054050D02*
X0187925Y0054050D01*
X0187925Y0053264D02*
X0177378Y0053264D01*
X0177378Y0052478D02*
X0187925Y0052478D01*
X0187925Y0051692D02*
X0177378Y0051692D01*
X0178700Y0050906D02*
X0187925Y0050906D01*
X0188080Y0050120D02*
X0179091Y0050120D01*
X0179091Y0049334D02*
X0188291Y0049334D01*
X0188501Y0048548D02*
X0179091Y0048548D01*
X0179091Y0047763D02*
X0188712Y0047763D01*
X0188952Y0046977D02*
X0179091Y0046977D01*
X0179091Y0046191D02*
X0189406Y0046191D01*
X0189859Y0045405D02*
X0179091Y0045405D01*
X0179091Y0044619D02*
X0190313Y0044619D01*
X0190767Y0043833D02*
X0179091Y0043833D01*
X0179091Y0043047D02*
X0191548Y0043047D01*
X0192334Y0042261D02*
X0179091Y0042261D01*
X0179091Y0041475D02*
X0193120Y0041475D01*
X0194255Y0040689D02*
X0179091Y0040689D01*
X0179091Y0039903D02*
X0195617Y0039903D01*
X0197324Y0039118D02*
X0179091Y0039118D01*
X0178537Y0038332D02*
X0200257Y0038332D01*
X0208919Y0034402D02*
X0045800Y0034402D01*
X0044845Y0035188D02*
X0209773Y0035188D01*
X0210627Y0035974D02*
X0043891Y0035974D01*
X0043052Y0036760D02*
X0211480Y0036760D01*
X0212334Y0037546D02*
X0042288Y0037546D01*
X0041523Y0038332D02*
X0050651Y0038332D01*
X0093126Y0098061D02*
X0093913Y0098061D01*
X0093913Y0098847D02*
X0093126Y0098847D01*
X0093126Y0099633D02*
X0093913Y0099633D01*
X0093913Y0100419D02*
X0093126Y0100419D01*
X0093126Y0101205D02*
X0093913Y0101205D01*
X0093913Y0103244D02*
X0099165Y0103244D01*
X0099165Y0106538D01*
X0099070Y0106892D01*
X0098887Y0107210D01*
X0098627Y0107470D01*
X0098310Y0107653D01*
X0097955Y0107748D01*
X0093913Y0107748D01*
X0093913Y0103244D01*
X0093913Y0103562D02*
X0093126Y0103562D01*
X0093126Y0104348D02*
X0093913Y0104348D01*
X0093913Y0105134D02*
X0093126Y0105134D01*
X0093126Y0105920D02*
X0093913Y0105920D01*
X0093913Y0106706D02*
X0093126Y0106706D01*
X0093126Y0107492D02*
X0093913Y0107492D01*
X0098589Y0107492D02*
X0103291Y0107492D01*
X0103047Y0106706D02*
X0099120Y0106706D01*
X0099165Y0105920D02*
X0103047Y0105920D01*
X0103047Y0105134D02*
X0099165Y0105134D01*
X0099165Y0104348D02*
X0103047Y0104348D01*
X0103047Y0103562D02*
X0099165Y0103562D01*
X0111404Y0109850D02*
X0142499Y0109850D01*
X0142339Y0110636D02*
X0111630Y0110636D01*
X0111630Y0111422D02*
X0142339Y0111422D01*
X0142376Y0112207D02*
X0111528Y0112207D01*
X0116758Y0124782D02*
X0125826Y0124782D01*
X0125606Y0125568D02*
X0125494Y0125568D01*
X0126984Y0123772D02*
X0126984Y0119268D01*
X0132236Y0119268D01*
X0132236Y0122561D01*
X0132141Y0122916D01*
X0131958Y0123234D01*
X0131698Y0123493D01*
X0131380Y0123677D01*
X0131026Y0123772D01*
X0126984Y0123772D01*
X0126984Y0123210D02*
X0126197Y0123210D01*
X0126197Y0122424D02*
X0126984Y0122424D01*
X0126984Y0121638D02*
X0126197Y0121638D01*
X0126197Y0120852D02*
X0126984Y0120852D01*
X0126984Y0120067D02*
X0126197Y0120067D01*
X0126197Y0119281D02*
X0126984Y0119281D01*
X0126984Y0118495D02*
X0165913Y0118495D01*
X0165128Y0117709D02*
X0132236Y0117709D01*
X0132236Y0116923D02*
X0164342Y0116923D01*
X0163556Y0116137D02*
X0132236Y0116137D01*
X0132236Y0115351D02*
X0144794Y0115351D01*
X0143770Y0114565D02*
X0131987Y0114565D01*
X0132236Y0119281D02*
X0166699Y0119281D01*
X0167485Y0120067D02*
X0132236Y0120067D01*
X0132236Y0120852D02*
X0168271Y0120852D01*
X0169057Y0121638D02*
X0132236Y0121638D01*
X0132236Y0122424D02*
X0169843Y0122424D01*
X0170629Y0123210D02*
X0131971Y0123210D01*
X0132036Y0124782D02*
X0131686Y0124782D01*
X0125606Y0129498D02*
X0125184Y0129498D01*
X0126136Y0130283D02*
X0124059Y0130283D01*
X0121733Y0128712D02*
X0120882Y0128712D01*
X0120882Y0127926D02*
X0122054Y0127926D01*
X0122054Y0127140D02*
X0120882Y0127140D01*
X0122177Y0126354D02*
X0101360Y0126354D01*
X0100574Y0127140D02*
X0114976Y0127140D01*
X0114976Y0127926D02*
X0099788Y0127926D01*
X0099002Y0128712D02*
X0114976Y0128712D01*
X0114976Y0129498D02*
X0098217Y0129498D01*
X0097431Y0130283D02*
X0114976Y0130283D01*
X0114976Y0131069D02*
X0096645Y0131069D01*
X0095859Y0131855D02*
X0102842Y0131855D01*
X0102056Y0132641D02*
X0095073Y0132641D01*
X0094287Y0133427D02*
X0101270Y0133427D01*
X0100484Y0134213D02*
X0093179Y0134213D01*
X0092783Y0134999D02*
X0099698Y0134999D01*
X0098912Y0135785D02*
X0093016Y0135785D01*
X0093016Y0136571D02*
X0098126Y0136571D01*
X0097340Y0137357D02*
X0093016Y0137357D01*
X0093016Y0138143D02*
X0096554Y0138143D01*
X0096079Y0142072D02*
X0093016Y0142072D01*
X0093016Y0142858D02*
X0096079Y0142858D01*
X0096079Y0143644D02*
X0092518Y0143644D01*
X0092765Y0144430D02*
X0096079Y0144430D01*
X0096079Y0145216D02*
X0093016Y0145216D01*
X0093016Y0146002D02*
X0095782Y0146002D01*
X0094996Y0146788D02*
X0093016Y0146788D01*
X0096536Y0149145D02*
X0113111Y0149145D01*
X0112325Y0149931D02*
X0095750Y0149931D01*
X0097322Y0148359D02*
X0125231Y0148359D01*
X0122654Y0152575D02*
X0122654Y0155528D01*
X0126394Y0158874D02*
X0129740Y0162220D01*
X0129740Y0162024D01*
X0132890Y0158874D01*
X0141551Y0158874D01*
X0142142Y0154937D02*
X0142339Y0154740D01*
X0142339Y0151787D01*
X0140764Y0150213D01*
X0113992Y0150213D01*
X0111630Y0152575D01*
X0111630Y0158283D01*
X0107693Y0155528D02*
X0107693Y0152575D01*
X0109868Y0152289D02*
X0110252Y0152289D01*
X0110753Y0151503D02*
X0109697Y0151503D01*
X0108911Y0150717D02*
X0111539Y0150717D01*
X0115567Y0152575D02*
X0115567Y0155528D01*
X0118717Y0158874D02*
X0126394Y0158874D01*
X0129740Y0155528D02*
X0129740Y0152575D01*
X0136827Y0152575D02*
X0136827Y0155528D01*
X0139976Y0163292D02*
X0144110Y0163292D01*
X0144110Y0164078D02*
X0139976Y0164078D01*
X0139709Y0164864D02*
X0144180Y0164864D01*
X0145685Y0165649D02*
X0138205Y0165649D01*
X0138205Y0166435D02*
X0145685Y0166435D01*
X0149946Y0164864D02*
X0203362Y0164864D01*
X0203362Y0165649D02*
X0201984Y0165649D01*
X0201984Y0166435D02*
X0203362Y0166435D01*
X0203362Y0167221D02*
X0201984Y0167221D01*
X0201984Y0168007D02*
X0203362Y0168007D01*
X0203325Y0168793D02*
X0201902Y0168793D01*
X0203362Y0164078D02*
X0150016Y0164078D01*
X0150016Y0163292D02*
X0203362Y0163292D01*
X0203362Y0162506D02*
X0150016Y0162506D01*
X0150016Y0161720D02*
X0203362Y0161720D01*
X0203362Y0160934D02*
X0150016Y0160934D01*
X0150016Y0160148D02*
X0203362Y0160148D01*
X0203362Y0159362D02*
X0150016Y0159362D01*
X0150016Y0158576D02*
X0203362Y0158576D01*
X0212024Y0158576D02*
X0247035Y0158576D01*
X0247257Y0157790D02*
X0212024Y0157790D01*
X0212024Y0157004D02*
X0247479Y0157004D01*
X0247701Y0156219D02*
X0212024Y0156219D01*
X0212024Y0155433D02*
X0247923Y0155433D01*
X0248146Y0154647D02*
X0212024Y0154647D01*
X0212024Y0153861D02*
X0248299Y0153861D01*
X0248430Y0153075D02*
X0212024Y0153075D01*
X0212024Y0152289D02*
X0248561Y0152289D01*
X0248693Y0151503D02*
X0212024Y0151503D01*
X0212024Y0150717D02*
X0248824Y0150717D01*
X0248955Y0149931D02*
X0212024Y0149931D01*
X0212024Y0149145D02*
X0249086Y0149145D01*
X0249217Y0148359D02*
X0212024Y0148359D01*
X0212024Y0147573D02*
X0249348Y0147573D01*
X0249479Y0146788D02*
X0212024Y0146788D01*
X0212024Y0146002D02*
X0249611Y0146002D01*
X0249742Y0145216D02*
X0212024Y0145216D01*
X0212024Y0144430D02*
X0249873Y0144430D01*
X0250004Y0143644D02*
X0212024Y0143644D01*
X0212024Y0142858D02*
X0250135Y0142858D01*
X0250266Y0142072D02*
X0212024Y0142072D01*
X0212024Y0141286D02*
X0250397Y0141286D01*
X0250473Y0140500D02*
X0212024Y0140500D01*
X0212024Y0139714D02*
X0250516Y0139714D01*
X0250560Y0138928D02*
X0212024Y0138928D01*
X0212024Y0138143D02*
X0250603Y0138143D01*
X0250646Y0137357D02*
X0212024Y0137357D01*
X0212024Y0136571D02*
X0250690Y0136571D01*
X0250733Y0135785D02*
X0212024Y0135785D01*
X0212024Y0134999D02*
X0250776Y0134999D01*
X0250820Y0134213D02*
X0212024Y0134213D01*
X0212024Y0133427D02*
X0250863Y0133427D01*
X0250906Y0132641D02*
X0212024Y0132641D01*
X0212024Y0131855D02*
X0250950Y0131855D01*
X0250993Y0131069D02*
X0212024Y0131069D01*
X0212141Y0130283D02*
X0251037Y0130283D01*
X0251080Y0129498D02*
X0212535Y0129498D01*
X0212861Y0128712D02*
X0251123Y0128712D01*
X0251167Y0127926D02*
X0213008Y0127926D01*
X0213008Y0127140D02*
X0251184Y0127140D01*
X0251140Y0126354D02*
X0212989Y0126354D01*
X0212664Y0125568D02*
X0251097Y0125568D01*
X0251054Y0124782D02*
X0212338Y0124782D01*
X0212024Y0123996D02*
X0251010Y0123996D01*
X0250967Y0123210D02*
X0212024Y0123210D01*
X0212024Y0122424D02*
X0250924Y0122424D01*
X0250880Y0121638D02*
X0212024Y0121638D01*
X0212024Y0120852D02*
X0250837Y0120852D01*
X0250793Y0120067D02*
X0212024Y0120067D01*
X0212024Y0119281D02*
X0250750Y0119281D01*
X0250707Y0118495D02*
X0212024Y0118495D01*
X0212024Y0117709D02*
X0250663Y0117709D01*
X0250620Y0116923D02*
X0212024Y0116923D01*
X0212024Y0116137D02*
X0250577Y0116137D01*
X0250533Y0115351D02*
X0212024Y0115351D01*
X0212024Y0114565D02*
X0250490Y0114565D01*
X0250447Y0113779D02*
X0212024Y0113779D01*
X0212024Y0112993D02*
X0250318Y0112993D01*
X0250445Y0113757D02*
X0250445Y0113757D01*
X0250187Y0112207D02*
X0212024Y0112207D01*
X0212024Y0111422D02*
X0250056Y0111422D01*
X0249925Y0110636D02*
X0212024Y0110636D01*
X0212024Y0109850D02*
X0249793Y0109850D01*
X0249662Y0109064D02*
X0212024Y0109064D01*
X0211841Y0108278D02*
X0249531Y0108278D01*
X0249400Y0107492D02*
X0211389Y0107492D01*
X0210603Y0106706D02*
X0249269Y0106706D01*
X0249138Y0105920D02*
X0209818Y0105920D01*
X0209032Y0105134D02*
X0249006Y0105134D01*
X0248875Y0104348D02*
X0208246Y0104348D01*
X0207460Y0103562D02*
X0248744Y0103562D01*
X0248613Y0102776D02*
X0206674Y0102776D01*
X0205888Y0101991D02*
X0248482Y0101991D01*
X0248351Y0101205D02*
X0205102Y0101205D01*
X0204316Y0100419D02*
X0248220Y0100419D01*
X0248011Y0099633D02*
X0203530Y0099633D01*
X0202744Y0098847D02*
X0247789Y0098847D01*
X0247567Y0098061D02*
X0201958Y0098061D01*
X0201173Y0097275D02*
X0247344Y0097275D01*
X0247122Y0096489D02*
X0200095Y0096489D01*
X0192514Y0095703D02*
X0246900Y0095703D01*
X0246678Y0094917D02*
X0192279Y0094917D01*
X0196315Y0104937D02*
X0182735Y0104937D01*
X0181722Y0104517D01*
X0180947Y0103742D01*
X0178205Y0101000D01*
X0176759Y0101000D01*
X0175803Y0100044D01*
X0175803Y0101548D01*
X0175384Y0102561D01*
X0174608Y0103336D01*
X0174228Y0103494D01*
X0174228Y0105899D01*
X0179565Y0111236D01*
X0197531Y0111236D01*
X0198956Y0111827D01*
X0199380Y0111827D01*
X0201478Y0112696D01*
X0203084Y0114302D01*
X0203362Y0114974D01*
X0203362Y0111984D01*
X0196315Y0104937D01*
X0196512Y0105134D02*
X0174228Y0105134D01*
X0174228Y0104348D02*
X0181553Y0104348D01*
X0180767Y0103562D02*
X0174228Y0103562D01*
X0175168Y0102776D02*
X0179981Y0102776D01*
X0179195Y0101991D02*
X0175620Y0101991D01*
X0175803Y0101205D02*
X0178410Y0101205D01*
X0176178Y0100419D02*
X0175803Y0100419D01*
X0174249Y0105920D02*
X0197298Y0105920D01*
X0198084Y0106706D02*
X0175035Y0106706D01*
X0175821Y0107492D02*
X0198870Y0107492D01*
X0199656Y0108278D02*
X0176607Y0108278D01*
X0177393Y0109064D02*
X0200442Y0109064D01*
X0201228Y0109850D02*
X0178179Y0109850D01*
X0178965Y0110636D02*
X0202014Y0110636D01*
X0202800Y0111422D02*
X0197978Y0111422D01*
X0200299Y0112207D02*
X0203362Y0112207D01*
X0203362Y0112993D02*
X0201775Y0112993D01*
X0202561Y0113779D02*
X0203362Y0113779D01*
X0203362Y0114565D02*
X0203193Y0114565D01*
X0193795Y0129498D02*
X0193703Y0129498D01*
X0193377Y0130283D02*
X0194190Y0130283D01*
X0194976Y0131069D02*
X0192783Y0131069D01*
X0191998Y0131855D02*
X0196193Y0131855D01*
X0194750Y0132641D02*
X0190612Y0132641D01*
X0193311Y0134213D02*
X0151591Y0134213D01*
X0151591Y0134071D02*
X0154756Y0134071D01*
X0154756Y0132313D01*
X0154661Y0131958D01*
X0154477Y0131640D01*
X0154218Y0131381D01*
X0153900Y0131197D01*
X0153546Y0131102D01*
X0151591Y0131102D01*
X0151591Y0134071D01*
X0151591Y0133427D02*
X0150803Y0133427D01*
X0150803Y0132641D02*
X0151591Y0132641D01*
X0151591Y0131855D02*
X0150803Y0131855D01*
X0147792Y0131855D02*
X0147420Y0131855D01*
X0150803Y0134999D02*
X0151591Y0134999D01*
X0151591Y0135785D02*
X0150803Y0135785D01*
X0150803Y0136571D02*
X0151591Y0136571D01*
X0151591Y0137357D02*
X0150803Y0137357D01*
X0154410Y0137357D02*
X0192535Y0137357D01*
X0192535Y0136571D02*
X0154756Y0136571D01*
X0154756Y0135785D02*
X0192660Y0135785D01*
X0192985Y0134999D02*
X0154756Y0134999D01*
X0154756Y0133427D02*
X0193964Y0133427D01*
X0186191Y0132641D02*
X0154756Y0132641D01*
X0154602Y0131855D02*
X0184806Y0131855D01*
X0162770Y0115351D02*
X0149332Y0115351D01*
X0150356Y0114565D02*
X0161984Y0114565D01*
X0161198Y0113779D02*
X0151099Y0113779D01*
X0151424Y0112993D02*
X0160412Y0112993D01*
X0159626Y0112207D02*
X0151750Y0112207D01*
X0151787Y0111422D02*
X0158840Y0111422D01*
X0158054Y0110636D02*
X0151787Y0110636D01*
X0151627Y0109850D02*
X0157268Y0109850D01*
X0156483Y0109064D02*
X0151301Y0109064D01*
X0144676Y0106706D02*
X0136758Y0106706D01*
X0137637Y0105920D02*
X0143890Y0105920D01*
X0143104Y0105134D02*
X0138423Y0105134D01*
X0139209Y0104348D02*
X0142318Y0104348D01*
X0141584Y0103562D02*
X0139995Y0103562D01*
X0140781Y0102776D02*
X0141258Y0102776D01*
X0144067Y0107492D02*
X0133354Y0107492D01*
X0132816Y0108278D02*
X0143281Y0108278D01*
X0142825Y0109064D02*
X0131503Y0109064D01*
X0126984Y0114565D02*
X0126197Y0114565D01*
X0126197Y0115351D02*
X0126984Y0115351D01*
X0126984Y0116137D02*
X0126197Y0116137D01*
X0126197Y0116923D02*
X0126984Y0116923D01*
X0126984Y0117709D02*
X0126197Y0117709D01*
X0122963Y0125568D02*
X0102146Y0125568D01*
X0104386Y0136571D02*
X0111236Y0136571D01*
X0111236Y0137357D02*
X0103600Y0137357D01*
X0102814Y0138143D02*
X0111236Y0138143D01*
X0111236Y0138928D02*
X0108812Y0138928D01*
X0110510Y0139714D02*
X0111236Y0139714D01*
X0112417Y0142858D02*
X0119193Y0142858D01*
X0118398Y0142072D02*
X0117028Y0142072D01*
X0117142Y0141286D02*
X0118307Y0141286D01*
X0118307Y0140500D02*
X0117142Y0140500D01*
X0117142Y0139714D02*
X0118307Y0139714D01*
X0121276Y0140500D02*
X0122063Y0140500D01*
X0122063Y0141286D02*
X0121276Y0141286D01*
X0121276Y0142072D02*
X0122063Y0142072D01*
X0122063Y0142858D02*
X0121276Y0142858D01*
X0125031Y0138143D02*
X0125606Y0138143D01*
X0125606Y0137357D02*
X0125031Y0137357D01*
X0125031Y0136571D02*
X0125606Y0136571D01*
X0106574Y0138928D02*
X0102028Y0138928D01*
X0101242Y0139714D02*
X0104876Y0139714D01*
X0104090Y0140500D02*
X0100456Y0140500D01*
X0099670Y0141286D02*
X0103529Y0141286D01*
X0103203Y0142072D02*
X0098884Y0142072D01*
X0098835Y0142858D02*
X0102969Y0142858D01*
X0102969Y0143644D02*
X0098835Y0143644D01*
X0098835Y0144430D02*
X0102969Y0144430D01*
X0103257Y0145216D02*
X0098835Y0145216D01*
X0098835Y0146002D02*
X0103583Y0146002D01*
X0104220Y0146788D02*
X0098835Y0146788D01*
X0098107Y0147573D02*
X0105006Y0147573D01*
X0106475Y0150717D02*
X0093016Y0150717D01*
X0093016Y0151503D02*
X0105689Y0151503D01*
X0105518Y0152289D02*
X0093016Y0152289D01*
X0092536Y0153075D02*
X0104620Y0153075D01*
X0115567Y0162024D02*
X0118717Y0158874D01*
X0115567Y0162024D02*
X0115567Y0162220D01*
X0115567Y0167535D01*
X0116354Y0168323D01*
X0116354Y0176197D01*
X0115567Y0176984D01*
X0106118Y0176984D01*
X0104543Y0178559D01*
X0098244Y0178559D01*
X0097457Y0179346D01*
X0097457Y0184071D01*
X0099819Y0186433D01*
X0099819Y0188795D01*
X0101394Y0187220D02*
X0102181Y0188008D01*
X0102181Y0189583D01*
X0099031Y0192732D01*
X0101394Y0187220D02*
X0101394Y0181906D01*
X0110055Y0181906D01*
X0108677Y0181315D01*
X0111630Y0180582D02*
X0112795Y0180582D01*
X0112795Y0179796D02*
X0111630Y0179796D01*
X0111630Y0179010D02*
X0112795Y0179010D01*
X0115764Y0182940D02*
X0116551Y0182940D01*
X0116551Y0183725D02*
X0115764Y0183725D01*
X0115764Y0184511D02*
X0116551Y0184511D01*
X0116551Y0185297D02*
X0115764Y0185297D01*
X0120291Y0180134D02*
X0122654Y0182496D01*
X0125606Y0182154D02*
X0134796Y0182154D01*
X0134126Y0181368D02*
X0132851Y0181368D01*
X0132890Y0180582D02*
X0134055Y0180582D01*
X0134055Y0179796D02*
X0132890Y0179796D01*
X0132890Y0179010D02*
X0134055Y0179010D01*
X0134055Y0177772D02*
X0134055Y0175226D01*
X0134150Y0174871D01*
X0134334Y0174554D01*
X0134593Y0174294D01*
X0134911Y0174111D01*
X0135265Y0174016D01*
X0137024Y0174016D01*
X0137024Y0177772D01*
X0134055Y0177772D01*
X0134055Y0177438D02*
X0132890Y0177438D01*
X0132890Y0176652D02*
X0134055Y0176652D01*
X0134055Y0175866D02*
X0132890Y0175866D01*
X0132890Y0175080D02*
X0134094Y0175080D01*
X0134593Y0174295D02*
X0123355Y0174295D01*
X0124228Y0171472D02*
X0120291Y0175409D01*
X0120291Y0180134D01*
X0125606Y0181368D02*
X0127023Y0181368D01*
X0126984Y0175080D02*
X0126866Y0175080D01*
X0124228Y0171472D02*
X0124228Y0171276D01*
X0124228Y0167535D01*
X0122654Y0165961D01*
X0122654Y0162220D01*
X0124228Y0171276D02*
X0131906Y0171276D01*
X0136630Y0169579D02*
X0140370Y0169579D01*
X0140370Y0168793D02*
X0136630Y0168793D01*
X0137123Y0168007D02*
X0140370Y0168007D01*
X0140370Y0167221D02*
X0137908Y0167221D01*
X0137811Y0174295D02*
X0137024Y0174295D01*
X0137024Y0175080D02*
X0137811Y0175080D01*
X0137811Y0175866D02*
X0137024Y0175866D01*
X0137024Y0176652D02*
X0137811Y0176652D01*
X0137811Y0177438D02*
X0137024Y0177438D01*
X0140741Y0175080D02*
X0140882Y0175080D01*
X0140242Y0174295D02*
X0142339Y0174295D01*
X0146669Y0176652D02*
X0147341Y0176652D01*
X0147457Y0177438D02*
X0146669Y0177438D01*
X0146669Y0178224D02*
X0147457Y0178224D01*
X0147457Y0179010D02*
X0146669Y0179010D01*
X0146669Y0179796D02*
X0147457Y0179796D01*
X0147694Y0180582D02*
X0146432Y0180582D01*
X0173244Y0189227D02*
X0174031Y0189227D01*
X0174031Y0190013D02*
X0173244Y0190013D01*
X0173244Y0190799D02*
X0174031Y0190799D01*
X0174031Y0191585D02*
X0173244Y0191585D01*
X0174032Y0188441D02*
X0177378Y0188441D01*
X0177378Y0189227D02*
X0177000Y0189227D01*
X0177000Y0190013D02*
X0177378Y0190013D01*
X0177378Y0190799D02*
X0177000Y0190799D01*
X0176855Y0191585D02*
X0177594Y0191585D01*
X0180331Y0188795D02*
X0183283Y0188795D01*
X0189957Y0182122D01*
X0196669Y0182122D01*
X0201984Y0182154D02*
X0238309Y0182154D01*
X0237883Y0182940D02*
X0201984Y0182940D01*
X0201970Y0183725D02*
X0237458Y0183725D01*
X0237033Y0184511D02*
X0189516Y0184511D01*
X0190302Y0183725D02*
X0191369Y0183725D01*
X0188730Y0185297D02*
X0236607Y0185297D01*
X0236182Y0186083D02*
X0187944Y0186083D01*
X0187158Y0186869D02*
X0235757Y0186869D01*
X0238734Y0181368D02*
X0201984Y0181368D01*
X0201984Y0180582D02*
X0239159Y0180582D01*
X0239527Y0179796D02*
X0205939Y0179796D01*
X0207202Y0179010D02*
X0239846Y0179010D01*
X0240165Y0178224D02*
X0207988Y0178224D01*
X0208774Y0177438D02*
X0240485Y0177438D01*
X0240804Y0176652D02*
X0209560Y0176652D01*
X0210346Y0175866D02*
X0241123Y0175866D01*
X0241442Y0175080D02*
X0211132Y0175080D01*
X0211734Y0174295D02*
X0241762Y0174295D01*
X0242081Y0173509D02*
X0212024Y0173509D01*
X0212024Y0172723D02*
X0242400Y0172723D01*
X0242719Y0171937D02*
X0212024Y0171937D01*
X0212024Y0171151D02*
X0243038Y0171151D01*
X0243358Y0170365D02*
X0212024Y0170365D01*
X0212024Y0169579D02*
X0243677Y0169579D01*
X0243996Y0168793D02*
X0212024Y0168793D01*
X0212024Y0168007D02*
X0244315Y0168007D01*
X0244590Y0167221D02*
X0212024Y0167221D01*
X0212024Y0166435D02*
X0244812Y0166435D01*
X0245034Y0165649D02*
X0212024Y0165649D01*
X0212024Y0164864D02*
X0245257Y0164864D01*
X0245479Y0164078D02*
X0212024Y0164078D01*
X0212024Y0163292D02*
X0245701Y0163292D01*
X0245923Y0162506D02*
X0212024Y0162506D01*
X0212024Y0161720D02*
X0246146Y0161720D01*
X0246368Y0160934D02*
X0212024Y0160934D01*
X0212024Y0160148D02*
X0246590Y0160148D01*
X0246812Y0159362D02*
X0212024Y0159362D01*
X0191354Y0165649D02*
X0181512Y0165649D01*
X0182083Y0167122D02*
X0176197Y0167122D01*
X0181429Y0168793D02*
X0181805Y0168793D01*
X0184661Y0174295D02*
X0190546Y0174295D01*
X0190415Y0175080D02*
X0184661Y0175080D01*
X0184661Y0175866D02*
X0190370Y0175866D01*
X0190370Y0176652D02*
X0184661Y0176652D01*
X0184661Y0177438D02*
X0190370Y0177438D01*
X0190370Y0178224D02*
X0184661Y0178224D01*
X0184661Y0179010D02*
X0190370Y0179010D01*
X0191047Y0179796D02*
X0184661Y0179796D01*
X0184661Y0180582D02*
X0191354Y0180582D01*
X0188762Y0181368D02*
X0184661Y0181368D01*
X0184661Y0182154D02*
X0187976Y0182154D01*
X0181906Y0179010D02*
X0181729Y0179010D01*
X0177378Y0186869D02*
X0177000Y0186869D01*
X0177000Y0187655D02*
X0177378Y0187655D01*
X0183283Y0190799D02*
X0193403Y0190799D01*
X0192617Y0191585D02*
X0183067Y0191585D01*
X0184015Y0190013D02*
X0194745Y0190013D01*
X0196107Y0189227D02*
X0184801Y0189227D01*
X0185586Y0188441D02*
X0198379Y0188441D01*
X0192643Y0212804D02*
X0140751Y0212804D01*
X0137582Y0215948D02*
X0198479Y0215948D01*
X0196153Y0215162D02*
X0136796Y0215162D01*
X0136010Y0214376D02*
X0194792Y0214376D01*
X0193430Y0213590D02*
X0135224Y0213590D01*
X0141106Y0223021D02*
X0146826Y0223021D01*
X0146852Y0223835D02*
X0151998Y0223835D01*
X0152575Y0224411D01*
X0152575Y0229164D01*
X0152294Y0229445D01*
X0152772Y0229923D01*
X0152772Y0235463D01*
X0152195Y0236039D01*
X0146655Y0236039D01*
X0146079Y0235463D01*
X0146079Y0229923D01*
X0146557Y0229445D01*
X0146276Y0229164D01*
X0146276Y0224411D01*
X0146852Y0223835D01*
X0146276Y0224593D02*
X0141354Y0224593D01*
X0141354Y0225379D02*
X0146276Y0225379D01*
X0146276Y0226165D02*
X0141354Y0226165D01*
X0141354Y0226951D02*
X0146276Y0226951D01*
X0146276Y0227737D02*
X0141401Y0227737D01*
X0141764Y0228523D02*
X0146276Y0228523D01*
X0146420Y0229308D02*
X0141764Y0229308D01*
X0141764Y0230880D02*
X0146079Y0230880D01*
X0146079Y0230094D02*
X0134858Y0230094D01*
X0134858Y0230880D02*
X0134071Y0230880D01*
X0134071Y0231666D02*
X0134858Y0231666D01*
X0134858Y0232452D02*
X0134071Y0232452D01*
X0134071Y0233238D02*
X0134858Y0233238D01*
X0134858Y0234024D02*
X0134071Y0234024D01*
X0134071Y0234810D02*
X0134858Y0234810D01*
X0134858Y0235596D02*
X0146212Y0235596D01*
X0146079Y0234810D02*
X0141764Y0234810D01*
X0141764Y0234024D02*
X0146079Y0234024D01*
X0146079Y0233238D02*
X0141695Y0233238D01*
X0141618Y0232452D02*
X0146079Y0232452D01*
X0146079Y0231666D02*
X0141764Y0231666D01*
X0141764Y0235646D02*
X0141764Y0237010D01*
X0141669Y0237365D01*
X0141485Y0237683D01*
X0141226Y0237942D01*
X0140908Y0238125D01*
X0140554Y0238220D01*
X0134858Y0238220D01*
X0134858Y0235646D01*
X0141764Y0235646D01*
X0141764Y0236382D02*
X0185840Y0236382D01*
X0187201Y0235596D02*
X0152639Y0235596D01*
X0152772Y0234810D02*
X0188562Y0234810D01*
X0189923Y0234024D02*
X0152772Y0234024D01*
X0152772Y0233238D02*
X0191285Y0233238D01*
X0192646Y0232452D02*
X0152772Y0232452D01*
X0152772Y0231666D02*
X0194007Y0231666D01*
X0195311Y0230880D02*
X0152772Y0230880D01*
X0152772Y0230094D02*
X0196380Y0230094D01*
X0197449Y0229308D02*
X0152430Y0229308D01*
X0152575Y0228523D02*
X0198519Y0228523D01*
X0199588Y0227737D02*
X0152575Y0227737D01*
X0152575Y0226951D02*
X0200657Y0226951D01*
X0201727Y0226165D02*
X0152575Y0226165D01*
X0152575Y0225379D02*
X0202796Y0225379D01*
X0203865Y0224593D02*
X0152575Y0224593D01*
X0152024Y0223021D02*
X0206004Y0223021D01*
X0206875Y0222235D02*
X0152575Y0222235D01*
X0152575Y0221449D02*
X0207729Y0221449D01*
X0208583Y0220663D02*
X0152575Y0220663D01*
X0152575Y0219877D02*
X0209437Y0219877D01*
X0210290Y0219092D02*
X0152575Y0219092D01*
X0152575Y0218306D02*
X0211144Y0218306D01*
X0211998Y0217520D02*
X0152376Y0217520D01*
X0149425Y0226787D02*
X0149425Y0232693D01*
X0149032Y0237205D02*
X0146880Y0237205D01*
X0146525Y0237300D01*
X0146207Y0237483D01*
X0145948Y0237743D01*
X0145764Y0238060D01*
X0145669Y0238415D01*
X0145669Y0240567D01*
X0149031Y0240567D01*
X0149031Y0241354D01*
X0145669Y0241354D01*
X0145669Y0243506D01*
X0145764Y0243861D01*
X0145948Y0244179D01*
X0146207Y0244438D01*
X0146525Y0244622D01*
X0146880Y0244717D01*
X0149032Y0244717D01*
X0149032Y0241354D01*
X0149819Y0241354D01*
X0153181Y0241354D01*
X0153181Y0243506D01*
X0153086Y0243861D01*
X0152903Y0244179D01*
X0152643Y0244438D01*
X0152325Y0244622D01*
X0151971Y0244717D01*
X0149819Y0244717D01*
X0149819Y0241354D01*
X0149819Y0240567D01*
X0153181Y0240567D01*
X0153181Y0238415D01*
X0153086Y0238060D01*
X0152903Y0237743D01*
X0152643Y0237483D01*
X0152325Y0237300D01*
X0151971Y0237205D01*
X0149819Y0237205D01*
X0149819Y0240567D01*
X0149032Y0240567D01*
X0149032Y0237205D01*
X0149032Y0237953D02*
X0149819Y0237953D01*
X0149819Y0238739D02*
X0149032Y0238739D01*
X0149032Y0239525D02*
X0149819Y0239525D01*
X0149819Y0240311D02*
X0149032Y0240311D01*
X0149031Y0241097D02*
X0127968Y0241097D01*
X0127968Y0240311D02*
X0145669Y0240311D01*
X0145669Y0239525D02*
X0127968Y0239525D01*
X0127968Y0238739D02*
X0145669Y0238739D01*
X0145826Y0237953D02*
X0141206Y0237953D01*
X0141722Y0237168D02*
X0184479Y0237168D01*
X0183064Y0237953D02*
X0153024Y0237953D01*
X0153181Y0238739D02*
X0181272Y0238739D01*
X0179480Y0239525D02*
X0153181Y0239525D01*
X0153181Y0240311D02*
X0177689Y0240311D01*
X0175897Y0241097D02*
X0149819Y0241097D01*
X0149819Y0241883D02*
X0149032Y0241883D01*
X0149032Y0242669D02*
X0149819Y0242669D01*
X0149819Y0243455D02*
X0149032Y0243455D01*
X0149032Y0244241D02*
X0149819Y0244241D01*
X0152840Y0244241D02*
X0167900Y0244241D01*
X0170413Y0243455D02*
X0153181Y0243455D01*
X0153181Y0242669D02*
X0172314Y0242669D01*
X0174105Y0241883D02*
X0153181Y0241883D01*
X0157849Y0247384D02*
X0141657Y0247384D01*
X0141669Y0247365D02*
X0141485Y0247683D01*
X0141226Y0247942D01*
X0140908Y0248125D01*
X0140554Y0248220D01*
X0134858Y0248220D01*
X0134858Y0245646D01*
X0141764Y0245646D01*
X0141764Y0247010D01*
X0141669Y0247365D01*
X0141764Y0246599D02*
X0160362Y0246599D01*
X0162874Y0245813D02*
X0141764Y0245813D01*
X0141764Y0244241D02*
X0146010Y0244241D01*
X0145669Y0243455D02*
X0141753Y0243455D01*
X0141333Y0242669D02*
X0145669Y0242669D01*
X0145669Y0241883D02*
X0127968Y0241883D01*
X0126591Y0247063D02*
X0125016Y0248638D01*
X0111630Y0248638D01*
X0102969Y0239976D01*
X0097457Y0239976D01*
X0095094Y0237614D01*
X0095094Y0233874D01*
X0096472Y0236827D02*
X0096472Y0237043D01*
X0098027Y0238598D01*
X0103539Y0238598D01*
X0104346Y0239406D01*
X0106315Y0241374D01*
X0106315Y0233461D01*
X0104953Y0232098D01*
X0104953Y0233480D01*
X0101787Y0233480D01*
X0101787Y0234268D01*
X0101000Y0234268D01*
X0101000Y0237236D01*
X0099045Y0237236D01*
X0098690Y0237141D01*
X0098373Y0236958D01*
X0098113Y0236698D01*
X0097997Y0236497D01*
X0097668Y0236827D01*
X0096472Y0236827D01*
X0096597Y0237168D02*
X0098789Y0237168D01*
X0097383Y0237953D02*
X0106315Y0237953D01*
X0106315Y0237168D02*
X0103999Y0237168D01*
X0104097Y0237141D02*
X0103743Y0237236D01*
X0101787Y0237236D01*
X0101787Y0234268D01*
X0104953Y0234268D01*
X0104953Y0236026D01*
X0104858Y0236380D01*
X0104674Y0236698D01*
X0104415Y0236958D01*
X0104097Y0237141D01*
X0104857Y0236382D02*
X0106315Y0236382D01*
X0106315Y0235596D02*
X0104953Y0235596D01*
X0104953Y0234810D02*
X0106315Y0234810D01*
X0106315Y0234024D02*
X0101787Y0234024D01*
X0101787Y0234810D02*
X0101000Y0234810D01*
X0101000Y0235596D02*
X0101787Y0235596D01*
X0101787Y0236382D02*
X0101000Y0236382D01*
X0101000Y0237168D02*
X0101787Y0237168D01*
X0103680Y0238739D02*
X0106315Y0238739D01*
X0106315Y0239525D02*
X0104466Y0239525D01*
X0105252Y0240311D02*
X0106315Y0240311D01*
X0106315Y0241097D02*
X0106038Y0241097D01*
X0107693Y0242339D02*
X0107693Y0232890D01*
X0105331Y0230528D01*
X0098441Y0230528D01*
X0093717Y0237168D02*
X0091597Y0237168D01*
X0093717Y0237953D02*
X0072079Y0237953D01*
X0070526Y0237168D02*
X0085993Y0237168D01*
X0085476Y0236382D02*
X0068973Y0236382D01*
X0067420Y0235596D02*
X0085433Y0235596D01*
X0085433Y0234810D02*
X0065867Y0234810D01*
X0064574Y0234024D02*
X0088402Y0234024D01*
X0088402Y0234810D02*
X0089189Y0234810D01*
X0089189Y0235596D02*
X0088402Y0235596D01*
X0088402Y0236382D02*
X0089189Y0236382D01*
X0089189Y0237168D02*
X0088402Y0237168D01*
X0085433Y0233238D02*
X0063371Y0233238D01*
X0062168Y0232452D02*
X0085433Y0232452D01*
X0085433Y0231666D02*
X0060965Y0231666D01*
X0059762Y0230880D02*
X0085696Y0230880D01*
X0086183Y0230094D02*
X0058559Y0230094D01*
X0057356Y0229308D02*
X0085843Y0229308D01*
X0085843Y0228523D02*
X0056154Y0228523D01*
X0054951Y0227737D02*
X0085843Y0227737D01*
X0085843Y0226951D02*
X0053810Y0226951D01*
X0054048Y0227147D02*
X0054048Y0227147D01*
X0052856Y0226165D02*
X0085843Y0226165D01*
X0085843Y0225379D02*
X0085243Y0225379D01*
X0085465Y0224593D02*
X0085858Y0224593D01*
X0085465Y0223807D02*
X0087417Y0223807D01*
X0076222Y0212018D02*
X0062898Y0212018D01*
X0062113Y0212804D02*
X0071866Y0212804D01*
X0071866Y0213590D02*
X0061325Y0213590D01*
X0061328Y0213589D02*
X0058077Y0215465D01*
X0054452Y0216437D01*
X0050698Y0216437D01*
X0047072Y0215465D01*
X0043821Y0213589D01*
X0041167Y0210934D01*
X0039290Y0207684D01*
X0038319Y0204058D01*
X0038319Y0200304D01*
X0039290Y0196679D01*
X0041167Y0193428D01*
X0043821Y0190774D01*
X0047072Y0188897D01*
X0050698Y0187925D01*
X0054452Y0187925D01*
X0058077Y0188897D01*
X0061328Y0190774D01*
X0063982Y0193428D01*
X0065859Y0196679D01*
X0066831Y0200304D01*
X0066831Y0204058D01*
X0065859Y0207684D01*
X0063982Y0210934D01*
X0061328Y0213589D01*
X0059964Y0214376D02*
X0071866Y0214376D01*
X0071866Y0215162D02*
X0058603Y0215162D01*
X0056277Y0215948D02*
X0071866Y0215948D01*
X0071866Y0216734D02*
X0041824Y0216734D01*
X0041060Y0215948D02*
X0048873Y0215948D01*
X0046547Y0215162D02*
X0040295Y0215162D01*
X0039531Y0214376D02*
X0045185Y0214376D01*
X0043824Y0213590D02*
X0038766Y0213590D01*
X0038002Y0212804D02*
X0043037Y0212804D01*
X0042251Y0212018D02*
X0037237Y0212018D01*
X0036473Y0211232D02*
X0041465Y0211232D01*
X0040886Y0210447D02*
X0035708Y0210447D01*
X0034943Y0209661D02*
X0040432Y0209661D01*
X0039978Y0208875D02*
X0034179Y0208875D01*
X0033532Y0208089D02*
X0039524Y0208089D01*
X0039188Y0207303D02*
X0032921Y0207303D01*
X0032309Y0206517D02*
X0038978Y0206517D01*
X0038767Y0205731D02*
X0031697Y0205731D01*
X0031086Y0204945D02*
X0038557Y0204945D01*
X0038346Y0204159D02*
X0030474Y0204159D01*
X0029862Y0203373D02*
X0038319Y0203373D01*
X0038319Y0202587D02*
X0029251Y0202587D01*
X0028639Y0201801D02*
X0038319Y0201801D01*
X0038319Y0201016D02*
X0028027Y0201016D01*
X0027415Y0200230D02*
X0038339Y0200230D01*
X0038549Y0199444D02*
X0026804Y0199444D01*
X0026192Y0198658D02*
X0038760Y0198658D01*
X0038971Y0197872D02*
X0025590Y0197872D01*
X0025107Y0197086D02*
X0039181Y0197086D01*
X0039509Y0196300D02*
X0024624Y0196300D01*
X0024141Y0195514D02*
X0039963Y0195514D01*
X0040416Y0194728D02*
X0023658Y0194728D01*
X0023175Y0193942D02*
X0040870Y0193942D01*
X0041439Y0193156D02*
X0022691Y0193156D01*
X0022208Y0192371D02*
X0042224Y0192371D01*
X0043010Y0191585D02*
X0021725Y0191585D01*
X0021242Y0190799D02*
X0043796Y0190799D01*
X0045139Y0190013D02*
X0020759Y0190013D01*
X0020276Y0189227D02*
X0046500Y0189227D01*
X0048773Y0188441D02*
X0019793Y0188441D01*
X0027054Y0186869D02*
X0031324Y0186869D01*
X0030980Y0186083D02*
X0027398Y0186083D01*
X0027398Y0185297D02*
X0030980Y0185297D01*
X0030980Y0184511D02*
X0027398Y0184511D01*
X0027398Y0183725D02*
X0030980Y0183725D01*
X0030980Y0182940D02*
X0027398Y0182940D01*
X0027398Y0179796D02*
X0030980Y0179796D01*
X0030980Y0179010D02*
X0027398Y0179010D01*
X0027398Y0178224D02*
X0030980Y0178224D01*
X0030980Y0177438D02*
X0027398Y0177438D01*
X0027398Y0176652D02*
X0030980Y0176652D01*
X0031218Y0175866D02*
X0027160Y0175866D01*
X0024189Y0181315D02*
X0034189Y0181315D01*
X0044189Y0181315D01*
X0054189Y0181315D01*
X0075213Y0181315D01*
X0078362Y0179796D02*
X0078559Y0179796D01*
X0078685Y0179010D02*
X0078362Y0179010D01*
X0081235Y0175866D02*
X0057160Y0175866D01*
X0057398Y0176652D02*
X0082021Y0176652D01*
X0082807Y0177438D02*
X0057398Y0177438D01*
X0057398Y0178224D02*
X0083593Y0178224D01*
X0075016Y0188441D02*
X0056377Y0188441D01*
X0058649Y0189227D02*
X0072047Y0189227D01*
X0072047Y0188598D02*
X0075016Y0188598D01*
X0075016Y0191764D01*
X0074819Y0191764D01*
X0074819Y0193913D01*
X0071654Y0193913D01*
X0071654Y0192155D01*
X0071749Y0191801D01*
X0071932Y0191483D01*
X0072191Y0191223D01*
X0072291Y0191166D01*
X0072142Y0190908D01*
X0072047Y0190554D01*
X0072047Y0188598D01*
X0072047Y0190013D02*
X0060010Y0190013D01*
X0061353Y0190799D02*
X0072113Y0190799D01*
X0071873Y0191585D02*
X0062139Y0191585D01*
X0062925Y0192371D02*
X0071654Y0192371D01*
X0071654Y0193156D02*
X0063711Y0193156D01*
X0064279Y0193942D02*
X0074819Y0193942D01*
X0074819Y0193156D02*
X0075606Y0193156D01*
X0075606Y0192371D02*
X0074819Y0192371D01*
X0075016Y0191585D02*
X0075606Y0191585D01*
X0075803Y0190799D02*
X0075016Y0190799D01*
X0075016Y0190013D02*
X0075803Y0190013D01*
X0075803Y0189227D02*
X0075016Y0189227D01*
X0074819Y0194728D02*
X0075606Y0194728D01*
X0075606Y0195514D02*
X0074819Y0195514D01*
X0074819Y0196300D02*
X0075606Y0196300D01*
X0075606Y0197086D02*
X0074819Y0197086D01*
X0074819Y0197872D02*
X0075606Y0197872D01*
X0075606Y0198658D02*
X0074819Y0198658D01*
X0074819Y0199444D02*
X0075606Y0199444D01*
X0074819Y0200230D02*
X0066811Y0200230D01*
X0066831Y0201016D02*
X0071654Y0201016D01*
X0071654Y0201801D02*
X0066831Y0201801D01*
X0066831Y0202587D02*
X0071654Y0202587D01*
X0071899Y0203373D02*
X0066831Y0203373D01*
X0066804Y0204159D02*
X0071866Y0204159D01*
X0071866Y0204945D02*
X0066593Y0204945D01*
X0066382Y0205731D02*
X0071866Y0205731D01*
X0071866Y0206517D02*
X0066172Y0206517D01*
X0065961Y0207303D02*
X0071866Y0207303D01*
X0071866Y0208089D02*
X0065625Y0208089D01*
X0065172Y0208875D02*
X0071866Y0208875D01*
X0071866Y0209661D02*
X0064718Y0209661D01*
X0064264Y0210447D02*
X0071866Y0210447D01*
X0077008Y0211232D02*
X0063684Y0211232D01*
X0071866Y0217520D02*
X0042589Y0217520D01*
X0043353Y0218306D02*
X0071866Y0218306D01*
X0071866Y0219092D02*
X0044267Y0219092D01*
X0045221Y0219877D02*
X0072463Y0219877D01*
X0072063Y0220663D02*
X0046176Y0220663D01*
X0047130Y0221449D02*
X0072063Y0221449D01*
X0072063Y0222235D02*
X0048084Y0222235D01*
X0049038Y0223021D02*
X0072063Y0223021D01*
X0072063Y0223807D02*
X0049993Y0223807D01*
X0050947Y0224593D02*
X0072063Y0224593D01*
X0072412Y0225379D02*
X0051901Y0225379D01*
X0073632Y0238739D02*
X0094271Y0238739D01*
X0095057Y0239525D02*
X0075185Y0239525D01*
X0076738Y0240311D02*
X0095843Y0240311D01*
X0096079Y0240547D02*
X0096079Y0240547D01*
X0096629Y0241097D02*
X0078520Y0241097D01*
X0080619Y0241883D02*
X0102926Y0241883D01*
X0103712Y0242669D02*
X0082718Y0242669D01*
X0084817Y0243455D02*
X0104498Y0243455D01*
X0105284Y0244241D02*
X0086916Y0244241D01*
X0089015Y0245027D02*
X0106070Y0245027D01*
X0106856Y0245813D02*
X0091448Y0245813D01*
X0094551Y0246599D02*
X0107642Y0246599D01*
X0108428Y0247384D02*
X0097655Y0247384D01*
X0100758Y0248170D02*
X0109214Y0248170D01*
X0110000Y0248956D02*
X0104045Y0248956D01*
X0109712Y0249742D02*
X0110786Y0249742D01*
X0110606Y0245252D02*
X0107693Y0242339D01*
X0109186Y0241883D02*
X0111827Y0241883D01*
X0111827Y0241097D02*
X0109071Y0241097D01*
X0109071Y0240311D02*
X0111827Y0240311D01*
X0111827Y0239525D02*
X0109071Y0239525D01*
X0109071Y0238739D02*
X0111827Y0238739D01*
X0112143Y0237953D02*
X0109071Y0237953D01*
X0109071Y0237168D02*
X0111827Y0237168D01*
X0111827Y0236382D02*
X0109071Y0236382D01*
X0109071Y0235596D02*
X0111827Y0235596D01*
X0111827Y0234810D02*
X0109071Y0234810D01*
X0109071Y0234024D02*
X0111827Y0234024D01*
X0111858Y0233238D02*
X0109071Y0233238D01*
X0109071Y0232452D02*
X0112044Y0232452D01*
X0111827Y0231666D02*
X0108418Y0231666D01*
X0107632Y0230880D02*
X0110821Y0230880D01*
X0106092Y0233238D02*
X0104953Y0233238D01*
X0104953Y0232452D02*
X0105307Y0232452D01*
X0109972Y0242669D02*
X0112261Y0242669D01*
X0111827Y0243455D02*
X0110758Y0243455D01*
X0110606Y0245252D02*
X0118717Y0245252D01*
X0115380Y0250528D02*
X0138293Y0250528D01*
X0140741Y0248170D02*
X0153871Y0248170D01*
X0149848Y0248956D02*
X0126646Y0248956D01*
X0127432Y0248170D02*
X0128189Y0248170D01*
X0126591Y0247063D02*
X0126591Y0225803D01*
X0127142Y0225252D01*
X0134465Y0225252D01*
X0141354Y0223807D02*
X0204934Y0223807D01*
X0165387Y0245027D02*
X0134858Y0245027D01*
X0134858Y0245813D02*
X0134071Y0245813D01*
X0134071Y0246599D02*
X0134858Y0246599D01*
X0134858Y0247384D02*
X0134071Y0247384D01*
X0134071Y0248170D02*
X0134858Y0248170D01*
X0134858Y0244241D02*
X0134071Y0244241D01*
X0134071Y0243455D02*
X0134858Y0243455D01*
X0134858Y0242669D02*
X0134071Y0242669D01*
X0134071Y0237953D02*
X0134858Y0237953D01*
X0134858Y0237168D02*
X0134071Y0237168D01*
X0134071Y0236382D02*
X0134858Y0236382D01*
X0126591Y0225803D02*
X0126591Y0223441D01*
X0125860Y0249742D02*
X0145824Y0249742D01*
X0093913Y0207693D02*
X0088008Y0207693D01*
X0087220Y0206906D01*
X0090764Y0205724D02*
X0085646Y0200606D01*
X0088004Y0201016D02*
X0091515Y0201016D01*
X0091354Y0201801D02*
X0088790Y0201801D01*
X0089575Y0202587D02*
X0091543Y0202587D01*
X0091354Y0203373D02*
X0090361Y0203373D01*
X0091147Y0204159D02*
X0091354Y0204159D01*
X0090764Y0205724D02*
X0093913Y0205724D01*
X0071654Y0199444D02*
X0066600Y0199444D01*
X0066390Y0198658D02*
X0071654Y0198658D01*
X0071880Y0197872D02*
X0066179Y0197872D01*
X0065968Y0197086D02*
X0071906Y0197086D01*
X0071654Y0196300D02*
X0065641Y0196300D01*
X0065187Y0195514D02*
X0071654Y0195514D01*
X0071654Y0194728D02*
X0064733Y0194728D01*
X0051324Y0186869D02*
X0047054Y0186869D01*
X0047398Y0186083D02*
X0050980Y0186083D01*
X0050980Y0185297D02*
X0047398Y0185297D01*
X0047398Y0184511D02*
X0050980Y0184511D01*
X0050980Y0183725D02*
X0047398Y0183725D01*
X0047398Y0182940D02*
X0050980Y0182940D01*
X0050980Y0179796D02*
X0047398Y0179796D01*
X0047398Y0179010D02*
X0050980Y0179010D01*
X0050980Y0178224D02*
X0047398Y0178224D01*
X0047398Y0177438D02*
X0050980Y0177438D01*
X0050980Y0176652D02*
X0047398Y0176652D01*
X0047160Y0175866D02*
X0051218Y0175866D01*
X0041218Y0175866D02*
X0037160Y0175866D01*
X0037398Y0176652D02*
X0040980Y0176652D01*
X0040980Y0177438D02*
X0037398Y0177438D01*
X0037398Y0178224D02*
X0040980Y0178224D01*
X0040980Y0179010D02*
X0037398Y0179010D01*
X0037398Y0179796D02*
X0040980Y0179796D01*
X0040980Y0182940D02*
X0037398Y0182940D01*
X0037398Y0183725D02*
X0040980Y0183725D01*
X0040980Y0184511D02*
X0037398Y0184511D01*
X0037398Y0185297D02*
X0040980Y0185297D01*
X0040980Y0186083D02*
X0037398Y0186083D01*
X0037054Y0186869D02*
X0041324Y0186869D01*
X0020980Y0152289D02*
X0006263Y0152289D01*
X0006087Y0151503D02*
X0020980Y0151503D01*
X0020980Y0150717D02*
X0005911Y0150717D01*
X0005735Y0149931D02*
X0020980Y0149931D01*
X0020980Y0149145D02*
X0005559Y0149145D01*
X0005383Y0148359D02*
X0020980Y0148359D01*
X0020980Y0147573D02*
X0005227Y0147573D01*
X0005140Y0146788D02*
X0020980Y0146788D01*
X0020980Y0146002D02*
X0005053Y0146002D01*
X0004966Y0145216D02*
X0020980Y0145216D01*
X0020980Y0144430D02*
X0004879Y0144430D01*
X0004792Y0143644D02*
X0020980Y0143644D01*
X0020980Y0142858D02*
X0004705Y0142858D01*
X0004618Y0142072D02*
X0021154Y0142072D01*
X0021390Y0141286D02*
X0004531Y0141286D01*
X0004445Y0140500D02*
X0021079Y0140500D01*
X0021079Y0139714D02*
X0004358Y0139714D01*
X0004271Y0138928D02*
X0021079Y0138928D01*
X0021079Y0138143D02*
X0004184Y0138143D01*
X0004097Y0137357D02*
X0021079Y0137357D01*
X0021079Y0136571D02*
X0004010Y0136571D01*
X0003923Y0135785D02*
X0021516Y0135785D01*
X0021224Y0134999D02*
X0003836Y0134999D01*
X0003749Y0134213D02*
X0020711Y0134213D01*
X0020669Y0133427D02*
X0003747Y0133427D01*
X0003747Y0126354D02*
X0030417Y0126354D01*
X0030315Y0125568D02*
X0003747Y0125568D01*
X0003747Y0124782D02*
X0030315Y0124782D01*
X0024622Y0128712D02*
X0023835Y0128712D01*
X0023835Y0129498D02*
X0024622Y0129498D01*
X0024622Y0130283D02*
X0023835Y0130283D01*
X0023835Y0132641D02*
X0024622Y0132641D01*
X0024622Y0133427D02*
X0023835Y0133427D01*
X0023835Y0134213D02*
X0024622Y0134213D01*
X0024622Y0134999D02*
X0023835Y0134999D01*
X0024228Y0138598D02*
X0024189Y0138638D01*
X0024189Y0147457D01*
X0034189Y0147457D02*
X0034189Y0138874D01*
X0034465Y0138598D01*
X0044701Y0118717D02*
X0051000Y0118717D01*
X0104543Y0183725D02*
X0105724Y0183725D01*
X0105757Y0184511D02*
X0104314Y0184511D01*
X0132669Y0097275D02*
X0134033Y0097275D01*
X0139189Y0078413D02*
X0139976Y0078413D01*
X0139976Y0077627D02*
X0139189Y0077627D01*
X0139189Y0076841D02*
X0139976Y0076841D01*
X0139976Y0076055D02*
X0139189Y0076055D01*
X0139189Y0075270D02*
X0139976Y0075270D01*
X0137656Y0071340D02*
X0130259Y0071340D01*
X0123750Y0061909D02*
X0119423Y0061909D01*
X0120997Y0061123D02*
X0125090Y0061123D01*
X0124244Y0060337D02*
X0121783Y0060337D01*
X0122455Y0059551D02*
X0123458Y0059551D01*
X0122985Y0058765D02*
X0122781Y0058765D01*
X0122695Y0054050D02*
X0123071Y0054050D01*
X0123666Y0053264D02*
X0122361Y0053264D01*
X0121575Y0052478D02*
X0124452Y0052478D01*
X0126154Y0051692D02*
X0120789Y0051692D01*
X0145992Y0058765D02*
X0164317Y0058765D01*
X0165103Y0059551D02*
X0146778Y0059551D01*
X0168381Y0053264D02*
X0171866Y0053264D01*
X0171866Y0052478D02*
X0169167Y0052478D01*
X0169953Y0051692D02*
X0171866Y0051692D01*
X0178403Y0062695D02*
X0192140Y0062695D01*
X0192926Y0063481D02*
X0179189Y0063481D01*
X0179975Y0064267D02*
X0193920Y0064267D01*
X0195282Y0065053D02*
X0180761Y0065053D01*
X0181547Y0065839D02*
X0196643Y0065839D01*
X0199535Y0066624D02*
X0182333Y0066624D01*
X0187107Y0082343D02*
X0176394Y0082343D01*
X0172850Y0082343D02*
X0171741Y0082343D01*
X0178354Y0088630D02*
X0179921Y0088630D01*
X0179921Y0089416D02*
X0179140Y0089416D01*
D34*
X0179346Y0086433D03*
X0183283Y0082496D03*
X0187220Y0088008D03*
X0196669Y0086433D03*
X0193520Y0069898D03*
X0181709Y0062811D03*
X0169898Y0054150D03*
X0158087Y0061236D03*
X0162811Y0069898D03*
X0164386Y0079346D03*
X0146276Y0056512D03*
X0154150Y0047063D03*
X0171472Y0013992D03*
X0206118Y0035252D03*
X0231315Y0064386D03*
X0245488Y0101394D03*
X0213992Y0121866D03*
X0217929Y0135252D03*
X0201394Y0143913D03*
X0200606Y0162024D03*
X0213205Y0174622D03*
X0195094Y0187220D03*
X0186433Y0195882D03*
X0169110Y0178559D03*
X0159661Y0178559D03*
X0144701Y0186433D03*
X0135252Y0184858D03*
X0128165Y0191945D03*
X0121079Y0192732D03*
X0118717Y0188008D03*
X0109268Y0188795D03*
X0099819Y0188795D03*
X0096669Y0188008D03*
X0088008Y0188008D03*
X0082496Y0188008D03*
X0089583Y0180134D03*
X0091945Y0171472D03*
X0082496Y0162024D03*
X0067535Y0175409D03*
X0060449Y0185646D03*
X0069110Y0195882D03*
X0069898Y0206906D03*
X0068323Y0218717D03*
X0080921Y0228953D03*
X0075409Y0236039D03*
X0087220Y0214780D03*
X0087220Y0206906D03*
X0090370Y0197457D03*
X0098244Y0203756D03*
X0106118Y0211630D03*
X0097457Y0221079D03*
X0094307Y0219504D03*
X0101394Y0221866D03*
X0106906Y0225016D03*
X0105331Y0234465D03*
X0101394Y0236827D03*
X0103756Y0246276D03*
X0132102Y0239976D03*
X0143126Y0232890D03*
X0154150Y0245488D03*
X0138402Y0214780D03*
X0139189Y0209268D03*
X0145488Y0209268D03*
X0132102Y0206118D03*
X0124228Y0199819D03*
X0120291Y0206906D03*
X0115567Y0202181D03*
X0113205Y0199031D03*
X0116354Y0213992D03*
X0116354Y0217142D03*
X0167535Y0194307D03*
X0173047Y0162024D03*
X0180921Y0143913D03*
X0182496Y0131315D03*
X0197457Y0109268D03*
X0178559Y0103756D03*
X0146276Y0127378D03*
X0142339Y0127378D03*
X0144701Y0137614D03*
X0149425Y0151787D03*
X0136827Y0152575D03*
X0129740Y0152575D03*
X0122654Y0152575D03*
X0115567Y0152575D03*
X0107693Y0152575D03*
X0110055Y0127378D03*
X0105331Y0127378D03*
X0124228Y0127378D03*
X0091945Y0083283D03*
X0096669Y0070685D03*
X0104543Y0074622D03*
X0121079Y0070685D03*
X0083283Y0070685D03*
X0069110Y0058874D03*
X0059661Y0068323D03*
X0058087Y0085646D03*
X0051000Y0086433D03*
X0048638Y0091157D03*
X0039189Y0098244D03*
X0036039Y0095094D03*
X0030528Y0092732D03*
X0030528Y0105331D03*
X0032102Y0110055D03*
X0021079Y0117142D03*
X0028165Y0123441D03*
X0044701Y0123441D03*
X0069898Y0128953D03*
X0080134Y0091945D03*
X0066748Y0085646D03*
X0037614Y0066748D03*
X0023441Y0067535D03*
X0023441Y0077772D03*
X0013205Y0088008D03*
X0010055Y0099819D03*
X0006906Y0129740D03*
X0012417Y0165173D03*
X0028165Y0195882D03*
X0049425Y0219504D03*
X0194307Y0228953D03*
X0221866Y0202969D03*
X0239976Y0172260D03*
X0247850Y0139189D03*
X0121079Y0006118D03*
X0066748Y0022654D03*
D35*
X0089583Y0118717D03*
X0089583Y0123441D03*
X0089583Y0128165D03*
D36*
X0110055Y0102850D02*
X0126591Y0102850D01*
X0126709Y0102969D01*
X0134465Y0102969D01*
X0139583Y0097850D01*
X0139583Y0096669D01*
X0145291Y0101197D02*
X0145291Y0088402D01*
X0144898Y0088008D01*
X0145488Y0089386D01*
X0145488Y0073047D01*
X0138795Y0066354D01*
X0127378Y0066354D01*
X0137220Y0056512D02*
X0137614Y0056906D01*
X0138008Y0056906D01*
X0151000Y0069898D01*
X0151000Y0078953D01*
X0151394Y0079346D01*
X0152181Y0080134D01*
X0156512Y0080134D01*
X0158874Y0082496D01*
X0158874Y0085646D01*
X0164386Y0091157D01*
X0169898Y0097457D01*
X0169898Y0107693D01*
X0177772Y0115567D01*
X0196669Y0115567D01*
X0198244Y0117142D01*
X0198244Y0117535D01*
X0188402Y0127378D02*
X0183677Y0122654D01*
X0176197Y0122654D01*
X0158087Y0104543D01*
X0148638Y0104543D01*
X0145291Y0101197D01*
X0151394Y0096669D02*
X0157299Y0096669D01*
X0158874Y0097457D01*
X0151984Y0096079D02*
X0152378Y0088008D01*
X0151984Y0096079D02*
X0151394Y0096669D01*
X0110055Y0102850D02*
X0110055Y0090370D01*
X0097457Y0077772D01*
X0041551Y0077772D01*
X0041551Y0076984D01*
D37*
X0060055Y0113205D02*
X0057299Y0115961D01*
X0057299Y0125016D01*
X0072260Y0139976D01*
X0072260Y0164386D01*
X0085646Y0177772D01*
X0085646Y0181709D01*
X0088008Y0184071D01*
X0088008Y0188008D01*
X0088008Y0189583D01*
X0089583Y0191157D01*
X0097457Y0191157D01*
X0099031Y0192732D01*
X0102181Y0195882D01*
X0119504Y0195882D01*
X0124228Y0195882D01*
X0129740Y0195882D01*
X0142339Y0183283D01*
X0161236Y0183283D01*
X0165370Y0179150D01*
X0165370Y0172260D01*
X0166020Y0172122D01*
X0176197Y0172122D01*
X0196669Y0172122D02*
X0203894Y0172122D01*
X0206118Y0169898D01*
X0206118Y0134465D01*
X0199031Y0127378D01*
X0198244Y0127378D01*
X0206118Y0119504D01*
X0206118Y0110843D01*
X0197457Y0102181D01*
X0183283Y0102181D01*
X0179543Y0098441D01*
X0179543Y0096276D01*
X0179346Y0096079D01*
X0179346Y0093520D01*
X0176197Y0090370D01*
X0171472Y0090370D01*
X0168126Y0087024D01*
X0168126Y0085646D01*
X0168323Y0085449D01*
X0168323Y0058874D01*
X0165173Y0055724D01*
X0151787Y0055724D01*
X0144701Y0048638D01*
X0134465Y0048638D01*
X0127378Y0055724D01*
X0127378Y0056512D01*
X0127378Y0046669D02*
X0130921Y0046669D01*
X0132102Y0045488D01*
X0146276Y0045488D01*
X0153362Y0052575D01*
X0165173Y0052575D01*
X0172260Y0045488D01*
X0173835Y0045488D01*
X0174622Y0044701D01*
X0174622Y0062811D01*
X0180921Y0069110D01*
X0180921Y0072260D01*
X0191157Y0082496D01*
X0191157Y0092142D01*
X0187024Y0096276D01*
X0189189Y0096276D01*
X0191945Y0099031D01*
X0199031Y0099031D01*
X0209268Y0109268D01*
X0209268Y0126197D01*
X0208087Y0127378D01*
X0209268Y0128559D01*
X0209268Y0173047D01*
X0205193Y0177122D01*
X0196669Y0177122D01*
X0174819Y0085646D02*
X0174622Y0085449D01*
X0174622Y0076197D01*
X0077685Y0139189D02*
X0077685Y0148638D01*
X0077685Y0139189D02*
X0075323Y0136827D01*
X0073047Y0136827D01*
X0060055Y0123835D01*
X0060055Y0113205D01*
M02*
