G75*
%MOIN*%
%OFA0B0*%
%FSLAX25Y25*%
%IPPOS*%
%LPD*%
%AMOC8*
5,1,8,0,0,1.08239X$1,22.5*
%
%ADD10C,0.00394*%
%ADD11C,0.05906*%
%ADD12C,0.23000*%
%ADD13C,0.01575*%
%ADD14C,0.00000*%
%ADD15C,0.00787*%
%ADD16C,0.02381*%
%ADD17C,0.03150*%
%ADD18C,0.03562*%
D10*
X0001394Y0127378D02*
X0001432Y0130470D01*
X0001546Y0133560D01*
X0001735Y0136646D01*
X0002001Y0139727D01*
X0002341Y0142800D01*
X0002758Y0145864D01*
X0003249Y0148916D01*
X0003815Y0151956D01*
X0004455Y0154981D01*
X0005170Y0157990D01*
X0005958Y0160980D01*
X0006819Y0163949D01*
X0007753Y0166897D01*
X0008759Y0169821D01*
X0009836Y0172719D01*
X0010984Y0175590D01*
X0012202Y0178432D01*
X0013490Y0181243D01*
X0014846Y0184022D01*
X0016270Y0186766D01*
X0017761Y0189475D01*
X0019318Y0192147D01*
X0020940Y0194779D01*
X0022626Y0197371D01*
X0024375Y0199921D01*
X0026187Y0202427D01*
X0028059Y0204887D01*
X0029991Y0207301D01*
X0031982Y0209667D01*
X0034030Y0211984D01*
X0036134Y0214249D01*
X0038294Y0216462D01*
X0040507Y0218622D01*
X0042772Y0220726D01*
X0045089Y0222774D01*
X0047455Y0224765D01*
X0049869Y0226697D01*
X0052329Y0228569D01*
X0054835Y0230381D01*
X0057385Y0232130D01*
X0059977Y0233816D01*
X0062609Y0235438D01*
X0065281Y0236995D01*
X0067990Y0238486D01*
X0070734Y0239910D01*
X0073513Y0241266D01*
X0076324Y0242554D01*
X0079166Y0243772D01*
X0082037Y0244920D01*
X0084935Y0245997D01*
X0087859Y0247003D01*
X0090807Y0247937D01*
X0093776Y0248798D01*
X0096766Y0249586D01*
X0099775Y0250301D01*
X0102800Y0250941D01*
X0105840Y0251507D01*
X0108892Y0251998D01*
X0111956Y0252415D01*
X0115029Y0252755D01*
X0118110Y0253021D01*
X0121196Y0253210D01*
X0124286Y0253324D01*
X0127378Y0253362D01*
X0130470Y0253324D01*
X0133560Y0253210D01*
X0136646Y0253021D01*
X0139727Y0252755D01*
X0142800Y0252415D01*
X0145864Y0251998D01*
X0148916Y0251507D01*
X0151956Y0250941D01*
X0154981Y0250301D01*
X0157990Y0249586D01*
X0160980Y0248798D01*
X0163949Y0247937D01*
X0166897Y0247003D01*
X0169821Y0245997D01*
X0172719Y0244920D01*
X0175590Y0243772D01*
X0178432Y0242554D01*
X0181243Y0241266D01*
X0184022Y0239910D01*
X0186766Y0238486D01*
X0189475Y0236995D01*
X0192147Y0235438D01*
X0194779Y0233816D01*
X0197371Y0232130D01*
X0199921Y0230381D01*
X0202427Y0228569D01*
X0204887Y0226697D01*
X0207301Y0224765D01*
X0209667Y0222774D01*
X0211984Y0220726D01*
X0214249Y0218622D01*
X0216462Y0216462D01*
X0218622Y0214249D01*
X0220726Y0211984D01*
X0222774Y0209667D01*
X0224765Y0207301D01*
X0226697Y0204887D01*
X0228569Y0202427D01*
X0230381Y0199921D01*
X0232130Y0197371D01*
X0233816Y0194779D01*
X0235438Y0192147D01*
X0236995Y0189475D01*
X0238486Y0186766D01*
X0239910Y0184022D01*
X0241266Y0181243D01*
X0242554Y0178432D01*
X0243772Y0175590D01*
X0244920Y0172719D01*
X0245997Y0169821D01*
X0247003Y0166897D01*
X0247937Y0163949D01*
X0248798Y0160980D01*
X0249586Y0157990D01*
X0250301Y0154981D01*
X0250941Y0151956D01*
X0251507Y0148916D01*
X0251998Y0145864D01*
X0252415Y0142800D01*
X0252755Y0139727D01*
X0253021Y0136646D01*
X0253210Y0133560D01*
X0253324Y0130470D01*
X0253362Y0127378D01*
X0253324Y0124286D01*
X0253210Y0121196D01*
X0253021Y0118110D01*
X0252755Y0115029D01*
X0252415Y0111956D01*
X0251998Y0108892D01*
X0251507Y0105840D01*
X0250941Y0102800D01*
X0250301Y0099775D01*
X0249586Y0096766D01*
X0248798Y0093776D01*
X0247937Y0090807D01*
X0247003Y0087859D01*
X0245997Y0084935D01*
X0244920Y0082037D01*
X0243772Y0079166D01*
X0242554Y0076324D01*
X0241266Y0073513D01*
X0239910Y0070734D01*
X0238486Y0067990D01*
X0236995Y0065281D01*
X0235438Y0062609D01*
X0233816Y0059977D01*
X0232130Y0057385D01*
X0230381Y0054835D01*
X0228569Y0052329D01*
X0226697Y0049869D01*
X0224765Y0047455D01*
X0222774Y0045089D01*
X0220726Y0042772D01*
X0218622Y0040507D01*
X0216462Y0038294D01*
X0214249Y0036134D01*
X0211984Y0034030D01*
X0209667Y0031982D01*
X0207301Y0029991D01*
X0204887Y0028059D01*
X0202427Y0026187D01*
X0199921Y0024375D01*
X0197371Y0022626D01*
X0194779Y0020940D01*
X0192147Y0019318D01*
X0189475Y0017761D01*
X0186766Y0016270D01*
X0184022Y0014846D01*
X0181243Y0013490D01*
X0178432Y0012202D01*
X0175590Y0010984D01*
X0172719Y0009836D01*
X0169821Y0008759D01*
X0166897Y0007753D01*
X0163949Y0006819D01*
X0160980Y0005958D01*
X0157990Y0005170D01*
X0154981Y0004455D01*
X0151956Y0003815D01*
X0148916Y0003249D01*
X0145864Y0002758D01*
X0142800Y0002341D01*
X0139727Y0002001D01*
X0136646Y0001735D01*
X0133560Y0001546D01*
X0130470Y0001432D01*
X0127378Y0001394D01*
X0124286Y0001432D01*
X0121196Y0001546D01*
X0118110Y0001735D01*
X0115029Y0002001D01*
X0111956Y0002341D01*
X0108892Y0002758D01*
X0105840Y0003249D01*
X0102800Y0003815D01*
X0099775Y0004455D01*
X0096766Y0005170D01*
X0093776Y0005958D01*
X0090807Y0006819D01*
X0087859Y0007753D01*
X0084935Y0008759D01*
X0082037Y0009836D01*
X0079166Y0010984D01*
X0076324Y0012202D01*
X0073513Y0013490D01*
X0070734Y0014846D01*
X0067990Y0016270D01*
X0065281Y0017761D01*
X0062609Y0019318D01*
X0059977Y0020940D01*
X0057385Y0022626D01*
X0054835Y0024375D01*
X0052329Y0026187D01*
X0049869Y0028059D01*
X0047455Y0029991D01*
X0045089Y0031982D01*
X0042772Y0034030D01*
X0040507Y0036134D01*
X0038294Y0038294D01*
X0036134Y0040507D01*
X0034030Y0042772D01*
X0031982Y0045089D01*
X0029991Y0047455D01*
X0028059Y0049869D01*
X0026187Y0052329D01*
X0024375Y0054835D01*
X0022626Y0057385D01*
X0020940Y0059977D01*
X0019318Y0062609D01*
X0017761Y0065281D01*
X0016270Y0067990D01*
X0014846Y0070734D01*
X0013490Y0073513D01*
X0012202Y0076324D01*
X0010984Y0079166D01*
X0009836Y0082037D01*
X0008759Y0084935D01*
X0007753Y0087859D01*
X0006819Y0090807D01*
X0005958Y0093776D01*
X0005170Y0096766D01*
X0004455Y0099775D01*
X0003815Y0102800D01*
X0003249Y0105840D01*
X0002758Y0108892D01*
X0002341Y0111956D01*
X0002001Y0115029D01*
X0001735Y0118110D01*
X0001546Y0121196D01*
X0001432Y0124286D01*
X0001394Y0127378D01*
D11*
X0117535Y0056512D03*
X0127378Y0056512D03*
X0137220Y0056512D03*
X0127378Y0046669D03*
X0127378Y0066354D03*
X0188402Y0127378D03*
X0198244Y0127378D03*
X0198244Y0137220D03*
X0208087Y0127378D03*
X0198244Y0117535D03*
D12*
X0202181Y0052575D03*
X0202181Y0202181D03*
X0052575Y0202181D03*
X0052575Y0052575D03*
D13*
X0095882Y0116590D02*
X0095882Y0118166D01*
X0103756Y0118166D01*
X0103756Y0116590D01*
X0095882Y0116590D01*
X0095882Y0118164D02*
X0103756Y0118164D01*
X0095882Y0121590D02*
X0095882Y0123166D01*
X0103756Y0123166D01*
X0103756Y0121590D01*
X0095882Y0121590D01*
X0095882Y0123164D02*
X0103756Y0123164D01*
X0095882Y0126590D02*
X0095882Y0128166D01*
X0103756Y0128166D01*
X0103756Y0126590D01*
X0095882Y0126590D01*
X0095882Y0128164D02*
X0103756Y0128164D01*
X0095882Y0131590D02*
X0095882Y0133166D01*
X0103756Y0133166D01*
X0103756Y0131590D01*
X0095882Y0131590D01*
X0095882Y0133164D02*
X0103756Y0133164D01*
X0095882Y0136590D02*
X0095882Y0138166D01*
X0103756Y0138166D01*
X0103756Y0136590D01*
X0095882Y0136590D01*
X0095882Y0138164D02*
X0103756Y0138164D01*
X0111630Y0138166D02*
X0111630Y0136590D01*
X0111630Y0138166D02*
X0119504Y0138166D01*
X0119504Y0136590D01*
X0111630Y0136590D01*
X0111630Y0138164D02*
X0119504Y0138164D01*
X0111630Y0133166D02*
X0111630Y0131590D01*
X0111630Y0133166D02*
X0119504Y0133166D01*
X0119504Y0131590D01*
X0111630Y0131590D01*
X0111630Y0133164D02*
X0119504Y0133164D01*
X0111630Y0128166D02*
X0111630Y0126590D01*
X0111630Y0128166D02*
X0119504Y0128166D01*
X0119504Y0126590D01*
X0111630Y0126590D01*
X0111630Y0128164D02*
X0119504Y0128164D01*
X0111630Y0123166D02*
X0111630Y0121590D01*
X0111630Y0123166D02*
X0119504Y0123166D01*
X0119504Y0121590D01*
X0111630Y0121590D01*
X0111630Y0123164D02*
X0119504Y0123164D01*
X0111630Y0118166D02*
X0111630Y0116590D01*
X0111630Y0118166D02*
X0119504Y0118166D01*
X0119504Y0116590D01*
X0111630Y0116590D01*
X0111630Y0118164D02*
X0119504Y0118164D01*
X0143126Y0118166D02*
X0143126Y0116590D01*
X0135252Y0116590D01*
X0135252Y0118166D01*
X0143126Y0118166D01*
X0143126Y0118164D02*
X0135252Y0118164D01*
X0143126Y0121590D02*
X0143126Y0123166D01*
X0143126Y0121590D02*
X0135252Y0121590D01*
X0135252Y0123166D01*
X0143126Y0123166D01*
X0143126Y0123164D02*
X0135252Y0123164D01*
X0143126Y0126590D02*
X0143126Y0128166D01*
X0143126Y0126590D02*
X0135252Y0126590D01*
X0135252Y0128166D01*
X0143126Y0128166D01*
X0143126Y0128164D02*
X0135252Y0128164D01*
X0143126Y0131590D02*
X0143126Y0133166D01*
X0143126Y0131590D02*
X0135252Y0131590D01*
X0135252Y0133166D01*
X0143126Y0133166D01*
X0143126Y0133164D02*
X0135252Y0133164D01*
X0143126Y0136590D02*
X0143126Y0138166D01*
X0143126Y0136590D02*
X0135252Y0136590D01*
X0135252Y0138166D01*
X0143126Y0138166D01*
X0143126Y0138164D02*
X0135252Y0138164D01*
X0158874Y0138166D02*
X0158874Y0136590D01*
X0151000Y0136590D01*
X0151000Y0138166D01*
X0158874Y0138166D01*
X0158874Y0138164D02*
X0151000Y0138164D01*
X0158874Y0133166D02*
X0158874Y0131590D01*
X0151000Y0131590D01*
X0151000Y0133166D01*
X0158874Y0133166D01*
X0158874Y0133164D02*
X0151000Y0133164D01*
X0158874Y0128166D02*
X0158874Y0126590D01*
X0151000Y0126590D01*
X0151000Y0128166D01*
X0158874Y0128166D01*
X0158874Y0128164D02*
X0151000Y0128164D01*
X0158874Y0123166D02*
X0158874Y0121590D01*
X0151000Y0121590D01*
X0151000Y0123166D01*
X0158874Y0123166D01*
X0158874Y0123164D02*
X0151000Y0123164D01*
X0158874Y0118166D02*
X0158874Y0116590D01*
X0151000Y0116590D01*
X0151000Y0118166D01*
X0158874Y0118166D01*
X0158874Y0118164D02*
X0151000Y0118164D01*
D14*
X0144307Y0111177D02*
X0144309Y0111282D01*
X0144315Y0111387D01*
X0144325Y0111491D01*
X0144339Y0111595D01*
X0144357Y0111699D01*
X0144379Y0111801D01*
X0144404Y0111903D01*
X0144434Y0112004D01*
X0144467Y0112103D01*
X0144504Y0112201D01*
X0144545Y0112298D01*
X0144590Y0112393D01*
X0144638Y0112486D01*
X0144689Y0112578D01*
X0144745Y0112667D01*
X0144803Y0112754D01*
X0144865Y0112839D01*
X0144929Y0112922D01*
X0144997Y0113002D01*
X0145068Y0113079D01*
X0145142Y0113153D01*
X0145219Y0113225D01*
X0145298Y0113294D01*
X0145380Y0113359D01*
X0145464Y0113422D01*
X0145551Y0113481D01*
X0145640Y0113537D01*
X0145731Y0113590D01*
X0145824Y0113639D01*
X0145918Y0113684D01*
X0146014Y0113726D01*
X0146112Y0113764D01*
X0146211Y0113798D01*
X0146312Y0113829D01*
X0146413Y0113855D01*
X0146516Y0113878D01*
X0146619Y0113897D01*
X0146723Y0113912D01*
X0146827Y0113923D01*
X0146932Y0113930D01*
X0147037Y0113933D01*
X0147142Y0113932D01*
X0147247Y0113927D01*
X0147351Y0113918D01*
X0147455Y0113905D01*
X0147559Y0113888D01*
X0147662Y0113867D01*
X0147764Y0113842D01*
X0147865Y0113814D01*
X0147964Y0113781D01*
X0148063Y0113745D01*
X0148160Y0113705D01*
X0148255Y0113662D01*
X0148349Y0113614D01*
X0148441Y0113564D01*
X0148531Y0113510D01*
X0148619Y0113452D01*
X0148704Y0113391D01*
X0148787Y0113327D01*
X0148868Y0113260D01*
X0148946Y0113190D01*
X0149021Y0113116D01*
X0149093Y0113041D01*
X0149163Y0112962D01*
X0149229Y0112881D01*
X0149293Y0112797D01*
X0149353Y0112711D01*
X0149409Y0112623D01*
X0149463Y0112532D01*
X0149513Y0112440D01*
X0149559Y0112346D01*
X0149602Y0112250D01*
X0149641Y0112152D01*
X0149676Y0112054D01*
X0149707Y0111953D01*
X0149735Y0111852D01*
X0149759Y0111750D01*
X0149779Y0111647D01*
X0149795Y0111543D01*
X0149807Y0111439D01*
X0149815Y0111334D01*
X0149819Y0111229D01*
X0149819Y0111125D01*
X0149815Y0111020D01*
X0149807Y0110915D01*
X0149795Y0110811D01*
X0149779Y0110707D01*
X0149759Y0110604D01*
X0149735Y0110502D01*
X0149707Y0110401D01*
X0149676Y0110300D01*
X0149641Y0110202D01*
X0149602Y0110104D01*
X0149559Y0110008D01*
X0149513Y0109914D01*
X0149463Y0109822D01*
X0149409Y0109731D01*
X0149353Y0109643D01*
X0149293Y0109557D01*
X0149229Y0109473D01*
X0149163Y0109392D01*
X0149093Y0109313D01*
X0149021Y0109238D01*
X0148946Y0109164D01*
X0148868Y0109094D01*
X0148787Y0109027D01*
X0148704Y0108963D01*
X0148619Y0108902D01*
X0148531Y0108844D01*
X0148441Y0108790D01*
X0148349Y0108740D01*
X0148255Y0108692D01*
X0148160Y0108649D01*
X0148063Y0108609D01*
X0147964Y0108573D01*
X0147865Y0108540D01*
X0147764Y0108512D01*
X0147662Y0108487D01*
X0147559Y0108466D01*
X0147455Y0108449D01*
X0147351Y0108436D01*
X0147247Y0108427D01*
X0147142Y0108422D01*
X0147037Y0108421D01*
X0146932Y0108424D01*
X0146827Y0108431D01*
X0146723Y0108442D01*
X0146619Y0108457D01*
X0146516Y0108476D01*
X0146413Y0108499D01*
X0146312Y0108525D01*
X0146211Y0108556D01*
X0146112Y0108590D01*
X0146014Y0108628D01*
X0145918Y0108670D01*
X0145824Y0108715D01*
X0145731Y0108764D01*
X0145640Y0108817D01*
X0145551Y0108873D01*
X0145464Y0108932D01*
X0145380Y0108995D01*
X0145298Y0109060D01*
X0145219Y0109129D01*
X0145142Y0109201D01*
X0145068Y0109275D01*
X0144997Y0109352D01*
X0144929Y0109432D01*
X0144865Y0109515D01*
X0144803Y0109600D01*
X0144745Y0109687D01*
X0144689Y0109776D01*
X0144638Y0109868D01*
X0144590Y0109961D01*
X0144545Y0110056D01*
X0144504Y0110153D01*
X0144467Y0110251D01*
X0144434Y0110350D01*
X0144404Y0110451D01*
X0144379Y0110553D01*
X0144357Y0110655D01*
X0144339Y0110759D01*
X0144325Y0110863D01*
X0144315Y0110967D01*
X0144309Y0111072D01*
X0144307Y0111177D01*
X0145094Y0143579D02*
X0145096Y0143667D01*
X0145102Y0143755D01*
X0145112Y0143843D01*
X0145126Y0143931D01*
X0145143Y0144017D01*
X0145165Y0144103D01*
X0145190Y0144187D01*
X0145220Y0144271D01*
X0145252Y0144353D01*
X0145289Y0144433D01*
X0145329Y0144512D01*
X0145373Y0144589D01*
X0145420Y0144664D01*
X0145470Y0144736D01*
X0145524Y0144807D01*
X0145580Y0144874D01*
X0145640Y0144940D01*
X0145702Y0145002D01*
X0145768Y0145062D01*
X0145835Y0145118D01*
X0145906Y0145172D01*
X0145978Y0145222D01*
X0146053Y0145269D01*
X0146130Y0145313D01*
X0146209Y0145353D01*
X0146289Y0145390D01*
X0146371Y0145422D01*
X0146455Y0145452D01*
X0146539Y0145477D01*
X0146625Y0145499D01*
X0146711Y0145516D01*
X0146799Y0145530D01*
X0146887Y0145540D01*
X0146975Y0145546D01*
X0147063Y0145548D01*
X0147151Y0145546D01*
X0147239Y0145540D01*
X0147327Y0145530D01*
X0147415Y0145516D01*
X0147501Y0145499D01*
X0147587Y0145477D01*
X0147671Y0145452D01*
X0147755Y0145422D01*
X0147837Y0145390D01*
X0147917Y0145353D01*
X0147996Y0145313D01*
X0148073Y0145269D01*
X0148148Y0145222D01*
X0148220Y0145172D01*
X0148291Y0145118D01*
X0148358Y0145062D01*
X0148424Y0145002D01*
X0148486Y0144940D01*
X0148546Y0144874D01*
X0148602Y0144807D01*
X0148656Y0144736D01*
X0148706Y0144664D01*
X0148753Y0144589D01*
X0148797Y0144512D01*
X0148837Y0144433D01*
X0148874Y0144353D01*
X0148906Y0144271D01*
X0148936Y0144187D01*
X0148961Y0144103D01*
X0148983Y0144017D01*
X0149000Y0143931D01*
X0149014Y0143843D01*
X0149024Y0143755D01*
X0149030Y0143667D01*
X0149032Y0143579D01*
X0149030Y0143491D01*
X0149024Y0143403D01*
X0149014Y0143315D01*
X0149000Y0143227D01*
X0148983Y0143141D01*
X0148961Y0143055D01*
X0148936Y0142971D01*
X0148906Y0142887D01*
X0148874Y0142805D01*
X0148837Y0142725D01*
X0148797Y0142646D01*
X0148753Y0142569D01*
X0148706Y0142494D01*
X0148656Y0142422D01*
X0148602Y0142351D01*
X0148546Y0142284D01*
X0148486Y0142218D01*
X0148424Y0142156D01*
X0148358Y0142096D01*
X0148291Y0142040D01*
X0148220Y0141986D01*
X0148148Y0141936D01*
X0148073Y0141889D01*
X0147996Y0141845D01*
X0147917Y0141805D01*
X0147837Y0141768D01*
X0147755Y0141736D01*
X0147671Y0141706D01*
X0147587Y0141681D01*
X0147501Y0141659D01*
X0147415Y0141642D01*
X0147327Y0141628D01*
X0147239Y0141618D01*
X0147151Y0141612D01*
X0147063Y0141610D01*
X0146975Y0141612D01*
X0146887Y0141618D01*
X0146799Y0141628D01*
X0146711Y0141642D01*
X0146625Y0141659D01*
X0146539Y0141681D01*
X0146455Y0141706D01*
X0146371Y0141736D01*
X0146289Y0141768D01*
X0146209Y0141805D01*
X0146130Y0141845D01*
X0146053Y0141889D01*
X0145978Y0141936D01*
X0145906Y0141986D01*
X0145835Y0142040D01*
X0145768Y0142096D01*
X0145702Y0142156D01*
X0145640Y0142218D01*
X0145580Y0142284D01*
X0145524Y0142351D01*
X0145470Y0142422D01*
X0145420Y0142494D01*
X0145373Y0142569D01*
X0145329Y0142646D01*
X0145289Y0142725D01*
X0145252Y0142805D01*
X0145220Y0142887D01*
X0145190Y0142971D01*
X0145165Y0143055D01*
X0145143Y0143141D01*
X0145126Y0143227D01*
X0145112Y0143315D01*
X0145102Y0143403D01*
X0145096Y0143491D01*
X0145094Y0143579D01*
X0104937Y0143579D02*
X0104939Y0143684D01*
X0104945Y0143789D01*
X0104955Y0143893D01*
X0104969Y0143997D01*
X0104987Y0144101D01*
X0105009Y0144203D01*
X0105034Y0144305D01*
X0105064Y0144406D01*
X0105097Y0144505D01*
X0105134Y0144603D01*
X0105175Y0144700D01*
X0105220Y0144795D01*
X0105268Y0144888D01*
X0105319Y0144980D01*
X0105375Y0145069D01*
X0105433Y0145156D01*
X0105495Y0145241D01*
X0105559Y0145324D01*
X0105627Y0145404D01*
X0105698Y0145481D01*
X0105772Y0145555D01*
X0105849Y0145627D01*
X0105928Y0145696D01*
X0106010Y0145761D01*
X0106094Y0145824D01*
X0106181Y0145883D01*
X0106270Y0145939D01*
X0106361Y0145992D01*
X0106454Y0146041D01*
X0106548Y0146086D01*
X0106644Y0146128D01*
X0106742Y0146166D01*
X0106841Y0146200D01*
X0106942Y0146231D01*
X0107043Y0146257D01*
X0107146Y0146280D01*
X0107249Y0146299D01*
X0107353Y0146314D01*
X0107457Y0146325D01*
X0107562Y0146332D01*
X0107667Y0146335D01*
X0107772Y0146334D01*
X0107877Y0146329D01*
X0107981Y0146320D01*
X0108085Y0146307D01*
X0108189Y0146290D01*
X0108292Y0146269D01*
X0108394Y0146244D01*
X0108495Y0146216D01*
X0108594Y0146183D01*
X0108693Y0146147D01*
X0108790Y0146107D01*
X0108885Y0146064D01*
X0108979Y0146016D01*
X0109071Y0145966D01*
X0109161Y0145912D01*
X0109249Y0145854D01*
X0109334Y0145793D01*
X0109417Y0145729D01*
X0109498Y0145662D01*
X0109576Y0145592D01*
X0109651Y0145518D01*
X0109723Y0145443D01*
X0109793Y0145364D01*
X0109859Y0145283D01*
X0109923Y0145199D01*
X0109983Y0145113D01*
X0110039Y0145025D01*
X0110093Y0144934D01*
X0110143Y0144842D01*
X0110189Y0144748D01*
X0110232Y0144652D01*
X0110271Y0144554D01*
X0110306Y0144456D01*
X0110337Y0144355D01*
X0110365Y0144254D01*
X0110389Y0144152D01*
X0110409Y0144049D01*
X0110425Y0143945D01*
X0110437Y0143841D01*
X0110445Y0143736D01*
X0110449Y0143631D01*
X0110449Y0143527D01*
X0110445Y0143422D01*
X0110437Y0143317D01*
X0110425Y0143213D01*
X0110409Y0143109D01*
X0110389Y0143006D01*
X0110365Y0142904D01*
X0110337Y0142803D01*
X0110306Y0142702D01*
X0110271Y0142604D01*
X0110232Y0142506D01*
X0110189Y0142410D01*
X0110143Y0142316D01*
X0110093Y0142224D01*
X0110039Y0142133D01*
X0109983Y0142045D01*
X0109923Y0141959D01*
X0109859Y0141875D01*
X0109793Y0141794D01*
X0109723Y0141715D01*
X0109651Y0141640D01*
X0109576Y0141566D01*
X0109498Y0141496D01*
X0109417Y0141429D01*
X0109334Y0141365D01*
X0109249Y0141304D01*
X0109161Y0141246D01*
X0109071Y0141192D01*
X0108979Y0141142D01*
X0108885Y0141094D01*
X0108790Y0141051D01*
X0108693Y0141011D01*
X0108594Y0140975D01*
X0108495Y0140942D01*
X0108394Y0140914D01*
X0108292Y0140889D01*
X0108189Y0140868D01*
X0108085Y0140851D01*
X0107981Y0140838D01*
X0107877Y0140829D01*
X0107772Y0140824D01*
X0107667Y0140823D01*
X0107562Y0140826D01*
X0107457Y0140833D01*
X0107353Y0140844D01*
X0107249Y0140859D01*
X0107146Y0140878D01*
X0107043Y0140901D01*
X0106942Y0140927D01*
X0106841Y0140958D01*
X0106742Y0140992D01*
X0106644Y0141030D01*
X0106548Y0141072D01*
X0106454Y0141117D01*
X0106361Y0141166D01*
X0106270Y0141219D01*
X0106181Y0141275D01*
X0106094Y0141334D01*
X0106010Y0141397D01*
X0105928Y0141462D01*
X0105849Y0141531D01*
X0105772Y0141603D01*
X0105698Y0141677D01*
X0105627Y0141754D01*
X0105559Y0141834D01*
X0105495Y0141917D01*
X0105433Y0142002D01*
X0105375Y0142089D01*
X0105319Y0142178D01*
X0105268Y0142270D01*
X0105220Y0142363D01*
X0105175Y0142458D01*
X0105134Y0142555D01*
X0105097Y0142653D01*
X0105064Y0142752D01*
X0105034Y0142853D01*
X0105009Y0142955D01*
X0104987Y0143057D01*
X0104969Y0143161D01*
X0104955Y0143265D01*
X0104945Y0143369D01*
X0104939Y0143474D01*
X0104937Y0143579D01*
X0105724Y0111177D02*
X0105726Y0111265D01*
X0105732Y0111353D01*
X0105742Y0111441D01*
X0105756Y0111529D01*
X0105773Y0111615D01*
X0105795Y0111701D01*
X0105820Y0111785D01*
X0105850Y0111869D01*
X0105882Y0111951D01*
X0105919Y0112031D01*
X0105959Y0112110D01*
X0106003Y0112187D01*
X0106050Y0112262D01*
X0106100Y0112334D01*
X0106154Y0112405D01*
X0106210Y0112472D01*
X0106270Y0112538D01*
X0106332Y0112600D01*
X0106398Y0112660D01*
X0106465Y0112716D01*
X0106536Y0112770D01*
X0106608Y0112820D01*
X0106683Y0112867D01*
X0106760Y0112911D01*
X0106839Y0112951D01*
X0106919Y0112988D01*
X0107001Y0113020D01*
X0107085Y0113050D01*
X0107169Y0113075D01*
X0107255Y0113097D01*
X0107341Y0113114D01*
X0107429Y0113128D01*
X0107517Y0113138D01*
X0107605Y0113144D01*
X0107693Y0113146D01*
X0107781Y0113144D01*
X0107869Y0113138D01*
X0107957Y0113128D01*
X0108045Y0113114D01*
X0108131Y0113097D01*
X0108217Y0113075D01*
X0108301Y0113050D01*
X0108385Y0113020D01*
X0108467Y0112988D01*
X0108547Y0112951D01*
X0108626Y0112911D01*
X0108703Y0112867D01*
X0108778Y0112820D01*
X0108850Y0112770D01*
X0108921Y0112716D01*
X0108988Y0112660D01*
X0109054Y0112600D01*
X0109116Y0112538D01*
X0109176Y0112472D01*
X0109232Y0112405D01*
X0109286Y0112334D01*
X0109336Y0112262D01*
X0109383Y0112187D01*
X0109427Y0112110D01*
X0109467Y0112031D01*
X0109504Y0111951D01*
X0109536Y0111869D01*
X0109566Y0111785D01*
X0109591Y0111701D01*
X0109613Y0111615D01*
X0109630Y0111529D01*
X0109644Y0111441D01*
X0109654Y0111353D01*
X0109660Y0111265D01*
X0109662Y0111177D01*
X0109660Y0111089D01*
X0109654Y0111001D01*
X0109644Y0110913D01*
X0109630Y0110825D01*
X0109613Y0110739D01*
X0109591Y0110653D01*
X0109566Y0110569D01*
X0109536Y0110485D01*
X0109504Y0110403D01*
X0109467Y0110323D01*
X0109427Y0110244D01*
X0109383Y0110167D01*
X0109336Y0110092D01*
X0109286Y0110020D01*
X0109232Y0109949D01*
X0109176Y0109882D01*
X0109116Y0109816D01*
X0109054Y0109754D01*
X0108988Y0109694D01*
X0108921Y0109638D01*
X0108850Y0109584D01*
X0108778Y0109534D01*
X0108703Y0109487D01*
X0108626Y0109443D01*
X0108547Y0109403D01*
X0108467Y0109366D01*
X0108385Y0109334D01*
X0108301Y0109304D01*
X0108217Y0109279D01*
X0108131Y0109257D01*
X0108045Y0109240D01*
X0107957Y0109226D01*
X0107869Y0109216D01*
X0107781Y0109210D01*
X0107693Y0109208D01*
X0107605Y0109210D01*
X0107517Y0109216D01*
X0107429Y0109226D01*
X0107341Y0109240D01*
X0107255Y0109257D01*
X0107169Y0109279D01*
X0107085Y0109304D01*
X0107001Y0109334D01*
X0106919Y0109366D01*
X0106839Y0109403D01*
X0106760Y0109443D01*
X0106683Y0109487D01*
X0106608Y0109534D01*
X0106536Y0109584D01*
X0106465Y0109638D01*
X0106398Y0109694D01*
X0106332Y0109754D01*
X0106270Y0109816D01*
X0106210Y0109882D01*
X0106154Y0109949D01*
X0106100Y0110020D01*
X0106050Y0110092D01*
X0106003Y0110167D01*
X0105959Y0110244D01*
X0105919Y0110323D01*
X0105882Y0110403D01*
X0105850Y0110485D01*
X0105820Y0110569D01*
X0105795Y0110653D01*
X0105773Y0110739D01*
X0105756Y0110825D01*
X0105742Y0110913D01*
X0105732Y0111001D01*
X0105726Y0111089D01*
X0105724Y0111177D01*
D15*
X0047717Y0039118D02*
X0040759Y0039118D01*
X0039994Y0039903D02*
X0046010Y0039903D01*
X0047072Y0039290D02*
X0050698Y0038319D01*
X0054452Y0038319D01*
X0058077Y0039290D01*
X0061328Y0041167D01*
X0063982Y0043821D01*
X0065859Y0047072D01*
X0066831Y0050698D01*
X0066831Y0054452D01*
X0065859Y0058077D01*
X0065253Y0059128D01*
X0092183Y0086058D01*
X0094957Y0083811D01*
X0095054Y0083671D01*
X0095441Y0083420D01*
X0095799Y0083130D01*
X0095962Y0083081D01*
X0099689Y0080661D01*
X0099799Y0080532D01*
X0100210Y0080322D01*
X0100597Y0080071D01*
X0100764Y0080040D01*
X0104724Y0078023D01*
X0104847Y0077906D01*
X0105278Y0077740D01*
X0105689Y0077531D01*
X0105858Y0077518D01*
X0109661Y0076058D01*
X0109661Y0059587D01*
X0110321Y0057996D01*
X0111539Y0056777D01*
X0111827Y0056490D01*
X0111827Y0055376D01*
X0112696Y0053278D01*
X0114302Y0051672D01*
X0116400Y0050803D01*
X0118671Y0050803D01*
X0120769Y0051672D01*
X0122375Y0053278D01*
X0122883Y0054504D01*
X0123206Y0053724D01*
X0124590Y0052340D01*
X0126399Y0051591D01*
X0128357Y0051591D01*
X0130166Y0052340D01*
X0131550Y0053724D01*
X0131873Y0054504D01*
X0132381Y0053278D01*
X0133987Y0051672D01*
X0136085Y0050803D01*
X0138356Y0050803D01*
X0140454Y0051672D01*
X0142060Y0053278D01*
X0142929Y0055376D01*
X0142929Y0057647D01*
X0142060Y0059745D01*
X0140454Y0061351D01*
X0138356Y0062220D01*
X0136085Y0062220D01*
X0133987Y0061351D01*
X0132381Y0059745D01*
X0131873Y0058519D01*
X0131550Y0059299D01*
X0130166Y0060684D01*
X0129386Y0061007D01*
X0130612Y0061515D01*
X0132218Y0063121D01*
X0133087Y0065219D01*
X0133087Y0067490D01*
X0132218Y0069588D01*
X0130612Y0071194D01*
X0128513Y0072063D01*
X0126242Y0072063D01*
X0124144Y0071194D01*
X0122538Y0069588D01*
X0121669Y0067490D01*
X0121669Y0065219D01*
X0122538Y0063121D01*
X0124144Y0061515D01*
X0125370Y0061007D01*
X0124590Y0060684D01*
X0123206Y0059299D01*
X0122883Y0058519D01*
X0122375Y0059745D01*
X0120769Y0061351D01*
X0118671Y0062220D01*
X0118345Y0062220D01*
X0118323Y0062243D01*
X0118323Y0073875D01*
X0121084Y0073438D01*
X0121238Y0073365D01*
X0121698Y0073341D01*
X0122154Y0073268D01*
X0122319Y0073308D01*
X0126757Y0073075D01*
X0126917Y0073019D01*
X0127378Y0073043D01*
X0127839Y0073019D01*
X0127999Y0073075D01*
X0132437Y0073308D01*
X0132602Y0073268D01*
X0133058Y0073341D01*
X0133518Y0073365D01*
X0133672Y0073438D01*
X0138061Y0074133D01*
X0138229Y0074111D01*
X0138675Y0074230D01*
X0139131Y0074302D01*
X0139275Y0074391D01*
X0143568Y0075541D01*
X0143738Y0075537D01*
X0144168Y0075702D01*
X0144614Y0075822D01*
X0144749Y0075925D01*
X0148898Y0077518D01*
X0149067Y0077531D01*
X0149478Y0077740D01*
X0149909Y0077906D01*
X0150032Y0078023D01*
X0153991Y0080040D01*
X0154158Y0080071D01*
X0154546Y0080322D01*
X0154957Y0080532D01*
X0155067Y0080661D01*
X0158794Y0083081D01*
X0158957Y0083130D01*
X0159315Y0083420D01*
X0159702Y0083671D01*
X0159798Y0083811D01*
X0162573Y0086058D01*
X0189503Y0059128D01*
X0188897Y0058077D01*
X0187925Y0054452D01*
X0187925Y0050698D01*
X0188897Y0047072D01*
X0190774Y0043821D01*
X0193428Y0041167D01*
X0196679Y0039290D01*
X0200304Y0038319D01*
X0204058Y0038319D01*
X0207684Y0039290D01*
X0210934Y0041167D01*
X0213589Y0043821D01*
X0215465Y0047072D01*
X0216437Y0050698D01*
X0216437Y0054452D01*
X0215465Y0058077D01*
X0213589Y0061328D01*
X0210934Y0063982D01*
X0207684Y0065859D01*
X0204058Y0066831D01*
X0200304Y0066831D01*
X0196679Y0065859D01*
X0195628Y0065253D01*
X0168698Y0092183D01*
X0170945Y0094957D01*
X0171085Y0095054D01*
X0171336Y0095441D01*
X0171626Y0095799D01*
X0171675Y0095962D01*
X0174095Y0099689D01*
X0174224Y0099799D01*
X0174433Y0100210D01*
X0174685Y0100597D01*
X0174716Y0100764D01*
X0176733Y0104724D01*
X0176850Y0104847D01*
X0177015Y0105278D01*
X0177225Y0105689D01*
X0177238Y0105858D01*
X0178831Y0110007D01*
X0178934Y0110142D01*
X0179054Y0110588D01*
X0179219Y0111018D01*
X0179215Y0111188D01*
X0180365Y0115481D01*
X0180453Y0115625D01*
X0180526Y0116081D01*
X0180645Y0116527D01*
X0180623Y0116695D01*
X0181318Y0121084D01*
X0181391Y0121238D01*
X0181415Y0121698D01*
X0181487Y0122154D01*
X0181448Y0122319D01*
X0181680Y0126757D01*
X0181737Y0126917D01*
X0181713Y0127378D01*
X0181737Y0127839D01*
X0181680Y0127999D01*
X0181448Y0132437D01*
X0181487Y0132602D01*
X0181442Y0132890D01*
X0186791Y0132890D01*
X0185168Y0132218D01*
X0183562Y0130612D01*
X0182693Y0128513D01*
X0182693Y0126242D01*
X0183562Y0124144D01*
X0185168Y0122538D01*
X0187266Y0121669D01*
X0189537Y0121669D01*
X0191635Y0122538D01*
X0193241Y0124144D01*
X0193749Y0125370D01*
X0194072Y0124590D01*
X0195456Y0123206D01*
X0196236Y0122883D01*
X0195010Y0122375D01*
X0193405Y0120769D01*
X0192535Y0118671D01*
X0192535Y0116400D01*
X0193405Y0114302D01*
X0195010Y0112696D01*
X0197109Y0111827D01*
X0199380Y0111827D01*
X0201478Y0112696D01*
X0203084Y0114302D01*
X0203953Y0116400D01*
X0203953Y0118671D01*
X0203084Y0120769D01*
X0201478Y0122375D01*
X0200252Y0122883D01*
X0201032Y0123206D01*
X0202416Y0124590D01*
X0203165Y0126399D01*
X0203165Y0128357D01*
X0202416Y0130166D01*
X0201032Y0131550D01*
X0200252Y0131873D01*
X0201478Y0132381D01*
X0203084Y0133987D01*
X0203953Y0136085D01*
X0203953Y0138356D01*
X0203084Y0140454D01*
X0201478Y0142060D01*
X0199380Y0142929D01*
X0197109Y0142929D01*
X0195010Y0142060D01*
X0194502Y0141551D01*
X0179755Y0141551D01*
X0179215Y0143568D01*
X0179219Y0143738D01*
X0179054Y0144168D01*
X0178934Y0144614D01*
X0178831Y0144749D01*
X0177238Y0148898D01*
X0177225Y0149067D01*
X0177015Y0149478D01*
X0176850Y0149909D01*
X0176733Y0150032D01*
X0174716Y0153991D01*
X0174685Y0154158D01*
X0174433Y0154546D01*
X0174224Y0154957D01*
X0174095Y0155067D01*
X0171675Y0158794D01*
X0171626Y0158957D01*
X0171336Y0159315D01*
X0171085Y0159702D01*
X0170945Y0159798D01*
X0168698Y0162573D01*
X0195628Y0189503D01*
X0196679Y0188897D01*
X0200304Y0187925D01*
X0204058Y0187925D01*
X0207684Y0188897D01*
X0210934Y0190774D01*
X0213589Y0193428D01*
X0215465Y0196679D01*
X0216437Y0200304D01*
X0216437Y0204058D01*
X0215465Y0207684D01*
X0213589Y0210934D01*
X0210934Y0213589D01*
X0207684Y0215465D01*
X0204058Y0216437D01*
X0200304Y0216437D01*
X0196679Y0215465D01*
X0193428Y0213589D01*
X0190774Y0210934D01*
X0188897Y0207684D01*
X0187925Y0204058D01*
X0187925Y0200304D01*
X0188897Y0196679D01*
X0189503Y0195628D01*
X0162573Y0168698D01*
X0159798Y0170945D01*
X0159702Y0171085D01*
X0159315Y0171336D01*
X0158957Y0171626D01*
X0158794Y0171675D01*
X0155067Y0174095D01*
X0154957Y0174224D01*
X0154546Y0174433D01*
X0154158Y0174685D01*
X0153991Y0174716D01*
X0150032Y0176733D01*
X0149909Y0176850D01*
X0149478Y0177015D01*
X0149067Y0177225D01*
X0148898Y0177238D01*
X0144749Y0178831D01*
X0144614Y0178934D01*
X0144168Y0179054D01*
X0143738Y0179219D01*
X0143568Y0179215D01*
X0139275Y0180365D01*
X0139131Y0180453D01*
X0138675Y0180526D01*
X0138229Y0180645D01*
X0138061Y0180623D01*
X0133672Y0181318D01*
X0133518Y0181391D01*
X0133058Y0181415D01*
X0132602Y0181487D01*
X0132437Y0181448D01*
X0127999Y0181680D01*
X0127839Y0181737D01*
X0127378Y0181713D01*
X0126917Y0181737D01*
X0126757Y0181680D01*
X0122319Y0181448D01*
X0122154Y0181487D01*
X0121698Y0181415D01*
X0121238Y0181391D01*
X0121084Y0181318D01*
X0116695Y0180623D01*
X0116527Y0180645D01*
X0116081Y0180526D01*
X0115625Y0180453D01*
X0115481Y0180365D01*
X0111188Y0179215D01*
X0111018Y0179219D01*
X0110588Y0179054D01*
X0110142Y0178934D01*
X0110007Y0178831D01*
X0105858Y0177238D01*
X0105689Y0177225D01*
X0105278Y0177015D01*
X0104847Y0176850D01*
X0104724Y0176733D01*
X0100764Y0174716D01*
X0100597Y0174685D01*
X0100210Y0174433D01*
X0099799Y0174224D01*
X0099689Y0174095D01*
X0095962Y0171675D01*
X0095799Y0171626D01*
X0095441Y0171336D01*
X0095054Y0171085D01*
X0094957Y0170945D01*
X0092183Y0168698D01*
X0065253Y0195628D01*
X0065859Y0196679D01*
X0066831Y0200304D01*
X0066831Y0204058D01*
X0065859Y0207684D01*
X0063982Y0210934D01*
X0061328Y0213589D01*
X0058077Y0215465D01*
X0054452Y0216437D01*
X0050698Y0216437D01*
X0047072Y0215465D01*
X0043821Y0213589D01*
X0041167Y0210934D01*
X0039290Y0207684D01*
X0038319Y0204058D01*
X0038319Y0200304D01*
X0039290Y0196679D01*
X0041167Y0193428D01*
X0043821Y0190774D01*
X0047072Y0188897D01*
X0050698Y0187925D01*
X0054452Y0187925D01*
X0058077Y0188897D01*
X0059128Y0189503D01*
X0086058Y0162573D01*
X0083811Y0159798D01*
X0083671Y0159702D01*
X0083420Y0159315D01*
X0083130Y0158957D01*
X0083081Y0158794D01*
X0080661Y0155067D01*
X0080532Y0154957D01*
X0080322Y0154546D01*
X0080071Y0154158D01*
X0080040Y0153991D01*
X0078023Y0150032D01*
X0077906Y0149909D01*
X0077740Y0149478D01*
X0077531Y0149067D01*
X0077518Y0148898D01*
X0075925Y0144749D01*
X0075822Y0144614D01*
X0075702Y0144168D01*
X0075537Y0143738D01*
X0075541Y0143568D01*
X0074391Y0139275D01*
X0074302Y0139131D01*
X0074230Y0138675D01*
X0074111Y0138229D01*
X0074133Y0138061D01*
X0073438Y0133672D01*
X0073365Y0133518D01*
X0073341Y0133058D01*
X0073268Y0132602D01*
X0073308Y0132437D01*
X0073075Y0127999D01*
X0073019Y0127839D01*
X0073043Y0127378D01*
X0073019Y0126917D01*
X0073075Y0126757D01*
X0073308Y0122319D01*
X0073268Y0122154D01*
X0073341Y0121698D01*
X0073365Y0121238D01*
X0073438Y0121084D01*
X0074133Y0116695D01*
X0074111Y0116527D01*
X0074230Y0116081D01*
X0074302Y0115625D01*
X0074391Y0115481D01*
X0075541Y0111188D01*
X0075537Y0111018D01*
X0075702Y0110588D01*
X0075822Y0110142D01*
X0075925Y0110007D01*
X0077518Y0105858D01*
X0077531Y0105689D01*
X0077740Y0105278D01*
X0077906Y0104847D01*
X0078023Y0104724D01*
X0080040Y0100764D01*
X0080071Y0100597D01*
X0080322Y0100210D01*
X0080532Y0099799D01*
X0080661Y0099689D01*
X0083081Y0095962D01*
X0083130Y0095799D01*
X0083420Y0095441D01*
X0083671Y0095054D01*
X0083811Y0094957D01*
X0086058Y0092183D01*
X0059128Y0065253D01*
X0058077Y0065859D01*
X0054452Y0066831D01*
X0050698Y0066831D01*
X0047072Y0065859D01*
X0043821Y0063982D01*
X0041167Y0061328D01*
X0039290Y0058077D01*
X0038319Y0054452D01*
X0038319Y0050698D01*
X0039290Y0047072D01*
X0041167Y0043821D01*
X0043821Y0041167D01*
X0047072Y0039290D01*
X0044649Y0040689D02*
X0039230Y0040689D01*
X0038465Y0041475D02*
X0043513Y0041475D01*
X0042728Y0042261D02*
X0037701Y0042261D01*
X0036936Y0043047D02*
X0041942Y0043047D01*
X0041161Y0043833D02*
X0036171Y0043833D01*
X0035407Y0044619D02*
X0040707Y0044619D01*
X0040253Y0045405D02*
X0034642Y0045405D01*
X0034005Y0046060D02*
X0025626Y0056825D01*
X0018482Y0068447D01*
X0012660Y0080784D01*
X0008231Y0093686D01*
X0005248Y0106998D01*
X0003747Y0120557D01*
X0003747Y0134199D01*
X0005248Y0147758D01*
X0008231Y0161070D01*
X0012660Y0173972D01*
X0018482Y0186309D01*
X0025626Y0197931D01*
X0034005Y0208696D01*
X0043518Y0218474D01*
X0054048Y0227147D01*
X0065468Y0234608D01*
X0077640Y0240768D01*
X0090416Y0245551D01*
X0103641Y0248900D01*
X0117153Y0250774D01*
X0130790Y0251150D01*
X0144385Y0250023D01*
X0157774Y0247408D01*
X0170794Y0243336D01*
X0183286Y0237856D01*
X0195100Y0231035D01*
X0206093Y0222956D01*
X0216129Y0213716D01*
X0225088Y0203429D01*
X0232862Y0192219D01*
X0239354Y0180221D01*
X0244488Y0167582D01*
X0248200Y0154455D01*
X0250445Y0140999D01*
X0251197Y0127378D01*
X0250445Y0113757D01*
X0248200Y0100301D01*
X0244488Y0087174D01*
X0239354Y0074535D01*
X0232862Y0062537D01*
X0225088Y0051327D01*
X0216129Y0041039D01*
X0206093Y0031800D01*
X0195100Y0023721D01*
X0183286Y0016900D01*
X0170794Y0011420D01*
X0157774Y0007348D01*
X0144385Y0004733D01*
X0130790Y0003606D01*
X0117153Y0003982D01*
X0103641Y0005856D01*
X0090416Y0009205D01*
X0077640Y0013988D01*
X0065468Y0020148D01*
X0054048Y0027609D01*
X0043518Y0036281D01*
X0034005Y0046060D01*
X0033903Y0046191D02*
X0039799Y0046191D01*
X0039346Y0046977D02*
X0033292Y0046977D01*
X0032680Y0047763D02*
X0039105Y0047763D01*
X0038895Y0048548D02*
X0032068Y0048548D01*
X0031456Y0049334D02*
X0038684Y0049334D01*
X0038474Y0050120D02*
X0030845Y0050120D01*
X0030233Y0050906D02*
X0038319Y0050906D01*
X0038319Y0051692D02*
X0029621Y0051692D01*
X0029010Y0052478D02*
X0038319Y0052478D01*
X0038319Y0053264D02*
X0028398Y0053264D01*
X0027786Y0054050D02*
X0038319Y0054050D01*
X0038422Y0054836D02*
X0027175Y0054836D01*
X0026563Y0055622D02*
X0038632Y0055622D01*
X0038843Y0056408D02*
X0025951Y0056408D01*
X0025400Y0057194D02*
X0039054Y0057194D01*
X0039264Y0057979D02*
X0024917Y0057979D01*
X0024434Y0058765D02*
X0039688Y0058765D01*
X0040141Y0059551D02*
X0023950Y0059551D01*
X0023467Y0060337D02*
X0040595Y0060337D01*
X0041049Y0061123D02*
X0022984Y0061123D01*
X0022501Y0061909D02*
X0041748Y0061909D01*
X0042534Y0062695D02*
X0022018Y0062695D01*
X0021535Y0063481D02*
X0043320Y0063481D01*
X0044314Y0064267D02*
X0021052Y0064267D01*
X0020569Y0065053D02*
X0045675Y0065053D01*
X0047037Y0065839D02*
X0020086Y0065839D01*
X0019603Y0066624D02*
X0049928Y0066624D01*
X0055221Y0066624D02*
X0060500Y0066624D01*
X0059714Y0065839D02*
X0058113Y0065839D01*
X0061286Y0067410D02*
X0019119Y0067410D01*
X0018636Y0068196D02*
X0062072Y0068196D01*
X0062858Y0068982D02*
X0018230Y0068982D01*
X0017859Y0069768D02*
X0063644Y0069768D01*
X0064430Y0070554D02*
X0017488Y0070554D01*
X0017117Y0071340D02*
X0065215Y0071340D01*
X0066001Y0072126D02*
X0016746Y0072126D01*
X0016375Y0072912D02*
X0066787Y0072912D01*
X0067573Y0073698D02*
X0016004Y0073698D01*
X0015634Y0074484D02*
X0068359Y0074484D01*
X0069145Y0075270D02*
X0015263Y0075270D01*
X0014892Y0076055D02*
X0069931Y0076055D01*
X0070717Y0076841D02*
X0014521Y0076841D01*
X0014150Y0077627D02*
X0071503Y0077627D01*
X0072289Y0078413D02*
X0013779Y0078413D01*
X0013408Y0079199D02*
X0073075Y0079199D01*
X0073860Y0079985D02*
X0013037Y0079985D01*
X0012667Y0080771D02*
X0074646Y0080771D01*
X0075432Y0081557D02*
X0012395Y0081557D01*
X0012125Y0082343D02*
X0076218Y0082343D01*
X0077004Y0083129D02*
X0011855Y0083129D01*
X0011586Y0083915D02*
X0077790Y0083915D01*
X0078576Y0084700D02*
X0011316Y0084700D01*
X0011046Y0085486D02*
X0079362Y0085486D01*
X0080148Y0086272D02*
X0010776Y0086272D01*
X0010506Y0087058D02*
X0080934Y0087058D01*
X0081720Y0087844D02*
X0010237Y0087844D01*
X0009967Y0088630D02*
X0082505Y0088630D01*
X0083291Y0089416D02*
X0009697Y0089416D01*
X0009427Y0090202D02*
X0084077Y0090202D01*
X0084863Y0090988D02*
X0009157Y0090988D01*
X0008888Y0091774D02*
X0085649Y0091774D01*
X0085753Y0092560D02*
X0008618Y0092560D01*
X0008348Y0093346D02*
X0085117Y0093346D01*
X0084480Y0094131D02*
X0008131Y0094131D01*
X0007955Y0094917D02*
X0083844Y0094917D01*
X0083207Y0095703D02*
X0007779Y0095703D01*
X0007603Y0096489D02*
X0082739Y0096489D01*
X0082229Y0097275D02*
X0007427Y0097275D01*
X0007251Y0098061D02*
X0081718Y0098061D01*
X0081208Y0098847D02*
X0007074Y0098847D01*
X0006898Y0099633D02*
X0080698Y0099633D01*
X0080187Y0100419D02*
X0006722Y0100419D01*
X0006546Y0101205D02*
X0079816Y0101205D01*
X0079415Y0101991D02*
X0006370Y0101991D01*
X0006194Y0102776D02*
X0079015Y0102776D01*
X0078615Y0103562D02*
X0006018Y0103562D01*
X0005842Y0104348D02*
X0078214Y0104348D01*
X0077796Y0105134D02*
X0005665Y0105134D01*
X0005489Y0105920D02*
X0077494Y0105920D01*
X0077192Y0106706D02*
X0005313Y0106706D01*
X0005193Y0107492D02*
X0076891Y0107492D01*
X0076589Y0108278D02*
X0005106Y0108278D01*
X0005019Y0109064D02*
X0076287Y0109064D01*
X0075985Y0109850D02*
X0004932Y0109850D01*
X0004845Y0110636D02*
X0075684Y0110636D01*
X0075479Y0111422D02*
X0004758Y0111422D01*
X0004671Y0112207D02*
X0075268Y0112207D01*
X0075058Y0112993D02*
X0004584Y0112993D01*
X0004497Y0113779D02*
X0074847Y0113779D01*
X0074636Y0114565D02*
X0004410Y0114565D01*
X0004323Y0115351D02*
X0074426Y0115351D01*
X0074215Y0116137D02*
X0004236Y0116137D01*
X0004149Y0116923D02*
X0074097Y0116923D01*
X0073972Y0117709D02*
X0004062Y0117709D01*
X0003975Y0118495D02*
X0073848Y0118495D01*
X0073724Y0119281D02*
X0003888Y0119281D01*
X0003801Y0120067D02*
X0073599Y0120067D01*
X0073475Y0120852D02*
X0003747Y0120852D01*
X0003747Y0121638D02*
X0073344Y0121638D01*
X0073303Y0122424D02*
X0003747Y0122424D01*
X0003747Y0123210D02*
X0073261Y0123210D01*
X0073220Y0123996D02*
X0003747Y0123996D01*
X0003747Y0124782D02*
X0073179Y0124782D01*
X0073138Y0125568D02*
X0003747Y0125568D01*
X0003747Y0126354D02*
X0073097Y0126354D01*
X0073030Y0127140D02*
X0003747Y0127140D01*
X0003747Y0127926D02*
X0073050Y0127926D01*
X0073113Y0128712D02*
X0003747Y0128712D01*
X0003747Y0129498D02*
X0073154Y0129498D01*
X0073195Y0130283D02*
X0003747Y0130283D01*
X0003747Y0131069D02*
X0073236Y0131069D01*
X0073278Y0131855D02*
X0003747Y0131855D01*
X0003747Y0132641D02*
X0073275Y0132641D01*
X0073360Y0133427D02*
X0003747Y0133427D01*
X0003749Y0134213D02*
X0073524Y0134213D01*
X0073648Y0134999D02*
X0003836Y0134999D01*
X0003923Y0135785D02*
X0073773Y0135785D01*
X0073897Y0136571D02*
X0004010Y0136571D01*
X0004097Y0137357D02*
X0074022Y0137357D01*
X0074122Y0138143D02*
X0004184Y0138143D01*
X0004271Y0138928D02*
X0074270Y0138928D01*
X0074509Y0139714D02*
X0004358Y0139714D01*
X0004445Y0140500D02*
X0074719Y0140500D01*
X0074930Y0141286D02*
X0004531Y0141286D01*
X0004618Y0142072D02*
X0075141Y0142072D01*
X0075351Y0142858D02*
X0004705Y0142858D01*
X0004792Y0143644D02*
X0075539Y0143644D01*
X0075772Y0144430D02*
X0004879Y0144430D01*
X0004966Y0145216D02*
X0076104Y0145216D01*
X0076406Y0146002D02*
X0005053Y0146002D01*
X0005140Y0146788D02*
X0076708Y0146788D01*
X0077009Y0147573D02*
X0005227Y0147573D01*
X0005383Y0148359D02*
X0077311Y0148359D01*
X0077571Y0149145D02*
X0005559Y0149145D01*
X0005735Y0149931D02*
X0077927Y0149931D01*
X0078372Y0150717D02*
X0005911Y0150717D01*
X0006087Y0151503D02*
X0078772Y0151503D01*
X0079173Y0152289D02*
X0006263Y0152289D01*
X0006439Y0153075D02*
X0079573Y0153075D01*
X0079974Y0153861D02*
X0006615Y0153861D01*
X0006792Y0154647D02*
X0080374Y0154647D01*
X0080899Y0155433D02*
X0006968Y0155433D01*
X0007144Y0156219D02*
X0081409Y0156219D01*
X0081919Y0157004D02*
X0007320Y0157004D01*
X0007496Y0157790D02*
X0082430Y0157790D01*
X0082940Y0158576D02*
X0007672Y0158576D01*
X0007848Y0159362D02*
X0083450Y0159362D01*
X0084094Y0160148D02*
X0008024Y0160148D01*
X0008201Y0160934D02*
X0084731Y0160934D01*
X0085367Y0161720D02*
X0008454Y0161720D01*
X0008724Y0162506D02*
X0086004Y0162506D01*
X0085340Y0163292D02*
X0008994Y0163292D01*
X0009264Y0164078D02*
X0084554Y0164078D01*
X0083768Y0164864D02*
X0009533Y0164864D01*
X0009803Y0165649D02*
X0082982Y0165649D01*
X0082196Y0166435D02*
X0010073Y0166435D01*
X0010343Y0167221D02*
X0081410Y0167221D01*
X0080624Y0168007D02*
X0010613Y0168007D01*
X0010883Y0168793D02*
X0079838Y0168793D01*
X0079052Y0169579D02*
X0011152Y0169579D01*
X0011422Y0170365D02*
X0078266Y0170365D01*
X0077480Y0171151D02*
X0011692Y0171151D01*
X0011962Y0171937D02*
X0076695Y0171937D01*
X0075909Y0172723D02*
X0012232Y0172723D01*
X0012501Y0173509D02*
X0075123Y0173509D01*
X0074337Y0174295D02*
X0012813Y0174295D01*
X0013183Y0175080D02*
X0073551Y0175080D01*
X0072765Y0175866D02*
X0013554Y0175866D01*
X0013925Y0176652D02*
X0071979Y0176652D01*
X0071193Y0177438D02*
X0014296Y0177438D01*
X0014667Y0178224D02*
X0070407Y0178224D01*
X0069621Y0179010D02*
X0015038Y0179010D01*
X0015409Y0179796D02*
X0068835Y0179796D01*
X0068050Y0180582D02*
X0015780Y0180582D01*
X0016151Y0181368D02*
X0067264Y0181368D01*
X0066478Y0182154D02*
X0016521Y0182154D01*
X0016892Y0182940D02*
X0065692Y0182940D01*
X0064906Y0183725D02*
X0017263Y0183725D01*
X0017634Y0184511D02*
X0064120Y0184511D01*
X0063334Y0185297D02*
X0018005Y0185297D01*
X0018376Y0186083D02*
X0062548Y0186083D01*
X0061762Y0186869D02*
X0018827Y0186869D01*
X0019310Y0187655D02*
X0060976Y0187655D01*
X0060190Y0188441D02*
X0056377Y0188441D01*
X0058649Y0189227D02*
X0059404Y0189227D01*
X0065366Y0195514D02*
X0098290Y0195514D01*
X0097504Y0194728D02*
X0066152Y0194728D01*
X0066938Y0193942D02*
X0096718Y0193942D01*
X0095932Y0193156D02*
X0067724Y0193156D01*
X0068510Y0192371D02*
X0095146Y0192371D01*
X0094360Y0191585D02*
X0069296Y0191585D01*
X0070082Y0190799D02*
X0093574Y0190799D01*
X0093736Y0190961D02*
X0092929Y0190153D01*
X0092929Y0185862D01*
X0094504Y0184287D01*
X0095311Y0183480D01*
X0098815Y0183480D01*
X0100390Y0185055D01*
X0101197Y0185862D01*
X0101197Y0187098D01*
X0101994Y0187894D01*
X0101994Y0189696D01*
X0100720Y0190970D01*
X0100005Y0190970D01*
X0106118Y0197083D01*
X0106335Y0196866D01*
X0111039Y0192162D01*
X0111039Y0192162D01*
X0111847Y0191354D01*
X0119381Y0191354D01*
X0120178Y0190557D01*
X0121980Y0190557D01*
X0123254Y0191831D01*
X0123254Y0193633D01*
X0121980Y0194907D01*
X0120178Y0194907D01*
X0119381Y0194110D01*
X0112988Y0194110D01*
X0108283Y0198815D01*
X0108283Y0207476D01*
X0105134Y0210626D01*
X0105134Y0224012D01*
X0104327Y0224819D01*
X0102752Y0226394D01*
X0100036Y0226394D01*
X0099248Y0225606D01*
X0096099Y0225606D01*
X0095291Y0224799D01*
X0092929Y0222437D01*
X0092929Y0221202D01*
X0092132Y0220405D01*
X0092132Y0218603D01*
X0093406Y0217329D01*
X0095208Y0217329D01*
X0096482Y0218603D01*
X0096482Y0218978D01*
X0096556Y0218904D01*
X0098358Y0218904D01*
X0098808Y0219354D01*
X0099228Y0218933D01*
X0099228Y0207910D01*
X0102378Y0204760D01*
X0102378Y0199602D01*
X0093736Y0190961D01*
X0092929Y0190013D02*
X0089079Y0190013D01*
X0088909Y0190183D02*
X0087107Y0190183D01*
X0086310Y0189386D01*
X0084194Y0189386D01*
X0083397Y0190183D01*
X0081595Y0190183D01*
X0080321Y0188909D01*
X0080321Y0187107D01*
X0081595Y0185833D01*
X0083397Y0185833D01*
X0084194Y0186630D01*
X0086310Y0186630D01*
X0087107Y0185833D01*
X0088909Y0185833D01*
X0090183Y0187107D01*
X0090183Y0188909D01*
X0088909Y0190183D01*
X0089864Y0189227D02*
X0092929Y0189227D01*
X0092929Y0188441D02*
X0090183Y0188441D01*
X0090183Y0187655D02*
X0092929Y0187655D01*
X0092929Y0186869D02*
X0089945Y0186869D01*
X0089159Y0186083D02*
X0092929Y0186083D01*
X0093494Y0185297D02*
X0075583Y0185297D01*
X0076369Y0184511D02*
X0094280Y0184511D01*
X0095066Y0183725D02*
X0077155Y0183725D01*
X0077941Y0182940D02*
X0176815Y0182940D01*
X0177601Y0183725D02*
X0099060Y0183725D01*
X0099846Y0184511D02*
X0178387Y0184511D01*
X0179173Y0185297D02*
X0100632Y0185297D01*
X0101197Y0186083D02*
X0179959Y0186083D01*
X0180745Y0186869D02*
X0101197Y0186869D01*
X0101754Y0187655D02*
X0181531Y0187655D01*
X0182316Y0188441D02*
X0101994Y0188441D01*
X0101994Y0189227D02*
X0183102Y0189227D01*
X0183888Y0190013D02*
X0101677Y0190013D01*
X0100891Y0190799D02*
X0119937Y0190799D01*
X0121079Y0192732D02*
X0112417Y0192732D01*
X0106906Y0198244D01*
X0106906Y0206906D01*
X0103756Y0210055D01*
X0103756Y0223441D01*
X0102181Y0225016D01*
X0100606Y0225016D01*
X0099819Y0224228D01*
X0096669Y0224228D01*
X0094307Y0221866D01*
X0094307Y0219504D01*
X0092132Y0219877D02*
X0045221Y0219877D01*
X0044267Y0219092D02*
X0092132Y0219092D01*
X0092430Y0218306D02*
X0043353Y0218306D01*
X0042589Y0217520D02*
X0093216Y0217520D01*
X0095399Y0217520D02*
X0099228Y0217520D01*
X0099228Y0218306D02*
X0096184Y0218306D01*
X0098545Y0219092D02*
X0099070Y0219092D01*
X0100606Y0219504D02*
X0099031Y0221079D01*
X0097457Y0221079D01*
X0100606Y0219504D02*
X0100606Y0208480D01*
X0103756Y0205331D01*
X0103756Y0199031D01*
X0094307Y0189583D01*
X0094307Y0186433D01*
X0095882Y0184858D01*
X0098244Y0184858D01*
X0099819Y0186433D01*
X0099819Y0188795D01*
X0100620Y0191585D02*
X0111616Y0191585D01*
X0110830Y0192371D02*
X0101406Y0192371D01*
X0102192Y0193156D02*
X0110044Y0193156D01*
X0109259Y0193942D02*
X0102978Y0193942D01*
X0103764Y0194728D02*
X0108473Y0194728D01*
X0107687Y0195514D02*
X0104550Y0195514D01*
X0105335Y0196300D02*
X0106901Y0196300D01*
X0106335Y0196866D02*
X0106335Y0196866D01*
X0105331Y0198244D02*
X0096669Y0189583D01*
X0096669Y0188008D01*
X0088008Y0188008D02*
X0082496Y0188008D01*
X0080321Y0187655D02*
X0073225Y0187655D01*
X0072439Y0188441D02*
X0080321Y0188441D01*
X0080639Y0189227D02*
X0071654Y0189227D01*
X0070868Y0190013D02*
X0081425Y0190013D01*
X0083567Y0190013D02*
X0086937Y0190013D01*
X0086857Y0186083D02*
X0083647Y0186083D01*
X0081345Y0186083D02*
X0074797Y0186083D01*
X0074011Y0186869D02*
X0080559Y0186869D01*
X0078727Y0182154D02*
X0176029Y0182154D01*
X0175243Y0181368D02*
X0133567Y0181368D01*
X0133072Y0178224D02*
X0121683Y0178224D01*
X0122028Y0178279D02*
X0116737Y0177441D01*
X0111562Y0176054D01*
X0106561Y0174134D01*
X0101787Y0171702D01*
X0097294Y0168784D01*
X0093131Y0165413D01*
X0089343Y0161625D01*
X0085972Y0157461D01*
X0083054Y0152969D01*
X0080622Y0148195D01*
X0078702Y0143194D01*
X0077315Y0138019D01*
X0076477Y0132728D01*
X0076197Y0127378D01*
X0076477Y0122028D01*
X0077315Y0116737D01*
X0078702Y0111562D01*
X0080622Y0106561D01*
X0083054Y0101787D01*
X0085972Y0097294D01*
X0089343Y0093131D01*
X0093131Y0089343D01*
X0097294Y0085972D01*
X0101787Y0083054D01*
X0106561Y0080622D01*
X0111562Y0078702D01*
X0116737Y0077315D01*
X0122028Y0076477D01*
X0127378Y0076197D01*
X0132728Y0076477D01*
X0138019Y0077315D01*
X0143194Y0078702D01*
X0148195Y0080622D01*
X0152969Y0083054D01*
X0157461Y0085972D01*
X0161625Y0089343D01*
X0165413Y0093131D01*
X0168784Y0097294D01*
X0171702Y0101787D01*
X0174134Y0106561D01*
X0176054Y0111562D01*
X0177441Y0116737D01*
X0178279Y0122028D01*
X0178559Y0127378D01*
X0178279Y0132728D01*
X0177441Y0138019D01*
X0176054Y0143194D01*
X0174134Y0148195D01*
X0171702Y0152969D01*
X0168784Y0157461D01*
X0165413Y0161625D01*
X0161625Y0165413D01*
X0157461Y0168784D01*
X0152969Y0171702D01*
X0148195Y0174134D01*
X0143194Y0176054D01*
X0138019Y0177441D01*
X0132728Y0178279D01*
X0127378Y0178559D01*
X0122028Y0178279D01*
X0121189Y0181368D02*
X0079513Y0181368D01*
X0080299Y0180582D02*
X0116291Y0180582D01*
X0113358Y0179796D02*
X0081084Y0179796D01*
X0081870Y0179010D02*
X0110425Y0179010D01*
X0108427Y0178224D02*
X0082656Y0178224D01*
X0083442Y0177438D02*
X0106379Y0177438D01*
X0104565Y0176652D02*
X0084228Y0176652D01*
X0085014Y0175866D02*
X0103023Y0175866D01*
X0101480Y0175080D02*
X0085800Y0175080D01*
X0086586Y0174295D02*
X0099938Y0174295D01*
X0098786Y0173509D02*
X0087372Y0173509D01*
X0088158Y0172723D02*
X0097576Y0172723D01*
X0096366Y0171937D02*
X0088944Y0171937D01*
X0089730Y0171151D02*
X0095156Y0171151D01*
X0094242Y0170365D02*
X0090515Y0170365D01*
X0091301Y0169579D02*
X0093271Y0169579D01*
X0092301Y0168793D02*
X0092087Y0168793D01*
X0094394Y0166435D02*
X0160362Y0166435D01*
X0161333Y0165649D02*
X0093423Y0165649D01*
X0092582Y0164864D02*
X0162174Y0164864D01*
X0162960Y0164078D02*
X0091796Y0164078D01*
X0091010Y0163292D02*
X0163746Y0163292D01*
X0164532Y0162506D02*
X0090224Y0162506D01*
X0089438Y0161720D02*
X0165318Y0161720D01*
X0165972Y0160934D02*
X0088784Y0160934D01*
X0088147Y0160148D02*
X0166609Y0160148D01*
X0167245Y0159362D02*
X0087511Y0159362D01*
X0086874Y0158576D02*
X0167882Y0158576D01*
X0168518Y0157790D02*
X0086238Y0157790D01*
X0085675Y0157004D02*
X0169081Y0157004D01*
X0169591Y0156219D02*
X0138343Y0156219D01*
X0139062Y0155920D02*
X0137612Y0156521D01*
X0136042Y0156521D01*
X0134591Y0155920D01*
X0133481Y0154810D01*
X0133283Y0154333D01*
X0133086Y0154810D01*
X0131976Y0155920D01*
X0130525Y0156521D01*
X0128955Y0156521D01*
X0127505Y0155920D01*
X0126395Y0154810D01*
X0126197Y0154333D01*
X0125999Y0154810D01*
X0124889Y0155920D01*
X0123439Y0156521D01*
X0121869Y0156521D01*
X0120418Y0155920D01*
X0119965Y0155467D01*
X0119343Y0155724D01*
X0117998Y0155724D01*
X0117802Y0155920D01*
X0116352Y0156521D01*
X0114782Y0156521D01*
X0113331Y0155920D01*
X0112221Y0154810D01*
X0111630Y0153383D01*
X0111039Y0154810D01*
X0109928Y0155920D01*
X0108478Y0156521D01*
X0106908Y0156521D01*
X0105457Y0155920D01*
X0104347Y0154810D01*
X0103746Y0153360D01*
X0103746Y0153083D01*
X0097149Y0146485D01*
X0096669Y0145327D01*
X0096669Y0141709D01*
X0095177Y0141709D01*
X0093875Y0141169D01*
X0092878Y0140172D01*
X0092339Y0138870D01*
X0092339Y0135886D01*
X0092756Y0134878D01*
X0092339Y0133870D01*
X0092339Y0130886D01*
X0092756Y0129878D01*
X0092339Y0128870D01*
X0092339Y0125886D01*
X0092756Y0124878D01*
X0092339Y0123870D01*
X0092339Y0120886D01*
X0092756Y0119878D01*
X0092339Y0118870D01*
X0092339Y0115886D01*
X0092878Y0114583D01*
X0093875Y0113587D01*
X0095177Y0113047D01*
X0104206Y0113047D01*
X0103756Y0111960D01*
X0103756Y0110394D01*
X0104355Y0108947D01*
X0105463Y0107840D01*
X0106910Y0107240D01*
X0108476Y0107240D01*
X0109923Y0107840D01*
X0111031Y0108947D01*
X0111630Y0110394D01*
X0111630Y0111960D01*
X0111180Y0113047D01*
X0120209Y0113047D01*
X0121511Y0113587D01*
X0122508Y0114583D01*
X0123047Y0115886D01*
X0123047Y0118870D01*
X0122799Y0119469D01*
X0123375Y0119708D01*
X0126012Y0122346D01*
X0126898Y0123232D01*
X0127378Y0124389D01*
X0127378Y0124946D01*
X0127574Y0125142D01*
X0128165Y0126570D01*
X0128165Y0118877D01*
X0128645Y0117720D01*
X0129531Y0116834D01*
X0131657Y0114708D01*
X0132454Y0114378D01*
X0133245Y0113587D01*
X0134547Y0113047D01*
X0142724Y0113047D01*
X0142339Y0112117D01*
X0142339Y0110237D01*
X0143058Y0108501D01*
X0144387Y0107172D01*
X0146123Y0106453D01*
X0148003Y0106453D01*
X0149739Y0107172D01*
X0151068Y0108501D01*
X0151787Y0110237D01*
X0151787Y0112117D01*
X0151402Y0113047D01*
X0159579Y0113047D01*
X0160881Y0113587D01*
X0161878Y0114583D01*
X0162105Y0115131D01*
X0163020Y0116046D01*
X0163906Y0116932D01*
X0164386Y0118090D01*
X0164386Y0140603D01*
X0163906Y0141760D01*
X0162332Y0143335D01*
X0161446Y0144221D01*
X0160288Y0144701D01*
X0154937Y0144701D01*
X0154937Y0150052D01*
X0154457Y0151209D01*
X0153372Y0152295D01*
X0153372Y0152572D01*
X0152771Y0154023D01*
X0151661Y0155133D01*
X0150210Y0155734D01*
X0148640Y0155734D01*
X0147190Y0155133D01*
X0146080Y0154023D01*
X0145479Y0152572D01*
X0145479Y0151002D01*
X0146080Y0149552D01*
X0147190Y0148442D01*
X0148638Y0147842D01*
X0148638Y0147188D01*
X0147846Y0147516D01*
X0146280Y0147516D01*
X0144833Y0146916D01*
X0143725Y0145809D01*
X0143126Y0144362D01*
X0143126Y0142796D01*
X0143576Y0141709D01*
X0136039Y0141709D01*
X0136039Y0147333D01*
X0137335Y0148628D01*
X0137612Y0148628D01*
X0139062Y0149229D01*
X0140172Y0150339D01*
X0140773Y0151790D01*
X0140773Y0153360D01*
X0140172Y0154810D01*
X0139062Y0155920D01*
X0139550Y0155433D02*
X0147913Y0155433D01*
X0146703Y0154647D02*
X0140240Y0154647D01*
X0140566Y0153861D02*
X0146012Y0153861D01*
X0145687Y0153075D02*
X0140773Y0153075D01*
X0140773Y0152289D02*
X0145479Y0152289D01*
X0145479Y0151503D02*
X0140654Y0151503D01*
X0140329Y0150717D02*
X0145597Y0150717D01*
X0145922Y0149931D02*
X0139764Y0149931D01*
X0138860Y0149145D02*
X0146486Y0149145D01*
X0147388Y0148359D02*
X0137066Y0148359D01*
X0136280Y0147573D02*
X0148638Y0147573D01*
X0151787Y0149425D02*
X0149425Y0151787D01*
X0151787Y0149425D02*
X0151787Y0143126D01*
X0153362Y0141551D01*
X0159661Y0141551D01*
X0161236Y0139976D01*
X0161236Y0118717D01*
X0159898Y0117378D01*
X0154937Y0117378D01*
X0151424Y0112993D02*
X0176438Y0112993D01*
X0176227Y0112207D02*
X0151750Y0112207D01*
X0151787Y0111422D02*
X0176000Y0111422D01*
X0175698Y0110636D02*
X0151787Y0110636D01*
X0151627Y0109850D02*
X0175397Y0109850D01*
X0175095Y0109064D02*
X0151301Y0109064D01*
X0150845Y0108278D02*
X0174793Y0108278D01*
X0174492Y0107492D02*
X0150059Y0107492D01*
X0148614Y0106706D02*
X0174190Y0106706D01*
X0173808Y0105920D02*
X0080948Y0105920D01*
X0080566Y0106706D02*
X0145512Y0106706D01*
X0144067Y0107492D02*
X0109084Y0107492D01*
X0110361Y0108278D02*
X0143281Y0108278D01*
X0142825Y0109064D02*
X0111079Y0109064D01*
X0111404Y0109850D02*
X0142499Y0109850D01*
X0142339Y0110636D02*
X0111630Y0110636D01*
X0111630Y0111422D02*
X0142339Y0111422D01*
X0142376Y0112207D02*
X0111528Y0112207D01*
X0111202Y0112993D02*
X0142702Y0112993D01*
X0139189Y0117378D02*
X0133441Y0117378D01*
X0131315Y0119504D01*
X0131315Y0151000D01*
X0129740Y0152575D01*
X0128224Y0156219D02*
X0124169Y0156219D01*
X0125377Y0155433D02*
X0127017Y0155433D01*
X0126327Y0154647D02*
X0126067Y0154647D01*
X0123441Y0151787D02*
X0122654Y0152575D01*
X0123441Y0151787D02*
X0123441Y0134465D01*
X0121354Y0132378D01*
X0115567Y0132378D01*
X0115567Y0137378D02*
X0120843Y0137378D01*
X0121866Y0138402D01*
X0121866Y0149425D01*
X0118717Y0152575D01*
X0115567Y0152575D01*
X0117083Y0156219D02*
X0121138Y0156219D01*
X0114051Y0156219D02*
X0109209Y0156219D01*
X0110416Y0155433D02*
X0112844Y0155433D01*
X0112154Y0154647D02*
X0111106Y0154647D01*
X0111432Y0153861D02*
X0111828Y0153861D01*
X0107693Y0152575D02*
X0099819Y0144701D01*
X0099819Y0137378D01*
X0096669Y0142072D02*
X0078401Y0142072D01*
X0078191Y0141286D02*
X0094157Y0141286D01*
X0093206Y0140500D02*
X0077980Y0140500D01*
X0077770Y0139714D02*
X0092688Y0139714D01*
X0092363Y0138928D02*
X0077559Y0138928D01*
X0077348Y0138143D02*
X0092339Y0138143D01*
X0092339Y0137357D02*
X0077210Y0137357D01*
X0077086Y0136571D02*
X0092339Y0136571D01*
X0092380Y0135785D02*
X0076961Y0135785D01*
X0076837Y0134999D02*
X0092706Y0134999D01*
X0092481Y0134213D02*
X0076712Y0134213D01*
X0076588Y0133427D02*
X0092339Y0133427D01*
X0092339Y0132641D02*
X0076473Y0132641D01*
X0076431Y0131855D02*
X0092339Y0131855D01*
X0092339Y0131069D02*
X0076390Y0131069D01*
X0076349Y0130283D02*
X0092588Y0130283D01*
X0092598Y0129498D02*
X0076308Y0129498D01*
X0076267Y0128712D02*
X0092339Y0128712D01*
X0092339Y0127926D02*
X0076226Y0127926D01*
X0076209Y0127140D02*
X0092339Y0127140D01*
X0092339Y0126354D02*
X0076251Y0126354D01*
X0076292Y0125568D02*
X0092470Y0125568D01*
X0092716Y0124782D02*
X0076333Y0124782D01*
X0076374Y0123996D02*
X0092391Y0123996D01*
X0092339Y0123210D02*
X0076415Y0123210D01*
X0076456Y0122424D02*
X0092339Y0122424D01*
X0092339Y0121638D02*
X0076539Y0121638D01*
X0076663Y0120852D02*
X0092352Y0120852D01*
X0092678Y0120067D02*
X0076788Y0120067D01*
X0076912Y0119281D02*
X0092509Y0119281D01*
X0092339Y0118495D02*
X0077037Y0118495D01*
X0077161Y0117709D02*
X0092339Y0117709D01*
X0092339Y0116923D02*
X0077286Y0116923D01*
X0077476Y0116137D02*
X0092339Y0116137D01*
X0092560Y0115351D02*
X0077687Y0115351D01*
X0077897Y0114565D02*
X0092896Y0114565D01*
X0093682Y0113779D02*
X0078108Y0113779D01*
X0078318Y0112993D02*
X0104184Y0112993D01*
X0103858Y0112207D02*
X0078529Y0112207D01*
X0078756Y0111422D02*
X0103756Y0111422D01*
X0103756Y0110636D02*
X0079058Y0110636D01*
X0079359Y0109850D02*
X0103981Y0109850D01*
X0104307Y0109064D02*
X0079661Y0109064D01*
X0079963Y0108278D02*
X0105024Y0108278D01*
X0106302Y0107492D02*
X0080264Y0107492D01*
X0081349Y0105134D02*
X0173407Y0105134D01*
X0173007Y0104348D02*
X0081749Y0104348D01*
X0082149Y0103562D02*
X0172606Y0103562D01*
X0172206Y0102776D02*
X0082550Y0102776D01*
X0082950Y0101991D02*
X0171806Y0101991D01*
X0171324Y0101205D02*
X0083432Y0101205D01*
X0083943Y0100419D02*
X0170813Y0100419D01*
X0170303Y0099633D02*
X0084453Y0099633D01*
X0084963Y0098847D02*
X0169793Y0098847D01*
X0169282Y0098061D02*
X0085474Y0098061D01*
X0085987Y0097275D02*
X0168769Y0097275D01*
X0168132Y0096489D02*
X0086624Y0096489D01*
X0087260Y0095703D02*
X0167496Y0095703D01*
X0166859Y0094917D02*
X0087897Y0094917D01*
X0088533Y0094131D02*
X0166223Y0094131D01*
X0165587Y0093346D02*
X0089169Y0093346D01*
X0089915Y0092560D02*
X0164841Y0092560D01*
X0164055Y0091774D02*
X0090700Y0091774D01*
X0091486Y0090988D02*
X0163270Y0090988D01*
X0162484Y0090202D02*
X0092272Y0090202D01*
X0093058Y0089416D02*
X0161698Y0089416D01*
X0160744Y0088630D02*
X0094012Y0088630D01*
X0094982Y0087844D02*
X0159774Y0087844D01*
X0158803Y0087058D02*
X0095953Y0087058D01*
X0096923Y0086272D02*
X0157833Y0086272D01*
X0156714Y0085486D02*
X0098042Y0085486D01*
X0099252Y0084700D02*
X0155504Y0084700D01*
X0154294Y0083915D02*
X0100462Y0083915D01*
X0101672Y0083129D02*
X0153084Y0083129D01*
X0151573Y0082343D02*
X0103183Y0082343D01*
X0104725Y0081557D02*
X0150030Y0081557D01*
X0148488Y0080771D02*
X0106268Y0080771D01*
X0108219Y0079985D02*
X0146537Y0079985D01*
X0144489Y0079199D02*
X0110267Y0079199D01*
X0112639Y0078413D02*
X0142116Y0078413D01*
X0139183Y0077627D02*
X0115573Y0077627D01*
X0119729Y0076841D02*
X0135027Y0076841D01*
X0135312Y0073698D02*
X0174934Y0073698D01*
X0175720Y0072912D02*
X0118323Y0072912D01*
X0118323Y0073698D02*
X0119444Y0073698D01*
X0118323Y0072126D02*
X0176505Y0072126D01*
X0177291Y0071340D02*
X0130259Y0071340D01*
X0131251Y0070554D02*
X0178077Y0070554D01*
X0178863Y0069768D02*
X0132037Y0069768D01*
X0132468Y0068982D02*
X0179649Y0068982D01*
X0180435Y0068196D02*
X0132794Y0068196D01*
X0133087Y0067410D02*
X0181221Y0067410D01*
X0182007Y0066624D02*
X0133087Y0066624D01*
X0133087Y0065839D02*
X0182793Y0065839D01*
X0183579Y0065053D02*
X0133018Y0065053D01*
X0132692Y0064267D02*
X0184365Y0064267D01*
X0185151Y0063481D02*
X0132367Y0063481D01*
X0131792Y0062695D02*
X0185936Y0062695D01*
X0186722Y0061909D02*
X0139108Y0061909D01*
X0140682Y0061123D02*
X0187508Y0061123D01*
X0188294Y0060337D02*
X0141468Y0060337D01*
X0142140Y0059551D02*
X0189080Y0059551D01*
X0189294Y0058765D02*
X0142466Y0058765D01*
X0142792Y0057979D02*
X0188870Y0057979D01*
X0188660Y0057194D02*
X0142929Y0057194D01*
X0142929Y0056408D02*
X0188449Y0056408D01*
X0188239Y0055622D02*
X0142929Y0055622D01*
X0142705Y0054836D02*
X0188028Y0054836D01*
X0187925Y0054050D02*
X0142380Y0054050D01*
X0142046Y0053264D02*
X0187925Y0053264D01*
X0187925Y0052478D02*
X0141260Y0052478D01*
X0140474Y0051692D02*
X0187925Y0051692D01*
X0187925Y0050906D02*
X0138605Y0050906D01*
X0135836Y0050906D02*
X0130009Y0050906D01*
X0130166Y0050841D02*
X0128357Y0051591D01*
X0126399Y0051591D01*
X0124590Y0050841D01*
X0123206Y0049457D01*
X0122457Y0047648D01*
X0122457Y0045690D01*
X0123206Y0043882D01*
X0124590Y0042497D01*
X0126399Y0041748D01*
X0128357Y0041748D01*
X0130166Y0042497D01*
X0131550Y0043882D01*
X0132299Y0045690D01*
X0132299Y0047648D01*
X0131550Y0049457D01*
X0130166Y0050841D01*
X0130887Y0050120D02*
X0188080Y0050120D01*
X0188291Y0049334D02*
X0131601Y0049334D01*
X0131926Y0048548D02*
X0188501Y0048548D01*
X0188712Y0047763D02*
X0132252Y0047763D01*
X0132299Y0046977D02*
X0188952Y0046977D01*
X0189406Y0046191D02*
X0132299Y0046191D01*
X0132181Y0045405D02*
X0189859Y0045405D01*
X0190313Y0044619D02*
X0131855Y0044619D01*
X0131501Y0043833D02*
X0190767Y0043833D01*
X0191548Y0043047D02*
X0130715Y0043047D01*
X0129596Y0042261D02*
X0192334Y0042261D01*
X0193120Y0041475D02*
X0061636Y0041475D01*
X0062422Y0042261D02*
X0125160Y0042261D01*
X0124040Y0043047D02*
X0063208Y0043047D01*
X0063989Y0043833D02*
X0123255Y0043833D01*
X0122901Y0044619D02*
X0064443Y0044619D01*
X0064897Y0045405D02*
X0122575Y0045405D01*
X0122457Y0046191D02*
X0065350Y0046191D01*
X0065804Y0046977D02*
X0122457Y0046977D01*
X0122504Y0047763D02*
X0066044Y0047763D01*
X0066255Y0048548D02*
X0122830Y0048548D01*
X0123155Y0049334D02*
X0066465Y0049334D01*
X0066676Y0050120D02*
X0123869Y0050120D01*
X0124747Y0050906D02*
X0118920Y0050906D01*
X0120789Y0051692D02*
X0126154Y0051692D01*
X0124452Y0052478D02*
X0121575Y0052478D01*
X0122361Y0053264D02*
X0123666Y0053264D01*
X0123071Y0054050D02*
X0122695Y0054050D01*
X0122781Y0058765D02*
X0122985Y0058765D01*
X0123458Y0059551D02*
X0122455Y0059551D01*
X0121783Y0060337D02*
X0124244Y0060337D01*
X0125090Y0061123D02*
X0120997Y0061123D01*
X0119423Y0061909D02*
X0123750Y0061909D01*
X0122964Y0062695D02*
X0118323Y0062695D01*
X0118323Y0063481D02*
X0122389Y0063481D01*
X0122064Y0064267D02*
X0118323Y0064267D01*
X0118323Y0065053D02*
X0121738Y0065053D01*
X0121669Y0065839D02*
X0118323Y0065839D01*
X0118323Y0066624D02*
X0121669Y0066624D01*
X0121669Y0067410D02*
X0118323Y0067410D01*
X0118323Y0068196D02*
X0121962Y0068196D01*
X0122287Y0068982D02*
X0118323Y0068982D01*
X0118323Y0069768D02*
X0122718Y0069768D01*
X0123504Y0070554D02*
X0118323Y0070554D01*
X0118323Y0071340D02*
X0124497Y0071340D01*
X0131006Y0061909D02*
X0135333Y0061909D01*
X0133758Y0061123D02*
X0129666Y0061123D01*
X0130512Y0060337D02*
X0132973Y0060337D01*
X0132300Y0059551D02*
X0131298Y0059551D01*
X0131771Y0058765D02*
X0131975Y0058765D01*
X0132061Y0054050D02*
X0131685Y0054050D01*
X0131090Y0053264D02*
X0132395Y0053264D01*
X0133181Y0052478D02*
X0130304Y0052478D01*
X0128602Y0051692D02*
X0133967Y0051692D01*
X0116151Y0050906D02*
X0066831Y0050906D01*
X0066831Y0051692D02*
X0114282Y0051692D01*
X0113496Y0052478D02*
X0066831Y0052478D01*
X0066831Y0053264D02*
X0112710Y0053264D01*
X0112376Y0054050D02*
X0066831Y0054050D01*
X0066728Y0054836D02*
X0112051Y0054836D01*
X0111827Y0055622D02*
X0066517Y0055622D01*
X0066307Y0056408D02*
X0111827Y0056408D01*
X0111123Y0057194D02*
X0066096Y0057194D01*
X0065885Y0057979D02*
X0110337Y0057979D01*
X0110002Y0058765D02*
X0065462Y0058765D01*
X0065676Y0059551D02*
X0109676Y0059551D01*
X0109661Y0060337D02*
X0066462Y0060337D01*
X0067248Y0061123D02*
X0109661Y0061123D01*
X0109661Y0061909D02*
X0068034Y0061909D01*
X0068819Y0062695D02*
X0109661Y0062695D01*
X0109661Y0063481D02*
X0069605Y0063481D01*
X0070391Y0064267D02*
X0109661Y0064267D01*
X0109661Y0065053D02*
X0071177Y0065053D01*
X0071963Y0065839D02*
X0109661Y0065839D01*
X0109661Y0066624D02*
X0072749Y0066624D01*
X0073535Y0067410D02*
X0109661Y0067410D01*
X0109661Y0068196D02*
X0074321Y0068196D01*
X0075107Y0068982D02*
X0109661Y0068982D01*
X0109661Y0069768D02*
X0075893Y0069768D01*
X0076679Y0070554D02*
X0109661Y0070554D01*
X0109661Y0071340D02*
X0077464Y0071340D01*
X0078250Y0072126D02*
X0109661Y0072126D01*
X0109661Y0072912D02*
X0079036Y0072912D01*
X0079822Y0073698D02*
X0109661Y0073698D01*
X0109661Y0074484D02*
X0080608Y0074484D01*
X0081394Y0075270D02*
X0109661Y0075270D01*
X0109661Y0076055D02*
X0082180Y0076055D01*
X0082966Y0076841D02*
X0107620Y0076841D01*
X0105500Y0077627D02*
X0083752Y0077627D01*
X0084538Y0078413D02*
X0103958Y0078413D01*
X0102415Y0079199D02*
X0085324Y0079199D01*
X0086110Y0079985D02*
X0100873Y0079985D01*
X0099520Y0080771D02*
X0086895Y0080771D01*
X0087681Y0081557D02*
X0098310Y0081557D01*
X0097099Y0082343D02*
X0088467Y0082343D01*
X0089253Y0083129D02*
X0095802Y0083129D01*
X0094830Y0083915D02*
X0090039Y0083915D01*
X0090825Y0084700D02*
X0093859Y0084700D01*
X0092889Y0085486D02*
X0091611Y0085486D01*
X0115567Y0117378D02*
X0115567Y0122378D01*
X0121591Y0122378D01*
X0124228Y0125016D01*
X0124228Y0127378D01*
X0127215Y0123996D02*
X0128165Y0123996D01*
X0128165Y0123210D02*
X0126877Y0123210D01*
X0126091Y0122424D02*
X0128165Y0122424D01*
X0128165Y0121638D02*
X0125305Y0121638D01*
X0124519Y0120852D02*
X0128165Y0120852D01*
X0128165Y0120067D02*
X0123733Y0120067D01*
X0122877Y0119281D02*
X0128165Y0119281D01*
X0128324Y0118495D02*
X0123047Y0118495D01*
X0123047Y0117709D02*
X0128656Y0117709D01*
X0129442Y0116923D02*
X0123047Y0116923D01*
X0123047Y0116137D02*
X0130228Y0116137D01*
X0131014Y0115351D02*
X0122826Y0115351D01*
X0122490Y0114565D02*
X0132001Y0114565D01*
X0133052Y0113779D02*
X0121704Y0113779D01*
X0127378Y0124782D02*
X0128165Y0124782D01*
X0128165Y0125568D02*
X0127750Y0125568D01*
X0128076Y0126354D02*
X0128165Y0126354D01*
X0132890Y0125016D02*
X0132890Y0148638D01*
X0136827Y0152575D01*
X0135311Y0156219D02*
X0131256Y0156219D01*
X0132463Y0155433D02*
X0134103Y0155433D01*
X0133413Y0154647D02*
X0133154Y0154647D01*
X0136039Y0146788D02*
X0144704Y0146788D01*
X0143918Y0146002D02*
X0136039Y0146002D01*
X0136039Y0145216D02*
X0143480Y0145216D01*
X0143154Y0144430D02*
X0136039Y0144430D01*
X0136039Y0143644D02*
X0143126Y0143644D01*
X0143126Y0142858D02*
X0136039Y0142858D01*
X0136039Y0142072D02*
X0143426Y0142072D01*
X0144701Y0137614D02*
X0144465Y0137378D01*
X0139189Y0137378D01*
X0139189Y0132378D01*
X0132890Y0125016D02*
X0135528Y0122378D01*
X0139189Y0122378D01*
X0161074Y0113779D02*
X0176648Y0113779D01*
X0176859Y0114565D02*
X0161860Y0114565D01*
X0162325Y0115351D02*
X0177069Y0115351D01*
X0177280Y0116137D02*
X0163111Y0116137D01*
X0163897Y0116923D02*
X0177470Y0116923D01*
X0177595Y0117709D02*
X0164228Y0117709D01*
X0164386Y0118495D02*
X0177719Y0118495D01*
X0177844Y0119281D02*
X0164386Y0119281D01*
X0164386Y0120067D02*
X0177968Y0120067D01*
X0178092Y0120852D02*
X0164386Y0120852D01*
X0164386Y0121638D02*
X0178217Y0121638D01*
X0178299Y0122424D02*
X0164386Y0122424D01*
X0164386Y0123210D02*
X0178341Y0123210D01*
X0178382Y0123996D02*
X0164386Y0123996D01*
X0164386Y0124782D02*
X0178423Y0124782D01*
X0178464Y0125568D02*
X0164386Y0125568D01*
X0164386Y0126354D02*
X0178505Y0126354D01*
X0178547Y0127140D02*
X0164386Y0127140D01*
X0164386Y0127926D02*
X0178530Y0127926D01*
X0178489Y0128712D02*
X0164386Y0128712D01*
X0164386Y0129498D02*
X0178448Y0129498D01*
X0178407Y0130283D02*
X0164386Y0130283D01*
X0164386Y0131069D02*
X0178366Y0131069D01*
X0178324Y0131855D02*
X0164386Y0131855D01*
X0164386Y0132641D02*
X0178283Y0132641D01*
X0178168Y0133427D02*
X0164386Y0133427D01*
X0164386Y0134213D02*
X0178043Y0134213D01*
X0177919Y0134999D02*
X0164386Y0134999D01*
X0164386Y0135785D02*
X0177795Y0135785D01*
X0177670Y0136571D02*
X0164386Y0136571D01*
X0164386Y0137357D02*
X0177546Y0137357D01*
X0177408Y0138143D02*
X0164386Y0138143D01*
X0164386Y0138928D02*
X0177197Y0138928D01*
X0176986Y0139714D02*
X0164386Y0139714D01*
X0164386Y0140500D02*
X0176776Y0140500D01*
X0176565Y0141286D02*
X0164103Y0141286D01*
X0163595Y0142072D02*
X0176355Y0142072D01*
X0176144Y0142858D02*
X0162809Y0142858D01*
X0162023Y0143644D02*
X0175881Y0143644D01*
X0175580Y0144430D02*
X0160942Y0144430D01*
X0154937Y0145216D02*
X0175278Y0145216D01*
X0174976Y0146002D02*
X0154937Y0146002D01*
X0154937Y0146788D02*
X0174675Y0146788D01*
X0174373Y0147573D02*
X0154937Y0147573D01*
X0154937Y0148359D02*
X0174051Y0148359D01*
X0173650Y0149145D02*
X0154937Y0149145D01*
X0154937Y0149931D02*
X0173250Y0149931D01*
X0172849Y0150717D02*
X0154661Y0150717D01*
X0154164Y0151503D02*
X0172449Y0151503D01*
X0172048Y0152289D02*
X0153378Y0152289D01*
X0153164Y0153075D02*
X0171633Y0153075D01*
X0171123Y0153861D02*
X0152838Y0153861D01*
X0152147Y0154647D02*
X0170612Y0154647D01*
X0170102Y0155433D02*
X0150937Y0155433D01*
X0159392Y0167221D02*
X0095364Y0167221D01*
X0096335Y0168007D02*
X0158421Y0168007D01*
X0157448Y0168793D02*
X0097308Y0168793D01*
X0098518Y0169579D02*
X0156238Y0169579D01*
X0155027Y0170365D02*
X0099728Y0170365D01*
X0100939Y0171151D02*
X0153817Y0171151D01*
X0152508Y0171937D02*
X0102248Y0171937D01*
X0103790Y0172723D02*
X0150965Y0172723D01*
X0149423Y0173509D02*
X0105333Y0173509D01*
X0106978Y0174295D02*
X0147778Y0174295D01*
X0145730Y0175080D02*
X0109026Y0175080D01*
X0111073Y0175866D02*
X0143683Y0175866D01*
X0140961Y0176652D02*
X0113795Y0176652D01*
X0116728Y0177438D02*
X0138028Y0177438D01*
X0141398Y0179796D02*
X0173671Y0179796D01*
X0172885Y0179010D02*
X0144331Y0179010D01*
X0146329Y0178224D02*
X0172100Y0178224D01*
X0171314Y0177438D02*
X0148377Y0177438D01*
X0150191Y0176652D02*
X0170528Y0176652D01*
X0169742Y0175866D02*
X0151733Y0175866D01*
X0153276Y0175080D02*
X0168956Y0175080D01*
X0168170Y0174295D02*
X0154818Y0174295D01*
X0155970Y0173509D02*
X0167384Y0173509D01*
X0166598Y0172723D02*
X0157180Y0172723D01*
X0158390Y0171937D02*
X0165812Y0171937D01*
X0165026Y0171151D02*
X0159600Y0171151D01*
X0160514Y0170365D02*
X0164240Y0170365D01*
X0163455Y0169579D02*
X0161485Y0169579D01*
X0162455Y0168793D02*
X0162669Y0168793D01*
X0169416Y0163292D02*
X0245701Y0163292D01*
X0245479Y0164078D02*
X0170202Y0164078D01*
X0170988Y0164864D02*
X0245257Y0164864D01*
X0245034Y0165649D02*
X0171774Y0165649D01*
X0172560Y0166435D02*
X0244812Y0166435D01*
X0244590Y0167221D02*
X0173346Y0167221D01*
X0174132Y0168007D02*
X0244315Y0168007D01*
X0243996Y0168793D02*
X0174918Y0168793D01*
X0175704Y0169579D02*
X0243677Y0169579D01*
X0243358Y0170365D02*
X0176489Y0170365D01*
X0177275Y0171151D02*
X0243038Y0171151D01*
X0242719Y0171937D02*
X0178061Y0171937D01*
X0178847Y0172723D02*
X0242400Y0172723D01*
X0242081Y0173509D02*
X0179633Y0173509D01*
X0180419Y0174295D02*
X0241762Y0174295D01*
X0241442Y0175080D02*
X0181205Y0175080D01*
X0181991Y0175866D02*
X0241123Y0175866D01*
X0240804Y0176652D02*
X0182777Y0176652D01*
X0183563Y0177438D02*
X0240485Y0177438D01*
X0240165Y0178224D02*
X0184349Y0178224D01*
X0185135Y0179010D02*
X0239846Y0179010D01*
X0239527Y0179796D02*
X0185920Y0179796D01*
X0186706Y0180582D02*
X0239159Y0180582D01*
X0238734Y0181368D02*
X0187492Y0181368D01*
X0188278Y0182154D02*
X0238309Y0182154D01*
X0237883Y0182940D02*
X0189064Y0182940D01*
X0189850Y0183725D02*
X0237458Y0183725D01*
X0237033Y0184511D02*
X0190636Y0184511D01*
X0191422Y0185297D02*
X0236607Y0185297D01*
X0236182Y0186083D02*
X0192208Y0186083D01*
X0192994Y0186869D02*
X0235757Y0186869D01*
X0235331Y0187655D02*
X0193780Y0187655D01*
X0194565Y0188441D02*
X0198379Y0188441D01*
X0196107Y0189227D02*
X0195351Y0189227D01*
X0189390Y0195514D02*
X0111584Y0195514D01*
X0112370Y0194728D02*
X0119999Y0194728D01*
X0122158Y0194728D02*
X0188604Y0194728D01*
X0187818Y0193942D02*
X0122944Y0193942D01*
X0123254Y0193156D02*
X0187032Y0193156D01*
X0186246Y0192371D02*
X0123254Y0192371D01*
X0123007Y0191585D02*
X0185460Y0191585D01*
X0184674Y0190799D02*
X0122221Y0190799D01*
X0115121Y0197872D02*
X0188577Y0197872D01*
X0188366Y0198658D02*
X0115380Y0198658D01*
X0115380Y0198131D02*
X0115380Y0199932D01*
X0114583Y0200729D01*
X0114583Y0210272D01*
X0116128Y0211817D01*
X0117255Y0211817D01*
X0118529Y0213091D01*
X0118529Y0213806D01*
X0118913Y0213421D01*
X0118913Y0208603D01*
X0118117Y0207806D01*
X0118117Y0206005D01*
X0119391Y0204731D01*
X0121192Y0204731D01*
X0122466Y0206005D01*
X0122466Y0207806D01*
X0121669Y0208603D01*
X0121669Y0214563D01*
X0120862Y0215370D01*
X0118529Y0217703D01*
X0118529Y0218043D01*
X0117255Y0219317D01*
X0115453Y0219317D01*
X0114180Y0218043D01*
X0114180Y0216241D01*
X0114854Y0215567D01*
X0114180Y0214893D01*
X0114180Y0213766D01*
X0111827Y0211413D01*
X0111827Y0200729D01*
X0111030Y0199932D01*
X0111030Y0198131D01*
X0112304Y0196857D01*
X0114106Y0196857D01*
X0115380Y0198131D01*
X0115380Y0199444D02*
X0188156Y0199444D01*
X0187945Y0200230D02*
X0115082Y0200230D01*
X0114583Y0201016D02*
X0187925Y0201016D01*
X0187925Y0201801D02*
X0114583Y0201801D01*
X0114583Y0202587D02*
X0187925Y0202587D01*
X0187925Y0203373D02*
X0114583Y0203373D01*
X0114583Y0204159D02*
X0187952Y0204159D01*
X0188163Y0204945D02*
X0121407Y0204945D01*
X0122193Y0205731D02*
X0188374Y0205731D01*
X0188584Y0206517D02*
X0122466Y0206517D01*
X0122466Y0207303D02*
X0138078Y0207303D01*
X0138288Y0207093D02*
X0140090Y0207093D01*
X0140887Y0207890D01*
X0143791Y0207890D01*
X0144587Y0207093D01*
X0146389Y0207093D01*
X0147663Y0208367D01*
X0147663Y0210169D01*
X0146389Y0211443D01*
X0144587Y0211443D01*
X0143791Y0210646D01*
X0140887Y0210646D01*
X0140090Y0211443D01*
X0138288Y0211443D01*
X0137014Y0210169D01*
X0137014Y0208367D01*
X0138288Y0207093D01*
X0137292Y0208089D02*
X0122184Y0208089D01*
X0121669Y0208875D02*
X0137014Y0208875D01*
X0137014Y0209661D02*
X0121669Y0209661D01*
X0121669Y0210447D02*
X0137292Y0210447D01*
X0138078Y0211232D02*
X0121669Y0211232D01*
X0121669Y0212018D02*
X0191857Y0212018D01*
X0191072Y0211232D02*
X0146599Y0211232D01*
X0147385Y0210447D02*
X0190492Y0210447D01*
X0190038Y0209661D02*
X0147663Y0209661D01*
X0147663Y0208875D02*
X0189584Y0208875D01*
X0189131Y0208089D02*
X0147385Y0208089D01*
X0146599Y0207303D02*
X0188795Y0207303D01*
X0192643Y0212804D02*
X0121669Y0212804D01*
X0121669Y0213590D02*
X0193430Y0213590D01*
X0194792Y0214376D02*
X0121669Y0214376D01*
X0121070Y0215162D02*
X0196153Y0215162D01*
X0198479Y0215948D02*
X0120284Y0215948D01*
X0119498Y0216734D02*
X0212851Y0216734D01*
X0211998Y0217520D02*
X0118712Y0217520D01*
X0118266Y0218306D02*
X0211144Y0218306D01*
X0210290Y0219092D02*
X0117480Y0219092D01*
X0117142Y0217142D02*
X0120291Y0213992D01*
X0120291Y0206906D01*
X0118117Y0206517D02*
X0114583Y0206517D01*
X0114583Y0207303D02*
X0118117Y0207303D01*
X0118399Y0208089D02*
X0114583Y0208089D01*
X0114583Y0208875D02*
X0118913Y0208875D01*
X0118913Y0209661D02*
X0114583Y0209661D01*
X0114757Y0210447D02*
X0118913Y0210447D01*
X0118913Y0211232D02*
X0115543Y0211232D01*
X0117456Y0212018D02*
X0118913Y0212018D01*
X0118913Y0212804D02*
X0118242Y0212804D01*
X0118529Y0213590D02*
X0118745Y0213590D01*
X0116354Y0213992D02*
X0113205Y0210843D01*
X0113205Y0199031D01*
X0111030Y0198658D02*
X0108440Y0198658D01*
X0108283Y0199444D02*
X0111030Y0199444D01*
X0111327Y0200230D02*
X0108283Y0200230D01*
X0108283Y0201016D02*
X0111827Y0201016D01*
X0111827Y0201801D02*
X0108283Y0201801D01*
X0108283Y0202587D02*
X0111827Y0202587D01*
X0111827Y0203373D02*
X0108283Y0203373D01*
X0108283Y0204159D02*
X0111827Y0204159D01*
X0111827Y0204945D02*
X0108283Y0204945D01*
X0108283Y0205731D02*
X0111827Y0205731D01*
X0111827Y0206517D02*
X0108283Y0206517D01*
X0108283Y0207303D02*
X0111827Y0207303D01*
X0111827Y0208089D02*
X0107671Y0208089D01*
X0106885Y0208875D02*
X0111827Y0208875D01*
X0111827Y0209661D02*
X0106099Y0209661D01*
X0105313Y0210447D02*
X0111827Y0210447D01*
X0111827Y0211232D02*
X0105134Y0211232D01*
X0105134Y0212018D02*
X0112432Y0212018D01*
X0113218Y0212804D02*
X0105134Y0212804D01*
X0105134Y0213590D02*
X0114004Y0213590D01*
X0114180Y0214376D02*
X0105134Y0214376D01*
X0105134Y0215162D02*
X0114449Y0215162D01*
X0114473Y0215948D02*
X0105134Y0215948D01*
X0105134Y0216734D02*
X0114180Y0216734D01*
X0114180Y0217520D02*
X0105134Y0217520D01*
X0105134Y0218306D02*
X0114443Y0218306D01*
X0115229Y0219092D02*
X0105134Y0219092D01*
X0105134Y0219877D02*
X0209437Y0219877D01*
X0208583Y0220663D02*
X0105134Y0220663D01*
X0105134Y0221449D02*
X0207729Y0221449D01*
X0206875Y0222235D02*
X0105134Y0222235D01*
X0105134Y0223021D02*
X0206004Y0223021D01*
X0204934Y0223807D02*
X0105134Y0223807D01*
X0104553Y0224593D02*
X0203865Y0224593D01*
X0202796Y0225379D02*
X0103767Y0225379D01*
X0102981Y0226165D02*
X0201727Y0226165D01*
X0200657Y0226951D02*
X0053810Y0226951D01*
X0054048Y0227147D02*
X0054048Y0227147D01*
X0054951Y0227737D02*
X0199588Y0227737D01*
X0198519Y0228523D02*
X0056154Y0228523D01*
X0057356Y0229308D02*
X0197449Y0229308D01*
X0196380Y0230094D02*
X0058559Y0230094D01*
X0059762Y0230880D02*
X0195311Y0230880D01*
X0194007Y0231666D02*
X0060965Y0231666D01*
X0062168Y0232452D02*
X0192646Y0232452D01*
X0191285Y0233238D02*
X0063371Y0233238D01*
X0064574Y0234024D02*
X0189923Y0234024D01*
X0188562Y0234810D02*
X0065867Y0234810D01*
X0067420Y0235596D02*
X0187201Y0235596D01*
X0185840Y0236382D02*
X0068973Y0236382D01*
X0070526Y0237168D02*
X0184479Y0237168D01*
X0183064Y0237953D02*
X0072079Y0237953D01*
X0073632Y0238739D02*
X0181272Y0238739D01*
X0179480Y0239525D02*
X0075185Y0239525D01*
X0076738Y0240311D02*
X0177689Y0240311D01*
X0175897Y0241097D02*
X0078520Y0241097D01*
X0080619Y0241883D02*
X0174105Y0241883D01*
X0172314Y0242669D02*
X0082718Y0242669D01*
X0084817Y0243455D02*
X0170413Y0243455D01*
X0167900Y0244241D02*
X0086916Y0244241D01*
X0089015Y0245027D02*
X0165387Y0245027D01*
X0162874Y0245813D02*
X0091448Y0245813D01*
X0094551Y0246599D02*
X0160362Y0246599D01*
X0157849Y0247384D02*
X0097655Y0247384D01*
X0100758Y0248170D02*
X0153871Y0248170D01*
X0149848Y0248956D02*
X0104045Y0248956D01*
X0109712Y0249742D02*
X0145824Y0249742D01*
X0138293Y0250528D02*
X0115380Y0250528D01*
X0099807Y0226165D02*
X0052856Y0226165D01*
X0051901Y0225379D02*
X0095871Y0225379D01*
X0095085Y0224593D02*
X0050947Y0224593D01*
X0049993Y0223807D02*
X0094299Y0223807D01*
X0093513Y0223021D02*
X0049038Y0223021D01*
X0048084Y0222235D02*
X0092929Y0222235D01*
X0092929Y0221449D02*
X0047130Y0221449D01*
X0046176Y0220663D02*
X0092391Y0220663D01*
X0088342Y0216734D02*
X0099228Y0216734D01*
X0099228Y0215948D02*
X0089128Y0215948D01*
X0089395Y0215680D02*
X0088121Y0216954D01*
X0086320Y0216954D01*
X0085046Y0215680D01*
X0085046Y0213879D01*
X0085843Y0213082D01*
X0085843Y0208603D01*
X0085046Y0207806D01*
X0085046Y0206005D01*
X0086320Y0204731D01*
X0088121Y0204731D01*
X0089395Y0206005D01*
X0089395Y0207806D01*
X0088598Y0208603D01*
X0088598Y0213082D01*
X0089395Y0213879D01*
X0089395Y0215680D01*
X0089395Y0215162D02*
X0099228Y0215162D01*
X0099228Y0214376D02*
X0089395Y0214376D01*
X0089107Y0213590D02*
X0099228Y0213590D01*
X0099228Y0212804D02*
X0088598Y0212804D01*
X0088598Y0212018D02*
X0099228Y0212018D01*
X0099228Y0211232D02*
X0088598Y0211232D01*
X0088598Y0210447D02*
X0099228Y0210447D01*
X0099228Y0209661D02*
X0088598Y0209661D01*
X0088598Y0208875D02*
X0099228Y0208875D01*
X0099228Y0208089D02*
X0089113Y0208089D01*
X0089395Y0207303D02*
X0099835Y0207303D01*
X0100621Y0206517D02*
X0089395Y0206517D01*
X0089122Y0205731D02*
X0101407Y0205731D01*
X0102193Y0204945D02*
X0088336Y0204945D01*
X0086105Y0204945D02*
X0066593Y0204945D01*
X0066804Y0204159D02*
X0102378Y0204159D01*
X0102378Y0203373D02*
X0066831Y0203373D01*
X0066831Y0202587D02*
X0102378Y0202587D01*
X0102378Y0201801D02*
X0066831Y0201801D01*
X0066831Y0201016D02*
X0102378Y0201016D01*
X0102378Y0200230D02*
X0066811Y0200230D01*
X0066600Y0199444D02*
X0102219Y0199444D01*
X0101434Y0198658D02*
X0066390Y0198658D01*
X0066179Y0197872D02*
X0100648Y0197872D01*
X0099862Y0197086D02*
X0065968Y0197086D01*
X0065641Y0196300D02*
X0099076Y0196300D01*
X0105331Y0198244D02*
X0105331Y0206118D01*
X0102181Y0209268D01*
X0102181Y0220291D01*
X0101394Y0221079D01*
X0101394Y0221866D01*
X0087220Y0214780D02*
X0087220Y0206906D01*
X0085046Y0206517D02*
X0066172Y0206517D01*
X0066382Y0205731D02*
X0085319Y0205731D01*
X0085046Y0207303D02*
X0065961Y0207303D01*
X0065625Y0208089D02*
X0085328Y0208089D01*
X0085843Y0208875D02*
X0065172Y0208875D01*
X0064718Y0209661D02*
X0085843Y0209661D01*
X0085843Y0210447D02*
X0064264Y0210447D01*
X0063684Y0211232D02*
X0085843Y0211232D01*
X0085843Y0212018D02*
X0062898Y0212018D01*
X0062113Y0212804D02*
X0085843Y0212804D01*
X0085334Y0213590D02*
X0061325Y0213590D01*
X0059964Y0214376D02*
X0085046Y0214376D01*
X0085046Y0215162D02*
X0058603Y0215162D01*
X0056277Y0215948D02*
X0085313Y0215948D01*
X0086099Y0216734D02*
X0041824Y0216734D01*
X0041060Y0215948D02*
X0048873Y0215948D01*
X0046547Y0215162D02*
X0040295Y0215162D01*
X0039531Y0214376D02*
X0045185Y0214376D01*
X0043824Y0213590D02*
X0038766Y0213590D01*
X0038002Y0212804D02*
X0043037Y0212804D01*
X0042251Y0212018D02*
X0037237Y0212018D01*
X0036473Y0211232D02*
X0041465Y0211232D01*
X0040886Y0210447D02*
X0035708Y0210447D01*
X0034943Y0209661D02*
X0040432Y0209661D01*
X0039978Y0208875D02*
X0034179Y0208875D01*
X0033532Y0208089D02*
X0039524Y0208089D01*
X0039188Y0207303D02*
X0032921Y0207303D01*
X0032309Y0206517D02*
X0038978Y0206517D01*
X0038767Y0205731D02*
X0031697Y0205731D01*
X0031086Y0204945D02*
X0038557Y0204945D01*
X0038346Y0204159D02*
X0030474Y0204159D01*
X0029862Y0203373D02*
X0038319Y0203373D01*
X0038319Y0202587D02*
X0029251Y0202587D01*
X0028639Y0201801D02*
X0038319Y0201801D01*
X0038319Y0201016D02*
X0028027Y0201016D01*
X0027415Y0200230D02*
X0038339Y0200230D01*
X0038549Y0199444D02*
X0026804Y0199444D01*
X0026192Y0198658D02*
X0038760Y0198658D01*
X0038971Y0197872D02*
X0025590Y0197872D01*
X0025107Y0197086D02*
X0039181Y0197086D01*
X0039509Y0196300D02*
X0024624Y0196300D01*
X0024141Y0195514D02*
X0039963Y0195514D01*
X0040416Y0194728D02*
X0023658Y0194728D01*
X0023175Y0193942D02*
X0040870Y0193942D01*
X0041439Y0193156D02*
X0022691Y0193156D01*
X0022208Y0192371D02*
X0042224Y0192371D01*
X0043010Y0191585D02*
X0021725Y0191585D01*
X0021242Y0190799D02*
X0043796Y0190799D01*
X0045139Y0190013D02*
X0020759Y0190013D01*
X0020276Y0189227D02*
X0046500Y0189227D01*
X0048773Y0188441D02*
X0019793Y0188441D01*
X0078875Y0143644D02*
X0096669Y0143644D01*
X0096669Y0144430D02*
X0079176Y0144430D01*
X0079478Y0145216D02*
X0096669Y0145216D01*
X0096949Y0146002D02*
X0079780Y0146002D01*
X0080081Y0146788D02*
X0097451Y0146788D01*
X0098237Y0147573D02*
X0080383Y0147573D01*
X0080705Y0148359D02*
X0099023Y0148359D01*
X0099809Y0149145D02*
X0081106Y0149145D01*
X0081506Y0149931D02*
X0100595Y0149931D01*
X0101381Y0150717D02*
X0081907Y0150717D01*
X0082307Y0151503D02*
X0102167Y0151503D01*
X0102953Y0152289D02*
X0082708Y0152289D01*
X0083123Y0153075D02*
X0103739Y0153075D01*
X0103954Y0153861D02*
X0083633Y0153861D01*
X0084144Y0154647D02*
X0104280Y0154647D01*
X0104970Y0155433D02*
X0084654Y0155433D01*
X0085164Y0156219D02*
X0106177Y0156219D01*
X0096669Y0142858D02*
X0078612Y0142858D01*
X0110798Y0196300D02*
X0189115Y0196300D01*
X0188788Y0197086D02*
X0114335Y0197086D01*
X0112075Y0197086D02*
X0110012Y0197086D01*
X0109226Y0197872D02*
X0111289Y0197872D01*
X0114583Y0204945D02*
X0119176Y0204945D01*
X0118390Y0205731D02*
X0114583Y0205731D01*
X0116354Y0217142D02*
X0117142Y0217142D01*
X0139189Y0209268D02*
X0145488Y0209268D01*
X0144377Y0211232D02*
X0140300Y0211232D01*
X0140300Y0207303D02*
X0144377Y0207303D01*
X0138465Y0180582D02*
X0174457Y0180582D01*
X0168752Y0162506D02*
X0245923Y0162506D01*
X0246146Y0161720D02*
X0169389Y0161720D01*
X0170025Y0160934D02*
X0246368Y0160934D01*
X0246590Y0160148D02*
X0170661Y0160148D01*
X0171305Y0159362D02*
X0246812Y0159362D01*
X0247035Y0158576D02*
X0171816Y0158576D01*
X0172326Y0157790D02*
X0247257Y0157790D01*
X0247479Y0157004D02*
X0172837Y0157004D01*
X0173347Y0156219D02*
X0247701Y0156219D01*
X0247923Y0155433D02*
X0173857Y0155433D01*
X0174382Y0154647D02*
X0248146Y0154647D01*
X0248299Y0153861D02*
X0174782Y0153861D01*
X0175183Y0153075D02*
X0248430Y0153075D01*
X0248561Y0152289D02*
X0175583Y0152289D01*
X0175984Y0151503D02*
X0248693Y0151503D01*
X0248824Y0150717D02*
X0176384Y0150717D01*
X0176829Y0149931D02*
X0248955Y0149931D01*
X0249086Y0149145D02*
X0177185Y0149145D01*
X0177445Y0148359D02*
X0249217Y0148359D01*
X0249348Y0147573D02*
X0177747Y0147573D01*
X0178048Y0146788D02*
X0249479Y0146788D01*
X0249611Y0146002D02*
X0178350Y0146002D01*
X0178652Y0145216D02*
X0249742Y0145216D01*
X0249873Y0144430D02*
X0178984Y0144430D01*
X0179217Y0143644D02*
X0250004Y0143644D01*
X0250135Y0142858D02*
X0199551Y0142858D01*
X0201449Y0142072D02*
X0250266Y0142072D01*
X0250397Y0141286D02*
X0202252Y0141286D01*
X0203038Y0140500D02*
X0250473Y0140500D01*
X0250516Y0139714D02*
X0203390Y0139714D01*
X0203716Y0138928D02*
X0250560Y0138928D01*
X0250603Y0138143D02*
X0203953Y0138143D01*
X0203953Y0137357D02*
X0250646Y0137357D01*
X0250690Y0136571D02*
X0203953Y0136571D01*
X0203828Y0135785D02*
X0250733Y0135785D01*
X0250776Y0134999D02*
X0203503Y0134999D01*
X0203177Y0134213D02*
X0250820Y0134213D01*
X0250863Y0133427D02*
X0202524Y0133427D01*
X0201738Y0132641D02*
X0250906Y0132641D01*
X0250950Y0131855D02*
X0210137Y0131855D01*
X0210874Y0131550D02*
X0209066Y0132299D01*
X0207108Y0132299D01*
X0205299Y0131550D01*
X0203915Y0130166D01*
X0203165Y0128357D01*
X0203165Y0126399D01*
X0203915Y0124590D01*
X0205299Y0123206D01*
X0207108Y0122457D01*
X0209066Y0122457D01*
X0210874Y0123206D01*
X0212259Y0124590D01*
X0213008Y0126399D01*
X0213008Y0128357D01*
X0212259Y0130166D01*
X0210874Y0131550D01*
X0211355Y0131069D02*
X0250993Y0131069D01*
X0251037Y0130283D02*
X0212141Y0130283D01*
X0212535Y0129498D02*
X0251080Y0129498D01*
X0251123Y0128712D02*
X0212861Y0128712D01*
X0213008Y0127926D02*
X0251167Y0127926D01*
X0251184Y0127140D02*
X0213008Y0127140D01*
X0212989Y0126354D02*
X0251140Y0126354D01*
X0251097Y0125568D02*
X0212664Y0125568D01*
X0212338Y0124782D02*
X0251054Y0124782D01*
X0251010Y0123996D02*
X0211664Y0123996D01*
X0210879Y0123210D02*
X0250967Y0123210D01*
X0250924Y0122424D02*
X0201359Y0122424D01*
X0201036Y0123210D02*
X0205295Y0123210D01*
X0204509Y0123996D02*
X0201822Y0123996D01*
X0202496Y0124782D02*
X0203835Y0124782D01*
X0203510Y0125568D02*
X0202821Y0125568D01*
X0203147Y0126354D02*
X0203184Y0126354D01*
X0203165Y0127140D02*
X0203165Y0127140D01*
X0203165Y0127926D02*
X0203165Y0127926D01*
X0203018Y0128712D02*
X0203312Y0128712D01*
X0203638Y0129498D02*
X0202693Y0129498D01*
X0202298Y0130283D02*
X0204032Y0130283D01*
X0204818Y0131069D02*
X0201512Y0131069D01*
X0200295Y0131855D02*
X0206036Y0131855D01*
X0202214Y0121638D02*
X0250880Y0121638D01*
X0250837Y0120852D02*
X0203000Y0120852D01*
X0203375Y0120067D02*
X0250793Y0120067D01*
X0250750Y0119281D02*
X0203700Y0119281D01*
X0203953Y0118495D02*
X0250707Y0118495D01*
X0250663Y0117709D02*
X0203953Y0117709D01*
X0203953Y0116923D02*
X0250620Y0116923D01*
X0250577Y0116137D02*
X0203844Y0116137D01*
X0203518Y0115351D02*
X0250533Y0115351D01*
X0250490Y0114565D02*
X0203193Y0114565D01*
X0202561Y0113779D02*
X0250447Y0113779D01*
X0250445Y0113757D02*
X0250445Y0113757D01*
X0250318Y0112993D02*
X0201775Y0112993D01*
X0200299Y0112207D02*
X0250187Y0112207D01*
X0250056Y0111422D02*
X0179277Y0111422D01*
X0179072Y0110636D02*
X0249925Y0110636D01*
X0249793Y0109850D02*
X0178770Y0109850D01*
X0178469Y0109064D02*
X0249662Y0109064D01*
X0249531Y0108278D02*
X0178167Y0108278D01*
X0177865Y0107492D02*
X0249400Y0107492D01*
X0249269Y0106706D02*
X0177564Y0106706D01*
X0177262Y0105920D02*
X0249138Y0105920D01*
X0249006Y0105134D02*
X0176960Y0105134D01*
X0176542Y0104348D02*
X0248875Y0104348D01*
X0248744Y0103562D02*
X0176141Y0103562D01*
X0175741Y0102776D02*
X0248613Y0102776D01*
X0248482Y0101991D02*
X0175340Y0101991D01*
X0174940Y0101205D02*
X0248351Y0101205D01*
X0248220Y0100419D02*
X0174569Y0100419D01*
X0174058Y0099633D02*
X0248011Y0099633D01*
X0247789Y0098847D02*
X0173548Y0098847D01*
X0173038Y0098061D02*
X0247567Y0098061D01*
X0247344Y0097275D02*
X0172527Y0097275D01*
X0172017Y0096489D02*
X0247122Y0096489D01*
X0246900Y0095703D02*
X0171549Y0095703D01*
X0170912Y0094917D02*
X0246678Y0094917D01*
X0246455Y0094131D02*
X0170276Y0094131D01*
X0169639Y0093346D02*
X0246233Y0093346D01*
X0246011Y0092560D02*
X0169003Y0092560D01*
X0169107Y0091774D02*
X0245789Y0091774D01*
X0245566Y0090988D02*
X0169893Y0090988D01*
X0170679Y0090202D02*
X0245344Y0090202D01*
X0245122Y0089416D02*
X0171464Y0089416D01*
X0172250Y0088630D02*
X0244900Y0088630D01*
X0244677Y0087844D02*
X0173036Y0087844D01*
X0173822Y0087058D02*
X0244441Y0087058D01*
X0244122Y0086272D02*
X0174608Y0086272D01*
X0175394Y0085486D02*
X0243803Y0085486D01*
X0243483Y0084700D02*
X0176180Y0084700D01*
X0176966Y0083915D02*
X0243164Y0083915D01*
X0242845Y0083129D02*
X0177752Y0083129D01*
X0178538Y0082343D02*
X0242526Y0082343D01*
X0242206Y0081557D02*
X0179324Y0081557D01*
X0180110Y0080771D02*
X0241887Y0080771D01*
X0241568Y0079985D02*
X0180895Y0079985D01*
X0181681Y0079199D02*
X0241249Y0079199D01*
X0240930Y0078413D02*
X0182467Y0078413D01*
X0183253Y0077627D02*
X0240610Y0077627D01*
X0240291Y0076841D02*
X0184039Y0076841D01*
X0184825Y0076055D02*
X0239972Y0076055D01*
X0239653Y0075270D02*
X0185611Y0075270D01*
X0186397Y0074484D02*
X0239327Y0074484D01*
X0238901Y0073698D02*
X0187183Y0073698D01*
X0187969Y0072912D02*
X0238476Y0072912D01*
X0238051Y0072126D02*
X0188755Y0072126D01*
X0189540Y0071340D02*
X0237625Y0071340D01*
X0237200Y0070554D02*
X0190326Y0070554D01*
X0191112Y0069768D02*
X0236775Y0069768D01*
X0236349Y0068982D02*
X0191898Y0068982D01*
X0192684Y0068196D02*
X0235924Y0068196D01*
X0235499Y0067410D02*
X0193470Y0067410D01*
X0194256Y0066624D02*
X0199535Y0066624D01*
X0196643Y0065839D02*
X0195042Y0065839D01*
X0204828Y0066624D02*
X0235074Y0066624D01*
X0234648Y0065839D02*
X0207719Y0065839D01*
X0209081Y0065053D02*
X0234223Y0065053D01*
X0233798Y0064267D02*
X0210442Y0064267D01*
X0211436Y0063481D02*
X0233372Y0063481D01*
X0232947Y0062695D02*
X0212222Y0062695D01*
X0213008Y0061909D02*
X0232426Y0061909D01*
X0231881Y0061123D02*
X0213707Y0061123D01*
X0214161Y0060337D02*
X0231336Y0060337D01*
X0230791Y0059551D02*
X0214615Y0059551D01*
X0215068Y0058765D02*
X0230246Y0058765D01*
X0229701Y0057979D02*
X0215492Y0057979D01*
X0215702Y0057194D02*
X0229156Y0057194D01*
X0228611Y0056408D02*
X0215913Y0056408D01*
X0216123Y0055622D02*
X0228066Y0055622D01*
X0227522Y0054836D02*
X0216334Y0054836D01*
X0216437Y0054050D02*
X0226977Y0054050D01*
X0226432Y0053264D02*
X0216437Y0053264D01*
X0216437Y0052478D02*
X0225887Y0052478D01*
X0225342Y0051692D02*
X0216437Y0051692D01*
X0216437Y0050906D02*
X0224722Y0050906D01*
X0224038Y0050120D02*
X0216282Y0050120D01*
X0216072Y0049334D02*
X0223353Y0049334D01*
X0222669Y0048548D02*
X0215861Y0048548D01*
X0215650Y0047763D02*
X0221984Y0047763D01*
X0221300Y0046977D02*
X0215410Y0046977D01*
X0214957Y0046191D02*
X0220615Y0046191D01*
X0219931Y0045405D02*
X0214503Y0045405D01*
X0214049Y0044619D02*
X0219247Y0044619D01*
X0218562Y0043833D02*
X0213595Y0043833D01*
X0212814Y0043047D02*
X0217878Y0043047D01*
X0217193Y0042261D02*
X0212028Y0042261D01*
X0211242Y0041475D02*
X0216509Y0041475D01*
X0215749Y0040689D02*
X0210107Y0040689D01*
X0208745Y0039903D02*
X0214895Y0039903D01*
X0214041Y0039118D02*
X0207038Y0039118D01*
X0204105Y0038332D02*
X0213188Y0038332D01*
X0212334Y0037546D02*
X0042288Y0037546D01*
X0041523Y0038332D02*
X0050651Y0038332D01*
X0046754Y0033616D02*
X0208065Y0033616D01*
X0207212Y0032830D02*
X0047708Y0032830D01*
X0048663Y0032044D02*
X0206358Y0032044D01*
X0205356Y0031258D02*
X0049617Y0031258D01*
X0050571Y0030472D02*
X0204286Y0030472D01*
X0203217Y0029687D02*
X0051525Y0029687D01*
X0052480Y0028901D02*
X0202148Y0028901D01*
X0201078Y0028115D02*
X0053434Y0028115D01*
X0054477Y0027329D02*
X0200009Y0027329D01*
X0198940Y0026543D02*
X0055680Y0026543D01*
X0056883Y0025757D02*
X0197871Y0025757D01*
X0196801Y0024971D02*
X0058086Y0024971D01*
X0059289Y0024185D02*
X0195732Y0024185D01*
X0194543Y0023399D02*
X0060491Y0023399D01*
X0061694Y0022613D02*
X0193182Y0022613D01*
X0191821Y0021827D02*
X0062897Y0021827D01*
X0064100Y0021042D02*
X0190460Y0021042D01*
X0189098Y0020256D02*
X0065303Y0020256D01*
X0066808Y0019470D02*
X0187737Y0019470D01*
X0186376Y0018684D02*
X0068361Y0018684D01*
X0069914Y0017898D02*
X0185015Y0017898D01*
X0183653Y0017112D02*
X0071467Y0017112D01*
X0073020Y0016326D02*
X0181978Y0016326D01*
X0180186Y0015540D02*
X0074573Y0015540D01*
X0076126Y0014754D02*
X0178394Y0014754D01*
X0176603Y0013968D02*
X0077693Y0013968D01*
X0079792Y0013182D02*
X0174811Y0013182D01*
X0173019Y0012396D02*
X0081891Y0012396D01*
X0083990Y0011611D02*
X0171228Y0011611D01*
X0168890Y0010825D02*
X0086089Y0010825D01*
X0088188Y0010039D02*
X0166377Y0010039D01*
X0163864Y0009253D02*
X0090287Y0009253D01*
X0093329Y0008467D02*
X0161351Y0008467D01*
X0158839Y0007681D02*
X0096433Y0007681D01*
X0099536Y0006895D02*
X0155456Y0006895D01*
X0151432Y0006109D02*
X0102640Y0006109D01*
X0107480Y0005323D02*
X0147409Y0005323D01*
X0142029Y0004537D02*
X0113148Y0004537D01*
X0125515Y0003751D02*
X0132544Y0003751D01*
X0194255Y0040689D02*
X0060500Y0040689D01*
X0059139Y0039903D02*
X0195617Y0039903D01*
X0197324Y0039118D02*
X0057432Y0039118D01*
X0054499Y0038332D02*
X0200257Y0038332D01*
X0208919Y0034402D02*
X0045800Y0034402D01*
X0044845Y0035188D02*
X0209773Y0035188D01*
X0210627Y0035974D02*
X0043891Y0035974D01*
X0043052Y0036760D02*
X0211480Y0036760D01*
X0174148Y0074484D02*
X0139620Y0074484D01*
X0142553Y0075270D02*
X0173362Y0075270D01*
X0172576Y0076055D02*
X0145088Y0076055D01*
X0147136Y0076841D02*
X0171790Y0076841D01*
X0171004Y0077627D02*
X0149256Y0077627D01*
X0150798Y0078413D02*
X0170218Y0078413D01*
X0169432Y0079199D02*
X0152341Y0079199D01*
X0153883Y0079985D02*
X0168646Y0079985D01*
X0167860Y0080771D02*
X0155236Y0080771D01*
X0156446Y0081557D02*
X0167075Y0081557D01*
X0166289Y0082343D02*
X0157656Y0082343D01*
X0158953Y0083129D02*
X0165503Y0083129D01*
X0164717Y0083915D02*
X0159926Y0083915D01*
X0160897Y0084700D02*
X0163931Y0084700D01*
X0163145Y0085486D02*
X0161867Y0085486D01*
X0179488Y0112207D02*
X0196190Y0112207D01*
X0194713Y0112993D02*
X0179698Y0112993D01*
X0179909Y0113779D02*
X0193927Y0113779D01*
X0193295Y0114565D02*
X0180119Y0114565D01*
X0180330Y0115351D02*
X0192970Y0115351D01*
X0192644Y0116137D02*
X0180541Y0116137D01*
X0180659Y0116923D02*
X0192535Y0116923D01*
X0192535Y0117709D02*
X0180783Y0117709D01*
X0180908Y0118495D02*
X0192535Y0118495D01*
X0192788Y0119281D02*
X0181032Y0119281D01*
X0181157Y0120067D02*
X0193114Y0120067D01*
X0193488Y0120852D02*
X0181281Y0120852D01*
X0181412Y0121638D02*
X0194274Y0121638D01*
X0195129Y0122424D02*
X0191360Y0122424D01*
X0192307Y0123210D02*
X0195452Y0123210D01*
X0194666Y0123996D02*
X0193093Y0123996D01*
X0193505Y0124782D02*
X0193993Y0124782D01*
X0186191Y0132641D02*
X0181481Y0132641D01*
X0181478Y0131855D02*
X0184806Y0131855D01*
X0184020Y0131069D02*
X0181520Y0131069D01*
X0181561Y0130283D02*
X0183426Y0130283D01*
X0183101Y0129498D02*
X0181602Y0129498D01*
X0181643Y0128712D02*
X0182775Y0128712D01*
X0182693Y0127926D02*
X0181706Y0127926D01*
X0181725Y0127140D02*
X0182693Y0127140D01*
X0182693Y0126354D02*
X0181659Y0126354D01*
X0181618Y0125568D02*
X0182972Y0125568D01*
X0183298Y0124782D02*
X0181577Y0124782D01*
X0181536Y0123996D02*
X0183710Y0123996D01*
X0184496Y0123210D02*
X0181495Y0123210D01*
X0181453Y0122424D02*
X0185443Y0122424D01*
X0179615Y0142072D02*
X0195040Y0142072D01*
X0196937Y0142858D02*
X0179405Y0142858D01*
X0205983Y0188441D02*
X0234906Y0188441D01*
X0234481Y0189227D02*
X0208256Y0189227D01*
X0209617Y0190013D02*
X0234055Y0190013D01*
X0233630Y0190799D02*
X0210960Y0190799D01*
X0211746Y0191585D02*
X0233205Y0191585D01*
X0232756Y0192371D02*
X0212531Y0192371D01*
X0213317Y0193156D02*
X0232211Y0193156D01*
X0231666Y0193942D02*
X0213886Y0193942D01*
X0214339Y0194728D02*
X0231121Y0194728D01*
X0230577Y0195514D02*
X0214793Y0195514D01*
X0215247Y0196300D02*
X0230032Y0196300D01*
X0229487Y0197086D02*
X0215575Y0197086D01*
X0215785Y0197872D02*
X0228942Y0197872D01*
X0228397Y0198658D02*
X0215996Y0198658D01*
X0216206Y0199444D02*
X0227852Y0199444D01*
X0227307Y0200230D02*
X0216417Y0200230D01*
X0216437Y0201016D02*
X0226762Y0201016D01*
X0226217Y0201801D02*
X0216437Y0201801D01*
X0216437Y0202587D02*
X0225672Y0202587D01*
X0225127Y0203373D02*
X0216437Y0203373D01*
X0216410Y0204159D02*
X0224453Y0204159D01*
X0223768Y0204945D02*
X0216199Y0204945D01*
X0215989Y0205731D02*
X0223084Y0205731D01*
X0222399Y0206517D02*
X0215778Y0206517D01*
X0215568Y0207303D02*
X0221715Y0207303D01*
X0221030Y0208089D02*
X0215232Y0208089D01*
X0214778Y0208875D02*
X0220346Y0208875D01*
X0219661Y0209661D02*
X0214324Y0209661D01*
X0213870Y0210447D02*
X0218977Y0210447D01*
X0218293Y0211232D02*
X0213291Y0211232D01*
X0212505Y0212018D02*
X0217608Y0212018D01*
X0216924Y0212804D02*
X0211719Y0212804D01*
X0210932Y0213590D02*
X0216239Y0213590D01*
X0215413Y0214376D02*
X0209571Y0214376D01*
X0208209Y0215162D02*
X0214559Y0215162D01*
X0213705Y0215948D02*
X0205883Y0215948D01*
D16*
X0194307Y0228953D03*
X0221866Y0202969D03*
X0213205Y0174622D03*
X0200606Y0162024D03*
X0201394Y0143913D03*
X0217929Y0135252D03*
X0213992Y0121866D03*
X0197457Y0109268D03*
X0178559Y0103756D03*
X0187220Y0088008D03*
X0183283Y0082496D03*
X0179346Y0086433D03*
X0164386Y0079346D03*
X0162811Y0069898D03*
X0158087Y0061236D03*
X0169898Y0054150D03*
X0181709Y0062811D03*
X0193520Y0069898D03*
X0196669Y0086433D03*
X0231315Y0064386D03*
X0206118Y0035252D03*
X0171472Y0013992D03*
X0154150Y0047063D03*
X0146276Y0056512D03*
X0121079Y0070685D03*
X0104543Y0074622D03*
X0096669Y0070685D03*
X0083283Y0070685D03*
X0091945Y0083283D03*
X0080134Y0091945D03*
X0066748Y0085646D03*
X0058087Y0085646D03*
X0051000Y0086433D03*
X0048638Y0091157D03*
X0039189Y0098244D03*
X0036039Y0095094D03*
X0030528Y0092732D03*
X0030528Y0105331D03*
X0032102Y0110055D03*
X0021079Y0117142D03*
X0028165Y0123441D03*
X0044701Y0123441D03*
X0069898Y0128953D03*
X0082496Y0162024D03*
X0091945Y0171472D03*
X0089583Y0180134D03*
X0088008Y0188008D03*
X0082496Y0188008D03*
X0090370Y0197457D03*
X0098244Y0203756D03*
X0106118Y0211630D03*
X0097457Y0221079D03*
X0094307Y0219504D03*
X0101394Y0221866D03*
X0106906Y0225016D03*
X0105331Y0234465D03*
X0101394Y0236827D03*
X0103756Y0246276D03*
X0080921Y0228953D03*
X0075409Y0236039D03*
X0068323Y0218717D03*
X0069898Y0206906D03*
X0069110Y0195882D03*
X0060449Y0185646D03*
X0067535Y0175409D03*
X0096669Y0188008D03*
X0099819Y0188795D03*
X0109268Y0188795D03*
X0118717Y0188008D03*
X0121079Y0192732D03*
X0128165Y0191945D03*
X0124228Y0199819D03*
X0120291Y0206906D03*
X0115567Y0202181D03*
X0113205Y0199031D03*
X0116354Y0213992D03*
X0116354Y0217142D03*
X0132102Y0206118D03*
X0139189Y0209268D03*
X0138402Y0214780D03*
X0145488Y0209268D03*
X0167535Y0194307D03*
X0169110Y0178559D03*
X0159661Y0178559D03*
X0144701Y0186433D03*
X0135252Y0184858D03*
X0136827Y0152575D03*
X0129740Y0152575D03*
X0122654Y0152575D03*
X0115567Y0152575D03*
X0107693Y0152575D03*
X0110055Y0127378D03*
X0105331Y0127378D03*
X0124228Y0127378D03*
X0142339Y0127378D03*
X0146276Y0127378D03*
X0144701Y0137614D03*
X0149425Y0151787D03*
X0173047Y0162024D03*
X0180921Y0143913D03*
X0182496Y0131315D03*
X0195094Y0187220D03*
X0186433Y0195882D03*
X0143126Y0232890D03*
X0132102Y0239976D03*
X0154150Y0245488D03*
X0087220Y0214780D03*
X0087220Y0206906D03*
X0049425Y0219504D03*
X0028165Y0195882D03*
X0012417Y0165173D03*
X0006906Y0129740D03*
X0010055Y0099819D03*
X0013205Y0088008D03*
X0023441Y0077772D03*
X0023441Y0067535D03*
X0037614Y0066748D03*
X0059661Y0068323D03*
X0069110Y0058874D03*
X0066748Y0022654D03*
X0121079Y0006118D03*
X0245488Y0101394D03*
X0247850Y0139189D03*
X0239976Y0172260D03*
D17*
X0202181Y0202181D02*
X0161236Y0161236D01*
X0161236Y0158874D01*
X0154937Y0137378D02*
X0154937Y0132378D01*
X0154937Y0127378D01*
X0154937Y0122378D01*
X0154937Y0127378D02*
X0142339Y0127378D01*
X0139189Y0127378D01*
X0115567Y0127378D02*
X0110055Y0127378D01*
X0099819Y0127378D01*
X0099819Y0132378D01*
X0099819Y0127378D02*
X0099819Y0122378D01*
X0099819Y0117378D01*
X0092732Y0094307D02*
X0092732Y0092732D01*
X0052575Y0052575D01*
X0113992Y0060449D02*
X0113992Y0080134D01*
X0115567Y0081709D01*
X0113992Y0060449D02*
X0117535Y0056906D01*
X0117535Y0056512D01*
X0160449Y0093520D02*
X0161236Y0093520D01*
X0202181Y0052575D01*
X0172260Y0136039D02*
X0173441Y0137220D01*
X0198244Y0137220D01*
X0094307Y0158087D02*
X0094307Y0160449D01*
X0052575Y0202181D01*
D18*
X0089583Y0128165D03*
X0089583Y0123441D03*
X0089583Y0118717D03*
M02*
