G75*
%MOIN*%
%OFA0B0*%
%FSLAX25Y25*%
%IPPOS*%
%LPD*%
%AMOC8*
5,1,8,0,0,1.08239X$1,22.5*
%
%ADD10C,0.00000*%
%ADD11C,0.01575*%
D10*
X0002969Y0014780D02*
X0047063Y0014780D01*
X0047063Y0014779D02*
X0047140Y0014781D01*
X0047217Y0014787D01*
X0047294Y0014796D01*
X0047370Y0014809D01*
X0047446Y0014826D01*
X0047520Y0014847D01*
X0047594Y0014871D01*
X0047666Y0014899D01*
X0047736Y0014930D01*
X0047805Y0014965D01*
X0047873Y0015003D01*
X0047938Y0015044D01*
X0048001Y0015089D01*
X0048062Y0015137D01*
X0048121Y0015187D01*
X0048177Y0015240D01*
X0048230Y0015296D01*
X0048280Y0015355D01*
X0048328Y0015416D01*
X0048373Y0015479D01*
X0048414Y0015544D01*
X0048452Y0015612D01*
X0048487Y0015681D01*
X0048518Y0015751D01*
X0048546Y0015823D01*
X0048570Y0015897D01*
X0048591Y0015971D01*
X0048608Y0016047D01*
X0048621Y0016123D01*
X0048630Y0016200D01*
X0048636Y0016277D01*
X0048638Y0016354D01*
X0048638Y0091945D01*
X0048636Y0092022D01*
X0048630Y0092099D01*
X0048621Y0092176D01*
X0048608Y0092252D01*
X0048591Y0092328D01*
X0048570Y0092402D01*
X0048546Y0092476D01*
X0048518Y0092548D01*
X0048487Y0092618D01*
X0048452Y0092687D01*
X0048414Y0092755D01*
X0048373Y0092820D01*
X0048328Y0092883D01*
X0048280Y0092944D01*
X0048230Y0093003D01*
X0048177Y0093059D01*
X0048121Y0093112D01*
X0048062Y0093162D01*
X0048001Y0093210D01*
X0047938Y0093255D01*
X0047873Y0093296D01*
X0047805Y0093334D01*
X0047736Y0093369D01*
X0047666Y0093400D01*
X0047594Y0093428D01*
X0047520Y0093452D01*
X0047446Y0093473D01*
X0047370Y0093490D01*
X0047294Y0093503D01*
X0047217Y0093512D01*
X0047140Y0093518D01*
X0047063Y0093520D01*
X0002969Y0093520D01*
X0002892Y0093518D01*
X0002815Y0093512D01*
X0002738Y0093503D01*
X0002662Y0093490D01*
X0002586Y0093473D01*
X0002512Y0093452D01*
X0002438Y0093428D01*
X0002366Y0093400D01*
X0002296Y0093369D01*
X0002227Y0093334D01*
X0002159Y0093296D01*
X0002094Y0093255D01*
X0002031Y0093210D01*
X0001970Y0093162D01*
X0001911Y0093112D01*
X0001855Y0093059D01*
X0001802Y0093003D01*
X0001752Y0092944D01*
X0001704Y0092883D01*
X0001659Y0092820D01*
X0001618Y0092755D01*
X0001580Y0092687D01*
X0001545Y0092618D01*
X0001514Y0092548D01*
X0001486Y0092476D01*
X0001462Y0092402D01*
X0001441Y0092328D01*
X0001424Y0092252D01*
X0001411Y0092176D01*
X0001402Y0092099D01*
X0001396Y0092022D01*
X0001394Y0091945D01*
X0001394Y0016354D01*
X0001396Y0016277D01*
X0001402Y0016200D01*
X0001411Y0016123D01*
X0001424Y0016047D01*
X0001441Y0015971D01*
X0001462Y0015897D01*
X0001486Y0015823D01*
X0001514Y0015751D01*
X0001545Y0015681D01*
X0001580Y0015612D01*
X0001618Y0015544D01*
X0001659Y0015479D01*
X0001704Y0015416D01*
X0001752Y0015355D01*
X0001802Y0015296D01*
X0001855Y0015240D01*
X0001911Y0015187D01*
X0001970Y0015137D01*
X0002031Y0015089D01*
X0002094Y0015044D01*
X0002159Y0015003D01*
X0002227Y0014965D01*
X0002296Y0014930D01*
X0002366Y0014899D01*
X0002438Y0014871D01*
X0002512Y0014847D01*
X0002586Y0014826D01*
X0002662Y0014809D01*
X0002738Y0014796D01*
X0002815Y0014787D01*
X0002892Y0014781D01*
X0002969Y0014779D01*
D11*
X0014228Y0026197D02*
X0015804Y0026197D01*
X0015804Y0015961D01*
X0014228Y0015961D01*
X0014228Y0026197D01*
X0014228Y0017535D02*
X0015804Y0017535D01*
X0015804Y0019109D02*
X0014228Y0019109D01*
X0014228Y0020683D02*
X0015804Y0020683D01*
X0015804Y0022257D02*
X0014228Y0022257D01*
X0014228Y0023831D02*
X0015804Y0023831D01*
X0015804Y0025405D02*
X0014228Y0025405D01*
X0019228Y0026197D02*
X0020804Y0026197D01*
X0020804Y0015961D01*
X0019228Y0015961D01*
X0019228Y0026197D01*
X0019228Y0017535D02*
X0020804Y0017535D01*
X0020804Y0019109D02*
X0019228Y0019109D01*
X0019228Y0020683D02*
X0020804Y0020683D01*
X0020804Y0022257D02*
X0019228Y0022257D01*
X0019228Y0023831D02*
X0020804Y0023831D01*
X0020804Y0025405D02*
X0019228Y0025405D01*
X0024228Y0026197D02*
X0025804Y0026197D01*
X0025804Y0015961D01*
X0024228Y0015961D01*
X0024228Y0026197D01*
X0024228Y0017535D02*
X0025804Y0017535D01*
X0025804Y0019109D02*
X0024228Y0019109D01*
X0024228Y0020683D02*
X0025804Y0020683D01*
X0025804Y0022257D02*
X0024228Y0022257D01*
X0024228Y0023831D02*
X0025804Y0023831D01*
X0025804Y0025405D02*
X0024228Y0025405D01*
X0029228Y0026197D02*
X0030804Y0026197D01*
X0030804Y0015961D01*
X0029228Y0015961D01*
X0029228Y0026197D01*
X0029228Y0017535D02*
X0030804Y0017535D01*
X0030804Y0019109D02*
X0029228Y0019109D01*
X0029228Y0020683D02*
X0030804Y0020683D01*
X0030804Y0022257D02*
X0029228Y0022257D01*
X0029228Y0023831D02*
X0030804Y0023831D01*
X0030804Y0025405D02*
X0029228Y0025405D01*
X0034228Y0026197D02*
X0035804Y0026197D01*
X0035804Y0015961D01*
X0034228Y0015961D01*
X0034228Y0026197D01*
X0034228Y0017535D02*
X0035804Y0017535D01*
X0035804Y0019109D02*
X0034228Y0019109D01*
X0034228Y0020683D02*
X0035804Y0020683D01*
X0035804Y0022257D02*
X0034228Y0022257D01*
X0034228Y0023831D02*
X0035804Y0023831D01*
X0035804Y0025405D02*
X0034228Y0025405D01*
X0034228Y0092338D02*
X0035804Y0092338D01*
X0035804Y0082102D01*
X0034228Y0082102D01*
X0034228Y0092338D01*
X0034228Y0083676D02*
X0035804Y0083676D01*
X0035804Y0085250D02*
X0034228Y0085250D01*
X0034228Y0086824D02*
X0035804Y0086824D01*
X0035804Y0088398D02*
X0034228Y0088398D01*
X0034228Y0089972D02*
X0035804Y0089972D01*
X0035804Y0091546D02*
X0034228Y0091546D01*
X0030804Y0092338D02*
X0029228Y0092338D01*
X0030804Y0092338D02*
X0030804Y0082102D01*
X0029228Y0082102D01*
X0029228Y0092338D01*
X0029228Y0083676D02*
X0030804Y0083676D01*
X0030804Y0085250D02*
X0029228Y0085250D01*
X0029228Y0086824D02*
X0030804Y0086824D01*
X0030804Y0088398D02*
X0029228Y0088398D01*
X0029228Y0089972D02*
X0030804Y0089972D01*
X0030804Y0091546D02*
X0029228Y0091546D01*
X0025804Y0092338D02*
X0024228Y0092338D01*
X0025804Y0092338D02*
X0025804Y0082102D01*
X0024228Y0082102D01*
X0024228Y0092338D01*
X0024228Y0083676D02*
X0025804Y0083676D01*
X0025804Y0085250D02*
X0024228Y0085250D01*
X0024228Y0086824D02*
X0025804Y0086824D01*
X0025804Y0088398D02*
X0024228Y0088398D01*
X0024228Y0089972D02*
X0025804Y0089972D01*
X0025804Y0091546D02*
X0024228Y0091546D01*
X0020804Y0092338D02*
X0019228Y0092338D01*
X0020804Y0092338D02*
X0020804Y0082102D01*
X0019228Y0082102D01*
X0019228Y0092338D01*
X0019228Y0083676D02*
X0020804Y0083676D01*
X0020804Y0085250D02*
X0019228Y0085250D01*
X0019228Y0086824D02*
X0020804Y0086824D01*
X0020804Y0088398D02*
X0019228Y0088398D01*
X0019228Y0089972D02*
X0020804Y0089972D01*
X0020804Y0091546D02*
X0019228Y0091546D01*
X0015804Y0092338D02*
X0014228Y0092338D01*
X0015804Y0092338D02*
X0015804Y0082102D01*
X0014228Y0082102D01*
X0014228Y0092338D01*
X0014228Y0083676D02*
X0015804Y0083676D01*
X0015804Y0085250D02*
X0014228Y0085250D01*
X0014228Y0086824D02*
X0015804Y0086824D01*
X0015804Y0088398D02*
X0014228Y0088398D01*
X0014228Y0089972D02*
X0015804Y0089972D01*
X0015804Y0091546D02*
X0014228Y0091546D01*
M02*
