%
M48
M72
T01C0.0118
T02C0.0394
T03C0.0551
T04C0.1260
%
T01
X9037Y8013
X691Y8013
X3919Y9746
X6281Y8643
X6439Y7305
X7069Y8013
X8013Y9273
X8013Y9982
X6911Y9588
X9194Y9588
X9982Y9194
X10218Y8486
X10218Y7620
X9588Y6754
X7935Y6202
X7620Y6439
X7383Y6124
X6990Y6360
X6596Y5730
X7935Y5415
X6832Y4155
X7147Y3446
X8092Y3446
X8880Y3998
X7856Y612
X12344Y6124
X11557Y7935
X12344Y9824
X9982Y11872
X7856Y15257
X5966Y12029
X4076Y6439
X15336Y8171
T02
X6393Y8013
T03
X9633Y8013
T04
X3683Y3683
X3683Y12344
X12344Y3683
X12344Y12344
M30
