G75*
%MOIN*%
%OFA0B0*%
%FSLAX25Y25*%
%IPPOS*%
%LPD*%
%AMOC8*
5,1,8,0,0,1.08239X$1,22.5*
%
%ADD10C,0.00000*%
%ADD11C,0.01775*%
%ADD12R,0.05518X0.06306*%
%ADD13C,0.01675*%
%ADD14C,0.01086*%
%ADD15R,0.04337X0.04731*%
%ADD16C,0.01283*%
D10*
X0002969Y0014780D02*
X0047063Y0014780D01*
X0047063Y0014779D02*
X0047140Y0014781D01*
X0047217Y0014787D01*
X0047294Y0014796D01*
X0047370Y0014809D01*
X0047446Y0014826D01*
X0047520Y0014847D01*
X0047594Y0014871D01*
X0047666Y0014899D01*
X0047736Y0014930D01*
X0047805Y0014965D01*
X0047873Y0015003D01*
X0047938Y0015044D01*
X0048001Y0015089D01*
X0048062Y0015137D01*
X0048121Y0015187D01*
X0048177Y0015240D01*
X0048230Y0015296D01*
X0048280Y0015355D01*
X0048328Y0015416D01*
X0048373Y0015479D01*
X0048414Y0015544D01*
X0048452Y0015612D01*
X0048487Y0015681D01*
X0048518Y0015751D01*
X0048546Y0015823D01*
X0048570Y0015897D01*
X0048591Y0015971D01*
X0048608Y0016047D01*
X0048621Y0016123D01*
X0048630Y0016200D01*
X0048636Y0016277D01*
X0048638Y0016354D01*
X0048638Y0091945D01*
X0048636Y0092022D01*
X0048630Y0092099D01*
X0048621Y0092176D01*
X0048608Y0092252D01*
X0048591Y0092328D01*
X0048570Y0092402D01*
X0048546Y0092476D01*
X0048518Y0092548D01*
X0048487Y0092618D01*
X0048452Y0092687D01*
X0048414Y0092755D01*
X0048373Y0092820D01*
X0048328Y0092883D01*
X0048280Y0092944D01*
X0048230Y0093003D01*
X0048177Y0093059D01*
X0048121Y0093112D01*
X0048062Y0093162D01*
X0048001Y0093210D01*
X0047938Y0093255D01*
X0047873Y0093296D01*
X0047805Y0093334D01*
X0047736Y0093369D01*
X0047666Y0093400D01*
X0047594Y0093428D01*
X0047520Y0093452D01*
X0047446Y0093473D01*
X0047370Y0093490D01*
X0047294Y0093503D01*
X0047217Y0093512D01*
X0047140Y0093518D01*
X0047063Y0093520D01*
X0002969Y0093520D01*
X0002892Y0093518D01*
X0002815Y0093512D01*
X0002738Y0093503D01*
X0002662Y0093490D01*
X0002586Y0093473D01*
X0002512Y0093452D01*
X0002438Y0093428D01*
X0002366Y0093400D01*
X0002296Y0093369D01*
X0002227Y0093334D01*
X0002159Y0093296D01*
X0002094Y0093255D01*
X0002031Y0093210D01*
X0001970Y0093162D01*
X0001911Y0093112D01*
X0001855Y0093059D01*
X0001802Y0093003D01*
X0001752Y0092944D01*
X0001704Y0092883D01*
X0001659Y0092820D01*
X0001618Y0092755D01*
X0001580Y0092687D01*
X0001545Y0092618D01*
X0001514Y0092548D01*
X0001486Y0092476D01*
X0001462Y0092402D01*
X0001441Y0092328D01*
X0001424Y0092252D01*
X0001411Y0092176D01*
X0001402Y0092099D01*
X0001396Y0092022D01*
X0001394Y0091945D01*
X0001394Y0016354D01*
X0001396Y0016277D01*
X0001402Y0016200D01*
X0001411Y0016123D01*
X0001424Y0016047D01*
X0001441Y0015971D01*
X0001462Y0015897D01*
X0001486Y0015823D01*
X0001514Y0015751D01*
X0001545Y0015681D01*
X0001580Y0015612D01*
X0001618Y0015544D01*
X0001659Y0015479D01*
X0001704Y0015416D01*
X0001752Y0015355D01*
X0001802Y0015296D01*
X0001855Y0015240D01*
X0001911Y0015187D01*
X0001970Y0015137D01*
X0002031Y0015089D01*
X0002094Y0015044D01*
X0002159Y0015003D01*
X0002227Y0014965D01*
X0002296Y0014930D01*
X0002366Y0014899D01*
X0002438Y0014871D01*
X0002512Y0014847D01*
X0002586Y0014826D01*
X0002662Y0014809D01*
X0002738Y0014796D01*
X0002815Y0014787D01*
X0002892Y0014781D01*
X0002969Y0014779D01*
D11*
X0014128Y0026297D02*
X0015904Y0026297D01*
X0015904Y0015861D01*
X0014128Y0015861D01*
X0014128Y0026297D01*
X0014128Y0017635D02*
X0015904Y0017635D01*
X0015904Y0019409D02*
X0014128Y0019409D01*
X0014128Y0021183D02*
X0015904Y0021183D01*
X0015904Y0022957D02*
X0014128Y0022957D01*
X0014128Y0024731D02*
X0015904Y0024731D01*
X0019128Y0026297D02*
X0020904Y0026297D01*
X0020904Y0015861D01*
X0019128Y0015861D01*
X0019128Y0026297D01*
X0019128Y0017635D02*
X0020904Y0017635D01*
X0020904Y0019409D02*
X0019128Y0019409D01*
X0019128Y0021183D02*
X0020904Y0021183D01*
X0020904Y0022957D02*
X0019128Y0022957D01*
X0019128Y0024731D02*
X0020904Y0024731D01*
X0024128Y0026297D02*
X0025904Y0026297D01*
X0025904Y0015861D01*
X0024128Y0015861D01*
X0024128Y0026297D01*
X0024128Y0017635D02*
X0025904Y0017635D01*
X0025904Y0019409D02*
X0024128Y0019409D01*
X0024128Y0021183D02*
X0025904Y0021183D01*
X0025904Y0022957D02*
X0024128Y0022957D01*
X0024128Y0024731D02*
X0025904Y0024731D01*
X0029128Y0026297D02*
X0030904Y0026297D01*
X0030904Y0015861D01*
X0029128Y0015861D01*
X0029128Y0026297D01*
X0029128Y0017635D02*
X0030904Y0017635D01*
X0030904Y0019409D02*
X0029128Y0019409D01*
X0029128Y0021183D02*
X0030904Y0021183D01*
X0030904Y0022957D02*
X0029128Y0022957D01*
X0029128Y0024731D02*
X0030904Y0024731D01*
X0034128Y0026297D02*
X0035904Y0026297D01*
X0035904Y0015861D01*
X0034128Y0015861D01*
X0034128Y0026297D01*
X0034128Y0017635D02*
X0035904Y0017635D01*
X0035904Y0019409D02*
X0034128Y0019409D01*
X0034128Y0021183D02*
X0035904Y0021183D01*
X0035904Y0022957D02*
X0034128Y0022957D01*
X0034128Y0024731D02*
X0035904Y0024731D01*
X0035904Y0092438D02*
X0034128Y0092438D01*
X0035904Y0092438D02*
X0035904Y0082002D01*
X0034128Y0082002D01*
X0034128Y0092438D01*
X0034128Y0083776D02*
X0035904Y0083776D01*
X0035904Y0085550D02*
X0034128Y0085550D01*
X0034128Y0087324D02*
X0035904Y0087324D01*
X0035904Y0089098D02*
X0034128Y0089098D01*
X0034128Y0090872D02*
X0035904Y0090872D01*
X0030904Y0092438D02*
X0029128Y0092438D01*
X0030904Y0092438D02*
X0030904Y0082002D01*
X0029128Y0082002D01*
X0029128Y0092438D01*
X0029128Y0083776D02*
X0030904Y0083776D01*
X0030904Y0085550D02*
X0029128Y0085550D01*
X0029128Y0087324D02*
X0030904Y0087324D01*
X0030904Y0089098D02*
X0029128Y0089098D01*
X0029128Y0090872D02*
X0030904Y0090872D01*
X0025904Y0092438D02*
X0024128Y0092438D01*
X0025904Y0092438D02*
X0025904Y0082002D01*
X0024128Y0082002D01*
X0024128Y0092438D01*
X0024128Y0083776D02*
X0025904Y0083776D01*
X0025904Y0085550D02*
X0024128Y0085550D01*
X0024128Y0087324D02*
X0025904Y0087324D01*
X0025904Y0089098D02*
X0024128Y0089098D01*
X0024128Y0090872D02*
X0025904Y0090872D01*
X0020904Y0092438D02*
X0019128Y0092438D01*
X0020904Y0092438D02*
X0020904Y0082002D01*
X0019128Y0082002D01*
X0019128Y0092438D01*
X0019128Y0083776D02*
X0020904Y0083776D01*
X0020904Y0085550D02*
X0019128Y0085550D01*
X0019128Y0087324D02*
X0020904Y0087324D01*
X0020904Y0089098D02*
X0019128Y0089098D01*
X0019128Y0090872D02*
X0020904Y0090872D01*
X0015904Y0092438D02*
X0014128Y0092438D01*
X0015904Y0092438D02*
X0015904Y0082002D01*
X0014128Y0082002D01*
X0014128Y0092438D01*
X0014128Y0083776D02*
X0015904Y0083776D01*
X0015904Y0085550D02*
X0014128Y0085550D01*
X0014128Y0087324D02*
X0015904Y0087324D01*
X0015904Y0089098D02*
X0014128Y0089098D01*
X0014128Y0090872D02*
X0015904Y0090872D01*
D12*
X0036236Y0032102D03*
X0043717Y0032102D03*
D13*
X0026150Y0042189D02*
X0017582Y0042189D01*
X0017582Y0047213D01*
X0026150Y0047213D01*
X0026150Y0042189D01*
X0026150Y0043863D02*
X0017582Y0043863D01*
X0017582Y0045537D02*
X0026150Y0045537D01*
X0026150Y0047211D02*
X0017582Y0047211D01*
D14*
X0018472Y0049079D02*
X0018472Y0053117D01*
X0018472Y0049079D02*
X0017386Y0049079D01*
X0017386Y0053117D01*
X0018472Y0053117D01*
X0018472Y0050164D02*
X0017386Y0050164D01*
X0017386Y0051249D02*
X0018472Y0051249D01*
X0018472Y0052334D02*
X0017386Y0052334D01*
X0022409Y0053117D02*
X0022409Y0049079D01*
X0021323Y0049079D01*
X0021323Y0053117D01*
X0022409Y0053117D01*
X0022409Y0050164D02*
X0021323Y0050164D01*
X0021323Y0051249D02*
X0022409Y0051249D01*
X0022409Y0052334D02*
X0021323Y0052334D01*
X0026346Y0053117D02*
X0026346Y0049079D01*
X0025260Y0049079D01*
X0025260Y0053117D01*
X0026346Y0053117D01*
X0026346Y0050164D02*
X0025260Y0050164D01*
X0025260Y0051249D02*
X0026346Y0051249D01*
X0026346Y0052334D02*
X0025260Y0052334D01*
X0026346Y0040322D02*
X0026346Y0036284D01*
X0025260Y0036284D01*
X0025260Y0040322D01*
X0026346Y0040322D01*
X0026346Y0037369D02*
X0025260Y0037369D01*
X0025260Y0038454D02*
X0026346Y0038454D01*
X0026346Y0039539D02*
X0025260Y0039539D01*
X0022409Y0040322D02*
X0022409Y0036284D01*
X0021323Y0036284D01*
X0021323Y0040322D01*
X0022409Y0040322D01*
X0022409Y0037369D02*
X0021323Y0037369D01*
X0021323Y0038454D02*
X0022409Y0038454D01*
X0022409Y0039539D02*
X0021323Y0039539D01*
X0018472Y0040322D02*
X0018472Y0036284D01*
X0017386Y0036284D01*
X0017386Y0040322D01*
X0018472Y0040322D01*
X0018472Y0037369D02*
X0017386Y0037369D01*
X0017386Y0038454D02*
X0018472Y0038454D01*
X0018472Y0039539D02*
X0017386Y0039539D01*
D15*
X0032102Y0043717D03*
X0032102Y0050409D03*
X0037614Y0057890D03*
X0037614Y0064583D03*
X0037614Y0070488D03*
X0037614Y0077181D03*
D16*
X0031267Y0075558D02*
X0028213Y0075558D01*
X0031267Y0075558D02*
X0031267Y0074276D01*
X0028213Y0074276D01*
X0028213Y0075558D01*
X0031267Y0075558D01*
X0031267Y0070637D02*
X0028213Y0070637D01*
X0031267Y0070637D02*
X0031267Y0069355D01*
X0028213Y0069355D01*
X0028213Y0070637D01*
X0031267Y0070637D01*
X0031267Y0065716D02*
X0028213Y0065716D01*
X0031267Y0065716D02*
X0031267Y0064434D01*
X0028213Y0064434D01*
X0028213Y0065716D01*
X0031267Y0065716D01*
X0031267Y0060795D02*
X0028213Y0060795D01*
X0031267Y0060795D02*
X0031267Y0059513D01*
X0028213Y0059513D01*
X0028213Y0060795D01*
X0031267Y0060795D01*
X0023393Y0060795D02*
X0020339Y0060795D01*
X0023393Y0060795D02*
X0023393Y0059513D01*
X0020339Y0059513D01*
X0020339Y0060795D01*
X0023393Y0060795D01*
X0023393Y0065716D02*
X0020339Y0065716D01*
X0023393Y0065716D02*
X0023393Y0064434D01*
X0020339Y0064434D01*
X0020339Y0065716D01*
X0023393Y0065716D01*
X0023393Y0070637D02*
X0020339Y0070637D01*
X0023393Y0070637D02*
X0023393Y0069355D01*
X0020339Y0069355D01*
X0020339Y0070637D01*
X0023393Y0070637D01*
X0023393Y0075558D02*
X0020339Y0075558D01*
X0023393Y0075558D02*
X0023393Y0074276D01*
X0020339Y0074276D01*
X0020339Y0075558D01*
X0023393Y0075558D01*
M02*
