G75*
%MOIN*%
%OFA0B0*%
%FSLAX25Y25*%
%IPPOS*%
%LPD*%
%AMOC8*
5,1,8,0,0,1.08239X$1,22.5*
%
%ADD10C,0.00000*%
%ADD11C,0.00787*%
%ADD12C,0.00600*%
%ADD13C,0.01575*%
%ADD14C,0.01181*%
%ADD15C,0.00500*%
D10*
X0002969Y0014780D02*
X0047063Y0014780D01*
X0047063Y0014779D02*
X0047140Y0014781D01*
X0047217Y0014787D01*
X0047294Y0014796D01*
X0047370Y0014809D01*
X0047446Y0014826D01*
X0047520Y0014847D01*
X0047594Y0014871D01*
X0047666Y0014899D01*
X0047736Y0014930D01*
X0047805Y0014965D01*
X0047873Y0015003D01*
X0047938Y0015044D01*
X0048001Y0015089D01*
X0048062Y0015137D01*
X0048121Y0015187D01*
X0048177Y0015240D01*
X0048230Y0015296D01*
X0048280Y0015355D01*
X0048328Y0015416D01*
X0048373Y0015479D01*
X0048414Y0015544D01*
X0048452Y0015612D01*
X0048487Y0015681D01*
X0048518Y0015751D01*
X0048546Y0015823D01*
X0048570Y0015897D01*
X0048591Y0015971D01*
X0048608Y0016047D01*
X0048621Y0016123D01*
X0048630Y0016200D01*
X0048636Y0016277D01*
X0048638Y0016354D01*
X0048638Y0091945D01*
X0048636Y0092022D01*
X0048630Y0092099D01*
X0048621Y0092176D01*
X0048608Y0092252D01*
X0048591Y0092328D01*
X0048570Y0092402D01*
X0048546Y0092476D01*
X0048518Y0092548D01*
X0048487Y0092618D01*
X0048452Y0092687D01*
X0048414Y0092755D01*
X0048373Y0092820D01*
X0048328Y0092883D01*
X0048280Y0092944D01*
X0048230Y0093003D01*
X0048177Y0093059D01*
X0048121Y0093112D01*
X0048062Y0093162D01*
X0048001Y0093210D01*
X0047938Y0093255D01*
X0047873Y0093296D01*
X0047805Y0093334D01*
X0047736Y0093369D01*
X0047666Y0093400D01*
X0047594Y0093428D01*
X0047520Y0093452D01*
X0047446Y0093473D01*
X0047370Y0093490D01*
X0047294Y0093503D01*
X0047217Y0093512D01*
X0047140Y0093518D01*
X0047063Y0093520D01*
X0002969Y0093520D01*
X0002892Y0093518D01*
X0002815Y0093512D01*
X0002738Y0093503D01*
X0002662Y0093490D01*
X0002586Y0093473D01*
X0002512Y0093452D01*
X0002438Y0093428D01*
X0002366Y0093400D01*
X0002296Y0093369D01*
X0002227Y0093334D01*
X0002159Y0093296D01*
X0002094Y0093255D01*
X0002031Y0093210D01*
X0001970Y0093162D01*
X0001911Y0093112D01*
X0001855Y0093059D01*
X0001802Y0093003D01*
X0001752Y0092944D01*
X0001704Y0092883D01*
X0001659Y0092820D01*
X0001618Y0092755D01*
X0001580Y0092687D01*
X0001545Y0092618D01*
X0001514Y0092548D01*
X0001486Y0092476D01*
X0001462Y0092402D01*
X0001441Y0092328D01*
X0001424Y0092252D01*
X0001411Y0092176D01*
X0001402Y0092099D01*
X0001396Y0092022D01*
X0001394Y0091945D01*
X0001394Y0016354D01*
X0001396Y0016277D01*
X0001402Y0016200D01*
X0001411Y0016123D01*
X0001424Y0016047D01*
X0001441Y0015971D01*
X0001462Y0015897D01*
X0001486Y0015823D01*
X0001514Y0015751D01*
X0001545Y0015681D01*
X0001580Y0015612D01*
X0001618Y0015544D01*
X0001659Y0015479D01*
X0001704Y0015416D01*
X0001752Y0015355D01*
X0001802Y0015296D01*
X0001855Y0015240D01*
X0001911Y0015187D01*
X0001970Y0015137D01*
X0002031Y0015089D01*
X0002094Y0015044D01*
X0002159Y0015003D01*
X0002227Y0014965D01*
X0002296Y0014930D01*
X0002366Y0014899D01*
X0002438Y0014871D01*
X0002512Y0014847D01*
X0002586Y0014826D01*
X0002662Y0014809D01*
X0002738Y0014796D01*
X0002815Y0014787D01*
X0002892Y0014781D01*
X0002969Y0014779D01*
D11*
X0011236Y0015173D02*
X0011236Y0001394D01*
X0038795Y0001394D01*
X0038795Y0015173D01*
X0011236Y0015173D01*
X0015961Y0038795D02*
X0015961Y0050606D01*
X0027772Y0050606D01*
X0027772Y0038795D01*
X0015961Y0038795D01*
X0027870Y0062614D02*
X0027872Y0062653D01*
X0027878Y0062692D01*
X0027888Y0062730D01*
X0027901Y0062767D01*
X0027918Y0062802D01*
X0027938Y0062836D01*
X0027962Y0062867D01*
X0027989Y0062896D01*
X0028018Y0062922D01*
X0028050Y0062945D01*
X0028084Y0062965D01*
X0028120Y0062981D01*
X0028157Y0062993D01*
X0028196Y0063002D01*
X0028235Y0063007D01*
X0028274Y0063008D01*
X0028313Y0063005D01*
X0028352Y0062998D01*
X0028389Y0062987D01*
X0028426Y0062973D01*
X0028461Y0062955D01*
X0028494Y0062934D01*
X0028525Y0062909D01*
X0028553Y0062882D01*
X0028578Y0062852D01*
X0028600Y0062819D01*
X0028619Y0062785D01*
X0028634Y0062749D01*
X0028646Y0062711D01*
X0028654Y0062673D01*
X0028658Y0062634D01*
X0028658Y0062594D01*
X0028654Y0062555D01*
X0028646Y0062517D01*
X0028634Y0062479D01*
X0028619Y0062443D01*
X0028600Y0062409D01*
X0028578Y0062376D01*
X0028553Y0062346D01*
X0028525Y0062319D01*
X0028494Y0062294D01*
X0028461Y0062273D01*
X0028426Y0062255D01*
X0028389Y0062241D01*
X0028352Y0062230D01*
X0028313Y0062223D01*
X0028274Y0062220D01*
X0028235Y0062221D01*
X0028196Y0062226D01*
X0028157Y0062235D01*
X0028120Y0062247D01*
X0028084Y0062263D01*
X0028050Y0062283D01*
X0028018Y0062306D01*
X0027989Y0062332D01*
X0027962Y0062361D01*
X0027938Y0062392D01*
X0027918Y0062426D01*
X0027901Y0062461D01*
X0027888Y0062498D01*
X0027878Y0062536D01*
X0027872Y0062575D01*
X0027870Y0062614D01*
X0029740Y0047850D02*
X0029740Y0046276D01*
X0034465Y0046276D02*
X0034465Y0047850D01*
X0035252Y0060449D02*
X0035252Y0062024D01*
X0039976Y0062024D02*
X0039976Y0060449D01*
X0039976Y0073047D02*
X0039976Y0074622D01*
X0035252Y0074622D02*
X0035252Y0073047D01*
X0044701Y0093126D02*
X0044701Y0114780D01*
X0040764Y0114780D01*
X0038795Y0112811D01*
X0011236Y0112811D01*
X0011236Y0097063D01*
X0038795Y0097063D01*
X0038795Y0112811D01*
X0035016Y0107220D02*
X0035016Y0097220D01*
X0030016Y0097220D02*
X0030016Y0107220D01*
X0025016Y0107220D02*
X0025016Y0097220D01*
X0020016Y0097220D02*
X0020016Y0107220D01*
X0015016Y0107220D02*
X0015016Y0097220D01*
X0011236Y0112811D02*
X0009268Y0114780D01*
X0005331Y0114780D01*
X0005331Y0093126D01*
X0044701Y0093126D01*
X0040764Y0035252D02*
X0039189Y0035252D01*
X0039189Y0028953D02*
X0040764Y0028953D01*
D12*
X0040399Y0027593D02*
X0039265Y0027593D01*
X0038697Y0027026D01*
X0038697Y0024757D01*
X0039265Y0024190D01*
X0040399Y0024190D01*
X0040966Y0024757D01*
X0040966Y0027026D02*
X0040399Y0027593D01*
X0042381Y0026458D02*
X0043515Y0027593D01*
X0043515Y0024190D01*
X0042381Y0024190D02*
X0044649Y0024190D01*
X0038523Y0043284D02*
X0036254Y0043284D01*
X0035687Y0043851D01*
X0035687Y0044986D01*
X0036254Y0045553D01*
X0036254Y0046967D02*
X0035687Y0047534D01*
X0035687Y0048669D01*
X0036254Y0049236D01*
X0036821Y0049236D01*
X0039090Y0046967D01*
X0039090Y0049236D01*
X0038523Y0045553D02*
X0039090Y0044986D01*
X0039090Y0043851D01*
X0038523Y0043284D01*
X0041766Y0057457D02*
X0041199Y0058024D01*
X0041199Y0059159D01*
X0041766Y0059726D01*
X0041766Y0061140D02*
X0041199Y0061708D01*
X0041199Y0062842D01*
X0041766Y0063409D01*
X0042333Y0063409D01*
X0042900Y0062842D01*
X0043467Y0063409D01*
X0044034Y0063409D01*
X0044602Y0062842D01*
X0044602Y0061708D01*
X0044034Y0061140D01*
X0044034Y0059726D02*
X0044602Y0059159D01*
X0044602Y0058024D01*
X0044034Y0057457D01*
X0041766Y0057457D01*
X0042900Y0062275D02*
X0042900Y0062842D01*
X0041766Y0070056D02*
X0041199Y0070623D01*
X0041199Y0071757D01*
X0041766Y0072324D01*
X0042900Y0073739D02*
X0041199Y0075440D01*
X0044602Y0075440D01*
X0044034Y0072324D02*
X0044602Y0071757D01*
X0044602Y0070623D01*
X0044034Y0070056D01*
X0041766Y0070056D01*
X0042900Y0073739D02*
X0042900Y0076008D01*
X0024735Y0034561D02*
X0024735Y0031158D01*
X0023601Y0031158D02*
X0025870Y0031158D01*
X0023601Y0033427D02*
X0024735Y0034561D01*
X0022187Y0033994D02*
X0021619Y0034561D01*
X0020485Y0034561D01*
X0019918Y0033994D01*
X0019918Y0031725D01*
X0020485Y0031158D01*
X0021619Y0031158D01*
X0022187Y0031725D01*
X0018597Y0031158D02*
X0017463Y0031158D01*
X0018030Y0031158D02*
X0018030Y0034561D01*
X0017463Y0034561D02*
X0018597Y0034561D01*
X0008180Y0033029D02*
X0007613Y0033029D01*
X0005345Y0035298D01*
X0004777Y0035298D01*
X0004777Y0033029D01*
X0004777Y0031141D02*
X0004210Y0031141D01*
X0005345Y0029159D02*
X0004777Y0028592D01*
X0004777Y0027458D01*
X0005345Y0026891D01*
X0005912Y0026891D01*
X0006479Y0027458D01*
X0006479Y0028592D01*
X0007046Y0029159D01*
X0007613Y0029159D01*
X0008180Y0028592D01*
X0008180Y0027458D01*
X0007613Y0026891D01*
X0008180Y0030574D02*
X0008180Y0031708D01*
X0008180Y0031141D02*
X0005912Y0031141D01*
X0005912Y0030574D01*
X0005345Y0036712D02*
X0004777Y0037279D01*
X0004777Y0038414D01*
X0005345Y0038981D01*
X0007613Y0036712D01*
X0008180Y0037279D01*
X0008180Y0038414D01*
X0007613Y0038981D01*
X0005345Y0038981D01*
X0005345Y0040395D02*
X0004777Y0040963D01*
X0004777Y0042097D01*
X0005345Y0042664D01*
X0005912Y0042664D01*
X0008180Y0040395D01*
X0008180Y0042664D01*
X0008180Y0044079D02*
X0008180Y0046347D01*
X0008180Y0045213D02*
X0004777Y0045213D01*
X0005912Y0044079D01*
X0005345Y0036712D02*
X0007613Y0036712D01*
X0006479Y0051445D02*
X0006479Y0053713D01*
X0005345Y0052579D02*
X0007613Y0052579D01*
X0008180Y0058811D02*
X0004777Y0058811D01*
X0005912Y0059945D01*
X0004777Y0061080D01*
X0008180Y0061080D01*
X0008180Y0062494D02*
X0008180Y0064763D01*
X0008180Y0066177D02*
X0004777Y0066177D01*
X0004777Y0067879D01*
X0005345Y0068446D01*
X0006479Y0068446D01*
X0007046Y0067879D01*
X0007046Y0066177D01*
X0008180Y0062494D02*
X0004777Y0062494D01*
X0005345Y0069861D02*
X0004777Y0070428D01*
X0004777Y0071562D01*
X0005345Y0072129D01*
X0005912Y0072129D01*
X0006479Y0071562D01*
X0007046Y0072129D01*
X0007613Y0072129D01*
X0008180Y0071562D01*
X0008180Y0070428D01*
X0007613Y0069861D01*
X0006479Y0070995D02*
X0006479Y0071562D01*
X0005912Y0073544D02*
X0004777Y0074678D01*
X0008180Y0074678D01*
X0008180Y0073544D02*
X0008180Y0075812D01*
X0008180Y0077227D02*
X0008180Y0079495D01*
X0008180Y0078361D02*
X0004777Y0078361D01*
X0005912Y0077227D01*
X0006479Y0080910D02*
X0004777Y0080910D01*
X0004777Y0083179D01*
X0005912Y0082611D02*
X0005912Y0082044D01*
X0006479Y0080910D01*
X0005912Y0082611D02*
X0006479Y0083179D01*
X0007613Y0083179D01*
X0008180Y0082611D01*
X0008180Y0081477D01*
X0007613Y0080910D01*
X0015974Y0071124D02*
X0015407Y0070557D01*
X0015407Y0069423D01*
X0015974Y0068856D01*
X0015974Y0067441D02*
X0015407Y0066874D01*
X0015407Y0065740D01*
X0015974Y0065173D01*
X0018243Y0065173D01*
X0018810Y0065740D01*
X0018810Y0066874D01*
X0018243Y0067441D01*
X0018810Y0068856D02*
X0016542Y0071124D01*
X0015974Y0071124D01*
X0018810Y0071124D02*
X0018810Y0068856D01*
X0018810Y0063852D02*
X0018810Y0062717D01*
X0018810Y0063284D02*
X0015407Y0063284D01*
X0015407Y0062717D02*
X0015407Y0063852D01*
D13*
X0008481Y0089189D02*
X0008483Y0089245D01*
X0008489Y0089300D01*
X0008499Y0089354D01*
X0008512Y0089408D01*
X0008530Y0089461D01*
X0008551Y0089512D01*
X0008575Y0089562D01*
X0008603Y0089610D01*
X0008635Y0089656D01*
X0008669Y0089700D01*
X0008707Y0089741D01*
X0008747Y0089779D01*
X0008790Y0089814D01*
X0008835Y0089846D01*
X0008883Y0089875D01*
X0008932Y0089901D01*
X0008983Y0089923D01*
X0009035Y0089941D01*
X0009089Y0089955D01*
X0009144Y0089966D01*
X0009199Y0089973D01*
X0009254Y0089976D01*
X0009310Y0089975D01*
X0009365Y0089970D01*
X0009420Y0089961D01*
X0009474Y0089949D01*
X0009527Y0089932D01*
X0009579Y0089912D01*
X0009629Y0089888D01*
X0009677Y0089861D01*
X0009724Y0089831D01*
X0009768Y0089797D01*
X0009810Y0089760D01*
X0009848Y0089720D01*
X0009885Y0089678D01*
X0009918Y0089633D01*
X0009947Y0089587D01*
X0009974Y0089538D01*
X0009996Y0089487D01*
X0010016Y0089435D01*
X0010031Y0089381D01*
X0010043Y0089327D01*
X0010051Y0089272D01*
X0010055Y0089217D01*
X0010055Y0089161D01*
X0010051Y0089106D01*
X0010043Y0089051D01*
X0010031Y0088997D01*
X0010016Y0088943D01*
X0009996Y0088891D01*
X0009974Y0088840D01*
X0009947Y0088791D01*
X0009918Y0088745D01*
X0009885Y0088700D01*
X0009848Y0088658D01*
X0009810Y0088618D01*
X0009768Y0088581D01*
X0009724Y0088547D01*
X0009677Y0088517D01*
X0009629Y0088490D01*
X0009579Y0088466D01*
X0009527Y0088446D01*
X0009474Y0088429D01*
X0009420Y0088417D01*
X0009365Y0088408D01*
X0009310Y0088403D01*
X0009254Y0088402D01*
X0009199Y0088405D01*
X0009144Y0088412D01*
X0009089Y0088423D01*
X0009035Y0088437D01*
X0008983Y0088455D01*
X0008932Y0088477D01*
X0008883Y0088503D01*
X0008835Y0088532D01*
X0008790Y0088564D01*
X0008747Y0088599D01*
X0008707Y0088637D01*
X0008669Y0088678D01*
X0008635Y0088722D01*
X0008603Y0088768D01*
X0008575Y0088816D01*
X0008551Y0088866D01*
X0008530Y0088917D01*
X0008512Y0088970D01*
X0008499Y0089024D01*
X0008489Y0089078D01*
X0008483Y0089133D01*
X0008481Y0089189D01*
X0008481Y0021079D02*
X0008483Y0021135D01*
X0008489Y0021190D01*
X0008499Y0021244D01*
X0008512Y0021298D01*
X0008530Y0021351D01*
X0008551Y0021402D01*
X0008575Y0021452D01*
X0008603Y0021500D01*
X0008635Y0021546D01*
X0008669Y0021590D01*
X0008707Y0021631D01*
X0008747Y0021669D01*
X0008790Y0021704D01*
X0008835Y0021736D01*
X0008883Y0021765D01*
X0008932Y0021791D01*
X0008983Y0021813D01*
X0009035Y0021831D01*
X0009089Y0021845D01*
X0009144Y0021856D01*
X0009199Y0021863D01*
X0009254Y0021866D01*
X0009310Y0021865D01*
X0009365Y0021860D01*
X0009420Y0021851D01*
X0009474Y0021839D01*
X0009527Y0021822D01*
X0009579Y0021802D01*
X0009629Y0021778D01*
X0009677Y0021751D01*
X0009724Y0021721D01*
X0009768Y0021687D01*
X0009810Y0021650D01*
X0009848Y0021610D01*
X0009885Y0021568D01*
X0009918Y0021523D01*
X0009947Y0021477D01*
X0009974Y0021428D01*
X0009996Y0021377D01*
X0010016Y0021325D01*
X0010031Y0021271D01*
X0010043Y0021217D01*
X0010051Y0021162D01*
X0010055Y0021107D01*
X0010055Y0021051D01*
X0010051Y0020996D01*
X0010043Y0020941D01*
X0010031Y0020887D01*
X0010016Y0020833D01*
X0009996Y0020781D01*
X0009974Y0020730D01*
X0009947Y0020681D01*
X0009918Y0020635D01*
X0009885Y0020590D01*
X0009848Y0020548D01*
X0009810Y0020508D01*
X0009768Y0020471D01*
X0009724Y0020437D01*
X0009677Y0020407D01*
X0009629Y0020380D01*
X0009579Y0020356D01*
X0009527Y0020336D01*
X0009474Y0020319D01*
X0009420Y0020307D01*
X0009365Y0020298D01*
X0009310Y0020293D01*
X0009254Y0020292D01*
X0009199Y0020295D01*
X0009144Y0020302D01*
X0009089Y0020313D01*
X0009035Y0020327D01*
X0008983Y0020345D01*
X0008932Y0020367D01*
X0008883Y0020393D01*
X0008835Y0020422D01*
X0008790Y0020454D01*
X0008747Y0020489D01*
X0008707Y0020527D01*
X0008669Y0020568D01*
X0008635Y0020612D01*
X0008603Y0020658D01*
X0008575Y0020706D01*
X0008551Y0020756D01*
X0008530Y0020807D01*
X0008512Y0020860D01*
X0008499Y0020914D01*
X0008489Y0020968D01*
X0008483Y0021023D01*
X0008481Y0021079D01*
D14*
X0013401Y0036827D02*
X0013403Y0036875D01*
X0013409Y0036923D01*
X0013419Y0036970D01*
X0013432Y0037016D01*
X0013450Y0037061D01*
X0013470Y0037105D01*
X0013495Y0037147D01*
X0013523Y0037186D01*
X0013553Y0037223D01*
X0013587Y0037257D01*
X0013624Y0037289D01*
X0013662Y0037318D01*
X0013703Y0037343D01*
X0013746Y0037365D01*
X0013791Y0037383D01*
X0013837Y0037397D01*
X0013884Y0037408D01*
X0013932Y0037415D01*
X0013980Y0037418D01*
X0014028Y0037417D01*
X0014076Y0037412D01*
X0014124Y0037403D01*
X0014170Y0037391D01*
X0014215Y0037374D01*
X0014259Y0037354D01*
X0014301Y0037331D01*
X0014341Y0037304D01*
X0014379Y0037274D01*
X0014414Y0037241D01*
X0014446Y0037205D01*
X0014476Y0037167D01*
X0014502Y0037126D01*
X0014524Y0037083D01*
X0014544Y0037039D01*
X0014559Y0036994D01*
X0014571Y0036947D01*
X0014579Y0036899D01*
X0014583Y0036851D01*
X0014583Y0036803D01*
X0014579Y0036755D01*
X0014571Y0036707D01*
X0014559Y0036660D01*
X0014544Y0036615D01*
X0014524Y0036571D01*
X0014502Y0036528D01*
X0014476Y0036487D01*
X0014446Y0036449D01*
X0014414Y0036413D01*
X0014379Y0036380D01*
X0014341Y0036350D01*
X0014301Y0036323D01*
X0014259Y0036300D01*
X0014215Y0036280D01*
X0014170Y0036263D01*
X0014124Y0036251D01*
X0014076Y0036242D01*
X0014028Y0036237D01*
X0013980Y0036236D01*
X0013932Y0036239D01*
X0013884Y0036246D01*
X0013837Y0036257D01*
X0013791Y0036271D01*
X0013746Y0036289D01*
X0013703Y0036311D01*
X0013662Y0036336D01*
X0013624Y0036365D01*
X0013587Y0036397D01*
X0013553Y0036431D01*
X0013523Y0036468D01*
X0013495Y0036507D01*
X0013470Y0036549D01*
X0013450Y0036593D01*
X0013432Y0036638D01*
X0013419Y0036684D01*
X0013409Y0036731D01*
X0013403Y0036779D01*
X0013401Y0036827D01*
D15*
X0019898Y0057693D02*
X0019898Y0077378D01*
X0031709Y0077378D01*
X0031709Y0057693D01*
X0019898Y0057693D01*
M02*
