G75*
%MOIN*%
%OFA0B0*%
%FSLAX25Y25*%
%IPPOS*%
%LPD*%
%AMOC8*
5,1,8,0,0,1.08239X$1,22.5*
%
%ADD10C,0.00394*%
%ADD11C,0.01575*%
%ADD12C,0.00000*%
%ADD13C,0.23000*%
%ADD14C,0.00787*%
%ADD15C,0.02381*%
D10*
X0001394Y0080134D02*
X0001418Y0082066D01*
X0001489Y0083998D01*
X0001607Y0085926D01*
X0001773Y0087852D01*
X0001986Y0089773D01*
X0002246Y0091688D01*
X0002553Y0093596D01*
X0002907Y0095495D01*
X0003307Y0097386D01*
X0003754Y0099266D01*
X0004246Y0101135D01*
X0004785Y0102991D01*
X0005368Y0104833D01*
X0005997Y0106661D01*
X0006670Y0108472D01*
X0007388Y0110266D01*
X0008149Y0112043D01*
X0008954Y0113800D01*
X0009802Y0115536D01*
X0010692Y0117252D01*
X0011623Y0118945D01*
X0012596Y0120614D01*
X0013610Y0122260D01*
X0014664Y0123880D01*
X0015757Y0125473D01*
X0016889Y0127039D01*
X0018060Y0128577D01*
X0019267Y0130086D01*
X0020511Y0131565D01*
X0021792Y0133013D01*
X0023107Y0134428D01*
X0024456Y0135812D01*
X0025840Y0137161D01*
X0027255Y0138476D01*
X0028703Y0139757D01*
X0030182Y0141001D01*
X0031691Y0142208D01*
X0033229Y0143379D01*
X0034795Y0144511D01*
X0036388Y0145604D01*
X0038008Y0146658D01*
X0039654Y0147672D01*
X0041323Y0148645D01*
X0043016Y0149576D01*
X0044732Y0150466D01*
X0046468Y0151314D01*
X0048225Y0152119D01*
X0050002Y0152880D01*
X0051796Y0153598D01*
X0053607Y0154271D01*
X0055435Y0154900D01*
X0057277Y0155483D01*
X0059133Y0156022D01*
X0061002Y0156514D01*
X0062882Y0156961D01*
X0064773Y0157361D01*
X0066672Y0157715D01*
X0068580Y0158022D01*
X0070495Y0158282D01*
X0072416Y0158495D01*
X0074342Y0158661D01*
X0076270Y0158779D01*
X0078202Y0158850D01*
X0080134Y0158874D01*
X0082066Y0158850D01*
X0083998Y0158779D01*
X0085926Y0158661D01*
X0087852Y0158495D01*
X0089773Y0158282D01*
X0091688Y0158022D01*
X0093596Y0157715D01*
X0095495Y0157361D01*
X0097386Y0156961D01*
X0099266Y0156514D01*
X0101135Y0156022D01*
X0102991Y0155483D01*
X0104833Y0154900D01*
X0106661Y0154271D01*
X0108472Y0153598D01*
X0110266Y0152880D01*
X0112043Y0152119D01*
X0113800Y0151314D01*
X0115536Y0150466D01*
X0117252Y0149576D01*
X0118945Y0148645D01*
X0120614Y0147672D01*
X0122260Y0146658D01*
X0123880Y0145604D01*
X0125473Y0144511D01*
X0127039Y0143379D01*
X0128577Y0142208D01*
X0130086Y0141001D01*
X0131565Y0139757D01*
X0133013Y0138476D01*
X0134428Y0137161D01*
X0135812Y0135812D01*
X0137161Y0134428D01*
X0138476Y0133013D01*
X0139757Y0131565D01*
X0141001Y0130086D01*
X0142208Y0128577D01*
X0143379Y0127039D01*
X0144511Y0125473D01*
X0145604Y0123880D01*
X0146658Y0122260D01*
X0147672Y0120614D01*
X0148645Y0118945D01*
X0149576Y0117252D01*
X0150466Y0115536D01*
X0151314Y0113800D01*
X0152119Y0112043D01*
X0152880Y0110266D01*
X0153598Y0108472D01*
X0154271Y0106661D01*
X0154900Y0104833D01*
X0155483Y0102991D01*
X0156022Y0101135D01*
X0156514Y0099266D01*
X0156961Y0097386D01*
X0157361Y0095495D01*
X0157715Y0093596D01*
X0158022Y0091688D01*
X0158282Y0089773D01*
X0158495Y0087852D01*
X0158661Y0085926D01*
X0158779Y0083998D01*
X0158850Y0082066D01*
X0158874Y0080134D01*
X0158850Y0078202D01*
X0158779Y0076270D01*
X0158661Y0074342D01*
X0158495Y0072416D01*
X0158282Y0070495D01*
X0158022Y0068580D01*
X0157715Y0066672D01*
X0157361Y0064773D01*
X0156961Y0062882D01*
X0156514Y0061002D01*
X0156022Y0059133D01*
X0155483Y0057277D01*
X0154900Y0055435D01*
X0154271Y0053607D01*
X0153598Y0051796D01*
X0152880Y0050002D01*
X0152119Y0048225D01*
X0151314Y0046468D01*
X0150466Y0044732D01*
X0149576Y0043016D01*
X0148645Y0041323D01*
X0147672Y0039654D01*
X0146658Y0038008D01*
X0145604Y0036388D01*
X0144511Y0034795D01*
X0143379Y0033229D01*
X0142208Y0031691D01*
X0141001Y0030182D01*
X0139757Y0028703D01*
X0138476Y0027255D01*
X0137161Y0025840D01*
X0135812Y0024456D01*
X0134428Y0023107D01*
X0133013Y0021792D01*
X0131565Y0020511D01*
X0130086Y0019267D01*
X0128577Y0018060D01*
X0127039Y0016889D01*
X0125473Y0015757D01*
X0123880Y0014664D01*
X0122260Y0013610D01*
X0120614Y0012596D01*
X0118945Y0011623D01*
X0117252Y0010692D01*
X0115536Y0009802D01*
X0113800Y0008954D01*
X0112043Y0008149D01*
X0110266Y0007388D01*
X0108472Y0006670D01*
X0106661Y0005997D01*
X0104833Y0005368D01*
X0102991Y0004785D01*
X0101135Y0004246D01*
X0099266Y0003754D01*
X0097386Y0003307D01*
X0095495Y0002907D01*
X0093596Y0002553D01*
X0091688Y0002246D01*
X0089773Y0001986D01*
X0087852Y0001773D01*
X0085926Y0001607D01*
X0083998Y0001489D01*
X0082066Y0001418D01*
X0080134Y0001394D01*
X0078202Y0001418D01*
X0076270Y0001489D01*
X0074342Y0001607D01*
X0072416Y0001773D01*
X0070495Y0001986D01*
X0068580Y0002246D01*
X0066672Y0002553D01*
X0064773Y0002907D01*
X0062882Y0003307D01*
X0061002Y0003754D01*
X0059133Y0004246D01*
X0057277Y0004785D01*
X0055435Y0005368D01*
X0053607Y0005997D01*
X0051796Y0006670D01*
X0050002Y0007388D01*
X0048225Y0008149D01*
X0046468Y0008954D01*
X0044732Y0009802D01*
X0043016Y0010692D01*
X0041323Y0011623D01*
X0039654Y0012596D01*
X0038008Y0013610D01*
X0036388Y0014664D01*
X0034795Y0015757D01*
X0033229Y0016889D01*
X0031691Y0018060D01*
X0030182Y0019267D01*
X0028703Y0020511D01*
X0027255Y0021792D01*
X0025840Y0023107D01*
X0024456Y0024456D01*
X0023107Y0025840D01*
X0021792Y0027255D01*
X0020511Y0028703D01*
X0019267Y0030182D01*
X0018060Y0031691D01*
X0016889Y0033229D01*
X0015757Y0034795D01*
X0014664Y0036388D01*
X0013610Y0038008D01*
X0012596Y0039654D01*
X0011623Y0041323D01*
X0010692Y0043016D01*
X0009802Y0044732D01*
X0008954Y0046468D01*
X0008149Y0048225D01*
X0007388Y0050002D01*
X0006670Y0051796D01*
X0005997Y0053607D01*
X0005368Y0055435D01*
X0004785Y0057277D01*
X0004246Y0059133D01*
X0003754Y0061002D01*
X0003307Y0062882D01*
X0002907Y0064773D01*
X0002553Y0066672D01*
X0002246Y0068580D01*
X0001986Y0070495D01*
X0001773Y0072416D01*
X0001607Y0074342D01*
X0001489Y0076270D01*
X0001418Y0078202D01*
X0001394Y0080134D01*
D11*
X0069346Y0091945D02*
X0070922Y0091945D01*
X0070922Y0084071D01*
X0069346Y0084071D01*
X0069346Y0091945D01*
X0069346Y0085645D02*
X0070922Y0085645D01*
X0070922Y0087219D02*
X0069346Y0087219D01*
X0069346Y0088793D02*
X0070922Y0088793D01*
X0070922Y0090367D02*
X0069346Y0090367D01*
X0069346Y0091941D02*
X0070922Y0091941D01*
X0074346Y0091945D02*
X0075922Y0091945D01*
X0075922Y0084071D01*
X0074346Y0084071D01*
X0074346Y0091945D01*
X0074346Y0085645D02*
X0075922Y0085645D01*
X0075922Y0087219D02*
X0074346Y0087219D01*
X0074346Y0088793D02*
X0075922Y0088793D01*
X0075922Y0090367D02*
X0074346Y0090367D01*
X0074346Y0091941D02*
X0075922Y0091941D01*
X0079346Y0091945D02*
X0080922Y0091945D01*
X0080922Y0084071D01*
X0079346Y0084071D01*
X0079346Y0091945D01*
X0079346Y0085645D02*
X0080922Y0085645D01*
X0080922Y0087219D02*
X0079346Y0087219D01*
X0079346Y0088793D02*
X0080922Y0088793D01*
X0080922Y0090367D02*
X0079346Y0090367D01*
X0079346Y0091941D02*
X0080922Y0091941D01*
X0084346Y0091945D02*
X0085922Y0091945D01*
X0085922Y0084071D01*
X0084346Y0084071D01*
X0084346Y0091945D01*
X0084346Y0085645D02*
X0085922Y0085645D01*
X0085922Y0087219D02*
X0084346Y0087219D01*
X0084346Y0088793D02*
X0085922Y0088793D01*
X0085922Y0090367D02*
X0084346Y0090367D01*
X0084346Y0091941D02*
X0085922Y0091941D01*
X0089346Y0091945D02*
X0090922Y0091945D01*
X0090922Y0084071D01*
X0089346Y0084071D01*
X0089346Y0091945D01*
X0089346Y0085645D02*
X0090922Y0085645D01*
X0090922Y0087219D02*
X0089346Y0087219D01*
X0089346Y0088793D02*
X0090922Y0088793D01*
X0090922Y0090367D02*
X0089346Y0090367D01*
X0089346Y0091941D02*
X0090922Y0091941D01*
X0090922Y0076197D02*
X0089346Y0076197D01*
X0090922Y0076197D02*
X0090922Y0068323D01*
X0089346Y0068323D01*
X0089346Y0076197D01*
X0089346Y0069897D02*
X0090922Y0069897D01*
X0090922Y0071471D02*
X0089346Y0071471D01*
X0089346Y0073045D02*
X0090922Y0073045D01*
X0090922Y0074619D02*
X0089346Y0074619D01*
X0089346Y0076193D02*
X0090922Y0076193D01*
X0085922Y0076197D02*
X0084346Y0076197D01*
X0085922Y0076197D02*
X0085922Y0068323D01*
X0084346Y0068323D01*
X0084346Y0076197D01*
X0084346Y0069897D02*
X0085922Y0069897D01*
X0085922Y0071471D02*
X0084346Y0071471D01*
X0084346Y0073045D02*
X0085922Y0073045D01*
X0085922Y0074619D02*
X0084346Y0074619D01*
X0084346Y0076193D02*
X0085922Y0076193D01*
X0080922Y0076197D02*
X0079346Y0076197D01*
X0080922Y0076197D02*
X0080922Y0068323D01*
X0079346Y0068323D01*
X0079346Y0076197D01*
X0079346Y0069897D02*
X0080922Y0069897D01*
X0080922Y0071471D02*
X0079346Y0071471D01*
X0079346Y0073045D02*
X0080922Y0073045D01*
X0080922Y0074619D02*
X0079346Y0074619D01*
X0079346Y0076193D02*
X0080922Y0076193D01*
X0075922Y0076197D02*
X0074346Y0076197D01*
X0075922Y0076197D02*
X0075922Y0068323D01*
X0074346Y0068323D01*
X0074346Y0076197D01*
X0074346Y0069897D02*
X0075922Y0069897D01*
X0075922Y0071471D02*
X0074346Y0071471D01*
X0074346Y0073045D02*
X0075922Y0073045D01*
X0075922Y0074619D02*
X0074346Y0074619D01*
X0074346Y0076193D02*
X0075922Y0076193D01*
X0075134Y0072260D02*
X0070134Y0072260D01*
X0069346Y0076197D02*
X0070922Y0076197D01*
X0070922Y0068323D01*
X0069346Y0068323D01*
X0069346Y0076197D01*
X0069346Y0069897D02*
X0070922Y0069897D01*
X0070922Y0071471D02*
X0069346Y0071471D01*
X0069346Y0073045D02*
X0070922Y0073045D01*
X0070922Y0074619D02*
X0069346Y0074619D01*
X0069346Y0076193D02*
X0070922Y0076193D01*
X0070134Y0072260D02*
X0070134Y0063835D01*
X0069898Y0063598D01*
D12*
X0061964Y0080134D02*
X0061966Y0080222D01*
X0061972Y0080310D01*
X0061982Y0080398D01*
X0061996Y0080486D01*
X0062013Y0080572D01*
X0062035Y0080658D01*
X0062060Y0080742D01*
X0062090Y0080826D01*
X0062122Y0080908D01*
X0062159Y0080988D01*
X0062199Y0081067D01*
X0062243Y0081144D01*
X0062290Y0081219D01*
X0062340Y0081291D01*
X0062394Y0081362D01*
X0062450Y0081429D01*
X0062510Y0081495D01*
X0062572Y0081557D01*
X0062638Y0081617D01*
X0062705Y0081673D01*
X0062776Y0081727D01*
X0062848Y0081777D01*
X0062923Y0081824D01*
X0063000Y0081868D01*
X0063079Y0081908D01*
X0063159Y0081945D01*
X0063241Y0081977D01*
X0063325Y0082007D01*
X0063409Y0082032D01*
X0063495Y0082054D01*
X0063581Y0082071D01*
X0063669Y0082085D01*
X0063757Y0082095D01*
X0063845Y0082101D01*
X0063933Y0082103D01*
X0064021Y0082101D01*
X0064109Y0082095D01*
X0064197Y0082085D01*
X0064285Y0082071D01*
X0064371Y0082054D01*
X0064457Y0082032D01*
X0064541Y0082007D01*
X0064625Y0081977D01*
X0064707Y0081945D01*
X0064787Y0081908D01*
X0064866Y0081868D01*
X0064943Y0081824D01*
X0065018Y0081777D01*
X0065090Y0081727D01*
X0065161Y0081673D01*
X0065228Y0081617D01*
X0065294Y0081557D01*
X0065356Y0081495D01*
X0065416Y0081429D01*
X0065472Y0081362D01*
X0065526Y0081291D01*
X0065576Y0081219D01*
X0065623Y0081144D01*
X0065667Y0081067D01*
X0065707Y0080988D01*
X0065744Y0080908D01*
X0065776Y0080826D01*
X0065806Y0080742D01*
X0065831Y0080658D01*
X0065853Y0080572D01*
X0065870Y0080486D01*
X0065884Y0080398D01*
X0065894Y0080310D01*
X0065900Y0080222D01*
X0065902Y0080134D01*
X0065900Y0080046D01*
X0065894Y0079958D01*
X0065884Y0079870D01*
X0065870Y0079782D01*
X0065853Y0079696D01*
X0065831Y0079610D01*
X0065806Y0079526D01*
X0065776Y0079442D01*
X0065744Y0079360D01*
X0065707Y0079280D01*
X0065667Y0079201D01*
X0065623Y0079124D01*
X0065576Y0079049D01*
X0065526Y0078977D01*
X0065472Y0078906D01*
X0065416Y0078839D01*
X0065356Y0078773D01*
X0065294Y0078711D01*
X0065228Y0078651D01*
X0065161Y0078595D01*
X0065090Y0078541D01*
X0065018Y0078491D01*
X0064943Y0078444D01*
X0064866Y0078400D01*
X0064787Y0078360D01*
X0064707Y0078323D01*
X0064625Y0078291D01*
X0064541Y0078261D01*
X0064457Y0078236D01*
X0064371Y0078214D01*
X0064285Y0078197D01*
X0064197Y0078183D01*
X0064109Y0078173D01*
X0064021Y0078167D01*
X0063933Y0078165D01*
X0063845Y0078167D01*
X0063757Y0078173D01*
X0063669Y0078183D01*
X0063581Y0078197D01*
X0063495Y0078214D01*
X0063409Y0078236D01*
X0063325Y0078261D01*
X0063241Y0078291D01*
X0063159Y0078323D01*
X0063079Y0078360D01*
X0063000Y0078400D01*
X0062923Y0078444D01*
X0062848Y0078491D01*
X0062776Y0078541D01*
X0062705Y0078595D01*
X0062638Y0078651D01*
X0062572Y0078711D01*
X0062510Y0078773D01*
X0062450Y0078839D01*
X0062394Y0078906D01*
X0062340Y0078977D01*
X0062290Y0079049D01*
X0062243Y0079124D01*
X0062199Y0079201D01*
X0062159Y0079280D01*
X0062122Y0079360D01*
X0062090Y0079442D01*
X0062060Y0079526D01*
X0062035Y0079610D01*
X0062013Y0079696D01*
X0061996Y0079782D01*
X0061982Y0079870D01*
X0061972Y0079958D01*
X0061966Y0080046D01*
X0061964Y0080134D01*
X0093579Y0080134D02*
X0093581Y0080239D01*
X0093587Y0080344D01*
X0093597Y0080448D01*
X0093611Y0080552D01*
X0093629Y0080656D01*
X0093651Y0080758D01*
X0093676Y0080860D01*
X0093706Y0080961D01*
X0093739Y0081060D01*
X0093776Y0081158D01*
X0093817Y0081255D01*
X0093862Y0081350D01*
X0093910Y0081443D01*
X0093961Y0081535D01*
X0094017Y0081624D01*
X0094075Y0081711D01*
X0094137Y0081796D01*
X0094201Y0081879D01*
X0094269Y0081959D01*
X0094340Y0082036D01*
X0094414Y0082110D01*
X0094491Y0082182D01*
X0094570Y0082251D01*
X0094652Y0082316D01*
X0094736Y0082379D01*
X0094823Y0082438D01*
X0094912Y0082494D01*
X0095003Y0082547D01*
X0095096Y0082596D01*
X0095190Y0082641D01*
X0095286Y0082683D01*
X0095384Y0082721D01*
X0095483Y0082755D01*
X0095584Y0082786D01*
X0095685Y0082812D01*
X0095788Y0082835D01*
X0095891Y0082854D01*
X0095995Y0082869D01*
X0096099Y0082880D01*
X0096204Y0082887D01*
X0096309Y0082890D01*
X0096414Y0082889D01*
X0096519Y0082884D01*
X0096623Y0082875D01*
X0096727Y0082862D01*
X0096831Y0082845D01*
X0096934Y0082824D01*
X0097036Y0082799D01*
X0097137Y0082771D01*
X0097236Y0082738D01*
X0097335Y0082702D01*
X0097432Y0082662D01*
X0097527Y0082619D01*
X0097621Y0082571D01*
X0097713Y0082521D01*
X0097803Y0082467D01*
X0097891Y0082409D01*
X0097976Y0082348D01*
X0098059Y0082284D01*
X0098140Y0082217D01*
X0098218Y0082147D01*
X0098293Y0082073D01*
X0098365Y0081998D01*
X0098435Y0081919D01*
X0098501Y0081838D01*
X0098565Y0081754D01*
X0098625Y0081668D01*
X0098681Y0081580D01*
X0098735Y0081489D01*
X0098785Y0081397D01*
X0098831Y0081303D01*
X0098874Y0081207D01*
X0098913Y0081109D01*
X0098948Y0081011D01*
X0098979Y0080910D01*
X0099007Y0080809D01*
X0099031Y0080707D01*
X0099051Y0080604D01*
X0099067Y0080500D01*
X0099079Y0080396D01*
X0099087Y0080291D01*
X0099091Y0080186D01*
X0099091Y0080082D01*
X0099087Y0079977D01*
X0099079Y0079872D01*
X0099067Y0079768D01*
X0099051Y0079664D01*
X0099031Y0079561D01*
X0099007Y0079459D01*
X0098979Y0079358D01*
X0098948Y0079257D01*
X0098913Y0079159D01*
X0098874Y0079061D01*
X0098831Y0078965D01*
X0098785Y0078871D01*
X0098735Y0078779D01*
X0098681Y0078688D01*
X0098625Y0078600D01*
X0098565Y0078514D01*
X0098501Y0078430D01*
X0098435Y0078349D01*
X0098365Y0078270D01*
X0098293Y0078195D01*
X0098218Y0078121D01*
X0098140Y0078051D01*
X0098059Y0077984D01*
X0097976Y0077920D01*
X0097891Y0077859D01*
X0097803Y0077801D01*
X0097713Y0077747D01*
X0097621Y0077697D01*
X0097527Y0077649D01*
X0097432Y0077606D01*
X0097335Y0077566D01*
X0097236Y0077530D01*
X0097137Y0077497D01*
X0097036Y0077469D01*
X0096934Y0077444D01*
X0096831Y0077423D01*
X0096727Y0077406D01*
X0096623Y0077393D01*
X0096519Y0077384D01*
X0096414Y0077379D01*
X0096309Y0077378D01*
X0096204Y0077381D01*
X0096099Y0077388D01*
X0095995Y0077399D01*
X0095891Y0077414D01*
X0095788Y0077433D01*
X0095685Y0077456D01*
X0095584Y0077482D01*
X0095483Y0077513D01*
X0095384Y0077547D01*
X0095286Y0077585D01*
X0095190Y0077627D01*
X0095096Y0077672D01*
X0095003Y0077721D01*
X0094912Y0077774D01*
X0094823Y0077830D01*
X0094736Y0077889D01*
X0094652Y0077952D01*
X0094570Y0078017D01*
X0094491Y0078086D01*
X0094414Y0078158D01*
X0094340Y0078232D01*
X0094269Y0078309D01*
X0094201Y0078389D01*
X0094137Y0078472D01*
X0094075Y0078557D01*
X0094017Y0078644D01*
X0093961Y0078733D01*
X0093910Y0078825D01*
X0093862Y0078918D01*
X0093817Y0079013D01*
X0093776Y0079110D01*
X0093739Y0079208D01*
X0093706Y0079307D01*
X0093676Y0079408D01*
X0093651Y0079510D01*
X0093629Y0079612D01*
X0093611Y0079716D01*
X0093597Y0079820D01*
X0093587Y0079924D01*
X0093581Y0080029D01*
X0093579Y0080134D01*
D13*
X0123441Y0123441D03*
X0123441Y0036827D03*
X0036827Y0036827D03*
X0036827Y0123441D03*
D14*
X0031756Y0024971D02*
X0027120Y0024971D01*
X0027854Y0024185D02*
X0034289Y0024185D01*
X0033690Y0024304D02*
X0034933Y0024057D01*
X0036193Y0023933D01*
X0036433Y0023933D01*
X0036433Y0036433D01*
X0037220Y0036433D01*
X0037220Y0023933D01*
X0037460Y0023933D01*
X0038721Y0024057D01*
X0039963Y0024304D01*
X0041176Y0024672D01*
X0042346Y0025157D01*
X0043463Y0025754D01*
X0044517Y0026458D01*
X0045496Y0027262D01*
X0046392Y0028157D01*
X0047196Y0029137D01*
X0047899Y0030190D01*
X0048497Y0031307D01*
X0048981Y0032478D01*
X0049349Y0033690D01*
X0049596Y0034933D01*
X0049720Y0036193D01*
X0049720Y0036433D01*
X0037221Y0036433D01*
X0037221Y0037220D01*
X0049720Y0037220D01*
X0049720Y0037460D01*
X0049596Y0038721D01*
X0049349Y0039963D01*
X0048981Y0041176D01*
X0048497Y0042346D01*
X0047899Y0043463D01*
X0047196Y0044517D01*
X0046392Y0045496D01*
X0045496Y0046392D01*
X0044517Y0047196D01*
X0043463Y0047899D01*
X0042346Y0048497D01*
X0041176Y0048981D01*
X0039963Y0049349D01*
X0038721Y0049596D01*
X0037460Y0049720D01*
X0037220Y0049720D01*
X0037220Y0037221D01*
X0036433Y0037221D01*
X0036433Y0049720D01*
X0036193Y0049720D01*
X0034933Y0049596D01*
X0033690Y0049349D01*
X0032478Y0048981D01*
X0031307Y0048497D01*
X0030190Y0047899D01*
X0029137Y0047196D01*
X0028157Y0046392D01*
X0027262Y0045496D01*
X0026458Y0044517D01*
X0025754Y0043463D01*
X0025157Y0042346D01*
X0024672Y0041176D01*
X0024304Y0039963D01*
X0024057Y0038721D01*
X0023933Y0037460D01*
X0023933Y0037220D01*
X0036433Y0037220D01*
X0036433Y0036433D01*
X0023933Y0036433D01*
X0023933Y0036193D01*
X0024057Y0034933D01*
X0024304Y0033690D01*
X0024672Y0032478D01*
X0025157Y0031307D01*
X0025754Y0030190D01*
X0026458Y0029137D01*
X0027262Y0028157D01*
X0028157Y0027262D01*
X0029137Y0026458D01*
X0030190Y0025754D01*
X0031307Y0025157D01*
X0032478Y0024672D01*
X0033690Y0024304D01*
X0036433Y0024185D02*
X0037220Y0024185D01*
X0037220Y0024971D02*
X0036433Y0024971D01*
X0036433Y0025757D02*
X0037220Y0025757D01*
X0037220Y0026543D02*
X0036433Y0026543D01*
X0036433Y0027329D02*
X0037220Y0027329D01*
X0037220Y0028115D02*
X0036433Y0028115D01*
X0036433Y0028901D02*
X0037220Y0028901D01*
X0037220Y0029687D02*
X0036433Y0029687D01*
X0036433Y0030472D02*
X0037220Y0030472D01*
X0037220Y0031258D02*
X0036433Y0031258D01*
X0036433Y0032044D02*
X0037220Y0032044D01*
X0037220Y0032830D02*
X0036433Y0032830D01*
X0036433Y0033616D02*
X0037220Y0033616D01*
X0037220Y0034402D02*
X0036433Y0034402D01*
X0036433Y0035188D02*
X0037220Y0035188D01*
X0037220Y0035974D02*
X0036433Y0035974D01*
X0036433Y0036760D02*
X0017239Y0036760D01*
X0016684Y0037546D02*
X0023941Y0037546D01*
X0024019Y0038332D02*
X0016129Y0038332D01*
X0015575Y0039118D02*
X0024136Y0039118D01*
X0024292Y0039903D02*
X0015020Y0039903D01*
X0014707Y0040347D02*
X0009899Y0049626D01*
X0006399Y0059474D01*
X0004272Y0069707D01*
X0003559Y0080134D01*
X0004272Y0090561D01*
X0006399Y0100793D01*
X0009899Y0110641D01*
X0014707Y0119921D01*
X0020734Y0128459D01*
X0027867Y0136097D01*
X0035975Y0142693D01*
X0044904Y0148123D01*
X0054491Y0152287D01*
X0064554Y0155107D01*
X0074908Y0156530D01*
X0085359Y0156530D01*
X0095713Y0155107D01*
X0105777Y0152287D01*
X0115363Y0148123D01*
X0124293Y0142693D01*
X0132400Y0136097D01*
X0139534Y0128459D01*
X0145561Y0119921D01*
X0150369Y0110641D01*
X0153869Y0100793D01*
X0155995Y0090561D01*
X0156709Y0080134D01*
X0155995Y0069707D01*
X0153869Y0059474D01*
X0150369Y0049626D01*
X0145561Y0040347D01*
X0139534Y0031808D01*
X0132400Y0024170D01*
X0124293Y0017575D01*
X0115363Y0012144D01*
X0105777Y0007980D01*
X0095713Y0005161D01*
X0085360Y0003738D01*
X0074908Y0003738D01*
X0064554Y0005161D01*
X0054491Y0007980D01*
X0044904Y0012144D01*
X0035975Y0017575D01*
X0027867Y0024170D01*
X0020734Y0031808D01*
X0014707Y0040347D01*
X0014529Y0040689D02*
X0024525Y0040689D01*
X0024796Y0041475D02*
X0014122Y0041475D01*
X0013715Y0042261D02*
X0025122Y0042261D01*
X0025532Y0043047D02*
X0013308Y0043047D01*
X0012900Y0043833D02*
X0026001Y0043833D01*
X0026542Y0044619D02*
X0012493Y0044619D01*
X0012086Y0045405D02*
X0027187Y0045405D01*
X0027956Y0046191D02*
X0011679Y0046191D01*
X0011272Y0046977D02*
X0028870Y0046977D01*
X0029985Y0047763D02*
X0010864Y0047763D01*
X0010457Y0048548D02*
X0031433Y0048548D01*
X0033641Y0049334D02*
X0010050Y0049334D01*
X0009723Y0050120D02*
X0150545Y0050120D01*
X0150824Y0050906D02*
X0009444Y0050906D01*
X0009164Y0051692D02*
X0151103Y0051692D01*
X0151383Y0052478D02*
X0008885Y0052478D01*
X0008606Y0053264D02*
X0151662Y0053264D01*
X0151941Y0054050D02*
X0008326Y0054050D01*
X0008047Y0054836D02*
X0152221Y0054836D01*
X0152500Y0055622D02*
X0007768Y0055622D01*
X0007489Y0056408D02*
X0152779Y0056408D01*
X0153059Y0057194D02*
X0007209Y0057194D01*
X0006930Y0057979D02*
X0153338Y0057979D01*
X0153617Y0058765D02*
X0006651Y0058765D01*
X0006383Y0059551D02*
X0153885Y0059551D01*
X0154048Y0060337D02*
X0080736Y0060337D01*
X0080247Y0059849D02*
X0081521Y0061123D01*
X0154212Y0061123D01*
X0154375Y0061909D02*
X0084330Y0061909D01*
X0084661Y0062240D02*
X0086216Y0063795D01*
X0089366Y0063795D01*
X0090173Y0064602D01*
X0091512Y0065941D01*
X0091512Y0066551D01*
X0091655Y0066551D01*
X0092693Y0067589D01*
X0092693Y0076931D01*
X0091655Y0077968D01*
X0091280Y0077968D01*
X0091873Y0078561D01*
X0092329Y0077458D01*
X0093658Y0076129D01*
X0095395Y0075409D01*
X0097274Y0075409D01*
X0099011Y0076129D01*
X0100340Y0077458D01*
X0101059Y0079194D01*
X0101059Y0081074D01*
X0100340Y0082810D01*
X0099011Y0084139D01*
X0097274Y0084858D01*
X0095395Y0084858D01*
X0093658Y0084139D01*
X0092329Y0082810D01*
X0091873Y0081707D01*
X0091748Y0081832D01*
X0091748Y0082392D01*
X0092693Y0083337D01*
X0092693Y0092679D01*
X0091655Y0093717D01*
X0088613Y0093717D01*
X0087855Y0092958D01*
X0087667Y0093284D01*
X0087260Y0093690D01*
X0086763Y0093977D01*
X0086208Y0094126D01*
X0085528Y0094126D01*
X0085528Y0088402D01*
X0084740Y0088402D01*
X0084740Y0094126D01*
X0084059Y0094126D01*
X0083505Y0093977D01*
X0083007Y0093690D01*
X0082634Y0093317D01*
X0082260Y0093690D01*
X0081763Y0093977D01*
X0081208Y0094126D01*
X0080528Y0094126D01*
X0080528Y0088402D01*
X0079740Y0088402D01*
X0079740Y0094126D01*
X0079059Y0094126D01*
X0078505Y0093977D01*
X0078007Y0093690D01*
X0077634Y0093317D01*
X0077260Y0093690D01*
X0076763Y0093977D01*
X0076208Y0094126D01*
X0075528Y0094126D01*
X0075528Y0088402D01*
X0074740Y0088402D01*
X0074740Y0094126D01*
X0074059Y0094126D01*
X0073505Y0093977D01*
X0073007Y0093690D01*
X0072634Y0093317D01*
X0072260Y0093690D01*
X0071763Y0093977D01*
X0071208Y0094126D01*
X0070528Y0094126D01*
X0070528Y0088402D01*
X0069740Y0088402D01*
X0069740Y0094126D01*
X0069059Y0094126D01*
X0068505Y0093977D01*
X0068007Y0093690D01*
X0067601Y0093284D01*
X0067314Y0092787D01*
X0067165Y0092232D01*
X0067165Y0088402D01*
X0069740Y0088402D01*
X0069740Y0087614D01*
X0070528Y0087614D01*
X0070528Y0088402D01*
X0073102Y0088402D01*
X0074740Y0088402D01*
X0074740Y0087614D01*
X0075528Y0087614D01*
X0075528Y0088402D01*
X0078102Y0088402D01*
X0079740Y0088402D01*
X0079740Y0087614D01*
X0080528Y0087614D01*
X0080528Y0088402D01*
X0083102Y0088402D01*
X0084740Y0088402D01*
X0084740Y0087614D01*
X0085528Y0087614D01*
X0085528Y0081890D01*
X0086208Y0081890D01*
X0086763Y0082038D01*
X0087260Y0082326D01*
X0087667Y0082732D01*
X0087855Y0083057D01*
X0088613Y0082299D01*
X0088992Y0082299D01*
X0088992Y0081832D01*
X0088195Y0081035D01*
X0088195Y0079233D01*
X0089460Y0077968D01*
X0088613Y0077968D01*
X0087634Y0076990D01*
X0086655Y0077968D01*
X0083613Y0077968D01*
X0082855Y0077210D01*
X0082667Y0077536D01*
X0082260Y0077942D01*
X0081763Y0078229D01*
X0081208Y0078378D01*
X0080528Y0078378D01*
X0080528Y0072654D01*
X0079740Y0072654D01*
X0079740Y0078378D01*
X0079059Y0078378D01*
X0078505Y0078229D01*
X0078007Y0077942D01*
X0077601Y0077536D01*
X0077413Y0077210D01*
X0076655Y0077968D01*
X0073613Y0077968D01*
X0072634Y0076990D01*
X0071655Y0077968D01*
X0068613Y0077968D01*
X0067575Y0076931D01*
X0067575Y0067589D01*
X0068362Y0066802D01*
X0068362Y0065139D01*
X0067723Y0064499D01*
X0067723Y0062698D01*
X0068997Y0061424D01*
X0070798Y0061424D01*
X0072072Y0062698D01*
X0072072Y0064499D01*
X0071905Y0064666D01*
X0071905Y0066802D01*
X0072634Y0067530D01*
X0073613Y0066551D01*
X0075287Y0066551D01*
X0074022Y0065287D01*
X0074022Y0063485D01*
X0075296Y0062211D01*
X0077098Y0062211D01*
X0077172Y0062285D01*
X0077172Y0061123D01*
X0006056Y0061123D01*
X0006219Y0060337D02*
X0077957Y0060337D01*
X0078446Y0059849D02*
X0080247Y0059849D01*
X0081521Y0061123D02*
X0081521Y0061433D01*
X0083854Y0061433D01*
X0084661Y0062240D01*
X0085116Y0062695D02*
X0154538Y0062695D01*
X0154702Y0063481D02*
X0085902Y0063481D01*
X0085646Y0065173D02*
X0083283Y0062811D01*
X0080134Y0062811D01*
X0079346Y0062024D01*
X0077172Y0061909D02*
X0071284Y0061909D01*
X0072070Y0062695D02*
X0074812Y0062695D01*
X0074026Y0063481D02*
X0072072Y0063481D01*
X0072072Y0064267D02*
X0074022Y0064267D01*
X0074022Y0065053D02*
X0071905Y0065053D01*
X0071905Y0065839D02*
X0074574Y0065839D01*
X0073539Y0066624D02*
X0071905Y0066624D01*
X0072514Y0067410D02*
X0072753Y0067410D01*
X0076665Y0066561D02*
X0077413Y0067309D01*
X0077601Y0066984D01*
X0078007Y0066578D01*
X0078505Y0066290D01*
X0079059Y0066142D01*
X0079740Y0066142D01*
X0079740Y0071866D01*
X0080528Y0071866D01*
X0080528Y0066142D01*
X0081208Y0066142D01*
X0081763Y0066290D01*
X0082260Y0066578D01*
X0082667Y0066984D01*
X0082855Y0067309D01*
X0083163Y0067001D01*
X0081925Y0065764D01*
X0077895Y0065764D01*
X0077098Y0066561D01*
X0076665Y0066561D01*
X0076728Y0066624D02*
X0077960Y0066624D01*
X0077820Y0065839D02*
X0082000Y0065839D01*
X0082307Y0066624D02*
X0082786Y0066624D01*
X0082496Y0064386D02*
X0076197Y0064386D01*
X0077172Y0061123D02*
X0078446Y0059849D01*
X0082496Y0064386D02*
X0085134Y0067024D01*
X0085134Y0072260D01*
X0080528Y0072912D02*
X0079740Y0072912D01*
X0079740Y0073698D02*
X0080528Y0073698D01*
X0080528Y0074484D02*
X0079740Y0074484D01*
X0079740Y0075270D02*
X0080528Y0075270D01*
X0080528Y0076055D02*
X0079740Y0076055D01*
X0079740Y0076841D02*
X0080528Y0076841D01*
X0080528Y0077627D02*
X0079740Y0077627D01*
X0077692Y0077627D02*
X0076996Y0077627D01*
X0073271Y0077627D02*
X0071996Y0077627D01*
X0068271Y0077627D02*
X0066994Y0077627D01*
X0067271Y0077904D02*
X0067870Y0079351D01*
X0067870Y0080917D01*
X0067271Y0082364D01*
X0066163Y0083471D01*
X0064716Y0084071D01*
X0063150Y0084071D01*
X0061703Y0083471D01*
X0060595Y0082364D01*
X0059996Y0080917D01*
X0059996Y0079351D01*
X0060595Y0077904D01*
X0061703Y0076796D01*
X0063150Y0076197D01*
X0064716Y0076197D01*
X0066163Y0076796D01*
X0067271Y0077904D01*
X0067482Y0078413D02*
X0089015Y0078413D01*
X0088271Y0077627D02*
X0086996Y0077627D01*
X0088229Y0079199D02*
X0067807Y0079199D01*
X0067870Y0079985D02*
X0088195Y0079985D01*
X0088195Y0080771D02*
X0067870Y0080771D01*
X0067605Y0081557D02*
X0088717Y0081557D01*
X0088569Y0082343D02*
X0087278Y0082343D01*
X0085528Y0082343D02*
X0084740Y0082343D01*
X0084740Y0081890D02*
X0084740Y0087614D01*
X0080528Y0087614D01*
X0080528Y0081890D01*
X0081208Y0081890D01*
X0081763Y0082038D01*
X0082260Y0082326D01*
X0082634Y0082699D01*
X0083007Y0082326D01*
X0083505Y0082038D01*
X0084059Y0081890D01*
X0084740Y0081890D01*
X0084740Y0083129D02*
X0085528Y0083129D01*
X0085528Y0083915D02*
X0084740Y0083915D01*
X0084740Y0084700D02*
X0085528Y0084700D01*
X0085528Y0085486D02*
X0084740Y0085486D01*
X0084740Y0086272D02*
X0085528Y0086272D01*
X0085528Y0087058D02*
X0084740Y0087058D01*
X0084740Y0087844D02*
X0080528Y0087844D01*
X0080134Y0088008D02*
X0080134Y0092732D01*
X0079740Y0092560D02*
X0080528Y0092560D01*
X0080528Y0093346D02*
X0079740Y0093346D01*
X0079740Y0091774D02*
X0080528Y0091774D01*
X0080528Y0090988D02*
X0079740Y0090988D01*
X0079740Y0090202D02*
X0080528Y0090202D01*
X0080528Y0089416D02*
X0079740Y0089416D01*
X0079740Y0088630D02*
X0080528Y0088630D01*
X0079740Y0087844D02*
X0075528Y0087844D01*
X0075528Y0087614D02*
X0079740Y0087614D01*
X0079740Y0081890D01*
X0079059Y0081890D01*
X0078505Y0082038D01*
X0078007Y0082326D01*
X0077634Y0082699D01*
X0077260Y0082326D01*
X0076763Y0082038D01*
X0076208Y0081890D01*
X0075528Y0081890D01*
X0075528Y0087614D01*
X0075528Y0087058D02*
X0074740Y0087058D01*
X0074740Y0087614D02*
X0074740Y0081890D01*
X0074059Y0081890D01*
X0073505Y0082038D01*
X0073007Y0082326D01*
X0072634Y0082699D01*
X0072260Y0082326D01*
X0071763Y0082038D01*
X0071208Y0081890D01*
X0070528Y0081890D01*
X0070528Y0087614D01*
X0074740Y0087614D01*
X0074740Y0087844D02*
X0070528Y0087844D01*
X0070528Y0087058D02*
X0069740Y0087058D01*
X0069740Y0087614D02*
X0069740Y0081890D01*
X0069059Y0081890D01*
X0068505Y0082038D01*
X0068007Y0082326D01*
X0067601Y0082732D01*
X0067314Y0083229D01*
X0067165Y0083784D01*
X0067165Y0087614D01*
X0069740Y0087614D01*
X0069740Y0087844D02*
X0004086Y0087844D01*
X0004033Y0087058D02*
X0067165Y0087058D01*
X0067165Y0086272D02*
X0003979Y0086272D01*
X0003925Y0085486D02*
X0067165Y0085486D01*
X0067165Y0084700D02*
X0003871Y0084700D01*
X0003818Y0083915D02*
X0062773Y0083915D01*
X0061360Y0083129D02*
X0003764Y0083129D01*
X0003710Y0082343D02*
X0060587Y0082343D01*
X0060261Y0081557D02*
X0003656Y0081557D01*
X0003603Y0080771D02*
X0059996Y0080771D01*
X0059996Y0079985D02*
X0003569Y0079985D01*
X0003623Y0079199D02*
X0060059Y0079199D01*
X0060384Y0078413D02*
X0003677Y0078413D01*
X0003731Y0077627D02*
X0060872Y0077627D01*
X0061658Y0076841D02*
X0003784Y0076841D01*
X0003838Y0076055D02*
X0067575Y0076055D01*
X0067575Y0075270D02*
X0003892Y0075270D01*
X0003946Y0074484D02*
X0067575Y0074484D01*
X0067575Y0073698D02*
X0003999Y0073698D01*
X0004053Y0072912D02*
X0067575Y0072912D01*
X0067575Y0072126D02*
X0004107Y0072126D01*
X0004161Y0071340D02*
X0067575Y0071340D01*
X0067575Y0070554D02*
X0004214Y0070554D01*
X0004268Y0069768D02*
X0067575Y0069768D01*
X0067575Y0068982D02*
X0004423Y0068982D01*
X0004586Y0068196D02*
X0067575Y0068196D01*
X0067753Y0067410D02*
X0004749Y0067410D01*
X0004913Y0066624D02*
X0068362Y0066624D01*
X0068362Y0065839D02*
X0005076Y0065839D01*
X0005239Y0065053D02*
X0068276Y0065053D01*
X0067723Y0064267D02*
X0005403Y0064267D01*
X0005566Y0063481D02*
X0067723Y0063481D01*
X0067726Y0062695D02*
X0005729Y0062695D01*
X0005893Y0061909D02*
X0068511Y0061909D01*
X0079740Y0066624D02*
X0080528Y0066624D01*
X0080528Y0067410D02*
X0079740Y0067410D01*
X0079740Y0068196D02*
X0080528Y0068196D01*
X0080528Y0068982D02*
X0079740Y0068982D01*
X0079740Y0069768D02*
X0080528Y0069768D01*
X0080528Y0070554D02*
X0079740Y0070554D01*
X0079740Y0071340D02*
X0080528Y0071340D01*
X0082575Y0077627D02*
X0083271Y0077627D01*
X0082990Y0082343D02*
X0082278Y0082343D01*
X0080528Y0082343D02*
X0079740Y0082343D01*
X0079740Y0083129D02*
X0080528Y0083129D01*
X0080528Y0083915D02*
X0079740Y0083915D01*
X0079740Y0084700D02*
X0080528Y0084700D01*
X0080528Y0085486D02*
X0079740Y0085486D01*
X0079740Y0086272D02*
X0080528Y0086272D01*
X0080528Y0087058D02*
X0079740Y0087058D01*
X0075528Y0086272D02*
X0074740Y0086272D01*
X0074740Y0085486D02*
X0075528Y0085486D01*
X0075528Y0084700D02*
X0074740Y0084700D01*
X0074740Y0083915D02*
X0075528Y0083915D01*
X0075528Y0083129D02*
X0074740Y0083129D01*
X0074740Y0082343D02*
X0075528Y0082343D01*
X0077278Y0082343D02*
X0077990Y0082343D01*
X0072990Y0082343D02*
X0072278Y0082343D01*
X0070528Y0082343D02*
X0069740Y0082343D01*
X0069740Y0083129D02*
X0070528Y0083129D01*
X0070528Y0083915D02*
X0069740Y0083915D01*
X0069740Y0084700D02*
X0070528Y0084700D01*
X0070528Y0085486D02*
X0069740Y0085486D01*
X0069740Y0086272D02*
X0070528Y0086272D01*
X0070528Y0088630D02*
X0069740Y0088630D01*
X0069740Y0089416D02*
X0070528Y0089416D01*
X0070528Y0090202D02*
X0069740Y0090202D01*
X0069740Y0090988D02*
X0070528Y0090988D01*
X0070528Y0091774D02*
X0069740Y0091774D01*
X0069740Y0092560D02*
X0070528Y0092560D01*
X0070528Y0093346D02*
X0069740Y0093346D01*
X0067663Y0093346D02*
X0004851Y0093346D01*
X0005014Y0094131D02*
X0155253Y0094131D01*
X0155417Y0093346D02*
X0092026Y0093346D01*
X0092693Y0092560D02*
X0155580Y0092560D01*
X0155743Y0091774D02*
X0092693Y0091774D01*
X0092693Y0090988D02*
X0155907Y0090988D01*
X0156020Y0090202D02*
X0092693Y0090202D01*
X0092693Y0089416D02*
X0156074Y0089416D01*
X0156127Y0088630D02*
X0092693Y0088630D01*
X0092693Y0087844D02*
X0156181Y0087844D01*
X0156235Y0087058D02*
X0092693Y0087058D01*
X0092693Y0086272D02*
X0156289Y0086272D01*
X0156343Y0085486D02*
X0092693Y0085486D01*
X0092693Y0084700D02*
X0095014Y0084700D01*
X0093434Y0083915D02*
X0092693Y0083915D01*
X0092648Y0083129D02*
X0092485Y0083129D01*
X0092136Y0082343D02*
X0091748Y0082343D01*
X0090370Y0080134D02*
X0090370Y0087772D01*
X0090134Y0088008D01*
X0085528Y0088630D02*
X0084740Y0088630D01*
X0084740Y0089416D02*
X0085528Y0089416D01*
X0085528Y0090202D02*
X0084740Y0090202D01*
X0084740Y0090988D02*
X0085528Y0090988D01*
X0085528Y0091774D02*
X0084740Y0091774D01*
X0084740Y0092560D02*
X0085528Y0092560D01*
X0085528Y0093346D02*
X0084740Y0093346D01*
X0082663Y0093346D02*
X0082605Y0093346D01*
X0077663Y0093346D02*
X0077605Y0093346D01*
X0075528Y0093346D02*
X0074740Y0093346D01*
X0074740Y0092560D02*
X0075528Y0092560D01*
X0075528Y0091774D02*
X0074740Y0091774D01*
X0074740Y0090988D02*
X0075528Y0090988D01*
X0075528Y0090202D02*
X0074740Y0090202D01*
X0074740Y0089416D02*
X0075528Y0089416D01*
X0075528Y0088630D02*
X0074740Y0088630D01*
X0072663Y0093346D02*
X0072605Y0093346D01*
X0067253Y0092560D02*
X0004688Y0092560D01*
X0004524Y0091774D02*
X0067165Y0091774D01*
X0067165Y0090988D02*
X0004361Y0090988D01*
X0004248Y0090202D02*
X0067165Y0090202D01*
X0067165Y0089416D02*
X0004194Y0089416D01*
X0004140Y0088630D02*
X0067165Y0088630D01*
X0067165Y0083915D02*
X0065094Y0083915D01*
X0066506Y0083129D02*
X0067372Y0083129D01*
X0067280Y0082343D02*
X0067990Y0082343D01*
X0067575Y0076841D02*
X0066208Y0076841D01*
X0085646Y0065173D02*
X0088795Y0065173D01*
X0090134Y0066512D01*
X0090134Y0072260D01*
X0092693Y0072126D02*
X0156161Y0072126D01*
X0156215Y0072912D02*
X0092693Y0072912D01*
X0092693Y0073698D02*
X0156268Y0073698D01*
X0156322Y0074484D02*
X0092693Y0074484D01*
X0092693Y0075270D02*
X0156376Y0075270D01*
X0156430Y0076055D02*
X0098834Y0076055D01*
X0099723Y0076841D02*
X0156483Y0076841D01*
X0156537Y0077627D02*
X0100410Y0077627D01*
X0100736Y0078413D02*
X0156591Y0078413D01*
X0156645Y0079199D02*
X0101059Y0079199D01*
X0101059Y0079985D02*
X0156698Y0079985D01*
X0156665Y0080771D02*
X0101059Y0080771D01*
X0100859Y0081557D02*
X0156611Y0081557D01*
X0156558Y0082343D02*
X0100533Y0082343D01*
X0100021Y0083129D02*
X0156504Y0083129D01*
X0156450Y0083915D02*
X0099235Y0083915D01*
X0097655Y0084700D02*
X0156396Y0084700D01*
X0155090Y0094917D02*
X0005178Y0094917D01*
X0005341Y0095703D02*
X0154927Y0095703D01*
X0154763Y0096489D02*
X0005504Y0096489D01*
X0005668Y0097275D02*
X0154600Y0097275D01*
X0154437Y0098061D02*
X0005831Y0098061D01*
X0005994Y0098847D02*
X0154274Y0098847D01*
X0154110Y0099633D02*
X0006157Y0099633D01*
X0006321Y0100419D02*
X0153947Y0100419D01*
X0153723Y0101205D02*
X0006545Y0101205D01*
X0006824Y0101991D02*
X0153444Y0101991D01*
X0153164Y0102776D02*
X0007103Y0102776D01*
X0007383Y0103562D02*
X0152885Y0103562D01*
X0152606Y0104348D02*
X0007662Y0104348D01*
X0007941Y0105134D02*
X0152326Y0105134D01*
X0152047Y0105920D02*
X0008221Y0105920D01*
X0008500Y0106706D02*
X0151768Y0106706D01*
X0151488Y0107492D02*
X0008779Y0107492D01*
X0009059Y0108278D02*
X0151209Y0108278D01*
X0150930Y0109064D02*
X0009338Y0109064D01*
X0009617Y0109850D02*
X0150650Y0109850D01*
X0150371Y0110636D02*
X0124971Y0110636D01*
X0125335Y0110671D02*
X0124074Y0110547D01*
X0123835Y0110547D01*
X0123835Y0123047D01*
X0123835Y0123835D01*
X0136335Y0123835D01*
X0136335Y0124074D01*
X0136210Y0125335D01*
X0135963Y0126578D01*
X0135596Y0127790D01*
X0135111Y0128960D01*
X0134514Y0130078D01*
X0133810Y0131131D01*
X0133006Y0132110D01*
X0132110Y0133006D01*
X0131131Y0133810D01*
X0130078Y0134514D01*
X0128960Y0135111D01*
X0127790Y0135596D01*
X0126578Y0135963D01*
X0125335Y0136210D01*
X0124074Y0136335D01*
X0123835Y0136335D01*
X0123835Y0123835D01*
X0123047Y0123835D01*
X0123047Y0136335D01*
X0122808Y0136335D01*
X0121547Y0136210D01*
X0120304Y0135963D01*
X0119092Y0135596D01*
X0117922Y0135111D01*
X0116804Y0134514D01*
X0115751Y0133810D01*
X0114772Y0133006D01*
X0113876Y0132110D01*
X0113072Y0131131D01*
X0112368Y0130078D01*
X0111771Y0128960D01*
X0111286Y0127790D01*
X0110919Y0126578D01*
X0110671Y0125335D01*
X0110547Y0124074D01*
X0110547Y0123835D01*
X0123047Y0123835D01*
X0123047Y0123047D01*
X0123835Y0123047D01*
X0136335Y0123047D01*
X0136335Y0122808D01*
X0136210Y0121547D01*
X0135963Y0120304D01*
X0135596Y0119092D01*
X0135111Y0117922D01*
X0134514Y0116804D01*
X0133810Y0115751D01*
X0133006Y0114772D01*
X0132110Y0113876D01*
X0131131Y0113072D01*
X0130078Y0112368D01*
X0128960Y0111771D01*
X0127790Y0111286D01*
X0126578Y0110919D01*
X0125335Y0110671D01*
X0123835Y0110636D02*
X0123047Y0110636D01*
X0123047Y0110547D02*
X0123047Y0123047D01*
X0110547Y0123047D01*
X0110547Y0122808D01*
X0110671Y0121547D01*
X0110919Y0120304D01*
X0111286Y0119092D01*
X0111771Y0117922D01*
X0112368Y0116804D01*
X0113072Y0115751D01*
X0113876Y0114772D01*
X0114772Y0113876D01*
X0115751Y0113072D01*
X0116804Y0112368D01*
X0117922Y0111771D01*
X0119092Y0111286D01*
X0120304Y0110919D01*
X0121547Y0110671D01*
X0122808Y0110547D01*
X0123047Y0110547D01*
X0123047Y0111422D02*
X0123835Y0111422D01*
X0123835Y0112207D02*
X0123047Y0112207D01*
X0123047Y0112993D02*
X0123835Y0112993D01*
X0123835Y0113779D02*
X0123047Y0113779D01*
X0123047Y0114565D02*
X0123835Y0114565D01*
X0123835Y0115351D02*
X0123047Y0115351D01*
X0123047Y0116137D02*
X0123835Y0116137D01*
X0123835Y0116923D02*
X0123047Y0116923D01*
X0123047Y0117709D02*
X0123835Y0117709D01*
X0123835Y0118495D02*
X0123047Y0118495D01*
X0123047Y0119281D02*
X0123835Y0119281D01*
X0123835Y0120067D02*
X0123047Y0120067D01*
X0123047Y0120852D02*
X0123835Y0120852D01*
X0123835Y0121638D02*
X0123047Y0121638D01*
X0123047Y0122424D02*
X0123835Y0122424D01*
X0123835Y0123210D02*
X0143239Y0123210D01*
X0143794Y0122424D02*
X0136297Y0122424D01*
X0136219Y0121638D02*
X0144349Y0121638D01*
X0144903Y0120852D02*
X0136072Y0120852D01*
X0135891Y0120067D02*
X0145458Y0120067D01*
X0145893Y0119281D02*
X0135653Y0119281D01*
X0135348Y0118495D02*
X0146300Y0118495D01*
X0146707Y0117709D02*
X0134997Y0117709D01*
X0134577Y0116923D02*
X0147114Y0116923D01*
X0147522Y0116137D02*
X0134068Y0116137D01*
X0133482Y0115351D02*
X0147929Y0115351D01*
X0148336Y0114565D02*
X0132800Y0114565D01*
X0131993Y0113779D02*
X0148743Y0113779D01*
X0149150Y0112993D02*
X0131013Y0112993D01*
X0129777Y0112207D02*
X0149558Y0112207D01*
X0149965Y0111422D02*
X0128116Y0111422D01*
X0121910Y0110636D02*
X0038357Y0110636D01*
X0038721Y0110671D02*
X0037460Y0110547D01*
X0037220Y0110547D01*
X0037220Y0123047D01*
X0036433Y0123047D01*
X0036433Y0110547D01*
X0036193Y0110547D01*
X0034933Y0110671D01*
X0033690Y0110919D01*
X0032478Y0111286D01*
X0031307Y0111771D01*
X0030190Y0112368D01*
X0029137Y0113072D01*
X0028157Y0113876D01*
X0027262Y0114772D01*
X0026458Y0115751D01*
X0025754Y0116804D01*
X0025157Y0117922D01*
X0024672Y0119092D01*
X0024304Y0120304D01*
X0024057Y0121547D01*
X0023933Y0122808D01*
X0023933Y0123047D01*
X0036433Y0123047D01*
X0036433Y0123835D01*
X0036433Y0136335D01*
X0036193Y0136335D01*
X0034933Y0136210D01*
X0033690Y0135963D01*
X0032478Y0135596D01*
X0031307Y0135111D01*
X0030190Y0134514D01*
X0029137Y0133810D01*
X0028157Y0133006D01*
X0027262Y0132110D01*
X0026458Y0131131D01*
X0025754Y0130078D01*
X0025157Y0128960D01*
X0024672Y0127790D01*
X0024304Y0126578D01*
X0024057Y0125335D01*
X0023933Y0124074D01*
X0023933Y0123835D01*
X0036433Y0123835D01*
X0037220Y0123835D01*
X0037220Y0136335D01*
X0037460Y0136335D01*
X0038721Y0136210D01*
X0039963Y0135963D01*
X0041176Y0135596D01*
X0042346Y0135111D01*
X0043463Y0134514D01*
X0044517Y0133810D01*
X0045496Y0133006D01*
X0046392Y0132110D01*
X0047196Y0131131D01*
X0047899Y0130078D01*
X0048497Y0128960D01*
X0048981Y0127790D01*
X0049349Y0126578D01*
X0049596Y0125335D01*
X0049720Y0124074D01*
X0049720Y0123835D01*
X0037221Y0123835D01*
X0037221Y0123047D01*
X0049720Y0123047D01*
X0049720Y0122808D01*
X0049596Y0121547D01*
X0049349Y0120304D01*
X0048981Y0119092D01*
X0048497Y0117922D01*
X0047899Y0116804D01*
X0047196Y0115751D01*
X0046392Y0114772D01*
X0045496Y0113876D01*
X0044517Y0113072D01*
X0043463Y0112368D01*
X0042346Y0111771D01*
X0041176Y0111286D01*
X0039963Y0110919D01*
X0038721Y0110671D01*
X0037220Y0110636D02*
X0036433Y0110636D01*
X0036433Y0111422D02*
X0037220Y0111422D01*
X0037220Y0112207D02*
X0036433Y0112207D01*
X0036433Y0112993D02*
X0037220Y0112993D01*
X0037220Y0113779D02*
X0036433Y0113779D01*
X0036433Y0114565D02*
X0037220Y0114565D01*
X0037220Y0115351D02*
X0036433Y0115351D01*
X0036433Y0116137D02*
X0037220Y0116137D01*
X0037220Y0116923D02*
X0036433Y0116923D01*
X0036433Y0117709D02*
X0037220Y0117709D01*
X0037220Y0118495D02*
X0036433Y0118495D01*
X0036433Y0119281D02*
X0037220Y0119281D01*
X0037220Y0120067D02*
X0036433Y0120067D01*
X0036433Y0120852D02*
X0037220Y0120852D01*
X0037220Y0121638D02*
X0036433Y0121638D01*
X0036433Y0122424D02*
X0037220Y0122424D01*
X0037221Y0123210D02*
X0123047Y0123210D01*
X0123047Y0123996D02*
X0123835Y0123996D01*
X0123835Y0124782D02*
X0123047Y0124782D01*
X0123047Y0125568D02*
X0123835Y0125568D01*
X0123835Y0126354D02*
X0123047Y0126354D01*
X0123047Y0127140D02*
X0123835Y0127140D01*
X0123835Y0127926D02*
X0123047Y0127926D01*
X0123047Y0128712D02*
X0123835Y0128712D01*
X0123835Y0129498D02*
X0123047Y0129498D01*
X0123047Y0130283D02*
X0123835Y0130283D01*
X0123835Y0131069D02*
X0123047Y0131069D01*
X0123047Y0131855D02*
X0123835Y0131855D01*
X0123835Y0132641D02*
X0123047Y0132641D01*
X0123047Y0133427D02*
X0123835Y0133427D01*
X0123835Y0134213D02*
X0123047Y0134213D01*
X0123047Y0134999D02*
X0123835Y0134999D01*
X0123835Y0135785D02*
X0123047Y0135785D01*
X0119716Y0135785D02*
X0040552Y0135785D01*
X0042555Y0134999D02*
X0117712Y0134999D01*
X0116354Y0134213D02*
X0043913Y0134213D01*
X0044983Y0133427D02*
X0115285Y0133427D01*
X0114407Y0132641D02*
X0045861Y0132641D01*
X0046601Y0131855D02*
X0113667Y0131855D01*
X0113031Y0131069D02*
X0047237Y0131069D01*
X0047762Y0130283D02*
X0112506Y0130283D01*
X0112058Y0129498D02*
X0048209Y0129498D01*
X0048600Y0128712D02*
X0111668Y0128712D01*
X0111343Y0127926D02*
X0048925Y0127926D01*
X0049179Y0127140D02*
X0111089Y0127140D01*
X0110874Y0126354D02*
X0049394Y0126354D01*
X0049550Y0125568D02*
X0110718Y0125568D01*
X0110617Y0124782D02*
X0049651Y0124782D01*
X0049720Y0123996D02*
X0110547Y0123996D01*
X0110585Y0122424D02*
X0049683Y0122424D01*
X0049605Y0121638D02*
X0110662Y0121638D01*
X0110810Y0120852D02*
X0049458Y0120852D01*
X0049277Y0120067D02*
X0110991Y0120067D01*
X0111229Y0119281D02*
X0049039Y0119281D01*
X0048734Y0118495D02*
X0111534Y0118495D01*
X0111885Y0117709D02*
X0048383Y0117709D01*
X0047963Y0116923D02*
X0112305Y0116923D01*
X0112814Y0116137D02*
X0047454Y0116137D01*
X0046867Y0115351D02*
X0113400Y0115351D01*
X0114082Y0114565D02*
X0046185Y0114565D01*
X0045378Y0113779D02*
X0114889Y0113779D01*
X0115869Y0112993D02*
X0044399Y0112993D01*
X0043162Y0112207D02*
X0117105Y0112207D01*
X0118766Y0111422D02*
X0041502Y0111422D01*
X0035296Y0110636D02*
X0009897Y0110636D01*
X0010303Y0111422D02*
X0032151Y0111422D01*
X0030491Y0112207D02*
X0010710Y0112207D01*
X0011117Y0112993D02*
X0029255Y0112993D01*
X0028275Y0113779D02*
X0011524Y0113779D01*
X0011932Y0114565D02*
X0027468Y0114565D01*
X0026786Y0115351D02*
X0012339Y0115351D01*
X0012746Y0116137D02*
X0026200Y0116137D01*
X0025691Y0116923D02*
X0013153Y0116923D01*
X0013561Y0117709D02*
X0025271Y0117709D01*
X0024920Y0118495D02*
X0013968Y0118495D01*
X0014375Y0119281D02*
X0024615Y0119281D01*
X0024376Y0120067D02*
X0014810Y0120067D01*
X0015364Y0120852D02*
X0024195Y0120852D01*
X0024048Y0121638D02*
X0015919Y0121638D01*
X0016474Y0122424D02*
X0023971Y0122424D01*
X0023933Y0123996D02*
X0017583Y0123996D01*
X0017029Y0123210D02*
X0036433Y0123210D01*
X0036433Y0123996D02*
X0037220Y0123996D01*
X0037220Y0124782D02*
X0036433Y0124782D01*
X0036433Y0125568D02*
X0037220Y0125568D01*
X0037220Y0126354D02*
X0036433Y0126354D01*
X0036433Y0127140D02*
X0037220Y0127140D01*
X0037220Y0127926D02*
X0036433Y0127926D01*
X0036433Y0128712D02*
X0037220Y0128712D01*
X0037220Y0129498D02*
X0036433Y0129498D01*
X0036433Y0130283D02*
X0037220Y0130283D01*
X0037220Y0131069D02*
X0036433Y0131069D01*
X0036433Y0131855D02*
X0037220Y0131855D01*
X0037220Y0132641D02*
X0036433Y0132641D01*
X0036433Y0133427D02*
X0037220Y0133427D01*
X0037220Y0134213D02*
X0036433Y0134213D01*
X0036433Y0134999D02*
X0037220Y0134999D01*
X0037220Y0135785D02*
X0036433Y0135785D01*
X0033102Y0135785D02*
X0027575Y0135785D01*
X0026841Y0134999D02*
X0031098Y0134999D01*
X0029740Y0134213D02*
X0026107Y0134213D01*
X0025373Y0133427D02*
X0028670Y0133427D01*
X0027793Y0132641D02*
X0024639Y0132641D01*
X0023905Y0131855D02*
X0027052Y0131855D01*
X0026417Y0131069D02*
X0023172Y0131069D01*
X0022438Y0130283D02*
X0025892Y0130283D01*
X0025444Y0129498D02*
X0021704Y0129498D01*
X0020970Y0128712D02*
X0025054Y0128712D01*
X0024728Y0127926D02*
X0020357Y0127926D01*
X0019802Y0127140D02*
X0024475Y0127140D01*
X0024260Y0126354D02*
X0019248Y0126354D01*
X0018693Y0125568D02*
X0024104Y0125568D01*
X0024003Y0124782D02*
X0018138Y0124782D01*
X0028449Y0136571D02*
X0131819Y0136571D01*
X0132692Y0135785D02*
X0127166Y0135785D01*
X0129170Y0134999D02*
X0133426Y0134999D01*
X0134160Y0134213D02*
X0130527Y0134213D01*
X0131597Y0133427D02*
X0134894Y0133427D01*
X0135628Y0132641D02*
X0132475Y0132641D01*
X0133215Y0131855D02*
X0136362Y0131855D01*
X0137096Y0131069D02*
X0133851Y0131069D01*
X0134376Y0130283D02*
X0137830Y0130283D01*
X0138564Y0129498D02*
X0134824Y0129498D01*
X0135214Y0128712D02*
X0139298Y0128712D01*
X0139910Y0127926D02*
X0135539Y0127926D01*
X0135793Y0127140D02*
X0140465Y0127140D01*
X0141020Y0126354D02*
X0136008Y0126354D01*
X0136164Y0125568D02*
X0141575Y0125568D01*
X0142129Y0124782D02*
X0136265Y0124782D01*
X0136335Y0123996D02*
X0142684Y0123996D01*
X0130853Y0137357D02*
X0029415Y0137357D01*
X0030381Y0138143D02*
X0129887Y0138143D01*
X0128920Y0138928D02*
X0031347Y0138928D01*
X0032313Y0139714D02*
X0127954Y0139714D01*
X0126988Y0140500D02*
X0033279Y0140500D01*
X0034245Y0141286D02*
X0126022Y0141286D01*
X0125056Y0142072D02*
X0035211Y0142072D01*
X0036246Y0142858D02*
X0124022Y0142858D01*
X0122730Y0143644D02*
X0037538Y0143644D01*
X0038831Y0144430D02*
X0121437Y0144430D01*
X0120145Y0145216D02*
X0040123Y0145216D01*
X0041415Y0146002D02*
X0118852Y0146002D01*
X0117560Y0146788D02*
X0042708Y0146788D01*
X0044000Y0147573D02*
X0116268Y0147573D01*
X0114820Y0148359D02*
X0045448Y0148359D01*
X0047257Y0149145D02*
X0113011Y0149145D01*
X0111201Y0149931D02*
X0049066Y0149931D01*
X0050876Y0150717D02*
X0109392Y0150717D01*
X0107583Y0151503D02*
X0052685Y0151503D01*
X0054496Y0152289D02*
X0105771Y0152289D01*
X0102966Y0153075D02*
X0057301Y0153075D01*
X0060106Y0153861D02*
X0100161Y0153861D01*
X0097356Y0154647D02*
X0062911Y0154647D01*
X0066923Y0155433D02*
X0093345Y0155433D01*
X0087627Y0156219D02*
X0072641Y0156219D01*
X0087605Y0093346D02*
X0088242Y0093346D01*
X0091725Y0078413D02*
X0091934Y0078413D01*
X0091996Y0077627D02*
X0092259Y0077627D01*
X0092693Y0076841D02*
X0092946Y0076841D01*
X0092693Y0076055D02*
X0093835Y0076055D01*
X0092693Y0071340D02*
X0156107Y0071340D01*
X0156053Y0070554D02*
X0092693Y0070554D01*
X0092693Y0069768D02*
X0156000Y0069768D01*
X0155995Y0069707D02*
X0155995Y0069707D01*
X0155845Y0068982D02*
X0092693Y0068982D01*
X0092693Y0068196D02*
X0155682Y0068196D01*
X0155518Y0067410D02*
X0092514Y0067410D01*
X0091728Y0066624D02*
X0155355Y0066624D01*
X0155192Y0065839D02*
X0091409Y0065839D01*
X0090623Y0065053D02*
X0155028Y0065053D01*
X0154865Y0064267D02*
X0089837Y0064267D01*
X0113156Y0044619D02*
X0047112Y0044619D01*
X0047652Y0043833D02*
X0112615Y0043833D01*
X0112368Y0043463D02*
X0111771Y0042346D01*
X0111286Y0041176D01*
X0110919Y0039963D01*
X0110671Y0038721D01*
X0110547Y0037460D01*
X0110547Y0037220D01*
X0123047Y0037220D01*
X0123047Y0036433D01*
X0110547Y0036433D01*
X0110547Y0036193D01*
X0110671Y0034933D01*
X0110919Y0033690D01*
X0111286Y0032478D01*
X0111771Y0031307D01*
X0112368Y0030190D01*
X0113072Y0029137D01*
X0113876Y0028157D01*
X0114772Y0027262D01*
X0115751Y0026458D01*
X0116804Y0025754D01*
X0117922Y0025157D01*
X0119092Y0024672D01*
X0120304Y0024304D01*
X0121547Y0024057D01*
X0122808Y0023933D01*
X0123047Y0023933D01*
X0123047Y0036433D01*
X0123835Y0036433D01*
X0123835Y0037220D01*
X0136335Y0037220D01*
X0136335Y0037460D01*
X0136210Y0038721D01*
X0135963Y0039963D01*
X0135596Y0041176D01*
X0135111Y0042346D01*
X0134514Y0043463D01*
X0133810Y0044517D01*
X0133006Y0045496D01*
X0132110Y0046392D01*
X0131131Y0047196D01*
X0130078Y0047899D01*
X0128960Y0048497D01*
X0127790Y0048981D01*
X0126578Y0049349D01*
X0125335Y0049596D01*
X0124074Y0049720D01*
X0123835Y0049720D01*
X0123835Y0037221D01*
X0123047Y0037221D01*
X0123047Y0049720D01*
X0122808Y0049720D01*
X0121547Y0049596D01*
X0120304Y0049349D01*
X0119092Y0048981D01*
X0117922Y0048497D01*
X0116804Y0047899D01*
X0115751Y0047196D01*
X0114772Y0046392D01*
X0113876Y0045496D01*
X0113072Y0044517D01*
X0112368Y0043463D01*
X0112146Y0043047D02*
X0048122Y0043047D01*
X0048532Y0042261D02*
X0111736Y0042261D01*
X0111410Y0041475D02*
X0048857Y0041475D01*
X0049129Y0040689D02*
X0111139Y0040689D01*
X0110907Y0039903D02*
X0049361Y0039903D01*
X0049517Y0039118D02*
X0110750Y0039118D01*
X0110633Y0038332D02*
X0049635Y0038332D01*
X0049712Y0037546D02*
X0110556Y0037546D01*
X0110569Y0035974D02*
X0049699Y0035974D01*
X0049621Y0035188D02*
X0110646Y0035188D01*
X0110777Y0034402D02*
X0049491Y0034402D01*
X0049327Y0033616D02*
X0110941Y0033616D01*
X0111179Y0032830D02*
X0049088Y0032830D01*
X0048802Y0032044D02*
X0111466Y0032044D01*
X0111797Y0031258D02*
X0048470Y0031258D01*
X0048050Y0030472D02*
X0112217Y0030472D01*
X0112705Y0029687D02*
X0047563Y0029687D01*
X0047002Y0028901D02*
X0113266Y0028901D01*
X0113919Y0028115D02*
X0046349Y0028115D01*
X0045563Y0027329D02*
X0114704Y0027329D01*
X0115647Y0026543D02*
X0044620Y0026543D01*
X0043468Y0025757D02*
X0116800Y0025757D01*
X0118370Y0024971D02*
X0041897Y0024971D01*
X0039364Y0024185D02*
X0120904Y0024185D01*
X0123047Y0024185D02*
X0123835Y0024185D01*
X0123835Y0023933D02*
X0124074Y0023933D01*
X0125335Y0024057D01*
X0126578Y0024304D01*
X0127790Y0024672D01*
X0128960Y0025157D01*
X0130078Y0025754D01*
X0131131Y0026458D01*
X0132110Y0027262D01*
X0133006Y0028157D01*
X0133810Y0029137D01*
X0134514Y0030190D01*
X0135111Y0031307D01*
X0135596Y0032478D01*
X0135963Y0033690D01*
X0136210Y0034933D01*
X0136335Y0036193D01*
X0136335Y0036433D01*
X0123835Y0036433D01*
X0123835Y0023933D01*
X0123835Y0024971D02*
X0123047Y0024971D01*
X0123047Y0025757D02*
X0123835Y0025757D01*
X0123835Y0026543D02*
X0123047Y0026543D01*
X0123047Y0027329D02*
X0123835Y0027329D01*
X0123835Y0028115D02*
X0123047Y0028115D01*
X0123047Y0028901D02*
X0123835Y0028901D01*
X0123835Y0029687D02*
X0123047Y0029687D01*
X0123047Y0030472D02*
X0123835Y0030472D01*
X0123835Y0031258D02*
X0123047Y0031258D01*
X0123047Y0032044D02*
X0123835Y0032044D01*
X0123835Y0032830D02*
X0123047Y0032830D01*
X0123047Y0033616D02*
X0123835Y0033616D01*
X0123835Y0034402D02*
X0123047Y0034402D01*
X0123047Y0035188D02*
X0123835Y0035188D01*
X0123835Y0035974D02*
X0123047Y0035974D01*
X0123047Y0036760D02*
X0037221Y0036760D01*
X0037220Y0037546D02*
X0036433Y0037546D01*
X0036433Y0038332D02*
X0037220Y0038332D01*
X0037220Y0039118D02*
X0036433Y0039118D01*
X0036433Y0039903D02*
X0037220Y0039903D01*
X0037220Y0040689D02*
X0036433Y0040689D01*
X0036433Y0041475D02*
X0037220Y0041475D01*
X0037220Y0042261D02*
X0036433Y0042261D01*
X0036433Y0043047D02*
X0037220Y0043047D01*
X0037220Y0043833D02*
X0036433Y0043833D01*
X0036433Y0044619D02*
X0037220Y0044619D01*
X0037220Y0045405D02*
X0036433Y0045405D01*
X0036433Y0046191D02*
X0037220Y0046191D01*
X0037220Y0046977D02*
X0036433Y0046977D01*
X0036433Y0047763D02*
X0037220Y0047763D01*
X0037220Y0048548D02*
X0036433Y0048548D01*
X0036433Y0049334D02*
X0037220Y0049334D01*
X0040012Y0049334D02*
X0120256Y0049334D01*
X0123047Y0049334D02*
X0123835Y0049334D01*
X0123835Y0048548D02*
X0123047Y0048548D01*
X0123047Y0047763D02*
X0123835Y0047763D01*
X0123835Y0046977D02*
X0123047Y0046977D01*
X0123047Y0046191D02*
X0123835Y0046191D01*
X0123835Y0045405D02*
X0123047Y0045405D01*
X0123047Y0044619D02*
X0123835Y0044619D01*
X0123835Y0043833D02*
X0123047Y0043833D01*
X0123047Y0043047D02*
X0123835Y0043047D01*
X0123835Y0042261D02*
X0123047Y0042261D01*
X0123047Y0041475D02*
X0123835Y0041475D01*
X0123835Y0040689D02*
X0123047Y0040689D01*
X0123047Y0039903D02*
X0123835Y0039903D01*
X0123835Y0039118D02*
X0123047Y0039118D01*
X0123047Y0038332D02*
X0123835Y0038332D01*
X0123835Y0037546D02*
X0123047Y0037546D01*
X0123835Y0036760D02*
X0143029Y0036760D01*
X0143584Y0037546D02*
X0136326Y0037546D01*
X0136249Y0038332D02*
X0144138Y0038332D01*
X0144693Y0039118D02*
X0136132Y0039118D01*
X0135975Y0039903D02*
X0145248Y0039903D01*
X0145738Y0040689D02*
X0135743Y0040689D01*
X0135472Y0041475D02*
X0146146Y0041475D01*
X0146553Y0042261D02*
X0135146Y0042261D01*
X0134736Y0043047D02*
X0146960Y0043047D01*
X0147367Y0043833D02*
X0134267Y0043833D01*
X0133726Y0044619D02*
X0147774Y0044619D01*
X0148182Y0045405D02*
X0133081Y0045405D01*
X0132311Y0046191D02*
X0148589Y0046191D01*
X0148996Y0046977D02*
X0131398Y0046977D01*
X0130282Y0047763D02*
X0149403Y0047763D01*
X0149811Y0048548D02*
X0128835Y0048548D01*
X0126626Y0049334D02*
X0150218Y0049334D01*
X0142474Y0035974D02*
X0136313Y0035974D01*
X0136236Y0035188D02*
X0141919Y0035188D01*
X0141365Y0034402D02*
X0136105Y0034402D01*
X0135941Y0033616D02*
X0140810Y0033616D01*
X0140255Y0032830D02*
X0135702Y0032830D01*
X0135416Y0032044D02*
X0139700Y0032044D01*
X0139020Y0031258D02*
X0135085Y0031258D01*
X0134665Y0030472D02*
X0138286Y0030472D01*
X0137552Y0029687D02*
X0134177Y0029687D01*
X0133616Y0028901D02*
X0136818Y0028901D01*
X0136084Y0028115D02*
X0132963Y0028115D01*
X0132177Y0027329D02*
X0135350Y0027329D01*
X0134616Y0026543D02*
X0131234Y0026543D01*
X0130082Y0025757D02*
X0133882Y0025757D01*
X0133148Y0024971D02*
X0128512Y0024971D01*
X0130487Y0022613D02*
X0029781Y0022613D01*
X0030747Y0021827D02*
X0129521Y0021827D01*
X0128555Y0021042D02*
X0031713Y0021042D01*
X0032679Y0020256D02*
X0127589Y0020256D01*
X0126623Y0019470D02*
X0033645Y0019470D01*
X0034611Y0018684D02*
X0125656Y0018684D01*
X0124690Y0017898D02*
X0035577Y0017898D01*
X0036735Y0017112D02*
X0123532Y0017112D01*
X0122240Y0016326D02*
X0038028Y0016326D01*
X0039320Y0015540D02*
X0120948Y0015540D01*
X0119655Y0014754D02*
X0040613Y0014754D01*
X0041905Y0013968D02*
X0118363Y0013968D01*
X0117070Y0013182D02*
X0043197Y0013182D01*
X0044490Y0012396D02*
X0115778Y0012396D01*
X0114135Y0011611D02*
X0046133Y0011611D01*
X0047942Y0010825D02*
X0112325Y0010825D01*
X0110516Y0010039D02*
X0049752Y0010039D01*
X0051561Y0009253D02*
X0108707Y0009253D01*
X0106897Y0008467D02*
X0053370Y0008467D01*
X0055559Y0007681D02*
X0104709Y0007681D01*
X0101904Y0006895D02*
X0058364Y0006895D01*
X0061169Y0006109D02*
X0099099Y0006109D01*
X0096294Y0005323D02*
X0063974Y0005323D01*
X0069089Y0004537D02*
X0091178Y0004537D01*
X0085460Y0003751D02*
X0074807Y0003751D01*
X0046467Y0045405D02*
X0113801Y0045405D01*
X0114570Y0046191D02*
X0045697Y0046191D01*
X0044784Y0046977D02*
X0115484Y0046977D01*
X0116599Y0047763D02*
X0043668Y0047763D01*
X0042221Y0048548D02*
X0118047Y0048548D01*
X0125978Y0024185D02*
X0132414Y0024185D01*
X0131453Y0023399D02*
X0028815Y0023399D01*
X0030186Y0025757D02*
X0026386Y0025757D01*
X0025652Y0026543D02*
X0029033Y0026543D01*
X0028090Y0027329D02*
X0024918Y0027329D01*
X0024184Y0028115D02*
X0027304Y0028115D01*
X0026652Y0028901D02*
X0023450Y0028901D01*
X0022716Y0029687D02*
X0026091Y0029687D01*
X0025603Y0030472D02*
X0021982Y0030472D01*
X0021248Y0031258D02*
X0025183Y0031258D01*
X0024852Y0032044D02*
X0020567Y0032044D01*
X0020013Y0032830D02*
X0024565Y0032830D01*
X0024327Y0033616D02*
X0019458Y0033616D01*
X0018903Y0034402D02*
X0024163Y0034402D01*
X0024032Y0035188D02*
X0018348Y0035188D01*
X0017794Y0035974D02*
X0023955Y0035974D01*
D15*
X0040764Y0064386D03*
X0062811Y0086433D03*
X0070685Y0080134D03*
X0064386Y0073047D03*
X0069898Y0063598D03*
X0073835Y0061236D03*
X0076197Y0064386D03*
X0079346Y0062024D03*
X0079346Y0054150D03*
X0065961Y0057299D03*
X0068323Y0041551D03*
X0071472Y0034465D03*
X0080921Y0034465D03*
X0088795Y0039976D03*
X0095882Y0067535D03*
X0102181Y0076197D03*
X0102181Y0084858D03*
X0099819Y0091945D03*
X0091945Y0095882D03*
X0080134Y0092732D03*
X0080134Y0099819D03*
X0069110Y0095882D03*
X0090370Y0080134D03*
X0115567Y0079346D03*
X0123441Y0061236D03*
X0153362Y0081709D03*
X0123441Y0098244D03*
X0099819Y0118717D03*
X0078559Y0152575D03*
X0059661Y0120291D03*
X0039189Y0097457D03*
X0006906Y0080134D03*
X0078559Y0006118D03*
M02*
